<svg xmlns="http://www.w3.org/2000/svg" viewBox="0 0 500 500"><g id="freepik--background-simple--inject-122"><path d="M414.22,118.91c-8.89-15.13-21.33-27.51-37.06-37.61C324.79,47.67,253.61,35.56,192.42,44.7c-43.71,6.52-72.85,36.24-91.5,75-22,45.75-42,91.26-67.1,135.69-28.78,51-41.69,104,20.85,148,54.12,38.08,122,28.2,184,27,20.56-.41,41.27.27,61.5,4.25,40.2,7.91,79.24,36,118.78,9.77,30.05-20,47.75-57.64,56.33-91.78,5.11-20.35,9.13-42.8,7.23-64.39-2.07-23.66-13-41.48-24.21-61.63a359.15,359.15,0,0,1-32.78-80.48A110.36,110.36,0,0,0,414.22,118.91Z" style="fill:#407BFF"></path><path d="M414.22,118.91c-8.89-15.13-21.33-27.51-37.06-37.61C324.79,47.67,253.61,35.56,192.42,44.7c-43.71,6.52-72.85,36.24-91.5,75-22,45.75-42,91.26-67.1,135.69-28.78,51-41.69,104,20.85,148,54.12,38.08,122,28.2,184,27,20.56-.41,41.27.27,61.5,4.25,40.2,7.91,79.24,36,118.78,9.77,30.05-20,47.75-57.64,56.33-91.78,5.11-20.35,9.13-42.8,7.23-64.39-2.07-23.66-13-41.48-24.21-61.63a359.15,359.15,0,0,1-32.78-80.48A110.36,110.36,0,0,0,414.22,118.91Z" style="fill:#fff;opacity:0.7000000000000001"></path></g><g id="freepik--Floor--inject-122"><line x1="21.86" y1="451.28" x2="467.13" y2="451.28" style="fill:none;stroke:#263238;stroke-linecap:round;stroke-miterlimit:10"></line></g><g id="freepik--Picture--inject-122"><rect x="40.66" y="55.16" width="157.83" height="211.59" style="fill:none;stroke:#263238;stroke-linecap:round;stroke-miterlimit:10"></rect><rect x="47.04" y="63.71" width="145.07" height="194.49" style="fill:none;stroke:#263238;stroke-linecap:round;stroke-miterlimit:10"></rect><path d="M47,224.05c10.93-11.48,24.5-31.63,41.07-65.58,26-53.36,52.36-80.75,73.42-94.76H47Z" style="fill:none;stroke:#263238;stroke-linecap:round;stroke-miterlimit:10"></path><path d="M192.11,93.1c-21.15,3.58-58.62,15.15-79.78,52.54-26.84,47.45-18.68,74.1-28.23,112.57h108Z" style="fill:none;stroke:#263238;stroke-linecap:round;stroke-miterlimit:10"></path><circle cx="165.77" cy="142.79" r="20.66" transform="translate(-53.01 144.82) rotate(-41.27)" style="fill:none;stroke:#263238;stroke-linecap:round;stroke-miterlimit:10"></circle><circle cx="70.66" cy="91.14" r="11.76" transform="translate(-34.28 138.97) rotate(-76.72)" style="fill:none;stroke:#263238;stroke-linecap:round;stroke-miterlimit:10"></circle><path d="M64.6,156a3.21,3.21,0,1,1-3.2-3.2A3.21,3.21,0,0,1,64.6,156Z" style="fill:none;stroke:#263238;stroke-linecap:round;stroke-miterlimit:10"></path><path d="M119.46,77.25a5,5,0,1,1-5-5A5,5,0,0,1,119.46,77.25Z" style="fill:none;stroke:#263238;stroke-linecap:round;stroke-miterlimit:10"></path><circle cx="123.02" cy="215.46" r="4.27" style="fill:none;stroke:#263238;stroke-linecap:round;stroke-miterlimit:10"></circle><path d="M192.11,258.21V171.62c-.7.34-1.4.7-2.12,1.1-50.19,27.46-62.3,64-64.78,85.49Z" style="fill:none;stroke:#263238;stroke-linecap:round;stroke-miterlimit:10"></path></g><g id="freepik--Plant--inject-122"><path d="M430.71,263s-14.08-7.82-15.12,9.91-3.65,133-3.65,133" style="fill:none;stroke:#263238;stroke-linecap:round;stroke-miterlimit:10;stroke-width:2px"></path><path d="M408.28,274.42s11.48,25.56,6.27,129.84" style="fill:none;stroke:#263238;stroke-linecap:round;stroke-miterlimit:10;stroke-width:2px"></path><path d="M419.56,266.52s-5.39,3.45-8.45-.5,2.07-11.18-2.46-14.27-12.34,1.63-12.34,1.63,6,1.76,5.83,5.05-3.1,4.53-3.48,3.09-3.26-8.67-8.15-5.66a12.09,12.09,0,0,0-5.63,7.68s11.37-1.22,12.06,3.06-4.66-.74-9.36-1-9,.41-8.67,3.26a37.42,37.42,0,0,1-.44,7.51,14,14,0,0,1,9.14-3.23c5.16.3,5,3.59.27,3.31s-8.72,4.2-8.72,4.2,4.28,7.32,9.72,10.93,7.4,2.32,8-.46-.83-10,2.46-9.75-5.44,12.4-1.24,13.11,7.56-.49,8.67-3.25l1.1-2.76s-1.46-7.16-.82-9.94,1.4.08,2.15,3.42,1.21,11.38,2.65,11,6-6.24,7.1-8.53-6.05-9.31-6-10.72,5.58,1.28,6.44,2.74a37,37,0,0,1,1.68,3.4s3.43-2.16,3.34-8.76S419.56,266.52,419.56,266.52Z" style="fill:#407BFF"></path><path d="M419.56,266.52s-5.39,3.45-8.45-.5,2.07-11.18-2.46-14.27-12.34,1.63-12.34,1.63,6,1.76,5.83,5.05-3.1,4.53-3.48,3.09-3.26-8.67-8.15-5.66a12.09,12.09,0,0,0-5.63,7.68s11.37-1.22,12.06,3.06-4.66-.74-9.36-1-9,.41-8.67,3.26a37.42,37.42,0,0,1-.44,7.51,14,14,0,0,1,9.14-3.23c5.16.3,5,3.59.27,3.31s-8.72,4.2-8.72,4.2,4.28,7.32,9.72,10.93,7.4,2.32,8-.46-.83-10,2.46-9.75-5.44,12.4-1.24,13.11,7.56-.49,8.67-3.25l1.1-2.76s-1.46-7.16-.82-9.94,1.4.08,2.15,3.42,1.21,11.38,2.65,11,6-6.24,7.1-8.53-6.05-9.31-6-10.72,5.58,1.28,6.44,2.74a37,37,0,0,1,1.68,3.4s3.43-2.16,3.34-8.76S419.56,266.52,419.56,266.52Z" style="fill:#263238;opacity:0.30000000000000004"></path><path d="M392.26,282c3.51-4.34,8.68-10.22,13-13" style="fill:none;stroke:#263238;stroke-linecap:round;stroke-miterlimit:10"></path><path d="M388.19,287.28s.9-1.25,2.36-3.13" style="fill:none;stroke:#263238;stroke-linecap:round;stroke-miterlimit:10"></path><path d="M407.57,270.06s5.22,7.37,6.19,15" style="fill:none;stroke:#263238;stroke-linecap:round;stroke-miterlimit:10"></path><path d="M401.66,274.42s1.47-.86.91,8.53" style="fill:none;stroke:#263238;stroke-linecap:round;stroke-miterlimit:10"></path><path d="M405.48,265.69s3-2.65,1.41-7.92" style="fill:none;stroke:#263238;stroke-linecap:round;stroke-miterlimit:10"></path><line x1="401.44" y1="270.17" x2="399.32" y2="266.27" style="fill:none;stroke:#263238;stroke-linecap:round;stroke-miterlimit:10"></line><path d="M397,274.14s-6.76-5.11-11-5.36" style="fill:none;stroke:#263238;stroke-linecap:round;stroke-miterlimit:10"></path><path d="M438.75,252.61s-.21,7.74-6.26,8.12-9.78-9.7-16-7.27-6.79,13.46-6.79,13.46,5.88-4.82,9-2.38,2.43,6.18.73,5.59-10.9-2.65-11.22,4.29a14.68,14.68,0,0,0,3.84,10.88s6.54-12.22,11.3-10-3.93,4.16-7.41,8.67-5.7,9.27-2.65,10.9a44.85,44.85,0,0,1,7.22,5.57s-.83-6.39,3-11.36,7-2.52,3.5,2-1.74,11.59-1.74,11.59,10.24.71,17.57-2.27,7.37-5.83,5-8.37-10.52-5.94-8.08-9.1,8.7,13.9,12.28,10.18,4.66-7.91,2.65-10.9l-2-3s-8.16-3.41-10.52-5.94,1-1.36,4.9.17S459.35,280,460,278.29s-2.15-10.28-3.71-12.92-13.44-.29-14.79-1.33,5.08-4.72,7.12-4.58a43.86,43.86,0,0,1,4.55.63s.18-4.9-6.48-9.31S438.75,252.61,438.75,252.61Z" style="fill:#407BFF"></path><path d="M438.75,252.61s-.21,7.74-6.26,8.12-9.78-9.7-16-7.27-6.79,13.46-6.79,13.46,5.88-4.82,9-2.38,2.43,6.18.73,5.59-10.9-2.65-11.22,4.29a14.68,14.68,0,0,0,3.84,10.88s6.54-12.22,11.3-10-3.93,4.16-7.41,8.67-5.7,9.27-2.65,10.9a44.85,44.85,0,0,1,7.22,5.57s-.83-6.39,3-11.36,7-2.52,3.5,2-1.74,11.59-1.74,11.59,10.24.71,17.57-2.27,7.37-5.83,5-8.37-10.52-5.94-8.08-9.1,8.7,13.9,12.28,10.18,4.66-7.91,2.65-10.9l-2-3s-8.16-3.41-10.52-5.94,1-1.36,4.9.17S459.35,280,460,278.29s-2.15-10.28-3.71-12.92-13.44-.29-14.79-1.33,5.08-4.72,7.12-4.58a43.86,43.86,0,0,1,4.55.63s.18-4.9-6.48-9.31S438.75,252.61,438.75,252.61Z" style="fill:#263238;opacity:0.2"></path><path d="M435.64,290.49c-2-6.47-4.31-15.66-4.16-21.91" style="fill:none;stroke:#263238;stroke-linecap:round;stroke-miterlimit:10"></path><path d="M438.15,298.17s-.64-1.76-1.52-4.5" style="fill:none;stroke:#263238;stroke-linecap:round;stroke-miterlimit:10"></path><path d="M434.12,267s10.94-.2,19.2,4" style="fill:none;stroke:#263238;stroke-linecap:round;stroke-miterlimit:10"></path><path d="M434.46,275.91s.14-2.05,9.16,4.9" style="fill:none;stroke:#263238;stroke-linecap:round;stroke-miterlimit:10"></path><path d="M428.32,266.14s-.62-4.79-7-6.81" style="fill:none;stroke:#263238;stroke-linecap:round;stroke-miterlimit:10"></path><line x1="430.05" y1="273.23" x2="424.7" y2="272.7" style="fill:none;stroke:#263238;stroke-linecap:round;stroke-miterlimit:10"></line><path d="M431,280.42s-9.72,3.29-12.85,7.35" style="fill:none;stroke:#263238;stroke-linecap:round;stroke-miterlimit:10"></path><path d="M373.87,304.15s30.77,20.33,30.25,99.07" style="fill:none;stroke:#263238;stroke-linecap:round;stroke-miterlimit:10;stroke-width:2px"></path><path d="M411.81,298.78s-1,8.91-8,8.77-10.38-12.11-17.74-9.89-9.1,14.9-9.1,14.9,7.23-5,10.65-1.91,2.21,7.37.3,6.52-12.33-4.08-13.35,3.9A17,17,0,0,0,378,334s8.7-13.48,14-10.46S387,328,382.6,332.83s-7.45,10.15-4.08,12.33,7.8,7.1,7.8,7.1-.35-7.45,4.53-12.82,8.3-2.26,3.86,2.62-3.11,13.22-3.11,13.22,11.75,1.78,20.49-1,9.05-6,6.57-9.18-11.57-7.85-8.47-11.27,8.73,16.86,13.22,12.92,6.12-8.7,4.08-12.33l-2-3.64s-9.09-4.71-11.57-7.86,1.33-1.46,5.63.67,13.48,8.7,14.33,6.79-1.51-12.06-3.06-15.26-15.48-1.6-16.94-2.93,6.3-5,8.65-4.61a50.24,50.24,0,0,1,5.19,1.15s.67-5.63-6.6-11.36S411.81,298.78,411.81,298.78Z" style="fill:#407BFF"></path><path d="M411.81,298.78s-1,8.91-8,8.77-10.38-12.11-17.74-9.89-9.1,14.9-9.1,14.9,7.23-5,10.65-1.91,2.21,7.37.3,6.52-12.33-4.08-13.35,3.9A17,17,0,0,0,378,334s8.7-13.48,14-10.46S387,328,382.6,332.83s-7.45,10.15-4.08,12.33,7.8,7.1,7.8,7.1-.35-7.45,4.53-12.82,8.3-2.26,3.86,2.62-3.11,13.22-3.11,13.22,11.75,1.78,20.49-1,9.05-6,6.57-9.18-11.57-7.85-8.47-11.27,8.73,16.86,13.22,12.92,6.12-8.7,4.08-12.33l-2-3.64s-9.09-4.71-11.57-7.86,1.33-1.46,5.63.67,13.48,8.7,14.33,6.79-1.51-12.06-3.06-15.26-15.48-1.6-16.94-2.93,6.3-5,8.65-4.61a50.24,50.24,0,0,1,5.19,1.15s.67-5.63-6.6-11.36S411.81,298.78,411.81,298.78Z" style="fill:#263238;opacity:0.30000000000000004"></path><path d="M404.64,342.19c-1.65-7.65-3.5-18.47-2.73-25.68" style="fill:none;stroke:#263238;stroke-linecap:round;stroke-miterlimit:10"></path><path d="M406.81,351.29s-.57-2.09-1.33-5.34" style="fill:none;stroke:#263238;stroke-linecap:round;stroke-miterlimit:10"></path><path d="M405.1,315s12.64.81,21.78,6.44" style="fill:none;stroke:#263238;stroke-linecap:round;stroke-miterlimit:10"></path><path d="M404.65,325.25s.36-2.35,10.11,6.53" style="fill:none;stroke:#263238;stroke-linecap:round;stroke-miterlimit:10"></path><path d="M398.49,313.41s-.26-5.59-7.4-8.52" style="fill:none;stroke:#263238;stroke-linecap:round;stroke-miterlimit:10"></path><line x1="399.82" y1="321.75" x2="393.7" y2="320.64" style="fill:none;stroke:#263238;stroke-linecap:round;stroke-miterlimit:10"></line><path d="M400.21,330.13s-11.53,2.88-15.52,7.27" style="fill:none;stroke:#263238;stroke-linecap:round;stroke-miterlimit:10"></path><path d="M385.87,366.2s19.81,15.12,21.9,37.54l-4.17-75.09" style="fill:none;stroke:#263238;stroke-linecap:round;stroke-miterlimit:10;stroke-width:2px"></path><path d="M433.84,355.25c-26.07-4.7-26.07,48.49-26.07,48.49" style="fill:none;stroke:#263238;stroke-linecap:round;stroke-miterlimit:10;stroke-width:2px"></path><path d="M410.9,403.22s-15.13-110,28.67-110" style="fill:none;stroke:#263238;stroke-linecap:round;stroke-miterlimit:10;stroke-width:2px"></path><path d="M423.9,352.08c-3.56-4-11.12-4-15.58,6.24s-.44,8.45-.44,8.45,8.46-2.67,13.8-4.45,12.46-6.23,12.91-3.56S431,364.1,426.13,365s-17.81,4.46-16.47,7.13,4.45,10.68,4.45,10.68a113,113,0,0,1,12-8.9c5.79-3.56,9.35-2.23,6.23,1.78s-12,8.46-10.24,13.8,12.47,12,12.47,12,1.33-11.13,4.45-14.69,3.12.44,2.23,6.67a72.72,72.72,0,0,0-.89,8L452.84,406s4.45-6.68,6.68-8.9l2.22-2.23S452,386.36,451.5,381s6.68,0,8.91.89,5.78,7.12,5.78,7.12,2.23-10.24,2.68-13.8l.44-3.56s-9.35-3.56-12.91-3.56-5.34,2.67-5.34-.89,3.56-5.79,7.57-5.34a69,69,0,0,1,10.68,2.67s2.67-2.23,1.78-8.9-3.11-6.68-8.46-4.9-8.9,5.79-12.91,5.79-1.78-4.9.89-6.24,9.35-4,10.69-4.45-7.12-6.67-11.58-7.57-10.21,2.25-9.79,6.68C440.82,354.31,427.47,356.09,423.9,352.08Z" style="fill:#407BFF"></path><path d="M452.56,397.92c.13,1.34.23,2.68.28,4" style="fill:none;stroke:#263238;stroke-linecap:round;stroke-miterlimit:10"></path><path d="M443.62,366A118.47,118.47,0,0,1,452,393.55" style="fill:none;stroke:#263238;stroke-linecap:round;stroke-miterlimit:10"></path><path d="M442,362.39c-2.2-4.74-3.86-7.63-3.86-7.63a13.14,13.14,0,0,0,5.79-5.35,14.82,14.82,0,0,1,4.45-5.34" style="fill:none;stroke:#263238;stroke-linecap:round;stroke-miterlimit:10"></path><path d="M422.57,369.89s16-6.68,16-5.34" style="fill:none;stroke:#263238;stroke-linecap:round;stroke-miterlimit:10"></path><path d="M447.5,361.43s7.12-3.56,13.35-3.56" style="fill:none;stroke:#263238;stroke-linecap:round;stroke-miterlimit:10"></path><path d="M444.83,372.12a61.23,61.23,0,0,0-8.46,8.45,38.48,38.48,0,0,0-6.23,10.24" style="fill:none;stroke:#263238;stroke-linecap:round;stroke-miterlimit:10"></path><path d="M449.72,373.9s9.35-2.67,14.25,1.78" style="fill:none;stroke:#263238;stroke-linecap:round;stroke-miterlimit:10"></path><path d="M466.66,313.75c-4.85-2.87-10.21-2.93-12.84-6s2.53-4.55,5.29-3.41,9.16,4.43,10.37,5.15.37-9.76-1.87-13.7-8.4-6.24-11.47-3c-6.47,6.8-16.57-2.12-15.88-7.43s-4.27-11-14.92-7.68-6.68,5.21-6.68,5.21,7.56,4.63,12.41,7.5,12.88,5.33,11.15,7.41-6.37.82-10.25-2.3-15-10.53-16.18-7.77-5.15,10.37-5.15,10.37a112.73,112.73,0,0,1,14.61,3.24c6.48,2,7.81,5.6,2.74,5.87s-14.27-3.53-17.13,1.32-.91,17.29-.91,17.29,9.28-6.29,14-6.27,1.71,2.64-3.58,6.06a72.65,72.65,0,0,0-6.64,4.58l4.81,12.33s8-1,11.1-.8l3.14.23s0-12.94,3.71-16.78,4.38,5,5.17,7.3-1.59,9-1.59,9,9.19-5,12.17-7l3-2s-3.44-9.4-5.78-12.09-5.52-2.28-2.83-4.61,6.71-1.11,9,2.21a69.31,69.31,0,0,1,5,9.82s3.44.55,7.89-4.5S471.5,316.61,466.66,313.75ZM424.53,328c-3.56-1.78,4.9-5.35,4.9-5.35C432.54,322.21,428.09,329.78,424.53,328Zm6-16.62c-1.52-.76,3-2.28,3-2.28C440.14,310.37,432,312.14,430.53,311.38Z" style="fill:#407BFF"></path><path d="M424.43,337.06c-.92,1-1.87,1.94-2.85,2.85" style="fill:none;stroke:#263238;stroke-linecap:round;stroke-miterlimit:10"></path><path d="M442.7,309.36a117.83,117.83,0,0,1-15.33,24.41" style="fill:none;stroke:#263238;stroke-linecap:round;stroke-miterlimit:10"></path><path d="M444.35,305.81c2.14-4.78,3.23-7.92,3.23-7.92a13.2,13.2,0,0,0,7.83.86,14.81,14.81,0,0,1,6.95-.14" style="fill:none;stroke:#263238;stroke-linecap:round;stroke-miterlimit:10"></path><path d="M425.94,296s15.55,7.73,14.54,8.6" style="fill:none;stroke:#263238;stroke-linecap:round;stroke-miterlimit:10"></path><path d="M448.67,309.32s7.36,3.05,11.44,7.75" style="fill:none;stroke:#263238;stroke-linecap:round;stroke-miterlimit:10"></path><path d="M438.85,314.31a61.8,61.8,0,0,0-11.93-.84,38.41,38.41,0,0,0-11.82,2" style="fill:none;stroke:#263238;stroke-linecap:round;stroke-miterlimit:10"></path><path d="M440.71,319.17s8.15,5.31,8,11.93" style="fill:none;stroke:#263238;stroke-linecap:round;stroke-miterlimit:10"></path><path d="M397.48,375.43c-3.9-2.31-8.21-2.36-10.32-4.79s2-3.67,4.25-2.75,7.37,3.57,8.35,4.15.3-7.86-1.51-11-6.76-5-9.23-2.43c-5.21,5.47-13.33-1.7-12.78-6s-3.44-8.88-12-6.18-5.37,4.19-5.37,4.19,6.08,3.73,10,6,10.37,4.28,9,6-5.13.66-8.25-1.85-12.1-8.47-13-6.25-4.14,8.34-4.14,8.34a91.19,91.19,0,0,1,11.75,2.61c5.22,1.64,6.28,4.51,2.21,4.73s-11.49-2.85-13.79,1.05-.73,13.92-.73,13.92,7.47-5.06,11.28-5,1.37,2.12-2.89,4.87a58,58,0,0,0-5.34,3.69l3.87,9.92a71.13,71.13,0,0,1,8.94-.64l2.52.18s0-10.41,3-13.5,3.52,4.05,4.15,5.88-1.27,7.27-1.27,7.27,7.39-4.05,9.79-5.66l2.4-1.6s-2.76-7.56-4.64-9.73-4.45-1.84-2.28-3.71,5.39-.89,7.24,1.78a56.15,56.15,0,0,1,4,7.9s2.76.45,6.35-3.62S401.38,377.74,397.48,375.43Zm-33.9,11.47c-2.86-1.44,3.94-4.3,3.94-4.3C370,382.24,366.45,388.33,363.58,386.9Zm4.83-13.38c-1.22-.61,2.44-1.83,2.44-1.83C376.15,372.71,369.63,374.13,368.41,373.52Z" style="fill:#407BFF"></path><path d="M363.51,394.19c-.75.79-1.52,1.56-2.3,2.3" style="fill:none;stroke:#263238;stroke-linecap:round;stroke-miterlimit:10"></path><path d="M378.21,371.9a95.1,95.1,0,0,1-12.34,19.65" style="fill:none;stroke:#263238;stroke-linecap:round;stroke-miterlimit:10"></path><path d="M379.53,369c1.72-3.84,2.6-6.37,2.6-6.37a10.61,10.61,0,0,0,6.3.69,12,12,0,0,1,5.6-.11" style="fill:none;stroke:#263238;stroke-linecap:round;stroke-miterlimit:10"></path><path d="M364.72,361.18s12.51,6.22,11.7,6.92" style="fill:none;stroke:#263238;stroke-linecap:round;stroke-miterlimit:10"></path><path d="M383,371.87s5.92,2.45,9.21,6.24" style="fill:none;stroke:#263238;stroke-linecap:round;stroke-miterlimit:10"></path><path d="M375.11,375.88a49.85,49.85,0,0,0-9.61-.68,31,31,0,0,0-9.51,1.62" style="fill:none;stroke:#263238;stroke-linecap:round;stroke-miterlimit:10"></path><path d="M376.61,379.8s6.55,4.27,6.43,9.59" style="fill:none;stroke:#263238;stroke-linecap:round;stroke-miterlimit:10"></path><path d="M381.58,301.92s-4.9,3.56-8,0,1.33-10.68-3.12-13.35-11.57,2.22-11.57,2.22,5.78,1.34,5.78,4.45-2.67,4.45-3.11,3.12-3.56-8-8-4.9a11.44,11.44,0,0,0-4.9,7.57s10.68-1.78,11.57,2.23-4.45-.45-8.9-.45-8.46.89-8,3.56a35.46,35.46,0,0,1,0,7.12,13.23,13.23,0,0,1,8.46-3.56c4.89,0,4.89,3.12.44,3.12s-8,4.45-8,4.45,4.45,6.68,9.79,9.79,7.12,1.79,7.57-.89-1.34-9.34,1.78-9.34-4.45,12-.45,12.46,7.13-.89,8-3.56l.89-2.67s-1.78-6.68-1.34-9.35,1.34,0,2.23,3.12,1.78,10.68,3.11,10.23,5.35-6.23,6.24-8.45-6.24-8.46-6.24-9.8,5.35.89,6.24,2.23a33.57,33.57,0,0,1,1.78,3.12s3.11-2.23,2.67-8.46S381.58,301.92,381.58,301.92Z" style="fill:#407BFF"></path><path d="M356.64,318.07c3.08-4.3,7.64-10.14,11.59-13" style="fill:none;stroke:#263238;stroke-linecap:round;stroke-miterlimit:10"></path><path d="M353.09,323.29s.78-1.24,2.06-3.09" style="fill:none;stroke:#263238;stroke-linecap:round;stroke-miterlimit:10"></path><path d="M370.45,305.93s5.34,6.67,6.68,13.8" style="fill:none;stroke:#263238;stroke-linecap:round;stroke-miterlimit:10"></path><path d="M365.11,310.38s1.34-.89,1.34,8" style="fill:none;stroke:#263238;stroke-linecap:round;stroke-miterlimit:10"></path><path d="M368.23,301.92s2.67-2.67.89-7.57" style="fill:none;stroke:#263238;stroke-linecap:round;stroke-miterlimit:10"></path><line x1="364.66" y1="306.37" x2="362.44" y2="302.81" style="fill:none;stroke:#263238;stroke-linecap:round;stroke-miterlimit:10"></line><path d="M360.66,310.38S354,305.93,350,305.93" style="fill:none;stroke:#263238;stroke-linecap:round;stroke-miterlimit:10"></path><rect x="392.12" y="401.65" width="34.41" height="49.54" style="fill:#263238;stroke:#263238;stroke-linecap:round;stroke-miterlimit:10;stroke-width:2px"></rect></g><g id="freepik--Lamp--inject-122"><path d="M413.39,72.26h-7.53V64.43H391.61v7.83h-7.54a11,11,0,0,0-11,11v18.94h51.3V83.25A11,11,0,0,0,413.39,72.26Z" style="fill:none;stroke:#263238;stroke-linecap:round;stroke-miterlimit:10"></path><line x1="398.73" y1="63.71" x2="398.73" y2="30.23" style="fill:none;stroke:#263238;stroke-linecap:round;stroke-miterlimit:10"></line></g><g id="freepik--character-2--inject-122"><path d="M302,147.51s-2.73,4.46-2.58,6,1.43,6.32-2.45,13.51c-2.05,3.79-4.17,10.21-6.61,10.35-4.47.26-6.18-.58-6.18-.58s-.86,1.3-1.3,5.75c0,0-7.76-2.3-11.64-4.45s-9.49-7.48-9.49-7.48a30.49,30.49,0,0,1,1-17.1c3.31-8.63,19.69-20.42,27.89-21s8,.43,10.49,3.45S302,147.51,302,147.51Z" style="fill:#fff;stroke:#263238;stroke-linecap:round;stroke-miterlimit:10"></path><path d="M266,160.68s-.31,3.55,3.55,2.78a12.79,12.79,0,0,0,2,4.47" style="fill:none;stroke:#263238;stroke-linecap:round;stroke-miterlimit:10"></path><path d="M284.19,176.83l-7.62-3.16,2.3,7.62,4,1.29S283,178.27,284.19,176.83Z" style="fill:#263238;stroke:#263238;stroke-linecap:round;stroke-miterlimit:10"></path><polygon points="270.1 177.84 287.49 183.73 287.78 189.05 262.05 180.43 270.1 177.84" style="fill:#fff;stroke:#263238;stroke-linecap:round;stroke-miterlimit:10"></polygon><path d="M296.41,136.15s-5.18-1.72-12.22,5.32-17.54,17.83-17.54,17.83-2.16,5.46,1.15,8.77,6.33,1.86,6.33,1.86.28,7.34-5.32,10.93-17.4,0-21.13-4.31,2.3-14.09,3.88-17.4a14.55,14.55,0,0,0,1.58-4.31c.14-.43-.72-6,1-11.07s9.49-18,16.54-21.85,21.7,2.45,26.3,5.47,9.06,4.31,9.63,8.76-4.6,11.36-4.6,11.36a11.26,11.26,0,0,0-1.58-6.76A21.27,21.27,0,0,0,296.41,136.15Z" style="fill:#263238;stroke:#263238;stroke-linecap:round;stroke-miterlimit:10"></path><path d="M296.41,136.15s-6.47-8.76-16.25-10.63" style="fill:none;stroke:#6b6b6b;stroke-linecap:round;stroke-miterlimit:10"></path><path d="M254.86,153.12s5.47-7.77,7.05-12.37" style="fill:none;stroke:#6b6b6b;stroke-linecap:round;stroke-miterlimit:10"></path><path d="M264.64,160.88s-5,7.62-3.88,13.8" style="fill:none;stroke:#6b6b6b;stroke-linecap:round;stroke-miterlimit:10"></path><path d="M297.56,147.65s-3.88,2.45-3.88,3.45,1.15,8.05.14,9.2-4.74-.43-5.18-.57" style="fill:none;stroke:#263238;stroke-linecap:round;stroke-miterlimit:10"></path><path d="M293.24,165.77s-4.16,1.15-7.33-1.44" style="fill:none;stroke:#263238;stroke-linecap:round;stroke-miterlimit:10"></path><path d="M289.36,146.22s-2.15-2.45-8.62-1.15" style="fill:none;stroke:#263238;stroke-linecap:round;stroke-miterlimit:10;stroke-width:2px"></path><path d="M298.56,147.94a2.62,2.62,0,0,1,2.3,1.15" style="fill:none;stroke:#263238;stroke-linecap:round;stroke-miterlimit:10;stroke-width:2px"></path><path d="M284.69,150.53a1.23,1.23,0,1,1-1.22-1.37A1.3,1.3,0,0,1,284.69,150.53Z" style="fill:#263238"></path><path d="M296.77,152.11a1.23,1.23,0,1,1-1.23-1.37A1.31,1.31,0,0,1,296.77,152.11Z" style="fill:#263238"></path><path d="M282.25,150.53s.79-2.45,4.53-.43" style="fill:none;stroke:#263238;stroke-linecap:round;stroke-miterlimit:10"></path><path d="M295.54,150.74a4.74,4.74,0,0,1,3,1.37" style="fill:none;stroke:#263238;stroke-linecap:round;stroke-miterlimit:10"></path><path d="M297.13,311.67s4.16,21.42,6.61,36.66,3.3,17.25,2,20.26-18.26,35.51-18.26,35.51L272,438.31a14.89,14.89,0,0,1-7.62-.86c-4-1.58-10.78-3.88-10.78-3.88s.86-5.18,2.3-6a23.54,23.54,0,0,0,2.59-1.44c.43-.43,9.05-21,9.05-21L280.74,364l-15.53-55.63S289.08,313.54,297.13,311.67Z" style="fill:#263238;stroke:#263238;stroke-linecap:round;stroke-miterlimit:10"></path><path d="M253.57,433.57a24.88,24.88,0,0,0-1.29,4.89,21.42,21.42,0,0,1-1.59,5.75l-.57,1.29,2.87,1.58s3.17-5.32,3.31-5.75,2.16-.57,4.89,3.31,2.3,7,2.3,7,9.63,3.88,15.38,4.6,7.33.29,7.33.29a2.55,2.55,0,0,0-.86-3.88c-2.59-1.73-8.77-7.48-9.63-8.2s-3.88-8.05-3.88-8.05Z" style="fill:#263238;stroke:#263238;stroke-linecap:round;stroke-miterlimit:10"></path><path d="M289.34,440.56A131.5,131.5,0,0,0,303,449.63c5.58,2.95,10,3.94,10.2,5.11s-1,2.53-1.63,2.92-24.75-.41-27.29-1.14-6.93-4.33-8-5l-1.11-.64-.37,5.74-3.73-.24s.18-5-1.13-7.13a8,8,0,0,1-1.14-7.13c.8-3.41,7.31-4,10.65-4.37S289.34,440.56,289.34,440.56Z" style="fill:#fff;stroke:#263238;stroke-linecap:round;stroke-miterlimit:10"></path><path d="M303,449.63c-2-1.07-4.38-2.56-6.56-4l-1.86,5.07s-5.2.25-17.58-6.72a21.73,21.73,0,0,0-7.74-2.89,3.27,3.27,0,0,0-.5,1.07,8,8,0,0,0,1.14,7.13c1.31,2.1,1.13,7.13,1.13,7.13l3.73.24-.14-5.7a37.56,37.56,0,0,1,5.09,1.63c5.59,3.05,3.92,3.21,6.47,3.95s24.79,1.54,25.39,1.14,1.84-1.75,1.63-2.92S308.6,452.58,303,449.63Z" style="fill:#707070;stroke:#263238;stroke-linecap:round;stroke-miterlimit:10"></path><path d="M248,299.45s7.19,18.83,8.63,22,3.59,13.23,3.59,13.23,6.9,31.34,7.19,33.49S263.2,378.8,262.63,390s3.88,24.87,4.74,29.9,1.87,15.24,1.58,16.25a14.44,14.44,0,0,0-.57,4.74,30.43,30.43,0,0,0,.43,3.16s5.17.86,12.65-1.44,9.77-2.73,9.77-2.73a6.21,6.21,0,0,0,.43-3.45c-.43-1.43-1.58-2.58-1.72-4s-.15-32.63-.15-32.63,3-22.71,4.89-28.9,4.75-23.14,4.75-23.14l-2-38.24s-24.87-2.15-35.65-5.75S248,299.45,248,299.45Z" style="fill:#263238;stroke:#263238;stroke-linecap:round;stroke-miterlimit:10"></path><path d="M288.21,187s-21.7-6.76-24.72-7.19-10.64,3.31-11.07,5-3,25-.29,36.52S260,243,260.47,245.55s-5.18,16.67-8.63,25.44-7.76,18-8.62,22.42l-.86,4.46s17.53,14.95,40.1,14.81,29.61-.43,29.61-.43,3.45-29.9.44-38.82-7.91-24.58-7.91-24.58-8.34-40.39-10.35-47.87A58.88,58.88,0,0,0,288.21,187Z" style="fill:#407BFF;stroke:#263238;stroke-linecap:round;stroke-miterlimit:10"></path><path d="M267.4,226.37a12.9,12.9,0,0,1-2.91-1.52" style="fill:none;stroke:#263238;stroke-linecap:round;stroke-miterlimit:10"></path><path d="M283.18,228.3a54,54,0,0,1-11.89-.82" style="fill:none;stroke:#263238;stroke-linecap:round;stroke-miterlimit:10"></path><path d="M269.72,253.21c-.75.88-1.49,1.73-2.21,2.54" style="fill:none;stroke:#263238;stroke-linecap:round;stroke-miterlimit:10"></path><path d="M285.48,233.61s-6.89,9-13.56,17" style="fill:none;stroke:#263238;stroke-linecap:round;stroke-miterlimit:10"></path><path d="M290.66,238.65s-.15.71-5.9,3.73-6.47,4.17-5.6,4.6,2.3.29,4.74-.57,6-2.59,6-2.59-.15.58-4.75,3.16-6.61,3.45-5.31,4,4.16.29,6.9-1.15l3.33-1.77,3.71-2s.14,2-3.16,3.59-6.47,3.17-4.75,3.89,3.45-.15,6.9-1.59a18.54,18.54,0,0,0,5-2.87s-2.58,4.17-5,5.17.87,1.87,3.6.44a22.88,22.88,0,0,0,4.88-3.6Z" style="fill:#fff;stroke:#263238;stroke-linecap:round;stroke-miterlimit:10"></path><path d="M268.81,187.18s13.8-4.16,19-5.46,6.47-.29,10.06,10.06,11.79,32.06,17.68,38.82,6.47,11.21,4.32,17.25-6.18,10.63-9.78,11.06-6.47.29-8.33-2.3-1.15-3.59-2.74-6-3.3-3.6-6.75-7.19-6-9.92-10.78-18a81.25,81.25,0,0,0-11.93-14.95" style="fill:#407BFF;stroke:#263238;stroke-linecap:round;stroke-miterlimit:10"></path><path d="M309.3,254.27a3.86,3.86,0,0,0,1.48-.67c3.74-2.74,9.2-9.64,8.34-14.52" style="fill:none;stroke:#263238;stroke-linecap:round;stroke-miterlimit:10"></path><path d="M301.29,251.15a15.5,15.5,0,0,0,5,2.91" style="fill:none;stroke:#263238;stroke-linecap:round;stroke-miterlimit:10"></path></g><g id="freepik--character-1--inject-122"><path d="M167.76,212.63l6.76-2.45s3.16-2.87,3.59-3.16,5.75-1,5.9-2.15,4.6-4.32,4.6-4.32l-1.15,14.81-22,.86S166.61,214.5,167.76,212.63Z" style="fill:#407BFF;stroke:#263238;stroke-linecap:round;stroke-miterlimit:10"></path><path d="M176.24,213.35a14,14,0,0,1-1.72-3.17c-.29-1.15.57-1.86,1.72-1.58s3.17,3.45,3.17,3.45l-1-3.73c-.43-1.59.57-2.74,1.87-1.87s3.3,6.18,3.3,6.18-1.72-6-1.29-6.9.86-1.73,1.73-.86a17.64,17.64,0,0,1,2.73,5.46,26.57,26.57,0,0,0,.86,3.59L178,215.5Z" style="fill:#fff;stroke:#263238;stroke-linecap:round;stroke-miterlimit:10"></path><path d="M199.82,183.59s-13.08,13.08-13.37,15.24-3.31,36.94-4.89,42-5.6,21-5.6,21-6,37.66-5.47,37.81,9.2,1.29,9.2,1.29l3.88-42.84,10.79-62.53,8.48-12.36A3.52,3.52,0,0,0,199.82,183.59Z" style="fill:#407BFF;stroke:#263238;stroke-linecap:round;stroke-miterlimit:10"></path><path d="M179.55,263.23s-1.87,30.47-1.58,35.93,3.88,36.23,3.88,36.23,1.29,35.36,5.61,44.56,19.4,33.21,21.27,36.08,4.74,10.21,4.74,10.21-3.3,3.45-2.3,5.6,2.74,5.47,2.74,5.47-6.76,6-11.22,8.62-9.92,5.75-9.77,6.61.86,1.15,2.15,1.44,41,0,41,0l-.72-26.59-8.48-27-16-46.72,1.29-56.49-1.44-35.5Z" style="fill:#263238;stroke:#263238;stroke-linecap:round;stroke-miterlimit:10"></path><path d="M215.92,439.89s-9.78,7.05-10.21,7.33-12.22,6-13.8,6.47-2.73.72-2.59,1.87-.57.86.15,1.15,16.1.43,24.29.43,11.21-.86,11.21-.86l3.17-1.58,1.15-.29v2.3h12.65s.28-3.45.28-4.31v-.86a23.91,23.91,0,0,0-1.72-5.32l-1.58-3.16Z" style="fill:#707070;stroke:#263238;stroke-linecap:round;stroke-miterlimit:10"></path><path d="M193.64,308.22s4.31,49.31,7,56.35,5.89,17.68,5.89,17.68,9.92,33.92,10.35,38.09,1.15,5.75.29,6.47-1.15,3.16-.72,4.75a25.07,25.07,0,0,1,.58,4,1.68,1.68,0,0,0-1.15,1.73v2.58a89.19,89.19,0,0,0,15.23,5.18c9.2,2.3,9.35,1.15,9.35,1.15s1.72-10.06,1-14.81-1.43-12.94-1.15-15.52,2.59-17,1.87-21.85a43.22,43.22,0,0,0-2.44-9.06s-7.19-29.61-7.19-30.19.43-13.94.43-13.94,1-22.14,1-22.57,1.73-7.62,2.44-10.49,1-3.74,1-3.74Z" style="fill:#263238;stroke:#263238;stroke-linecap:round;stroke-miterlimit:10"></path><path d="M207.29,175.54s-16.53,17.25-17.82,22.57-6.33,48-7.48,53-5.6,10.93-1.29,13.66,6.9,2.44,6.9,2.44,9.2-55.34,13.8-64.68,20.84-28.47,19.26-30.48S212.18,173.24,207.29,175.54Z" style="fill:#707070;stroke:#263238;stroke-linecap:round;stroke-miterlimit:10"></path><path d="M214.34,163.61l-8.63,6.32s-1.87,10.09-.57,9.49l1.87-.86v2.87l6.18-8.91Z" style="fill:#707070;stroke:#263238;stroke-linecap:round;stroke-miterlimit:10"></path><line x1="207.01" y1="178.56" x2="206.57" y2="170.94" style="fill:#707070;stroke:#263238;stroke-linecap:round;stroke-miterlimit:10"></line><path d="M212.47,173.67S200,191.07,195.65,204s-10.93,74.32-10.93,74.32l-.43,30.19s11.65,8.19,30.05,5a297.76,297.76,0,0,0,32.2-7.33s-3.6-40.4-4.46-43.41-2.73-13.37-2.73-13.37,17.1-46.29,16.39-57.79-10.79-24.72-14.38-29a59.14,59.14,0,0,0-4.74-5.32Z" style="fill:#407BFF;stroke:#263238;stroke-linecap:round;stroke-miterlimit:10"></path><path d="M209.59,104.82s-4.74-2-4.6,5.46,5.32,6.76,5.32,6.76l5.32-8.2Z" style="fill:#263238;stroke:#263238;stroke-linecap:round;stroke-miterlimit:10"></path><path d="M211.61,109.85s-5.47,9.77-6.19,11.64-.86,7.62-1.43,12.36-1,10.07.28,15.24a15,15,0,0,0,2.44,5.46c1.38,1.8,3.7,2.06,5.9,2.11q-.08,8.51-.14,17L236,155.85l.43-9.78a29.74,29.74,0,0,0,6.47-8.77c3-5.89,6.33-13.22.72-24.29s-30.19-13.37-33.49-12.36S211.61,109.85,211.61,109.85Z" style="fill:#fff;stroke:#263238;stroke-linecap:round;stroke-miterlimit:10"></path><path d="M243.66,113c-5.61-11.07-30.19-13.37-33.49-12.36s1.44,9.2,1.44,9.2,8.19,7.76,15.81,9.92,8.48,2.3,8.48,2.3-4.31,1.87-2.88,3.16,2.74,2.59,2.74,2.59l-4.17,13.8,4-.29s1.15-8.2,4.46-8.34,2.3,4.17,1.72,5.46c-.07.17.11.19.49.09.22-.4.44-.81.66-1.24C246,131.41,249.27,124.08,243.66,113Z" style="fill:#263238;stroke:#263238;stroke-linecap:round;stroke-miterlimit:10"></path><polyline points="213.91 124.8 214.05 128.53 210.6 138.45 216.06 139.46" style="fill:none;stroke:#263238;stroke-linecap:round;stroke-miterlimit:10"></polyline><path d="M210,144.06s7.19,2.59,12.22-2.59" style="fill:none;stroke:#263238;stroke-linecap:round;stroke-miterlimit:10"></path><line x1="220.37" y1="140.47" x2="223.82" y2="142.48" style="fill:none;stroke:#263238;stroke-linecap:round;stroke-miterlimit:10"></line><path d="M220.37,123.79s5.32-1.15,8.2,1.44" style="fill:none;stroke:#263238;stroke-linecap:round;stroke-miterlimit:10;stroke-width:2px"></path><path d="M213.19,122.93a5.91,5.91,0,0,0-6.18-1.15" style="fill:none;stroke:#263238;stroke-linecap:round;stroke-miterlimit:10;stroke-width:2px"></path><path d="M225.84,130.69a1.44,1.44,0,1,1-1.44-1.44A1.44,1.44,0,0,1,225.84,130.69Z" style="fill:#263238"></path><path d="M212.61,128.1a1.44,1.44,0,1,1-1.44-1.44A1.43,1.43,0,0,1,212.61,128.1Z" style="fill:#263238"></path><path d="M212.61,156.66a50.21,50.21,0,0,0,15.81-5.84s-6.18,9.2-15.23,12.79Z" style="fill:#263238;stroke:#263238;stroke-linecap:round;stroke-miterlimit:10"></path><polygon points="236.62 153.12 210.6 169.65 212.18 177.12 238.63 157.72 236.62 153.12" style="fill:#707070;stroke:#263238;stroke-linecap:round;stroke-miterlimit:10"></polygon><path d="M197.23,228.3s.43-7.33.86-10.64a15,15,0,0,1,2.59-6.18l-21.56,1.58s-9.63-1.29-12.65.72-3.6,5-5.46,8.77-2.16,8.48-.72,10.63,6.18,4.32,11.78,6,8.05-.29,10.5-1.87S197.23,228.3,197.23,228.3Z" style="fill:#407BFF;stroke:#263238;stroke-linecap:round;stroke-miterlimit:10"></path><path d="M200.68,211.48l3.74-.58s-3.74,5.75-3.88,8.63a25.64,25.64,0,0,0,.57,6l-3.88,2.74s-.86-9.35-.14-12.65A5.64,5.64,0,0,1,200.68,211.48Z" style="fill:#fff;stroke:#263238;stroke-linecap:round;stroke-miterlimit:10"></path><path d="M204.42,210.9a5.34,5.34,0,0,1,4.31-.14c2,1,7,3.45,7,3.45l-2.44,11.21s-5.32,1.87-8.19,1.87a4.8,4.8,0,0,1-4-1.73,18.66,18.66,0,0,0-.57-6C199.67,216.22,204.42,210.9,204.42,210.9Z" style="fill:#fff;stroke:#263238;stroke-linecap:round;stroke-miterlimit:10"></path><path d="M224.83,181.43s-8.34,13.09-8.19,16.1a10.74,10.74,0,0,0,.86,4.32l-6.33,14.37s-2.44.29-2.44,2.3a7.12,7.12,0,0,1-.43,2.88s-6.18,3.88-10.35,5.17a60.34,60.34,0,0,0-17.11,8.77c-5.32,4.17-9.05,9.63-6.61,10.92s8.63.58,9.49.44,25.59,2.73,31.19.86,3.6,1,9.2-2,6.18-6,6.18-6,2-.72,9.92-15.53,10.64-24.72,10.93-32.91" style="fill:#407BFF;stroke:#263238;stroke-linecap:round;stroke-miterlimit:10"></path><path d="M229.5,197.37a11.62,11.62,0,0,0-2.08,2.9" style="fill:none;stroke:#263238;stroke-linecap:round;stroke-miterlimit:10"></path><path d="M246,184.74a126.19,126.19,0,0,0-13.74,10" style="fill:none;stroke:#263238;stroke-linecap:round;stroke-miterlimit:10"></path><path d="M216,243a13.65,13.65,0,0,0,3.34,1.58" style="fill:none;stroke:#263238;stroke-linecap:round;stroke-miterlimit:10"></path><path d="M202.12,229.88a90.43,90.43,0,0,0,11,11" style="fill:none;stroke:#263238;stroke-linecap:round;stroke-miterlimit:10"></path><path d="M200,231.46s6.9,7.47,8.77,9" style="fill:none;stroke:#263238;stroke-linecap:round;stroke-miterlimit:10"></path><path d="M208.3,221.4s3.16.14,9.92-3.88" style="fill:none;stroke:#263238;stroke-linecap:round;stroke-miterlimit:10"></path></g></svg>