<svg id="Layer_1" data-name="Layer 1" xmlns="http://www.w3.org/2000/svg" xmlns:xlink="http://www.w3.org/1999/xlink" viewBox="0 0 1200 675"><defs><style>.cls-1{fill:url(#linear-gradient);}.cls-2,.cls-3{font-size:27.19px;}.cls-2,.cls-3,.cls-4{fill:#fff;}.cls-2{font-family:OpenSans-Light, Open Sans;font-weight:300;}.cls-3{font-family:OpenSans-Bold, Open Sans;font-weight:700;}.cls-5,.cls-6{fill:none;}.cls-5{stroke:#fff;stroke-miterlimit:10;stroke-width:1.51px;}</style><linearGradient id="linear-gradient" x1="131.25" y1="-131.25" x2="1068.75" y2="806.25" gradientUnits="userSpaceOnUse"><stop offset="0" stop-color="#3b82f6"/><stop offset="0.53" stop-color="#1d4ed8"/><stop offset="1" stop-color="#1e40af"/></linearGradient></defs><rect class="cls-1" width="1200" height="675"/><text class="cls-2" transform="translate(684.22 632.89)">Ομογενείς στην πρώην Σοβιετική Ένωση</text><text class="cls-3" transform="translate(45.44 190.95)">Ανοιχτή Επιστολή</text><path class="cls-4" d="M66.57,289.39l-2.1-8H50.55l-2.17,8H35.67l14-43H65.08l14.15,43Zm-4.51-17.52-1.84-7q-.64-2.34-1.57-6.07c-.62-2.48-1-4.25-1.22-5.33-.17,1-.52,2.64-1,4.92s-1.66,6.79-3.44,13.51Z"/><path class="cls-4" d="M94.58,256.2V278c0,2,1.15,3,3.43,3a13.45,13.45,0,0,0,3-.31,24.09,24.09,0,0,0,3.13-.95v8.41a20.89,20.89,0,0,1-9,1.85c-4.1,0-7.12-1-9-2.89s-2.9-4.78-2.9-8.57V256.2Zm-8.64-4.13q.59-2,1.26-5.26c.45-2.18.76-3.88.94-5.12H98.22v.77A95.89,95.89,0,0,1,92.53,253H85.94Z"/><path class="cls-4" d="M125.37,264.72v13.1a3.3,3.3,0,0,0,.77,2.34,2.78,2.78,0,0,0,2.16.82,16.6,16.6,0,0,0,5.66-1.26v8.35a20.06,20.06,0,0,1-8.94,1.85c-4,0-6.83-.93-8.54-2.77s-2.56-4.74-2.56-8.69V264.72H106v-4.86l5.68-3.66h23.47v8.52Z"/><path class="cls-4" d="M162,303.8V270.49c0-3.92-1.34-5.89-4-5.89a4.45,4.45,0,0,0-4.19,2.32q-1.29,2.31-1.29,7.94v14.53H141V256.2h8.64l1.44,4.1h.67a9.11,9.11,0,0,1,4.06-3.52,14.34,14.34,0,0,1,6-1.17c3.67,0,6.53,1.07,8.57,3.19s3.06,5.13,3.06,9v36Z"/><path class="cls-4" d="M192.67,274.21a10.22,10.22,0,0,0,1,5,3.5,3.5,0,0,0,3.3,1.67,4.11,4.11,0,0,0,3.94-2.43q1.22-2.43,1.21-7.76V256.2h11.52v33.19H205l-1.55-4.45H203a8.32,8.32,0,0,1-2.65,3.81,5.89,5.89,0,0,1-3.59,1.23,5.21,5.21,0,0,1-2.64-.59,5.62,5.62,0,0,1-1.81-1.85,55.18,55.18,0,0,1,.35,6.89v9.37H181.21V256.2h11.46Z"/><path class="cls-4" d="M232.69,290a10.86,10.86,0,0,1-9.26-4.53q-3.35-4.53-3.34-12.5,0-8.19,3.53-12.71a11.8,11.8,0,0,1,9.86-4.51,11.46,11.46,0,0,1,5.57,1.2,9.11,9.11,0,0,1,3.54,3.72h.47a11.63,11.63,0,0,1,2.05-4.45h9.61a39.37,39.37,0,0,0-1.8,6.76,39.83,39.83,0,0,0-.66,7v7.5q0,3.54,2.4,3.54a5.06,5.06,0,0,0,1.73-.29v8.52a6.4,6.4,0,0,1-2.1.53,18.23,18.23,0,0,1-2.47.24,12,12,0,0,1-5.82-1.15,8.22,8.22,0,0,1-3.29-3.75H242A10.45,10.45,0,0,1,232.69,290Zm3.89-8.88a4.35,4.35,0,0,0,3.83-1.74c.81-1.17,1.23-3.22,1.27-6.17v-.29q0-4.36-1.26-6.33a4.36,4.36,0,0,0-3.95-2,3.84,3.84,0,0,0-3.55,2.17,13.13,13.13,0,0,0-1.2,6.24Q231.72,281.09,236.58,281.1Z"/><path class="cls-4" d="M309.12,272.72q0,8.14-4.38,12.7T292.48,290q-7.56,0-12-4.66T276,272.72q0-8.12,4.38-12.61t12.29-4.5a17.48,17.48,0,0,1,8.64,2.08,14.23,14.23,0,0,1,5.79,6A19.35,19.35,0,0,1,309.12,272.72Zm-21.5,0a14.8,14.8,0,0,0,1.14,6.52,4,4,0,0,0,3.84,2.24,3.85,3.85,0,0,0,3.76-2.24,15.17,15.17,0,0,0,1.1-6.52,14.57,14.57,0,0,0-1.11-6.42,4.42,4.42,0,0,0-7.59,0A14.19,14.19,0,0,0,287.62,272.72Z"/><path class="cls-4" d="M327.11,274.21a10.22,10.22,0,0,0,1,5,3.52,3.52,0,0,0,3.3,1.67,4.1,4.1,0,0,0,3.94-2.43q1.21-2.43,1.22-7.76V256.2h11.51v33.19h-8.58l-1.56-4.45h-.47a8.25,8.25,0,0,1-2.65,3.81,5.89,5.89,0,0,1-3.59,1.23,5.15,5.15,0,0,1-2.63-.59,5.65,5.65,0,0,1-1.82-1.85,55.18,55.18,0,0,1,.35,6.89v9.37H315.66V256.2h11.45Z"/><path class="cls-4" d="M387.67,272.72q0,8.14-4.38,12.7T371,290q-7.56,0-12-4.66t-4.47-12.6q0-8.12,4.38-12.61t12.29-4.5a17.49,17.49,0,0,1,8.65,2.08,14.2,14.2,0,0,1,5.78,6A19.23,19.23,0,0,1,387.67,272.72Zm-21.51,0a14.78,14.78,0,0,0,1.15,6.52,4,4,0,0,0,3.84,2.24,3.86,3.86,0,0,0,3.76-2.24,15.32,15.32,0,0,0,1.1-6.52,14.57,14.57,0,0,0-1.11-6.42,4.42,4.42,0,0,0-7.59,0A14.17,14.17,0,0,0,366.16,272.72Z"/><path class="cls-4" d="M411.49,303.8H399.42a37.74,37.74,0,0,1,.76-6.49,69,69,0,0,1,2.08-8.27L390.19,256.2h11.95l3.4,10.75c.94,3.09,1.57,5.36,1.89,6.84s.55,2.8.69,4h.23A60.15,60.15,0,0,1,411,267.48l3.66-11.28H426.6L414.36,289a43.52,43.52,0,0,0-2.07,7.43A39.25,39.25,0,0,0,411.49,303.8Z"/><path class="cls-4" d="M451.1,268.44v7.44h-4.34a24.5,24.5,0,0,0-4.13.27,4.9,4.9,0,0,0-2.18.8,2,2,0,0,0-.69,1.69q0,2.83,6.06,2.84a27.88,27.88,0,0,0,11.75-2.58v8.76a26.55,26.55,0,0,1-6.36,1.83,47.45,47.45,0,0,1-7.09.49q-8.12,0-12-2.44T428.27,280a7,7,0,0,1,2.16-5.19,9.81,9.81,0,0,1,5.84-2.61v-.29a8.4,8.4,0,0,1-4.38-2.67,6.91,6.91,0,0,1-1.62-4.6,7.39,7.39,0,0,1,3.78-6.66c2.51-1.55,6.16-2.33,10.92-2.33a30.68,30.68,0,0,1,12.6,2.52l-3.25,7.73a21.78,21.78,0,0,0-8.88-2.08c-2.91,0-4.36.74-4.36,2.2a2,2,0,0,0,1.49,1.89,15.15,15.15,0,0,0,4.92.57Z"/><path class="cls-4" d="M459.68,256.2h11.75l6,18.72a28.39,28.39,0,0,1,1,4.16h.29a35.56,35.56,0,0,0,3.53-9.9,67.72,67.72,0,0,0,1-13h11.46a48.86,48.86,0,0,1-3,17.77,50.8,50.8,0,0,1-9.92,15.42h-9.61Z"/><path class="cls-4" d="M534.39,290a11.14,11.14,0,0,1-6.3-1.59,9.77,9.77,0,0,1-3.61-5.12h-.35a10,10,0,0,1-3.45,5,10.81,10.81,0,0,1-6.51,1.73q-6.76,0-10.59-4.47t-3.82-12.26a46.47,46.47,0,0,1,.7-8.4,57,57,0,0,1,2.43-8.65h11.69a36.58,36.58,0,0,0-3.66,16.58,15.62,15.62,0,0,0,.95,6.37,3.36,3.36,0,0,0,3.27,2,3,3,0,0,0,3-1.52,14.25,14.25,0,0,0,.75-5.6v-8.06h10.9V274a22.66,22.66,0,0,0,.32,4.42,2.93,2.93,0,0,0,3.4,2.7,3.4,3.4,0,0,0,3.18-2,13.9,13.9,0,0,0,1-6.17,43.85,43.85,0,0,0-.88-8.58A32.68,32.68,0,0,0,534,256.2h11.69a45.25,45.25,0,0,1,3.13,17.05q0,7.85-3.85,12.29T534.39,290Zm-13.3-37.91q.58-2,1.26-5.26c.45-2.18.76-3.88.93-5.12h10.08v.77A94.13,94.13,0,0,1,527.68,253h-6.59Z"/><path class="cls-4" d="M551.73,256.2h11.75l6,18.72a28.39,28.39,0,0,1,1,4.16h.29a35.56,35.56,0,0,0,3.53-9.9,67.72,67.72,0,0,0,1-13h11.46a48.86,48.86,0,0,1-3,17.77,50.8,50.8,0,0,1-9.92,15.42h-9.61Z"/><path class="cls-4" d="M619.64,290a10.87,10.87,0,0,1-9.26-4.53q-3.33-4.53-3.34-12.5,0-8.19,3.53-12.71a11.81,11.81,0,0,1,9.86-4.51,11.44,11.44,0,0,1,5.57,1.2,9.11,9.11,0,0,1,3.54,3.72H630a11.63,11.63,0,0,1,2-4.45h9.61a39.37,39.37,0,0,0-1.8,6.76,39.83,39.83,0,0,0-.66,7v7.5q0,3.54,2.4,3.54a5.06,5.06,0,0,0,1.73-.29v8.52a6.4,6.4,0,0,1-2.09.53,18.49,18.49,0,0,1-2.48.24,11.9,11.9,0,0,1-5.81-1.15,8.18,8.18,0,0,1-3.3-3.75H629A10.48,10.48,0,0,1,619.64,290Zm3.9-8.88a4.33,4.33,0,0,0,3.82-1.74c.81-1.17,1.24-3.22,1.27-6.17v-.29q0-4.36-1.25-6.33a4.37,4.37,0,0,0-4-2,3.84,3.84,0,0,0-3.54,2.17,13,13,0,0,0-1.21,6.24Q618.67,281.09,623.54,281.1Z"/><path class="cls-4" d="M685.65,281a12.17,12.17,0,0,0,4.54-1v7.88a13.7,13.7,0,0,1-4,1.54,20.8,20.8,0,0,1-4.91.6c-3.38,0-5.87-.9-7.48-2.68s-2.42-4.53-2.42-8.22V264.72H664v24.67H652.57V264.72h-7.06v-4.86l5.86-3.66h38.82v8.52h-7.33v13.1a3.43,3.43,0,0,0,.74,2.33A2.59,2.59,0,0,0,685.65,281Z"/><path class="cls-4" d="M728.19,272.72q0,8.14-4.38,12.7T711.54,290q-7.54,0-12-4.66t-4.47-12.6q0-8.12,4.38-12.61t12.29-4.5a17.48,17.48,0,0,1,8.64,2.08,14.23,14.23,0,0,1,5.79,6A19.23,19.23,0,0,1,728.19,272.72Zm-21.51,0a14.8,14.8,0,0,0,1.14,6.52,4,4,0,0,0,3.84,2.24,3.88,3.88,0,0,0,3.77-2.24,15.32,15.32,0,0,0,1.1-6.52,14.55,14.55,0,0,0-1.12-6.42,4.42,4.42,0,0,0-7.59,0A14.19,14.19,0,0,0,706.68,272.72Zm1.76-20.65q.59-2,1.26-5.26c.45-2.18.76-3.88.94-5.12h10.07v.77A94.13,94.13,0,0,1,715,253h-6.59Z"/><path class="cls-4" d="M754.32,255.67c3.12,0,5.53.63,7.21,1.89s3.12,3.47,4.33,6.63l1.2,3.11,5.51-11.1h11.95l-12.36,22,5.27,13.33q1.26,3.22,3.72,3.22a12.07,12.07,0,0,0,3.11-.41v8.23a19.77,19.77,0,0,1-7.06,1.2,9.32,9.32,0,0,1-6.39-2.15,14.45,14.45,0,0,1-3.89-6.75l-2.14-6.54-7.15,15.44H744.8l14.88-26.36-3.49-9.17q-1.4-3.61-4-3.61a12,12,0,0,0-3.9.74v-8.59A17.33,17.33,0,0,1,754.32,255.67Z"/><path class="cls-4" d="M822.61,290a11.14,11.14,0,0,1-6.3-1.59,9.7,9.7,0,0,1-3.6-5.12h-.35a10,10,0,0,1-3.46,5,10.78,10.78,0,0,1-6.51,1.73q-6.76,0-10.59-4.47T788,273.25a46.47,46.47,0,0,1,.7-8.4,56,56,0,0,1,2.44-8.65H802.8a36.58,36.58,0,0,0-3.66,16.58,15.62,15.62,0,0,0,1,6.37,3.36,3.36,0,0,0,3.27,2,3,3,0,0,0,3-1.52,14.25,14.25,0,0,0,.75-5.6v-8.06H818V274a22.66,22.66,0,0,0,.32,4.42,2.93,2.93,0,0,0,3.4,2.7,3.38,3.38,0,0,0,3.18-2,13.9,13.9,0,0,0,1-6.17,43.1,43.1,0,0,0-.88-8.58,32.28,32.28,0,0,0-2.78-8.17H834a45.25,45.25,0,0,1,3.13,17.05q0,7.85-3.85,12.29T822.61,290Zm-13.3-37.91q.59-2,1.26-5.26c.45-2.18.76-3.88.94-5.12h10.07v.77A94.13,94.13,0,0,1,815.9,253h-6.59Z"/><path class="cls-4" d="M876.43,272.84q0,8.06-3.49,12.6a11.43,11.43,0,0,1-9.58,4.54,18.2,18.2,0,0,1-4.36-.53,12.8,12.8,0,0,1-3.64-1.44h-.76a58.34,58.34,0,0,1,.65,7.8v8H843.79V273q0-8.2,4.34-12.8t12.16-4.6a16.5,16.5,0,0,1,8.42,2.14,14.47,14.47,0,0,1,5.71,6.06A19.56,19.56,0,0,1,876.43,272.84Zm-16.32-8.7q-4.86,0-4.86,7.32v7.44a5.67,5.67,0,0,0,2.28,1.64,7.08,7.08,0,0,0,2.64.56,3.76,3.76,0,0,0,3.56-1.93q1.07-1.94,1.07-6.33,0-4.6-1.13-6.65A3.77,3.77,0,0,0,860.11,264.14Z"/><path class="cls-4" d="M903.62,268.44v7.44h-4.34a24.42,24.42,0,0,0-4.13.27,4.85,4.85,0,0,0-2.18.8,2,2,0,0,0-.69,1.69q0,2.83,6.06,2.84a27.88,27.88,0,0,0,11.75-2.58v8.76a26.55,26.55,0,0,1-6.36,1.83,47.45,47.45,0,0,1-7.09.49q-8.11,0-12-2.44T880.79,280a7,7,0,0,1,2.16-5.19,9.81,9.81,0,0,1,5.84-2.61v-.29a8.4,8.4,0,0,1-4.38-2.67,6.91,6.91,0,0,1-1.62-4.6,7.38,7.38,0,0,1,3.77-6.66q3.78-2.33,10.93-2.33a30.68,30.68,0,0,1,12.6,2.52l-3.25,7.73a21.78,21.78,0,0,0-8.88-2.08c-2.91,0-4.36.74-4.36,2.2a2,2,0,0,0,1.49,1.89,15.15,15.15,0,0,0,4.92.57Z"/><path class="cls-4" d="M914.72,273.07c0-5.6,1.47-9.92,4.41-12.93s7.15-4.53,12.64-4.53a26.49,26.49,0,0,1,11.63,2.75l-3.25,8.41a38.22,38.22,0,0,0-4.38-1.52,15.15,15.15,0,0,0-4-.65,4.49,4.49,0,0,0-4,2.19c-.93,1.45-1.39,3.61-1.39,6.46a7.91,7.91,0,0,0,.78,3.92,6,6,0,0,0,2.53,2.27,19.52,19.52,0,0,0,4.86,1.6,13,13,0,0,1,6.58,3.06,7.8,7.8,0,0,1,2.18,5.82q0,4.77-4.07,10.16H927.49a23.08,23.08,0,0,0,3.18-4.36,8.25,8.25,0,0,0,1.28-3.34,1.88,1.88,0,0,0-.63-1.51,7.09,7.09,0,0,0-2.19-1.08,38.56,38.56,0,0,0-4-1.13,14,14,0,0,1-6.05-2.79,11.44,11.44,0,0,1-3.24-5A24.15,24.15,0,0,1,914.72,273.07Z"/><path class="cls-4" d="M55.71,336.72v13.1a3.3,3.3,0,0,0,.76,2.34,2.81,2.81,0,0,0,2.17.82,16.6,16.6,0,0,0,5.65-1.26v8.35a20.06,20.06,0,0,1-8.94,1.85q-6,0-8.54-2.77c-1.71-1.85-2.56-4.74-2.56-8.69V336.72H36.34v-4.86L42,328.2H65.49v8.52Z"/><path class="cls-4" d="M92.3,375.8V342.49c0-3.92-1.34-5.89-4-5.89a4.45,4.45,0,0,0-4.19,2.32c-.86,1.54-1.28,4.19-1.28,7.94v14.53H71.35V328.2H80l1.44,4.1h.67a9.11,9.11,0,0,1,4.06-3.52,14.37,14.37,0,0,1,6-1.17c3.67,0,6.53,1.07,8.57,3.19s3.06,5.13,3.06,9v36Z"/><path class="cls-4" d="M110.11,345.07c0-5.6,1.47-9.92,4.41-12.93s7.15-4.53,12.64-4.53a26.46,26.46,0,0,1,11.63,2.75l-3.25,8.41a38.22,38.22,0,0,0-4.38-1.52,15.15,15.15,0,0,0-4-.65,4.49,4.49,0,0,0-4,2.19c-.93,1.45-1.39,3.61-1.39,6.46a7.91,7.91,0,0,0,.78,3.92,6,6,0,0,0,2.53,2.27,19.52,19.52,0,0,0,4.86,1.6,13,13,0,0,1,6.58,3.06,7.8,7.8,0,0,1,2.18,5.82q0,4.77-4.07,10.16H122.88a23.08,23.08,0,0,0,3.18-4.36,8.2,8.2,0,0,0,1.28-3.34,1.88,1.88,0,0,0-.63-1.51,7.09,7.09,0,0,0-2.19-1.08,38.56,38.56,0,0,0-4-1.13,14.07,14.07,0,0,1-6-2.78,11.63,11.63,0,0,1-3.24-5A24.15,24.15,0,0,1,110.11,345.07Z"/><path class="cls-4" d="M196,353a12.17,12.17,0,0,0,4.54-1v7.88a13.7,13.7,0,0,1-4,1.54,20.8,20.8,0,0,1-4.91.6c-3.38,0-5.87-.9-7.48-2.68s-2.42-4.53-2.42-8.22V336.72h-7.38v24.67H162.9V336.72h-7.06v-4.86l5.86-3.66h38.82v8.52H193.2v13.1a3.42,3.42,0,0,0,.73,2.33A2.6,2.6,0,0,0,196,353Z"/><path class="cls-4" d="M239.34,344.84q0,8.06-3.49,12.6a11.43,11.43,0,0,1-9.58,4.54,18.2,18.2,0,0,1-4.36-.53,12.8,12.8,0,0,1-3.64-1.44h-.76a58.34,58.34,0,0,1,.65,7.8v8H206.7V345q0-8.2,4.34-12.8t12.16-4.6a16.5,16.5,0,0,1,8.42,2.14,14.47,14.47,0,0,1,5.71,6.06A19.56,19.56,0,0,1,239.34,344.84ZM223,336.14q-4.86,0-4.86,7.32v7.44a5.67,5.67,0,0,0,2.28,1.64,7.08,7.08,0,0,0,2.64.56,3.75,3.75,0,0,0,3.56-1.93q1.06-1.94,1.07-6.33,0-4.6-1.13-6.65A3.77,3.77,0,0,0,223,336.14Z"/><path class="cls-4" d="M279.36,362a11.14,11.14,0,0,1-6.3-1.59,9.7,9.7,0,0,1-3.6-5.12h-.36a10,10,0,0,1-3.45,5,10.81,10.81,0,0,1-6.51,1.73q-6.76,0-10.59-4.47t-3.82-12.26a46.47,46.47,0,0,1,.7-8.4,57,57,0,0,1,2.43-8.65h11.69a36.58,36.58,0,0,0-3.66,16.58,15.62,15.62,0,0,0,.95,6.37,3.36,3.36,0,0,0,3.27,2,3,3,0,0,0,3-1.52,14.22,14.22,0,0,0,.75-5.6v-8.06h10.9V346a22.66,22.66,0,0,0,.32,4.42,2.93,2.93,0,0,0,3.4,2.7,3.38,3.38,0,0,0,3.18-2,13.88,13.88,0,0,0,1-6.16,43.12,43.12,0,0,0-.88-8.59A32.68,32.68,0,0,0,279,328.2H290.7a45.25,45.25,0,0,1,3.13,17.05q0,7.85-3.85,12.29T279.36,362Zm-13.3-37.91q.58-2,1.26-5.26c.45-2.18.76-3.88.93-5.12h10.08v.77A94.13,94.13,0,0,1,272.65,325h-6.59Z"/><path class="cls-4" d="M321.6,375.8V342.49c0-3.92-1.33-5.89-4-5.89a4.45,4.45,0,0,0-4.19,2.32q-1.29,2.31-1.29,7.94v14.53H300.66V328.2h8.64l1.43,4.1h.68a9.11,9.11,0,0,1,4.06-3.52,14.31,14.31,0,0,1,6-1.17c3.67,0,6.53,1.07,8.57,3.19s3.06,5.13,3.06,9v36Z"/><path class="cls-4" d="M336.9,328.2h11.75l6,18.72a29.72,29.72,0,0,1,1,4.16H356a35.56,35.56,0,0,0,3.53-9.9,68.54,68.54,0,0,0,1-13H372A48.86,48.86,0,0,1,369,346a50.76,50.76,0,0,1-9.91,15.42h-9.61Z"/><path class="cls-4" d="M391.86,361.39v-9l13-13.51-12.66-11.63v-8.7h29.65v9.29H412a58,58,0,0,1-6.91-.3l12.36,11.28-13,13.51c2.79-.26,5.25-.38,7.38-.38h11.75v9.43Z"/><path class="cls-4" d="M461.47,344.72q0,8.14-4.38,12.7T444.83,362q-7.56,0-12-4.66t-4.47-12.6q0-8.12,4.38-12.61t12.29-4.5a17.55,17.55,0,0,1,8.65,2.08,14.2,14.2,0,0,1,5.78,6A19.23,19.23,0,0,1,461.47,344.72Zm-21.51,0a14.61,14.61,0,0,0,1.15,6.52,4,4,0,0,0,3.83,2.24,3.87,3.87,0,0,0,3.77-2.24,15.29,15.29,0,0,0,1.1-6.52,14.4,14.4,0,0,0-1.12-6.42,4.41,4.41,0,0,0-7.58,0A14,14,0,0,0,440,344.72Z"/><path class="cls-4" d="M484.61,315.48q7.27,0,11.38,3.08a10,10,0,0,1,4.12,8.52,10.13,10.13,0,0,1-2.15,6.83,9.8,9.8,0,0,1-6.08,3.13v.24c3.75.49,6.5,1.65,8.24,3.5a10.61,10.61,0,0,1,2.63,7.6q0,6.24-3.84,9.92T488.65,362a26.28,26.28,0,0,1-5.24-.49,15.62,15.62,0,0,1-4-1.24V375.8H468V329.28q0-6.55,4.38-10.18T484.61,315.48Zm-.35,8.53a4.24,4.24,0,0,0-3.65,1.56,8,8,0,0,0-1.15,4.74v21.12a7.73,7.73,0,0,0,2.56,1.1,11.83,11.83,0,0,0,3,.45,6.49,6.49,0,0,0,4.44-1.42,5.38,5.38,0,0,0,1.63-4.26,4.61,4.61,0,0,0-1.59-3.68,6.55,6.55,0,0,0-4.42-1.36h-1.67v-8.53h1.11a3.74,3.74,0,0,0,3.08-1.34,5.66,5.66,0,0,0,1.08-3.64,4.75,4.75,0,0,0-1.23-3.51A4.35,4.35,0,0,0,484.26,324Z"/><path class="cls-4" d="M520.5,328.2V350c0,2,1.14,3,3.43,3a13.45,13.45,0,0,0,3-.31,24.57,24.57,0,0,0,3.13-.95v8.41a20.92,20.92,0,0,1-9,1.85c-4.1,0-7.12-1-9.05-2.89s-2.9-4.78-2.9-8.57V328.2Z"/><path class="cls-4" d="M555.92,340.44v7.44h-4.34a24.58,24.58,0,0,0-4.13.27,5,5,0,0,0-2.18.8,2,2,0,0,0-.69,1.69q0,2.83,6.07,2.84a27.88,27.88,0,0,0,11.75-2.58v8.76a26.55,26.55,0,0,1-6.36,1.83A46.24,46.24,0,0,1,549,362q-8.12,0-12-2.44T533.1,352a7.07,7.07,0,0,1,2.15-5.19,9.87,9.87,0,0,1,5.85-2.61v-.29a8.37,8.37,0,0,1-4.38-2.66,6.91,6.91,0,0,1-1.63-4.61,7.39,7.39,0,0,1,3.78-6.66q3.78-2.32,10.93-2.33a33.82,33.82,0,0,1,6.11.53,34.25,34.25,0,0,1,6.49,2l-3.26,7.73a21.7,21.7,0,0,0-8.87-2.08c-2.91,0-4.37.74-4.37,2.2a2,2,0,0,0,1.5,1.89,15.07,15.07,0,0,0,4.92.57Z"/><path class="cls-4" d="M584.54,336.72v13.1a3.3,3.3,0,0,0,.77,2.34,2.78,2.78,0,0,0,2.16.82,16.6,16.6,0,0,0,5.66-1.26v8.35a20.06,20.06,0,0,1-8.94,1.85q-6,0-8.54-2.77c-1.71-1.85-2.56-4.74-2.56-8.69V336.72h-7.91v-4.86l5.68-3.66h23.47v8.52Z"/><path class="cls-4" d="M611.58,328.2V350c0,2,1.15,3,3.43,3a13.39,13.39,0,0,0,3-.31,24.09,24.09,0,0,0,3.13-.95v8.41a20.89,20.89,0,0,1-9,1.85c-4.1,0-7.12-1-9.05-2.89s-2.9-4.78-2.9-8.57V328.2Z"/><path class="cls-4" d="M649.46,342.73l12.43,18.66H649l-7.39-11.69-3.78,2.87v8.82H626.29V328.2H637.8v7.2c0,2.29-.09,4.67-.29,7.15h.24c.37-.51.85-1.22,1.43-2.14s1.29-1.9,2.11-3l7.21-9.25h12.83Z"/><path class="cls-4" d="M686.79,375.8V342.49c0-3.92-1.34-5.89-4-5.89a4.44,4.44,0,0,0-4.19,2.32q-1.29,2.31-1.29,7.94v14.53H665.84V328.2h8.64l1.44,4.1h.67a9.11,9.11,0,0,1,4.06-3.52,14.37,14.37,0,0,1,6-1.17c3.68,0,6.53,1.07,8.57,3.19s3.06,5.13,3.06,9v36Zm-7.62-51.73q.58-2,1.26-5.26c.45-2.18.76-3.88.94-5.12h10.08v.77A94.24,94.24,0,0,1,685.76,325h-6.59Z"/><path class="cls-4" d="M704.6,345.07c0-5.6,1.47-9.92,4.41-12.93s7.15-4.53,12.64-4.53a26.46,26.46,0,0,1,11.63,2.75L730,338.77a38.22,38.22,0,0,0-4.38-1.52,15.09,15.09,0,0,0-4-.65,4.49,4.49,0,0,0-4,2.19,12.21,12.21,0,0,0-1.39,6.46,7.91,7.91,0,0,0,.78,3.92,6,6,0,0,0,2.53,2.27,19.61,19.61,0,0,0,4.87,1.6A12.92,12.92,0,0,1,731,356.1a7.8,7.8,0,0,1,2.19,5.82q0,4.77-4.08,10.16H717.38a23.47,23.47,0,0,0,3.17-4.36,8.2,8.2,0,0,0,1.28-3.34,1.88,1.88,0,0,0-.63-1.51,7.13,7.13,0,0,0-2.18-1.08,39.56,39.56,0,0,0-4-1.13,14.13,14.13,0,0,1-6.05-2.78,11.52,11.52,0,0,1-3.23-5A23.85,23.85,0,0,1,704.6,345.07Z"/><path class="cls-4" d="M747.32,327.14q.58-2,1.26-5.26c.45-2.17.76-3.88.93-5.11h10.08v.76a94.24,94.24,0,0,1-5.68,10.58h-6.59Zm39,34.25H760.88V318.56h25.43v9.29H772.45v6.73h12.84v9.29H772.45V352h13.86Z"/><path class="cls-4" d="M789.21,328.2H801l6,18.72a28.39,28.39,0,0,1,1,4.16h.29a35.56,35.56,0,0,0,3.53-9.9,67.72,67.72,0,0,0,1-13h11.46a48.86,48.86,0,0,1-3,17.77,50.8,50.8,0,0,1-9.92,15.42h-9.61Z"/><path class="cls-4" d="M863.92,362a11.14,11.14,0,0,1-6.3-1.59,9.7,9.7,0,0,1-3.6-5.12h-.36a10,10,0,0,1-3.45,5A10.81,10.81,0,0,1,843.7,362q-6.76,0-10.59-4.47t-3.82-12.26a46.47,46.47,0,0,1,.7-8.4,57,57,0,0,1,2.43-8.65h11.69a36.58,36.58,0,0,0-3.66,16.58,15.62,15.62,0,0,0,.95,6.37,3.36,3.36,0,0,0,3.27,2,3,3,0,0,0,3-1.52,14.22,14.22,0,0,0,.75-5.6v-8.06h10.9V346a22.66,22.66,0,0,0,.32,4.42,2.93,2.93,0,0,0,3.4,2.7,3.38,3.38,0,0,0,3.18-2,13.88,13.88,0,0,0,1-6.16,43.12,43.12,0,0,0-.88-8.59,32.68,32.68,0,0,0-2.78-8.17h11.69a45.25,45.25,0,0,1,3.13,17.05q0,7.85-3.85,12.29T863.92,362Z"/><path class="cls-4" d="M900.71,362q-7.85,0-12.39-4.25T883.78,346q0-9.17,4.85-13.51t15.07-4.33h16.85v8.52H912.4a12.49,12.49,0,0,1,5.34,10.7,14.42,14.42,0,0,1-2,7.69,13.26,13.26,0,0,1-5.89,5.09A21.4,21.4,0,0,1,900.71,362Zm-5.24-16a8,8,0,0,0,1.42,5.1,4.76,4.76,0,0,0,3.94,1.79q5.28,0,5.28-7.21a18.47,18.47,0,0,0-.25-3.22,11.22,11.22,0,0,0-.78-2.52,20,20,0,0,0-2-3.2h-.65q-3.72,0-5.34,2.16T895.47,346Z"/><path class="cls-4" d="M947,375.8V342.49c0-3.92-1.33-5.89-4-5.89a4.45,4.45,0,0,0-4.19,2.32q-1.29,2.31-1.29,7.94v14.53H926.09V328.2h8.64l1.43,4.1h.68a9.06,9.06,0,0,1,4.06-3.52,14.31,14.31,0,0,1,6-1.17c3.67,0,6.53,1.07,8.57,3.19s3.06,5.13,3.06,9v36Z"/><path class="cls-4" d="M964.85,345.07c0-5.6,1.47-9.92,4.4-12.93s7.16-4.53,12.65-4.53a26.49,26.49,0,0,1,11.63,2.75l-3.25,8.41a38.22,38.22,0,0,0-4.38-1.52,15.21,15.21,0,0,0-4-.65,4.49,4.49,0,0,0-4,2.19c-.93,1.45-1.39,3.61-1.39,6.46a8,8,0,0,0,.77,3.92,6.06,6.06,0,0,0,2.54,2.27,19.52,19.52,0,0,0,4.86,1.6,13,13,0,0,1,6.58,3.06,7.84,7.84,0,0,1,2.18,5.82q0,4.77-4.07,10.16H977.62a23.08,23.08,0,0,0,3.18-4.36,8.14,8.14,0,0,0,1.27-3.34,1.88,1.88,0,0,0-.63-1.51,7.13,7.13,0,0,0-2.18-1.08,39.27,39.27,0,0,0-4-1.13,14,14,0,0,1-6.05-2.78,11.45,11.45,0,0,1-3.24-5A24.15,24.15,0,0,1,964.85,345.07Z"/><path class="cls-4" d="M56.91,447.8H44.84a37.54,37.54,0,0,1,.76-6.48A68.69,68.69,0,0,1,47.68,433L35.61,400.2h12L51,411q1.41,4.64,1.89,6.84c.32,1.47.55,2.8.69,4h.23a60.15,60.15,0,0,1,2.67-10.28L60.1,400.2H72L59.78,433a43.52,43.52,0,0,0-2.07,7.43A39.25,39.25,0,0,0,56.91,447.8Z"/><path class="cls-4" d="M87.2,400.2V422c0,2,1.14,3,3.43,3a13.45,13.45,0,0,0,3-.31,24.57,24.57,0,0,0,3.13-.95v8.41a20.92,20.92,0,0,1-9,1.85c-4.1,0-7.12-1-9-2.89s-2.91-4.78-2.91-8.57V400.2Z"/><path class="cls-4" d="M113.07,434a10.86,10.86,0,0,1-9.26-4.53q-3.34-4.53-3.34-12.49,0-8.2,3.53-12.72a11.8,11.8,0,0,1,9.86-4.51,11.44,11.44,0,0,1,5.57,1.2,9.11,9.11,0,0,1,3.54,3.72h.47a11.63,11.63,0,0,1,2-4.45h9.61a39.37,39.37,0,0,0-1.8,6.76,39.83,39.83,0,0,0-.66,7v7.5q0,3.54,2.4,3.54a5.06,5.06,0,0,0,1.73-.29v8.52a6.14,6.14,0,0,1-2.09.53,18.49,18.49,0,0,1-2.48.24,12,12,0,0,1-5.82-1.15,8.22,8.22,0,0,1-3.29-3.75h-.7A10.48,10.48,0,0,1,113.07,434Zm3.9-8.88a4.34,4.34,0,0,0,3.82-1.74c.81-1.17,1.23-3.22,1.27-6.17v-.29q0-4.36-1.26-6.33a4.34,4.34,0,0,0-4-2,3.85,3.85,0,0,0-3.55,2.16,13.13,13.13,0,0,0-1.2,6.24Q112.1,425.1,117,425.1Z"/><path class="cls-4" d="M169,434a10.86,10.86,0,0,1-9.26-4.53q-3.35-4.53-3.34-12.49,0-8.2,3.53-12.72a11.8,11.8,0,0,1,9.86-4.51,11.4,11.4,0,0,1,5.56,1.2,9.07,9.07,0,0,1,3.55,3.72h.47a11.49,11.49,0,0,1,2-4.45H191a39.37,39.37,0,0,0-1.8,6.76,39.83,39.83,0,0,0-.66,7v7.5q0,3.54,2.4,3.54a5.11,5.11,0,0,0,1.73-.29v8.52a6.15,6.15,0,0,1-2.1.53,18.37,18.37,0,0,1-2.47.24,12,12,0,0,1-5.82-1.15,8.17,8.17,0,0,1-3.29-3.75h-.71A10.46,10.46,0,0,1,169,434Zm3.89-8.88a4.35,4.35,0,0,0,3.83-1.74c.81-1.17,1.23-3.22,1.27-6.17v-.29q0-4.36-1.26-6.33a4.35,4.35,0,0,0-3.95-2,3.84,3.84,0,0,0-3.55,2.16A13.13,13.13,0,0,0,168,417Q168,425.1,172.86,425.1Z"/><path class="cls-4" d="M235,425a12.17,12.17,0,0,0,4.54-1v7.88a13.58,13.58,0,0,1-4,1.54,20.72,20.72,0,0,1-4.9.6c-3.38,0-5.88-.9-7.49-2.68s-2.42-4.53-2.42-8.22V408.72h-7.38v24.67H201.9V408.72h-7.06v-4.86l5.86-3.66h38.81v8.52h-7.32v13.1a3.42,3.42,0,0,0,.73,2.33A2.6,2.6,0,0,0,235,425Z"/><path class="cls-4" d="M241.86,433.39l14.27-31-.41-1.2a8.26,8.26,0,0,0-2.19-3.6,5.4,5.4,0,0,0-3.7-1.2,15.92,15.92,0,0,0-4,.5v-9a20.54,20.54,0,0,1,2.87-.38c1.14-.08,2-.12,2.67-.12q5.91,0,9.2,2.45t5.42,8.36l7.2,20.16a29.9,29.9,0,0,0,1.75,4,5.84,5.84,0,0,0,1.62,2A4.23,4.23,0,0,0,279,425a8.79,8.79,0,0,0,2.19-.29V433a10.85,10.85,0,0,1-2.85.67,24.65,24.65,0,0,1-3.5.33,9.76,9.76,0,0,1-6.17-2,14.48,14.48,0,0,1-4.26-6.53l-2.05-5.6a36.86,36.86,0,0,1-1.5-5.62h-.23a26.85,26.85,0,0,1-1.44,5.57l-5.45,13.56Z"/><path class="cls-4" d="M317.41,416.72q0,8.14-4.38,12.7T300.77,434q-7.56,0-12-4.66t-4.47-12.6q0-8.12,4.38-12.61t12.29-4.5a17.48,17.48,0,0,1,8.64,2.08,14.28,14.28,0,0,1,5.79,6A19.23,19.23,0,0,1,317.41,416.72Zm-21.5,0a14.77,14.77,0,0,0,1.14,6.52,4,4,0,0,0,3.84,2.24,3.88,3.88,0,0,0,3.77-2.24,15.31,15.31,0,0,0,1.09-6.52,14.57,14.57,0,0,0-1.11-6.42,4.42,4.42,0,0,0-7.59,0A14.19,14.19,0,0,0,295.91,416.72Z"/><path class="cls-4" d="M339.8,433.86c-5.32,0-9.3-1.27-12-3.79s-4-6.48-4-11.86v-18h11.46v18.6c0,2.23.38,3.79,1.15,4.7a4.45,4.45,0,0,0,3.59,1.37,4.37,4.37,0,0,0,4.15-2.22c.83-1.47,1.24-3.93,1.24-7.36a60.23,60.23,0,0,0-2.25-15.09h11.57a66.24,66.24,0,0,1,1.7,8.1,54.29,54.29,0,0,1,.47,7.22q0,9.19-4.21,13.77T339.8,433.86Zm-3.66-37.79q.58-2,1.26-5.26c.44-2.18.76-3.88.93-5.11h10.08v.76A95.78,95.78,0,0,1,342.73,397h-6.59Z"/><path class="cls-4" d="M379.23,434q-7.85,0-12.39-4.25T362.3,418q0-9.17,4.85-13.51t15.07-4.33h16.84v8.52h-8.14a12.48,12.48,0,0,1,5.33,10.7,14.33,14.33,0,0,1-2.05,7.69,13.26,13.26,0,0,1-5.89,5.09A21.35,21.35,0,0,1,379.23,434ZM374,418a8,8,0,0,0,1.42,5.1,4.75,4.75,0,0,0,3.94,1.79q5.26,0,5.27-7.21a17.54,17.54,0,0,0-.25-3.22,10.71,10.71,0,0,0-.77-2.52,20.25,20.25,0,0,0-2-3.2H381q-3.72,0-5.35,2.16T374,418Z"/><path class="cls-4" d="M420.69,408.72v13.1a3.3,3.3,0,0,0,.76,2.34,2.81,2.81,0,0,0,2.17.82,16.6,16.6,0,0,0,5.65-1.26v8.35a20.06,20.06,0,0,1-8.94,1.85q-6,0-8.54-2.77c-1.71-1.85-2.56-4.74-2.56-8.69V408.72h-7.91v-4.86L407,400.2h23.47v8.52Z"/><path class="cls-4" d="M457,412.44v7.44h-4.33a24.42,24.42,0,0,0-4.13.27,5,5,0,0,0-2.19.8,2.06,2.06,0,0,0-.68,1.69q0,2.83,6.06,2.84a27.88,27.88,0,0,0,11.75-2.58v8.76a26.55,26.55,0,0,1-6.36,1.83,46.15,46.15,0,0,1-7.09.49q-8.11,0-12-2.44T434.22,424a7.07,7.07,0,0,1,2.15-5.19,9.87,9.87,0,0,1,5.85-2.61v-.29a8.37,8.37,0,0,1-4.38-2.66,7,7,0,0,1-1.63-4.6,7.39,7.39,0,0,1,3.78-6.67q3.78-2.32,10.93-2.33a30.68,30.68,0,0,1,12.6,2.52l-3.25,7.74a21.62,21.62,0,0,0-8.88-2.08q-4.36,0-4.37,2.19a2,2,0,0,0,1.5,1.89,15.07,15.07,0,0,0,4.92.57Z"/><path class="cls-4" d="M485.43,433.86q-8,0-12-3.79t-4-11.86v-18h11.45v18.6c0,2.23.39,3.79,1.16,4.7a4.44,4.44,0,0,0,3.59,1.37,4.37,4.37,0,0,0,4.14-2.22c.83-1.47,1.25-3.93,1.25-7.36a59.83,59.83,0,0,0-2.26-15.09h11.57a66.24,66.24,0,0,1,1.7,8.1,54.29,54.29,0,0,1,.47,7.22q0,9.19-4.2,13.77T485.43,433.86Z"/><path class="cls-4" d="M524.87,434q-7.86,0-12.4-4.25T507.93,418q0-9.17,4.85-13.51t15.07-4.33H544.7v8.52h-8.14a12.5,12.5,0,0,1,5.33,10.7,14.42,14.42,0,0,1-2,7.69A13.26,13.26,0,0,1,534,432.2,21.38,21.38,0,0,1,524.87,434Zm-5.25-16a8,8,0,0,0,1.42,5.1,4.76,4.76,0,0,0,3.94,1.79q5.28,0,5.28-7.21a18.47,18.47,0,0,0-.25-3.22,11.22,11.22,0,0,0-.78-2.52,19.32,19.32,0,0,0-2-3.2h-.65q-3.72,0-5.34,2.16T519.62,418Z"/><path class="cls-4" d="M571.18,447.8V414.49c0-3.92-1.33-5.88-4-5.88a4.44,4.44,0,0,0-4.19,2.31q-1.29,2.31-1.29,7.94v14.53H550.24V400.2h8.64l1.43,4.1H561a9.11,9.11,0,0,1,4.06-3.52,14.31,14.31,0,0,1,6-1.17c3.67,0,6.53,1.07,8.57,3.19s3.06,5.13,3.06,9v36Z"/><path class="cls-4" d="M622.1,408.72v13.1a3.34,3.34,0,0,0,.76,2.34A2.81,2.81,0,0,0,625,425a16.65,16.65,0,0,0,5.66-1.26v8.35a20.06,20.06,0,0,1-8.94,1.85q-6,0-8.54-2.77c-1.71-1.85-2.56-4.74-2.56-8.69V408.72h-7.91v-4.86l5.68-3.66h23.47v8.52Z"/><path class="cls-4" d="M671.29,434a11.14,11.14,0,0,1-6.3-1.59,9.7,9.7,0,0,1-3.6-5.12H661a10,10,0,0,1-3.46,5,10.77,10.77,0,0,1-6.5,1.73q-6.78,0-10.59-4.47t-3.83-12.26a46.43,46.43,0,0,1,.71-8.4,54.74,54.74,0,0,1,2.43-8.65h11.69a36.45,36.45,0,0,0-3.67,16.58,15.41,15.41,0,0,0,1,6.37,3.33,3.33,0,0,0,3.26,2,3,3,0,0,0,3-1.52,14.46,14.46,0,0,0,.74-5.6v-8.06h10.9V418a22.66,22.66,0,0,0,.32,4.42,3.68,3.68,0,0,0,1.07,2.08,3.65,3.65,0,0,0,2.33.62,3.38,3.38,0,0,0,3.18-2,13.88,13.88,0,0,0,1-6.16,43.12,43.12,0,0,0-.88-8.59,32.28,32.28,0,0,0-2.78-8.17h11.69a45.25,45.25,0,0,1,3.13,17.05q0,7.85-3.85,12.29T671.29,434Z"/><path class="cls-4" d="M688.63,400.2h11.75l6,18.72a28.34,28.34,0,0,1,1,4.16h.3a35.88,35.88,0,0,0,3.53-9.9,68.54,68.54,0,0,0,1-13h11.45a48.86,48.86,0,0,1-3,17.77,50.61,50.61,0,0,1-9.92,15.42h-9.61Z"/><path class="cls-4" d="M754.49,407.05q-6.35-4.12-6.35-10.31a8,8,0,0,1,3.67-7q3.68-2.46,10.62-2.46a33.34,33.34,0,0,1,14.71,3.37l-4.28,8.26q-6.21-3.11-10.25-3.11c-2.36,0-3.55.64-3.55,1.91a2.56,2.56,0,0,0,1.13,1.87,59.16,59.16,0,0,0,6.55,4,21.64,21.64,0,0,1,7.82,6.72,16.12,16.12,0,0,1,2.52,9.13q0,7-4.41,10.82T760.32,434q-7.41,0-11.89-3.64a11.92,11.92,0,0,1-4.48-9.78Q744,410.54,754.49,407.05Zm10.93,12.25q0-4.46-4.8-7.88a6.72,6.72,0,0,0-3.62,3.09,10.16,10.16,0,0,0-1.42,5.37A6,6,0,0,0,756.9,424a4.89,4.89,0,0,0,7.19-.11A7,7,0,0,0,765.42,419.3Z"/><path class="cls-4" d="M795,400.2V422c0,2,1.15,3,3.43,3a13.39,13.39,0,0,0,3-.31,24.09,24.09,0,0,0,3.13-.95v8.41a20.89,20.89,0,0,1-9,1.85c-4.1,0-7.12-1-9.05-2.89s-2.9-4.78-2.9-8.57V400.2Z"/><path class="cls-4" d="M820.82,434a10.87,10.87,0,0,1-9.26-4.53q-3.33-4.53-3.34-12.49,0-8.2,3.53-12.72a11.81,11.81,0,0,1,9.86-4.51,11.44,11.44,0,0,1,5.57,1.2,9,9,0,0,1,3.54,3.72h.47a11.63,11.63,0,0,1,2-4.45h9.61a39.37,39.37,0,0,0-1.8,6.76,39.83,39.83,0,0,0-.66,7v7.5q0,3.54,2.4,3.54a5,5,0,0,0,1.73-.29v8.52a6.14,6.14,0,0,1-2.09.53A18.49,18.49,0,0,1,840,434a11.93,11.93,0,0,1-5.81-1.15,8.18,8.18,0,0,1-3.3-3.75h-.7A10.48,10.48,0,0,1,820.82,434Zm3.9-8.88a4.33,4.33,0,0,0,3.82-1.74c.81-1.17,1.24-3.22,1.28-6.17v-.29q0-4.36-1.26-6.33a4.36,4.36,0,0,0-4-2,3.83,3.83,0,0,0-3.54,2.16,13.13,13.13,0,0,0-1.2,6.24Q819.86,425.1,824.72,425.1Z"/><path class="cls-4" d="M859.08,407.05q-6.35-4.12-6.35-10.31a8,8,0,0,1,3.67-7q3.68-2.46,10.62-2.46a33.34,33.34,0,0,1,14.71,3.37l-4.28,8.26q-6.21-3.11-10.25-3.11c-2.36,0-3.55.64-3.55,1.91a2.56,2.56,0,0,0,1.13,1.87,59.16,59.16,0,0,0,6.55,4,21.64,21.64,0,0,1,7.82,6.72,16.12,16.12,0,0,1,2.52,9.13q0,7-4.41,10.82T864.91,434q-7.41,0-11.89-3.64a11.92,11.92,0,0,1-4.48-9.78Q848.54,410.54,859.08,407.05ZM870,419.3q0-4.46-4.8-7.88a6.72,6.72,0,0,0-3.62,3.09,10.16,10.16,0,0,0-1.42,5.37,6,6,0,0,0,1.32,4.08,4.89,4.89,0,0,0,7.19-.11A7,7,0,0,0,870,419.3Z"/><path class="cls-4" d="M899.54,400.2V422c0,2,1.15,3,3.43,3a13.45,13.45,0,0,0,3-.31,24.09,24.09,0,0,0,3.13-.95v8.41A20.89,20.89,0,0,1,900,434c-4.1,0-7.12-1-9-2.89s-2.9-4.78-2.9-8.57V400.2Z"/><path class="cls-4" d="M937.42,414.73l12.43,18.66H936.93l-7.39-11.69-3.78,2.87v8.82H914.25V400.2h11.51v7.2c0,2.29-.09,4.67-.29,7.15h.24c.37-.51.84-1.22,1.43-2.14s1.29-1.9,2.11-3l7.21-9.26h12.83Z"/><path class="cls-4" d="M965,434a10.84,10.84,0,0,1-9.25-4.53q-3.35-4.53-3.34-12.49,0-8.2,3.53-12.72a11.79,11.79,0,0,1,9.85-4.51,11.41,11.41,0,0,1,5.57,1.2,9.07,9.07,0,0,1,3.55,3.72h.46a11.63,11.63,0,0,1,2-4.45H987a39.37,39.37,0,0,0-1.8,6.76,39.83,39.83,0,0,0-.66,7v7.5c0,2.36.8,3.54,2.41,3.54a5,5,0,0,0,1.72-.29v8.52a6.14,6.14,0,0,1-2.09.53,18.35,18.35,0,0,1-2.48.24,11.93,11.93,0,0,1-5.81-1.15,8.18,8.18,0,0,1-3.3-3.75h-.7A10.47,10.47,0,0,1,965,434Zm3.9-8.88a4.33,4.33,0,0,0,3.82-1.74c.81-1.17,1.24-3.22,1.28-6.17v-.29q0-4.36-1.26-6.33a4.36,4.36,0,0,0-4-2,3.83,3.83,0,0,0-3.54,2.16A13.13,13.13,0,0,0,964,417Q964,425.1,968.86,425.1Z"/><path class="cls-4" d="M1009.61,434q-7.85,0-12.39-4.25T992.68,418q0-9.17,4.85-13.51t15.07-4.33h16.85v8.52h-8.15a12.48,12.48,0,0,1,5.33,10.7,14.33,14.33,0,0,1-2.05,7.69,13.26,13.26,0,0,1-5.89,5.09A21.35,21.35,0,0,1,1009.61,434Zm-5.24-16a8,8,0,0,0,1.42,5.1,4.76,4.76,0,0,0,3.94,1.79q5.26,0,5.27-7.21a17.54,17.54,0,0,0-.25-3.22,10.71,10.71,0,0,0-.77-2.52,20.25,20.25,0,0,0-2-3.2h-.64q-3.72,0-5.35,2.16T1004.37,418Z"/><path class="cls-4" d="M1046.38,400.2V422c0,2,1.14,3,3.43,3a13.3,13.3,0,0,0,3-.31,24.19,24.19,0,0,0,3.14-.95v8.41a21,21,0,0,1-9,1.85c-4.1,0-7.12-1-9.06-2.89s-2.9-4.78-2.9-8.57V400.2Z"/><path class="cls-4" d="M1094.63,434a11.14,11.14,0,0,1-6.3-1.59,9.7,9.7,0,0,1-3.6-5.12h-.35a10,10,0,0,1-3.46,5,10.77,10.77,0,0,1-6.5,1.73q-6.78,0-10.59-4.47T1060,417.25a46.43,46.43,0,0,1,.71-8.4,54.74,54.74,0,0,1,2.43-8.65h11.69a36.45,36.45,0,0,0-3.67,16.58,15.41,15.41,0,0,0,1,6.37,3.33,3.33,0,0,0,3.26,2,3,3,0,0,0,3-1.52,14.46,14.46,0,0,0,.74-5.6v-8.06H1090V418a22.66,22.66,0,0,0,.32,4.42,3.68,3.68,0,0,0,1.07,2.08,3.65,3.65,0,0,0,2.33.62,3.38,3.38,0,0,0,3.18-2,13.88,13.88,0,0,0,1-6.16,43.12,43.12,0,0,0-.88-8.59,32.28,32.28,0,0,0-2.78-8.17H1106a45.25,45.25,0,0,1,3.13,17.05q0,7.85-3.85,12.29T1094.63,434Zm-13.3-37.91q.59-2,1.26-5.26t.94-5.11h10.08v.76a95.89,95.89,0,0,1-5.69,10.57h-6.59Z"/><path class="cls-4" d="M1112,400.2h11.75l6,18.72a28.34,28.34,0,0,1,1,4.16h.3a35.88,35.88,0,0,0,3.53-9.9,68.54,68.54,0,0,0,1-13h11.45a48.86,48.86,0,0,1-3,17.77,50.61,50.61,0,0,1-9.92,15.42h-9.61Z"/><path class="cls-4" d="M76.48,497A12.17,12.17,0,0,0,81,496v7.88a13.7,13.7,0,0,1-4,1.54,20.8,20.8,0,0,1-4.91.6c-3.38,0-5.87-.9-7.48-2.68s-2.42-4.53-2.42-8.22V480.72H54.86v24.67H43.4V480.72H36.34v-4.86l5.86-3.66H81v8.52H73.69v13.1a3.43,3.43,0,0,0,.74,2.33A2.59,2.59,0,0,0,76.48,497Z"/><path class="cls-4" d="M119,488.72q0,8.14-4.38,12.7T102.38,506q-7.56,0-12-4.66t-4.47-12.6q0-8.12,4.38-12.61t12.29-4.5a17.48,17.48,0,0,1,8.64,2.08,14.28,14.28,0,0,1,5.79,6A19.23,19.23,0,0,1,119,488.72Zm-21.51,0a14.77,14.77,0,0,0,1.14,6.52,4,4,0,0,0,3.84,2.24,3.88,3.88,0,0,0,3.77-2.24,15.29,15.29,0,0,0,1.1-6.52,14.55,14.55,0,0,0-1.12-6.42,4.42,4.42,0,0,0-7.59,0A14.19,14.19,0,0,0,97.51,488.72Z"/><path class="cls-4" d="M121.59,505.39l14.27-31-.41-1.2a8.25,8.25,0,0,0-2.18-3.6,5.41,5.41,0,0,0-3.71-1.2,15.84,15.84,0,0,0-4,.5v-9a20.54,20.54,0,0,1,2.87-.38q1.7-.12,2.67-.12c3.94,0,7,.82,9.19,2.45s4,4.42,5.42,8.36L153,490.39a31.45,31.45,0,0,0,1.74,4,5.74,5.74,0,0,0,1.63,2,4.22,4.22,0,0,0,2.4.58,8.87,8.87,0,0,0,2.2-.29V505a10.85,10.85,0,0,1-2.86.67,24.53,24.53,0,0,1-3.5.33,9.73,9.73,0,0,1-6.16-2,14.56,14.56,0,0,1-4.27-6.53l-2.05-5.6a37.93,37.93,0,0,1-1.49-5.62h-.24a27.57,27.57,0,0,1-1.43,5.57l-5.45,13.56Z"/><path class="cls-4" d="M176.85,472.2V494c0,2,1.14,3,3.43,3a13.3,13.3,0,0,0,3-.31,24.19,24.19,0,0,0,3.14-.95v8.41a21,21,0,0,1-9.05,1.85c-4.11,0-7.12-1-9.06-2.89s-2.9-4.78-2.9-8.57V472.2Z"/><path class="cls-4" d="M207.64,480.72v13.1a3.3,3.3,0,0,0,.76,2.34,2.81,2.81,0,0,0,2.17.82,16.55,16.55,0,0,0,5.65-1.26v8.35a20,20,0,0,1-8.93,1.85c-4,0-6.83-.92-8.54-2.77s-2.57-4.74-2.57-8.69V480.72h-7.91v-4.86L194,472.2h23.46v8.52Z"/><path class="cls-4" d="M255,488.72q0,8.14-4.38,12.7T238.34,506q-7.56,0-12-4.66t-4.47-12.6q0-8.12,4.38-12.61t12.29-4.5a17.48,17.48,0,0,1,8.64,2.08,14.28,14.28,0,0,1,5.79,6A19.35,19.35,0,0,1,255,488.72Zm-21.5,0a14.77,14.77,0,0,0,1.14,6.52,4,4,0,0,0,3.84,2.24,3.85,3.85,0,0,0,3.76-2.24,15.14,15.14,0,0,0,1.1-6.52,14.57,14.57,0,0,0-1.11-6.42,4.42,4.42,0,0,0-7.59,0A14.19,14.19,0,0,0,233.48,488.72Z"/><path class="cls-4" d="M278.8,519.8H266.73a37.54,37.54,0,0,1,.76-6.48,68.69,68.69,0,0,1,2.08-8.28L257.5,472.2h12L272.85,483q1.41,4.64,1.89,6.84a37,37,0,0,1,.69,4h.24a61,61,0,0,1,2.66-10.28L282,472.2h11.93L281.67,505a42.65,42.65,0,0,0-2.06,7.43A39.34,39.34,0,0,0,278.8,519.8Z"/><path class="cls-4" d="M330.22,488.84q0,8.06-3.49,12.6a11.43,11.43,0,0,1-9.58,4.54,18.2,18.2,0,0,1-4.36-.53,12.8,12.8,0,0,1-3.64-1.44h-.76a58.34,58.34,0,0,1,.65,7.8v8H297.58V489q0-8.2,4.34-12.8t12.15-4.6a16.51,16.51,0,0,1,8.43,2.14,14.47,14.47,0,0,1,5.71,6.06A19.56,19.56,0,0,1,330.22,488.84Zm-16.32-8.7q-4.86,0-4.86,7.32v7.44a5.67,5.67,0,0,0,2.28,1.64,7.08,7.08,0,0,0,2.64.56,3.75,3.75,0,0,0,3.56-1.93q1.07-1.94,1.07-6.33,0-4.6-1.13-6.65A3.77,3.77,0,0,0,313.9,480.14Z"/><path class="cls-4" d="M347.85,506a10.84,10.84,0,0,1-9.25-4.53q-3.35-4.53-3.34-12.49,0-8.2,3.53-12.72a11.8,11.8,0,0,1,9.86-4.51,11.4,11.4,0,0,1,5.56,1.2,9.07,9.07,0,0,1,3.55,3.72h.47a11.34,11.34,0,0,1,2-4.45h9.61a38.46,38.46,0,0,0-1.81,6.76,39.83,39.83,0,0,0-.66,7v7.5c0,2.36.81,3.54,2.41,3.54a5.11,5.11,0,0,0,1.73-.29v8.52a6.3,6.3,0,0,1-2.1.53A18.35,18.35,0,0,1,367,506a12,12,0,0,1-5.81-1.15,8.18,8.18,0,0,1-3.3-3.75h-.7A10.47,10.47,0,0,1,347.85,506Zm3.9-8.88a4.33,4.33,0,0,0,3.82-1.74c.81-1.17,1.24-3.22,1.28-6.17v-.29q0-4.36-1.26-6.33a4.36,4.36,0,0,0-4-2,3.83,3.83,0,0,0-3.54,2.16,13.13,13.13,0,0,0-1.2,6.24Q346.89,497.1,351.75,497.1Zm-3.81-29q.58-2,1.26-5.26t.94-5.11h10.08v.76A94.24,94.24,0,0,1,354.53,469h-6.59Z"/><path class="cls-4" d="M392.5,519.8V505.62q-8-.56-12.48-4.9t-4.45-11.59a26.26,26.26,0,0,1,1.62-9.24,31.37,31.37,0,0,1,5.15-8.69l8.52,5.16a20.11,20.11,0,0,0-3,6,22.83,22.83,0,0,0-1.11,6.95,8.09,8.09,0,0,0,1.48,5.17,8,8,0,0,0,4.29,2.62V485.23q0-6.83,3.23-10.13t10-3.31q7.2,0,11.41,4.19t4.2,11.72q0,7.76-4.76,12.46t-13.2,5.46V519.8Zm17.38-32a11.63,11.63,0,0,0-1.06-5.56,3.26,3.26,0,0,0-3-1.88,2.06,2.06,0,0,0-2,1,8.07,8.07,0,0,0-.54,3.5V497.1a6.25,6.25,0,0,0,4.81-2.64A11.34,11.34,0,0,0,409.88,487.75Z"/><path class="cls-4" d="M448.72,519.8V486.49c0-3.92-1.33-5.88-4-5.88a4.44,4.44,0,0,0-4.19,2.31q-1.29,2.31-1.29,7.94v14.53H427.78V472.2h8.64l1.43,4.1h.68a9.06,9.06,0,0,1,4.06-3.52,14.31,14.31,0,0,1,6-1.17c3.67,0,6.53,1.07,8.57,3.19s3.06,5.13,3.06,9v36Z"/><path class="cls-4" d="M483.47,506q-7.86,0-12.39-4.25T466.54,490q0-9.17,4.84-13.51t15.08-4.33H503.3v8.52h-8.14a12.5,12.5,0,0,1,5.33,10.7,14.33,14.33,0,0,1-2.05,7.69,13.26,13.26,0,0,1-5.89,5.09A21.35,21.35,0,0,1,483.47,506Zm-5.24-16a8,8,0,0,0,1.42,5.1,4.75,4.75,0,0,0,3.94,1.79q5.27,0,5.27-7.21a17.54,17.54,0,0,0-.25-3.22,10.73,10.73,0,0,0-.78-2.52,19.32,19.32,0,0,0-2-3.2h-.64q-3.72,0-5.35,2.16T478.23,490Z"/><path class="cls-4" d="M529.79,519.8V486.49q0-5.88-4-5.88a4.44,4.44,0,0,0-4.19,2.31c-.86,1.54-1.28,4.19-1.28,7.94v14.53H508.84V472.2h8.64l1.44,4.1h.67a9.11,9.11,0,0,1,4.06-3.52,14.37,14.37,0,0,1,6-1.17c3.67,0,6.53,1.07,8.57,3.19s3.06,5.13,3.06,9v36Z"/><path class="cls-4" d="M547.6,489.07q0-8.4,4.41-12.93t12.64-4.53a26.34,26.34,0,0,1,11.63,2.76l-3.25,8.4a38.22,38.22,0,0,0-4.38-1.52,15.09,15.09,0,0,0-4-.64,4.48,4.48,0,0,0-4,2.18c-.93,1.45-1.39,3.61-1.39,6.46a7.91,7.91,0,0,0,.78,3.92,6,6,0,0,0,2.53,2.27,19.52,19.52,0,0,0,4.86,1.6A13,13,0,0,1,574,500.1a7.8,7.8,0,0,1,2.18,5.82q0,4.77-4.07,10.16H560.37a23.08,23.08,0,0,0,3.18-4.36,8.2,8.2,0,0,0,1.28-3.34,1.88,1.88,0,0,0-.63-1.51,7.09,7.09,0,0,0-2.19-1.08,38.56,38.56,0,0,0-4-1.13,14.07,14.07,0,0,1-6.05-2.78,11.63,11.63,0,0,1-3.24-5A24.15,24.15,0,0,1,547.6,489.07Z"/><rect class="cls-5" x="35.67" y="155.21" width="273.76" height="52.51" rx="11.44"/><rect class="cls-4" x="1003.72" y="23.48" width="175" height="175"/><rect x="1062.05" y="34.08" width="5.3" height="5.3"/><rect x="1083.26" y="34.08" width="5.3" height="5.3"/><rect x="1099.17" y="34.08" width="5.3" height="5.3"/><rect x="1115.08" y="34.08" width="5.3" height="5.3"/><rect x="1067.35" y="39.39" width="5.3" height="5.3"/><rect x="1072.66" y="39.39" width="5.3" height="5.3"/><rect x="1077.96" y="39.39" width="5.3" height="5.3"/><rect x="1083.26" y="39.39" width="5.3" height="5.3"/><rect x="1088.57" y="39.39" width="5.3" height="5.3"/><rect x="1093.87" y="39.39" width="5.3" height="5.3"/><rect x="1104.47" y="39.39" width="5.3" height="5.3"/><rect x="1109.78" y="39.39" width="5.3" height="5.3"/><rect x="1120.38" y="39.39" width="5.3" height="5.3"/><rect x="1072.66" y="44.69" width="5.3" height="5.3"/><rect x="1083.26" y="44.69" width="5.3" height="5.3"/><rect x="1099.17" y="44.69" width="5.3" height="5.3"/><rect x="1104.47" y="44.69" width="5.3" height="5.3"/><rect x="1109.78" y="44.69" width="5.3" height="5.3"/><rect x="1120.38" y="44.69" width="5.3" height="5.3"/><rect x="1062.05" y="49.99" width="5.3" height="5.3"/><rect x="1067.35" y="49.99" width="5.3" height="5.3"/><rect x="1072.66" y="49.99" width="5.3" height="5.3"/><rect x="1077.96" y="49.99" width="5.3" height="5.3"/><rect x="1083.26" y="49.99" width="5.3" height="5.3"/><rect x="1088.57" y="49.99" width="5.3" height="5.3"/><rect x="1093.87" y="49.99" width="5.3" height="5.3"/><rect x="1109.78" y="49.99" width="5.3" height="5.3"/><rect x="1115.08" y="49.99" width="5.3" height="5.3"/><rect x="1062.05" y="55.3" width="5.3" height="5.3"/><rect x="1077.96" y="55.3" width="5.3" height="5.3"/><rect x="1083.26" y="55.3" width="5.3" height="5.3"/><rect x="1088.57" y="55.3" width="5.3" height="5.3"/><rect x="1099.17" y="55.3" width="5.3" height="5.3"/><rect x="1104.47" y="55.3" width="5.3" height="5.3"/><rect x="1109.78" y="55.3" width="5.3" height="5.3"/><rect x="1056.75" y="60.6" width="5.3" height="5.3"/><rect x="1062.05" y="60.6" width="5.3" height="5.3"/><rect x="1083.26" y="60.6" width="5.3" height="5.3"/><rect x="1088.57" y="60.6" width="5.3" height="5.3"/><rect x="1115.08" y="60.6" width="5.3" height="5.3"/><rect x="1120.38" y="60.6" width="5.3" height="5.3"/><rect x="1056.75" y="65.9" width="5.3" height="5.3"/><rect x="1067.35" y="65.9" width="5.3" height="5.3"/><rect x="1077.96" y="65.9" width="5.3" height="5.3"/><rect x="1088.57" y="65.9" width="5.3" height="5.3"/><rect x="1099.17" y="65.9" width="5.3" height="5.3"/><rect x="1109.78" y="65.9" width="5.3" height="5.3"/><rect x="1120.38" y="65.9" width="5.3" height="5.3"/><rect x="1067.35" y="71.21" width="5.3" height="5.3"/><rect x="1077.96" y="71.21" width="5.3" height="5.3"/><rect x="1088.57" y="71.21" width="5.3" height="5.3"/><rect x="1104.47" y="71.21" width="5.3" height="5.3"/><rect x="1109.78" y="71.21" width="5.3" height="5.3"/><rect x="1014.32" y="76.51" width="5.3" height="5.3"/><rect x="1030.23" y="76.51" width="5.3" height="5.3"/><rect x="1040.84" y="76.51" width="5.3" height="5.3"/><rect x="1046.14" y="76.51" width="5.3" height="5.3"/><rect x="1056.75" y="76.51" width="5.3" height="5.3"/><rect x="1067.35" y="76.51" width="5.3" height="5.3"/><rect x="1093.87" y="76.51" width="5.3" height="5.3"/><rect x="1120.38" y="76.51" width="5.3" height="5.3"/><rect x="1125.69" y="76.51" width="5.3" height="5.3"/><rect x="1136.29" y="76.51" width="5.3" height="5.3"/><rect x="1019.63" y="81.81" width="5.3" height="5.3"/><rect x="1024.93" y="81.81" width="5.3" height="5.3"/><rect x="1035.54" y="81.81" width="5.3" height="5.3"/><rect x="1051.44" y="81.81" width="5.3" height="5.3"/><rect x="1056.75" y="81.81" width="5.3" height="5.3"/><rect x="1067.35" y="81.81" width="5.3" height="5.3"/><rect x="1088.57" y="81.81" width="5.3" height="5.3"/><rect x="1093.87" y="81.81" width="5.3" height="5.3"/><rect x="1104.47" y="81.81" width="5.3" height="5.3"/><rect x="1109.78" y="81.81" width="5.3" height="5.3"/><rect x="1120.38" y="81.81" width="5.3" height="5.3"/><rect x="1125.69" y="81.81" width="5.3" height="5.3"/><rect x="1130.99" y="81.81" width="5.3" height="5.3"/><rect x="1146.9" y="81.81" width="5.3" height="5.3"/><rect x="1162.81" y="81.81" width="5.3" height="5.3"/><rect x="1030.23" y="87.11" width="5.3" height="5.3"/><rect x="1040.84" y="87.11" width="5.3" height="5.3"/><rect x="1046.14" y="87.11" width="5.3" height="5.3"/><rect x="1051.44" y="87.11" width="5.3" height="5.3"/><rect x="1056.75" y="87.11" width="5.3" height="5.3"/><rect x="1062.05" y="87.11" width="5.3" height="5.3"/><rect x="1072.66" y="87.11" width="5.3" height="5.3"/><rect x="1077.96" y="87.11" width="5.3" height="5.3"/><rect x="1099.17" y="87.11" width="5.3" height="5.3"/><rect x="1115.08" y="87.11" width="5.3" height="5.3"/><rect x="1125.69" y="87.11" width="5.3" height="5.3"/><rect x="1136.29" y="87.11" width="5.3" height="5.3"/><rect x="1146.9" y="87.11" width="5.3" height="5.3"/><rect x="1152.2" y="87.11" width="5.3" height="5.3"/><rect x="1157.51" y="87.11" width="5.3" height="5.3"/><rect x="1014.32" y="92.42" width="5.3" height="5.3"/><rect x="1019.63" y="92.42" width="5.3" height="5.3"/><rect x="1024.93" y="92.42" width="5.3" height="5.3"/><rect x="1030.23" y="92.42" width="5.3" height="5.3"/><rect x="1040.84" y="92.42" width="5.3" height="5.3"/><rect x="1051.44" y="92.42" width="5.3" height="5.3"/><rect x="1056.75" y="92.42" width="5.3" height="5.3"/><rect x="1072.66" y="92.42" width="5.3" height="5.3"/><rect x="1077.96" y="92.42" width="5.3" height="5.3"/><rect x="1088.57" y="92.42" width="5.3" height="5.3"/><rect x="1093.87" y="92.42" width="5.3" height="5.3"/><rect x="1136.29" y="92.42" width="5.3" height="5.3"/><rect x="1152.2" y="92.42" width="5.3" height="5.3"/><rect x="1157.51" y="92.42" width="5.3" height="5.3"/><rect x="1024.93" y="97.72" width="5.3" height="5.3"/><rect x="1035.54" y="97.72" width="5.3" height="5.3"/><rect x="1046.14" y="97.72" width="5.3" height="5.3"/><rect x="1062.05" y="97.72" width="5.3" height="5.3"/><rect x="1099.17" y="97.72" width="5.3" height="5.3"/><rect x="1104.47" y="97.72" width="5.3" height="5.3"/><rect x="1115.08" y="97.72" width="5.3" height="5.3"/><rect x="1120.38" y="97.72" width="5.3" height="5.3"/><rect x="1125.69" y="97.72" width="5.3" height="5.3"/><rect x="1130.99" y="97.72" width="5.3" height="5.3"/><rect x="1146.9" y="97.72" width="5.3" height="5.3"/><rect x="1157.51" y="97.72" width="5.3" height="5.3"/><rect x="1162.81" y="97.72" width="5.3" height="5.3"/><rect x="1014.32" y="103.02" width="5.3" height="5.3"/><rect x="1019.63" y="103.02" width="5.3" height="5.3"/><rect x="1030.23" y="103.02" width="5.3" height="5.3"/><rect x="1072.66" y="103.02" width="5.3" height="5.3"/><rect x="1077.96" y="103.02" width="5.3" height="5.3"/><rect x="1093.87" y="103.02" width="5.3" height="5.3"/><rect x="1115.08" y="103.02" width="5.3" height="5.3"/><rect x="1125.69" y="103.02" width="5.3" height="5.3"/><rect x="1014.32" y="108.33" width="5.3" height="5.3"/><rect x="1019.63" y="108.33" width="5.3" height="5.3"/><rect x="1024.93" y="108.33" width="5.3" height="5.3"/><rect x="1035.54" y="108.33" width="5.3" height="5.3"/><rect x="1046.14" y="108.33" width="5.3" height="5.3"/><rect x="1062.05" y="108.33" width="5.3" height="5.3"/><rect x="1067.35" y="108.33" width="5.3" height="5.3"/><rect x="1093.87" y="108.33" width="5.3" height="5.3"/><rect x="1099.17" y="108.33" width="5.3" height="5.3"/><rect x="1104.47" y="108.33" width="5.3" height="5.3"/><rect x="1109.78" y="108.33" width="5.3" height="5.3"/><rect x="1120.38" y="108.33" width="5.3" height="5.3"/><rect x="1125.69" y="108.33" width="5.3" height="5.3"/><rect x="1146.9" y="108.33" width="5.3" height="5.3"/><rect x="1152.2" y="108.33" width="5.3" height="5.3"/><rect x="1157.51" y="108.33" width="5.3" height="5.3"/><rect x="1162.81" y="108.33" width="5.3" height="5.3"/><rect x="1014.32" y="113.63" width="5.3" height="5.3"/><rect x="1040.84" y="113.63" width="5.3" height="5.3"/><rect x="1051.44" y="113.63" width="5.3" height="5.3"/><rect x="1056.75" y="113.63" width="5.3" height="5.3"/><rect x="1062.05" y="113.63" width="5.3" height="5.3"/><rect x="1072.66" y="113.63" width="5.3" height="5.3"/><rect x="1083.26" y="113.63" width="5.3" height="5.3"/><rect x="1088.57" y="113.63" width="5.3" height="5.3"/><rect x="1099.17" y="113.63" width="5.3" height="5.3"/><rect x="1104.47" y="113.63" width="5.3" height="5.3"/><rect x="1109.78" y="113.63" width="5.3" height="5.3"/><rect x="1115.08" y="113.63" width="5.3" height="5.3"/><rect x="1120.38" y="113.63" width="5.3" height="5.3"/><rect x="1125.69" y="113.63" width="5.3" height="5.3"/><rect x="1130.99" y="113.63" width="5.3" height="5.3"/><rect x="1141.6" y="113.63" width="5.3" height="5.3"/><rect x="1146.9" y="113.63" width="5.3" height="5.3"/><rect x="1157.51" y="113.63" width="5.3" height="5.3"/><rect x="1014.32" y="118.93" width="5.3" height="5.3"/><rect x="1024.93" y="118.93" width="5.3" height="5.3"/><rect x="1046.14" y="118.93" width="5.3" height="5.3"/><rect x="1051.44" y="118.93" width="5.3" height="5.3"/><rect x="1056.75" y="118.93" width="5.3" height="5.3"/><rect x="1062.05" y="118.93" width="5.3" height="5.3"/><rect x="1067.35" y="118.93" width="5.3" height="5.3"/><rect x="1077.96" y="118.93" width="5.3" height="5.3"/><rect x="1083.26" y="118.93" width="5.3" height="5.3"/><rect x="1088.57" y="118.93" width="5.3" height="5.3"/><rect x="1093.87" y="118.93" width="5.3" height="5.3"/><rect x="1104.47" y="118.93" width="5.3" height="5.3"/><rect x="1115.08" y="118.93" width="5.3" height="5.3"/><rect x="1125.69" y="118.93" width="5.3" height="5.3"/><rect x="1157.51" y="118.93" width="5.3" height="5.3"/><rect x="1019.63" y="124.24" width="5.3" height="5.3"/><rect x="1035.54" y="124.24" width="5.3" height="5.3"/><rect x="1067.35" y="124.24" width="5.3" height="5.3"/><rect x="1072.66" y="124.24" width="5.3" height="5.3"/><rect x="1077.96" y="124.24" width="5.3" height="5.3"/><rect x="1093.87" y="124.24" width="5.3" height="5.3"/><rect x="1104.47" y="124.24" width="5.3" height="5.3"/><rect x="1125.69" y="124.24" width="5.3" height="5.3"/><rect x="1130.99" y="124.24" width="5.3" height="5.3"/><rect x="1136.29" y="124.24" width="5.3" height="5.3"/><rect x="1146.9" y="124.24" width="5.3" height="5.3"/><rect x="1162.81" y="124.24" width="5.3" height="5.3"/><rect x="1014.32" y="129.54" width="5.3" height="5.3"/><rect x="1030.23" y="129.54" width="5.3" height="5.3"/><rect x="1035.54" y="129.54" width="5.3" height="5.3"/><rect x="1040.84" y="129.54" width="5.3" height="5.3"/><rect x="1046.14" y="129.54" width="5.3" height="5.3"/><rect x="1056.75" y="129.54" width="5.3" height="5.3"/><rect x="1062.05" y="129.54" width="5.3" height="5.3"/><rect x="1067.35" y="129.54" width="5.3" height="5.3"/><rect x="1083.26" y="129.54" width="5.3" height="5.3"/><rect x="1104.47" y="129.54" width="5.3" height="5.3"/><rect x="1120.38" y="129.54" width="5.3" height="5.3"/><rect x="1136.29" y="129.54" width="5.3" height="5.3"/><rect x="1141.6" y="129.54" width="5.3" height="5.3"/><rect x="1157.51" y="129.54" width="5.3" height="5.3"/><rect x="1162.81" y="129.54" width="5.3" height="5.3"/><rect x="1024.93" y="134.84" width="5.3" height="5.3"/><rect x="1030.23" y="134.84" width="5.3" height="5.3"/><rect x="1035.54" y="134.84" width="5.3" height="5.3"/><rect x="1040.84" y="134.84" width="5.3" height="5.3"/><rect x="1051.44" y="134.84" width="5.3" height="5.3"/><rect x="1056.75" y="134.84" width="5.3" height="5.3"/><rect x="1062.05" y="134.84" width="5.3" height="5.3"/><rect x="1067.35" y="134.84" width="5.3" height="5.3"/><rect x="1072.66" y="134.84" width="5.3" height="5.3"/><rect x="1077.96" y="134.84" width="5.3" height="5.3"/><rect x="1083.26" y="134.84" width="5.3" height="5.3"/><rect x="1104.47" y="134.84" width="5.3" height="5.3"/><rect x="1109.78" y="134.84" width="5.3" height="5.3"/><rect x="1115.08" y="134.84" width="5.3" height="5.3"/><rect x="1130.99" y="134.84" width="5.3" height="5.3"/><rect x="1141.6" y="134.84" width="5.3" height="5.3"/><rect x="1157.51" y="134.84" width="5.3" height="5.3"/><rect x="1162.81" y="134.84" width="5.3" height="5.3"/><rect x="1014.32" y="140.14" width="5.3" height="5.3"/><rect x="1024.93" y="140.14" width="5.3" height="5.3"/><rect x="1046.14" y="140.14" width="5.3" height="5.3"/><rect x="1051.44" y="140.14" width="5.3" height="5.3"/><rect x="1056.75" y="140.14" width="5.3" height="5.3"/><rect x="1072.66" y="140.14" width="5.3" height="5.3"/><rect x="1088.57" y="140.14" width="5.3" height="5.3"/><rect x="1093.87" y="140.14" width="5.3" height="5.3"/><rect x="1099.17" y="140.14" width="5.3" height="5.3"/><rect x="1120.38" y="140.14" width="5.3" height="5.3"/><rect x="1125.69" y="140.14" width="5.3" height="5.3"/><rect x="1130.99" y="140.14" width="5.3" height="5.3"/><rect x="1136.29" y="140.14" width="5.3" height="5.3"/><rect x="1141.6" y="140.14" width="5.3" height="5.3"/><rect x="1152.2" y="140.14" width="5.3" height="5.3"/><rect x="1056.75" y="145.45" width="5.3" height="5.3"/><rect x="1062.05" y="145.45" width="5.3" height="5.3"/><rect x="1072.66" y="145.45" width="5.3" height="5.3"/><rect x="1077.96" y="145.45" width="5.3" height="5.3"/><rect x="1083.26" y="145.45" width="5.3" height="5.3"/><rect x="1120.38" y="145.45" width="5.3" height="5.3"/><rect x="1141.6" y="145.45" width="5.3" height="5.3"/><rect x="1152.2" y="145.45" width="5.3" height="5.3"/><rect x="1157.51" y="145.45" width="5.3" height="5.3"/><rect x="1162.81" y="145.45" width="5.3" height="5.3"/><rect x="1077.96" y="150.75" width="5.3" height="5.3"/><rect x="1083.26" y="150.75" width="5.3" height="5.3"/><rect x="1088.57" y="150.75" width="5.3" height="5.3"/><rect x="1104.47" y="150.75" width="5.3" height="5.3"/><rect x="1120.38" y="150.75" width="5.3" height="5.3"/><rect x="1130.99" y="150.75" width="5.3" height="5.3"/><rect x="1141.6" y="150.75" width="5.3" height="5.3"/><rect x="1157.51" y="150.75" width="5.3" height="5.3"/><rect x="1056.75" y="156.05" width="5.3" height="5.3"/><rect x="1062.05" y="156.05" width="5.3" height="5.3"/><rect x="1083.26" y="156.05" width="5.3" height="5.3"/><rect x="1120.38" y="156.05" width="5.3" height="5.3"/><rect x="1141.6" y="156.05" width="5.3" height="5.3"/><rect x="1146.9" y="156.05" width="5.3" height="5.3"/><rect x="1152.2" y="156.05" width="5.3" height="5.3"/><rect x="1157.51" y="156.05" width="5.3" height="5.3"/><rect x="1088.57" y="161.36" width="5.3" height="5.3"/><rect x="1104.47" y="161.36" width="5.3" height="5.3"/><rect x="1109.78" y="161.36" width="5.3" height="5.3"/><rect x="1120.38" y="161.36" width="5.3" height="5.3"/><rect x="1125.69" y="161.36" width="5.3" height="5.3"/><rect x="1130.99" y="161.36" width="5.3" height="5.3"/><rect x="1136.29" y="161.36" width="5.3" height="5.3"/><rect x="1141.6" y="161.36" width="5.3" height="5.3"/><rect x="1162.81" y="161.36" width="5.3" height="5.3"/><rect x="1056.75" y="166.66" width="5.3" height="5.3"/><rect x="1067.35" y="166.66" width="5.3" height="5.3"/><rect x="1077.96" y="166.66" width="5.3" height="5.3"/><rect x="1088.57" y="166.66" width="5.3" height="5.3"/><rect x="1120.38" y="166.66" width="5.3" height="5.3"/><rect x="1130.99" y="166.66" width="5.3" height="5.3"/><rect x="1136.29" y="166.66" width="5.3" height="5.3"/><rect x="1141.6" y="166.66" width="5.3" height="5.3"/><rect x="1146.9" y="166.66" width="5.3" height="5.3"/><rect x="1152.2" y="166.66" width="5.3" height="5.3"/><rect x="1157.51" y="166.66" width="5.3" height="5.3"/><rect x="1083.26" y="171.96" width="5.3" height="5.3"/><rect x="1104.47" y="171.96" width="5.3" height="5.3"/><rect x="1115.08" y="171.96" width="5.3" height="5.3"/><rect x="1120.38" y="171.96" width="5.3" height="5.3"/><rect x="1125.69" y="171.96" width="5.3" height="5.3"/><rect x="1141.6" y="171.96" width="5.3" height="5.3"/><rect x="1146.9" y="171.96" width="5.3" height="5.3"/><rect x="1152.2" y="171.96" width="5.3" height="5.3"/><rect x="1162.81" y="171.96" width="5.3" height="5.3"/><rect x="1072.66" y="177.27" width="5.3" height="5.3"/><rect x="1083.26" y="177.27" width="5.3" height="5.3"/><rect x="1088.57" y="177.27" width="5.3" height="5.3"/><rect x="1099.17" y="177.27" width="5.3" height="5.3"/><rect x="1104.47" y="177.27" width="5.3" height="5.3"/><rect x="1109.78" y="177.27" width="5.3" height="5.3"/><rect x="1115.08" y="177.27" width="5.3" height="5.3"/><rect x="1120.38" y="177.27" width="5.3" height="5.3"/><rect x="1125.69" y="177.27" width="5.3" height="5.3"/><rect x="1141.6" y="177.27" width="5.3" height="5.3"/><rect x="1157.51" y="177.27" width="5.3" height="5.3"/><rect x="1056.75" y="182.57" width="5.3" height="5.3"/><rect x="1072.66" y="182.57" width="5.3" height="5.3"/><rect x="1088.57" y="182.57" width="5.3" height="5.3"/><rect x="1104.47" y="182.57" width="5.3" height="5.3"/><rect x="1115.08" y="182.57" width="5.3" height="5.3"/><rect x="1120.38" y="182.57" width="5.3" height="5.3"/><rect x="1125.69" y="182.57" width="5.3" height="5.3"/><rect x="1130.99" y="182.57" width="5.3" height="5.3"/><rect x="1136.29" y="182.57" width="5.3" height="5.3"/><rect x="1146.9" y="182.57" width="5.3" height="5.3"/><rect x="1157.51" y="182.57" width="5.3" height="5.3"/><rect class="cls-6" x="1019.89" y="39.65" width="25.98" height="25.98"/><path d="M1045.88,34.08h-31.56V71.21h37.12V34.08Zm0,31.56h-26v-26h26Z"/><rect class="cls-6" x="1136.56" y="39.65" width="25.98" height="25.98"/><path d="M1162.54,34.08H1131V71.21h37.12V34.08Zm0,31.56h-26v-26h26Z"/><rect class="cls-6" x="1019.89" y="156.32" width="25.98" height="25.98"/><path d="M1045.88,150.75h-31.56v37.12h37.12V150.75Zm0,31.55h-26v-26h26Z"/><rect x="1024.93" y="44.69" width="15.91" height="15.91"/><rect x="1141.6" y="44.69" width="15.91" height="15.91"/><rect x="1024.93" y="161.36" width="15.91" height="15.91"/></svg>