<svg id="Layer_1" data-name="Layer 1" xmlns="http://www.w3.org/2000/svg" xmlns:xlink="http://www.w3.org/1999/xlink" viewBox="0 0 1200 675"><defs><style>.cls-1{fill:url(#linear-gradient);}.cls-2{isolation:isolate;}.cls-3{fill:#fff;}.cls-4,.cls-5{fill:none;}.cls-4{stroke:#fff;stroke-miterlimit:10;stroke-width:1.27px;}</style><linearGradient id="linear-gradient" x1="131.25" y1="805.83" x2="1068.75" y2="-131.67" gradientTransform="matrix(1, 0, 0, -1, 0, 674.58)" gradientUnits="userSpaceOnUse"><stop offset="0" stop-color="#3b82f6"/><stop offset="0.53" stop-color="#1d4ed8"/><stop offset="1" stop-color="#1e40af"/></linearGradient></defs><rect class="cls-1" width="1200" height="675"/><g class="cls-2"><path class="cls-3" d="M908.4,623.11h7.16V632a16,16,0,0,1-6.34,1.2q-4.59,0-7-2.6t-2.45-7.35A11.05,11.05,0,0,1,901,618a8.48,8.48,0,0,1,3.48-3.54,10.57,10.57,0,0,1,5.19-1.25,13.38,13.38,0,0,1,5.7,1.17l-.54,1.23a12.35,12.35,0,0,0-5.24-1.17,8,8,0,0,0-6.08,2.37,8.9,8.9,0,0,0-2.25,6.39q0,4.38,2.13,6.59t6.28,2.21a12.08,12.08,0,0,0,4.56-.76v-6.82H908.4Z" transform="translate(0 0)"/><path class="cls-3" d="M925.78,618.18a10.82,10.82,0,0,1,2,.19l-.26,1.26a7.66,7.66,0,0,0-1.87-.23,3.63,3.63,0,0,0-3,1.57,6.41,6.41,0,0,0-1.18,3.95v8H920.1V618.46h1.11l.14,2.6h.09a6.15,6.15,0,0,1,1.9-2.24A4.5,4.5,0,0,1,925.78,618.18Z" transform="translate(0 0)"/><path class="cls-3" d="M936.51,633.16a6.31,6.31,0,0,1-4.91-1.94,7.81,7.81,0,0,1-1.76-5.43,8.48,8.48,0,0,1,1.7-5.53,5.61,5.61,0,0,1,4.58-2.08,5,5,0,0,1,4,1.78,7.37,7.37,0,0,1,1.47,4.83v1.06h-10.4a6.8,6.8,0,0,0,1.39,4.54,4.88,4.88,0,0,0,3.9,1.57,12.66,12.66,0,0,0,2.17-.17,13.13,13.13,0,0,0,2.37-.75v1.2a11,11,0,0,1-2.26.72A12.32,12.32,0,0,1,936.51,633.16Zm-.39-13.81a4.33,4.33,0,0,0-3.34,1.37,6.56,6.56,0,0,0-1.48,4h8.93a6.33,6.33,0,0,0-1.09-3.93A3.6,3.6,0,0,0,936.12,619.35Z" transform="translate(0 0)"/><path class="cls-3" d="M951.43,633.16a6.28,6.28,0,0,1-4.9-1.94,7.77,7.77,0,0,1-1.76-5.43,8.47,8.47,0,0,1,1.69-5.53,5.61,5.61,0,0,1,4.58-2.08,4.93,4.93,0,0,1,4,1.78,7.37,7.37,0,0,1,1.47,4.83v1.06H946.15a6.8,6.8,0,0,0,1.38,4.54,4.88,4.88,0,0,0,3.9,1.57,12.57,12.57,0,0,0,2.17-.17A12.89,12.89,0,0,0,956,631v1.2a10.83,10.83,0,0,1-2.26.72A12.32,12.32,0,0,1,951.43,633.16ZM951,619.35a4.34,4.34,0,0,0-3.34,1.37,6.5,6.5,0,0,0-1.47,4h8.92a6.27,6.27,0,0,0-1.09-3.93A3.6,3.6,0,0,0,951,619.35Z" transform="translate(0 0)"/><path class="cls-3" d="M961.81,626.56l7.37-8.1h1.59l-5.68,6.16,6.18,8.27h-1.58l-5.49-7.29-2.36,2.15v5.14h-1.31V612.23h1.31v10.36l-.09,4Z" transform="translate(0 0)"/><path class="cls-3" d="M982.63,629.13a3.42,3.42,0,0,1-1.47,3,7.17,7.17,0,0,1-4.19,1,10,10,0,0,1-4.59-.89v-1.42a10.19,10.19,0,0,0,4.59,1.08,6,6,0,0,0,3.25-.71,2.15,2.15,0,0,0,1.11-1.89,2.31,2.31,0,0,0-.88-1.83,9.69,9.69,0,0,0-2.91-1.46,16.44,16.44,0,0,1-3-1.35,4.24,4.24,0,0,1-1.32-1.27,3.27,3.27,0,0,1-.44-1.73,3,3,0,0,1,1.36-2.57,6.61,6.61,0,0,1,3.8-.94,11.31,11.31,0,0,1,4.44.88l-.49,1.19a10.51,10.51,0,0,0-4-.88,5.71,5.71,0,0,0-2.8.59,1.79,1.79,0,0,0-1,1.62,2.22,2.22,0,0,0,.8,1.8A11,11,0,0,0,978,624.9a15.15,15.15,0,0,1,2.84,1.27,4.13,4.13,0,0,1,1.34,1.28A3.16,3.16,0,0,1,982.63,629.13Z" transform="translate(0 0)"/><path class="cls-3" d="M1005.35,625.65a8.13,8.13,0,0,1-1.72,5.52,5.91,5.91,0,0,1-4.72,2,6.15,6.15,0,0,1-3.35-.92,6,6,0,0,1-2.22-2.63,9.61,9.61,0,0,1-.77-4,8.14,8.14,0,0,1,1.72-5.5,5.91,5.91,0,0,1,4.7-2,5.78,5.78,0,0,1,4.66,2A8.19,8.19,0,0,1,1005.35,625.65Zm-11.39,0a7.34,7.34,0,0,0,1.3,4.64,4.93,4.93,0,0,0,7.4,0,7.34,7.34,0,0,0,1.31-4.64,7.17,7.17,0,0,0-1.33-4.63,4.47,4.47,0,0,0-3.71-1.65,4.42,4.42,0,0,0-3.68,1.64A7.36,7.36,0,0,0,994,625.65Z" transform="translate(0 0)"/><path class="cls-3" d="M1014.71,619.6h-3.4v13.29H1010V619.6h-2.68v-.77l2.68-.49v-1.12a6.26,6.26,0,0,1,1-3.89,3.8,3.8,0,0,1,3.19-1.24,8.59,8.59,0,0,1,2.39.35l-.3,1.15a6.85,6.85,0,0,0-2.12-.34,2.51,2.51,0,0,0-2.18.91,5.26,5.26,0,0,0-.64,3v1.34h3.4Z" transform="translate(0 0)"/><path class="cls-3" d="M1029.92,619.6h-3.4v13.29h-1.31V619.6h-2.68v-.77l2.68-.49v-1.12a6.27,6.27,0,0,1,1-3.89,3.82,3.82,0,0,1,3.2-1.24,8.64,8.64,0,0,1,2.39.35l-.31,1.15a6.79,6.79,0,0,0-2.11-.34,2.48,2.48,0,0,0-2.18.91,5.25,5.25,0,0,0-.65,3v1.34h3.4Z" transform="translate(0 0)"/><path class="cls-3" d="M1044.64,625.65a8.18,8.18,0,0,1-1.71,5.52,5.92,5.92,0,0,1-4.72,2,6.12,6.12,0,0,1-3.35-.92,5.88,5.88,0,0,1-2.22-2.63,9.61,9.61,0,0,1-.77-4,8.14,8.14,0,0,1,1.71-5.5,5.93,5.93,0,0,1,4.71-2,5.79,5.79,0,0,1,4.66,2A8.19,8.19,0,0,1,1044.64,625.65Zm-11.39,0a7.34,7.34,0,0,0,1.31,4.64,4.93,4.93,0,0,0,7.4,0,7.34,7.34,0,0,0,1.3-4.64,7.23,7.23,0,0,0-1.32-4.63,4.49,4.49,0,0,0-3.71-1.65,4.42,4.42,0,0,0-3.68,1.64A7.3,7.3,0,0,0,1033.25,625.65Z" transform="translate(0 0)"/><path class="cls-3" d="M1054.32,618.18a10.82,10.82,0,0,1,2,.19l-.25,1.26a7.81,7.81,0,0,0-1.88-.23,3.6,3.6,0,0,0-3,1.57,6.35,6.35,0,0,0-1.18,3.95v8h-1.32V618.46h1.12l.13,2.6h.09a6.15,6.15,0,0,1,1.9-2.24A4.52,4.52,0,0,1,1054.32,618.18Z" transform="translate(0 0)"/><path class="cls-3" d="M1077.25,632.89v-9.47a4.73,4.73,0,0,0-.82-3.08,3.15,3.15,0,0,0-2.52-1,4.09,4.09,0,0,0-3.28,1.23,5.73,5.73,0,0,0-1.07,3.83v8.46h-1.34V623q0-3.66-3.34-3.66a4,4,0,0,0-3.31,1.33,6.87,6.87,0,0,0-1,4.22v8h-1.32V618.46h1.09l.28,2h.08a4.09,4.09,0,0,1,1.7-1.67,5.08,5.08,0,0,1,2.43-.59q3.4,0,4.38,2.56h0a5,5,0,0,1,1.89-1.9,5.52,5.52,0,0,1,2.71-.66,4.63,4.63,0,0,1,3.54,1.26,5.72,5.72,0,0,1,1.18,4v9.44Z" transform="translate(0 0)"/><path class="cls-3" d="M1089.05,633.16a6.29,6.29,0,0,1-4.9-1.94,7.77,7.77,0,0,1-1.76-5.43,8.48,8.48,0,0,1,1.7-5.53,5.59,5.59,0,0,1,4.58-2.08,4.92,4.92,0,0,1,4,1.78,7.37,7.37,0,0,1,1.48,4.83v1.06h-10.4a6.8,6.8,0,0,0,1.39,4.54,4.84,4.84,0,0,0,3.89,1.57,12.49,12.49,0,0,0,2.17-.17,12.66,12.66,0,0,0,2.37-.75v1.2a10.75,10.75,0,0,1-2.25.72A12.36,12.36,0,0,1,1089.05,633.16Zm-.38-13.81a4.35,4.35,0,0,0-3.35,1.37,6.5,6.5,0,0,0-1.47,4h8.92a6.27,6.27,0,0,0-1.09-3.93A3.58,3.58,0,0,0,1088.67,619.35Z" transform="translate(0 0)"/><path class="cls-3" d="M1103.83,618.18a10.63,10.63,0,0,1,2,.19l-.25,1.26a7.66,7.66,0,0,0-1.87-.23,3.63,3.63,0,0,0-3,1.57,6.41,6.41,0,0,0-1.18,3.95v8h-1.31V618.46h1.11l.14,2.6h.09a6.06,6.06,0,0,1,1.9-2.24A4.5,4.5,0,0,1,1103.83,618.18Z" transform="translate(0 0)"/><path class="cls-3" d="M1130.4,613.48V626a7,7,0,0,1-1.94,5.23,7.41,7.41,0,0,1-5.41,1.89,6.57,6.57,0,0,1-7.15-7.17V613.48h1.37V626a6.18,6.18,0,0,0,10.25,4.39,5.81,5.81,0,0,0,1.52-4.26V613.48Z" transform="translate(0 0)"/><path class="cls-3" d="M1146.39,627.89a4.67,4.67,0,0,1-1.78,3.85,7.44,7.44,0,0,1-4.75,1.42,14.84,14.84,0,0,1-5.45-.79V631a13.83,13.83,0,0,0,5.35.89,6,6,0,0,0,3.79-1.1,3.48,3.48,0,0,0,1.4-2.87,3.34,3.34,0,0,0-.47-1.83,4.26,4.26,0,0,0-1.51-1.32,18.65,18.65,0,0,0-3.08-1.29,10.47,10.47,0,0,1-4.11-2.21,4.72,4.72,0,0,1,.57-6.71,6.76,6.76,0,0,1,4.39-1.38,12.9,12.9,0,0,1,5.14,1l-.5,1.16a12,12,0,0,0-4.61-1,5.44,5.44,0,0,0-3.43,1,3.26,3.26,0,0,0-1.27,2.71,3.12,3.12,0,0,0,1.67,3,17,17,0,0,0,3,1.32,16.44,16.44,0,0,1,3.41,1.52,4.92,4.92,0,0,1,1.67,1.67A4.59,4.59,0,0,1,1146.39,627.89Z" transform="translate(0 0)"/><path class="cls-3" d="M1161.21,627.89a4.67,4.67,0,0,1-1.78,3.85,7.48,7.48,0,0,1-4.75,1.42,14.94,14.94,0,0,1-5.46-.79V631a13.86,13.86,0,0,0,5.35.89,6,6,0,0,0,3.79-1.1,3.46,3.46,0,0,0,1.4-2.87,3.34,3.34,0,0,0-.46-1.83,4.35,4.35,0,0,0-1.51-1.32,18.65,18.65,0,0,0-3.08-1.29,10.32,10.32,0,0,1-4.11-2.21,4.72,4.72,0,0,1,.57-6.71,6.73,6.73,0,0,1,4.38-1.38,12.83,12.83,0,0,1,5.14,1l-.49,1.16a12,12,0,0,0-4.62-1,5.43,5.43,0,0,0-3.42,1,3.27,3.27,0,0,0-1.28,2.71,3.57,3.57,0,0,0,.39,1.77,3.63,3.63,0,0,0,1.28,1.24,17.55,17.55,0,0,0,3.06,1.32A16.44,16.44,0,0,1,1159,624a4.92,4.92,0,0,1,1.67,1.67A4.59,4.59,0,0,1,1161.21,627.89Z" transform="translate(0 0)"/><path class="cls-3" d="M1166.67,624.43v8.46h-1.36V613.48h4.62a8.77,8.77,0,0,1,5.34,1.33,4.77,4.77,0,0,1,1.73,4,5.27,5.27,0,0,1-1,3.29,5.71,5.71,0,0,1-3.13,1.93l5.27,8.84h-1.62l-5-8.46Zm0-1.16h3.7a5.9,5.9,0,0,0,3.81-1.1,3.92,3.92,0,0,0,1.36-3.23,3.81,3.81,0,0,0-1.33-3.23,7.28,7.28,0,0,0-4.33-1h-3.21Z" transform="translate(0 0)"/></g><g class="cls-2"><path class="cls-3" d="M65.5,250.22q0,4.82-2.39,7.41a8.88,8.88,0,0,1-6.85,2.59,8.88,8.88,0,0,1-6.85-2.59Q47,255,47,250.19t2.4-7.4c1.59-1.7,3.88-2.56,6.87-2.56s5.26.86,6.84,2.58S65.5,247,65.5,250.22Zm-14.17,0a8.13,8.13,0,0,0,1.24,4.9,4.33,4.33,0,0,0,3.69,1.64c3.28,0,4.93-2.18,4.93-6.54s-1.64-6.56-4.9-6.56a4.36,4.36,0,0,0-3.71,1.65A8.09,8.09,0,0,0,51.33,250.22Z" transform="translate(0 0)"/><path class="cls-3" d="M77.36,260.22a5,5,0,0,1-4.11-1.9H73c.14,1.24.21,1.95.21,2.15v6h-4V245.11h3.3l.57,1.92h.18a4.68,4.68,0,0,1,4.21-2.2,4.82,4.82,0,0,1,4.12,2,9.38,9.38,0,0,1,1.49,5.64,11.23,11.23,0,0,1-.7,4.13,5.82,5.82,0,0,1-2,2.67A5.07,5.07,0,0,1,77.36,260.22Zm-1.2-12.15A2.54,2.54,0,0,0,74,249a5.33,5.33,0,0,0-.72,3v.44A6.27,6.27,0,0,0,74,255.9a2.55,2.55,0,0,0,2.25,1q2.73,0,2.73-4.49a6.5,6.5,0,0,0-.67-3.29A2.29,2.29,0,0,0,76.16,248.07Z" transform="translate(0 0)"/><path class="cls-3" d="M93.13,260.22a7.64,7.64,0,0,1-5.6-2,7.49,7.49,0,0,1-2-5.61,8.23,8.23,0,0,1,1.86-5.76,6.66,6.66,0,0,1,5.16-2,6.56,6.56,0,0,1,4.9,1.79,6.79,6.79,0,0,1,1.75,4.95v2H89.61a3.89,3.89,0,0,0,1,2.69,3.58,3.58,0,0,0,2.68,1,10.93,10.93,0,0,0,2.54-.28,12.17,12.17,0,0,0,2.5-.89v3.14a10.16,10.16,0,0,1-2.27.79A14.55,14.55,0,0,1,93.13,260.22Zm-.57-12.51a2.56,2.56,0,0,0-2,.82,3.73,3.73,0,0,0-.84,2.31h5.69a3.34,3.34,0,0,0-.79-2.31A2.62,2.62,0,0,0,92.56,247.71Z" transform="translate(0 0)"/><path class="cls-3" d="M116.18,260h-4.05v-8.67a4.18,4.18,0,0,0-.57-2.41,2.09,2.09,0,0,0-1.82-.8,2.75,2.75,0,0,0-2.46,1.13,7.09,7.09,0,0,0-.76,3.77v7h-4V245.11h3.09l.54,1.9h.23a4.27,4.27,0,0,1,1.86-1.63,6.37,6.37,0,0,1,2.71-.55,5.19,5.19,0,0,1,3.93,1.4,5.63,5.63,0,0,1,1.34,4Z" transform="translate(0 0)"/><path class="cls-3" d="M127.73,260V240.54h4.11v16h7.88V260Z" transform="translate(0 0)"/><path class="cls-3" d="M149.49,260.22a7.68,7.68,0,0,1-5.61-2,7.52,7.52,0,0,1-2-5.61,8.23,8.23,0,0,1,1.86-5.76,6.63,6.63,0,0,1,5.16-2,6.56,6.56,0,0,1,4.9,1.79,6.79,6.79,0,0,1,1.75,4.95v2H146a3.84,3.84,0,0,0,1,2.69,3.58,3.58,0,0,0,2.68,1,10.93,10.93,0,0,0,2.54-.28,12.09,12.09,0,0,0,2.49-.89v3.14a9.82,9.82,0,0,1-2.27.79A14.37,14.37,0,0,1,149.49,260.22Zm-.57-12.51a2.54,2.54,0,0,0-2,.82,3.73,3.73,0,0,0-.84,2.31h5.68a3.33,3.33,0,0,0-.78-2.31A2.63,2.63,0,0,0,148.92,247.71Z" transform="translate(0 0)"/><path class="cls-3" d="M165.09,257a8.9,8.9,0,0,0,2.55-.47v3a9.12,9.12,0,0,1-3.72.68,4.55,4.55,0,0,1-3.54-1.23,5.35,5.35,0,0,1-1.11-3.69v-7.15h-1.94v-1.72l2.23-1.35,1.17-3.13h2.59v3.16h4.16v3h-4.16v7.15a1.57,1.57,0,0,0,.49,1.28A1.93,1.93,0,0,0,165.09,257Z" transform="translate(0 0)"/><path class="cls-3" d="M176.89,257a8.79,8.79,0,0,0,2.55-.47v3a9.12,9.12,0,0,1-3.72.68,4.55,4.55,0,0,1-3.54-1.23,5.35,5.35,0,0,1-1.11-3.69v-7.15h-1.93v-1.72l2.23-1.35,1.16-3.13h2.59v3.16h4.16v3h-4.16v7.15a1.57,1.57,0,0,0,.49,1.28A1.93,1.93,0,0,0,176.89,257Z" transform="translate(0 0)"/><path class="cls-3" d="M189.16,260.22a7.68,7.68,0,0,1-5.61-2,7.52,7.52,0,0,1-2-5.61,8.23,8.23,0,0,1,1.86-5.76,6.63,6.63,0,0,1,5.16-2,6.56,6.56,0,0,1,4.9,1.79,6.79,6.79,0,0,1,1.75,4.95v2h-9.57a3.84,3.84,0,0,0,1,2.69,3.58,3.58,0,0,0,2.68,1,10.93,10.93,0,0,0,2.54-.28,12.09,12.09,0,0,0,2.49-.89v3.14a9.82,9.82,0,0,1-2.27.79A14.37,14.37,0,0,1,189.16,260.22Zm-.57-12.51a2.54,2.54,0,0,0-2,.82,3.73,3.73,0,0,0-.84,2.31h5.68a3.33,3.33,0,0,0-.78-2.31A2.63,2.63,0,0,0,188.59,247.71Z" transform="translate(0 0)"/><path class="cls-3" d="M206.79,244.83a6.57,6.57,0,0,1,1.37.12l-.31,3.79a5.12,5.12,0,0,0-1.2-.13,4.28,4.28,0,0,0-3,1,3.59,3.59,0,0,0-1.08,2.79V260H198.5V245.11h3.07l.6,2.49h.2a5.61,5.61,0,0,1,1.86-2A4.62,4.62,0,0,1,206.79,244.83Z" transform="translate(0 0)"/></g><g class="cls-2"><g class="cls-2"><path class="cls-3" d="M77,358.39H65.38V340.93H51.93v17.46H40.3V315.56H51.93v15.88H65.38V315.56H77Z" transform="translate(0 0)"/><path class="cls-3" d="M101.62,359q-8.3,0-12.88-4.41T84.16,342q0-8.4,4.24-12.9t12.13-4.5q7.5,0,11.59,3.91t4.09,11.27v5.09H95.73a5.72,5.72,0,0,0,2,4.37,8,8,0,0,0,5.23,1.58,25.33,25.33,0,0,0,5.56-.57,27.46,27.46,0,0,0,5.49-1.95v8.23a20.1,20.1,0,0,1-5.57,1.91A38.59,38.59,0,0,1,101.62,359Zm-.68-26.58a4.77,4.77,0,0,0-3.38,1.28,6,6,0,0,0-1.6,4h9.85a5.73,5.73,0,0,0-1.37-3.84A4.47,4.47,0,0,0,100.94,332.4Z" transform="translate(0 0)"/><path class="cls-3" d="M134.14,358.39H122.68V312.8h11.46Z" transform="translate(0 0)"/><path class="cls-3" d="M162,359a11.48,11.48,0,0,1-4.51-.84,11.6,11.6,0,0,1-4-3H153a40,40,0,0,1,.53,4.33V372.8H142.08V325.2h9.31l1.61,4.22h.53a10,10,0,0,1,8.82-4.81,9.92,9.92,0,0,1,8.64,4.57q3.13,4.57,3.14,12.54t-3.27,12.64A10.3,10.3,0,0,1,162,359Zm-3.84-25.38a3.71,3.71,0,0,0-3.53,1.81,11.85,11.85,0,0,0-1.1,5.34v.91q0,4.27,1.14,6.18a3.92,3.92,0,0,0,3.61,1.91,3.35,3.35,0,0,0,3.19-1.89c.66-1.26,1-3.35,1-6.26s-.34-4.89-1-6.13A3.45,3.45,0,0,0,158.16,333.6Z" transform="translate(0 0)"/><path class="cls-3" d="M221.88,348.19q0,5.34-3.63,8.06T207.82,359a45.9,45.9,0,0,1-6.42-.4,27.2,27.2,0,0,1-5.56-1.45V348a33.61,33.61,0,0,0,5.84,1.93,24.58,24.58,0,0,0,5.67.77c2.48,0,3.72-.57,3.72-1.7a1.93,1.93,0,0,0-1-1.57,47.4,47.4,0,0,0-6.05-2.68q-4.57-1.87-6.39-4.26a9.73,9.73,0,0,1-1.81-6.05,8.38,8.38,0,0,1,3.57-7.21q3.57-2.58,10.11-2.58a25.45,25.45,0,0,1,6.17.72,37.65,37.65,0,0,1,6,2.09l-3.11,7.39a34,34,0,0,0-4.83-1.75,16.07,16.07,0,0,0-4.16-.72c-1.88,0-2.81.46-2.81,1.38a1.7,1.7,0,0,0,1,1.45,51.65,51.65,0,0,0,5.67,2.45,22.06,22.06,0,0,1,5.2,2.81,8.5,8.5,0,0,1,2.52,3.24A11.49,11.49,0,0,1,221.88,348.19Z" transform="translate(0 0)"/><path class="cls-3" d="M244.5,349.92a17.11,17.11,0,0,0,5.54-1.14v8.35a22.9,22.9,0,0,1-4.41,1.42,25.26,25.26,0,0,1-4.91.43c-3.85,0-6.62-1-8.32-2.83s-2.55-4.78-2.55-8.69V333.78h-4v-4.66l5.09-3.6,3-7h7.5v6.65h8.15v8.58h-8.15V346.7Q241.39,349.93,244.5,349.92Z" transform="translate(0 0)"/><path class="cls-3" d="M287.54,341.72c0,5.43-1.47,9.66-4.38,12.7s-7,4.56-12.27,4.56q-7.54,0-12-4.66t-4.47-12.6q0-8.12,4.38-12.61t12.29-4.5a17.48,17.48,0,0,1,8.64,2.08,14.23,14.23,0,0,1,5.79,6A19.23,19.23,0,0,1,287.54,341.72Zm-21.51,0a14.8,14.8,0,0,0,1.14,6.52,4,4,0,0,0,3.84,2.24,3.88,3.88,0,0,0,3.77-2.24,15.32,15.32,0,0,0,1.1-6.52,14.55,14.55,0,0,0-1.12-6.42,4.42,4.42,0,0,0-7.59,0A14.16,14.16,0,0,0,266,341.72Z" transform="translate(0 0)"/><path class="cls-3" d="M314,359a10.39,10.39,0,0,1-8.47-3.84H305a41.73,41.73,0,0,1,.52,4.33V372.8H294.07V325.2h9.31l1.62,4.22h.52a10,10,0,0,1,8.82-4.81,9.92,9.92,0,0,1,8.64,4.57q3.13,4.57,3.14,12.54t-3.27,12.64A10.3,10.3,0,0,1,314,359Zm-3.84-25.38a3.72,3.72,0,0,0-3.53,1.81,11.85,11.85,0,0,0-1.1,5.34v.91q0,4.27,1.15,6.18a3.89,3.89,0,0,0,3.6,1.91,3.35,3.35,0,0,0,3.19-1.89q1-1.89,1-6.26t-1-6.13A3.44,3.44,0,0,0,310.15,333.6Z" transform="translate(0 0)"/><path class="cls-3" d="M358.55,359a10,10,0,0,1-6.2-2,12.87,12.87,0,0,1-4.1-5.94,26.62,26.62,0,0,1-1.45-9.17q0-8.08,3.25-12.66a10.38,10.38,0,0,1,8.94-4.57,10.27,10.27,0,0,1,4.88,1.11,10.94,10.94,0,0,1,3.82,3.75h.24a53.61,53.61,0,0,1-.56-7.79V312.8h11.54v45.59h-8.64l-2.46-4.19h-.44A9.71,9.71,0,0,1,358.55,359Zm4.69-9.06a4.26,4.26,0,0,0,3.88-1.73,10.41,10.41,0,0,0,1.22-5.33V342c0-2.92-.42-5-1.26-6.25a4.44,4.44,0,0,0-4-1.86,3.88,3.88,0,0,0-3.5,2.12,12.11,12.11,0,0,0-1.24,6.05,11.24,11.24,0,0,0,1.25,5.89A4,4,0,0,0,363.24,349.92Z" transform="translate(0 0)"/><path class="cls-3" d="M386.59,316.93A4.86,4.86,0,0,1,388,313.1c1-.84,2.5-1.26,4.63-1.26a7,7,0,0,1,4.66,1.29,4.79,4.79,0,0,1,1.47,3.8c0,3.36-2,5-6.13,5S386.59,320.29,386.59,316.93Zm11.75,41.46H386.88V325.2h11.46Z" transform="translate(0 0)"/><path class="cls-3" d="M432,348.19q0,5.34-3.63,8.06T417.91,359a45.9,45.9,0,0,1-6.42-.4,27.28,27.28,0,0,1-5.57-1.45V348a34,34,0,0,0,5.85,1.93,24.58,24.58,0,0,0,5.67.77c2.48,0,3.72-.57,3.72-1.7a1.93,1.93,0,0,0-1-1.57,48.13,48.13,0,0,0-6.05-2.68q-4.57-1.87-6.39-4.26a9.73,9.73,0,0,1-1.81-6.05,8.38,8.38,0,0,1,3.57-7.21q3.57-2.58,10.11-2.58a25.37,25.37,0,0,1,6.16.72,37.75,37.75,0,0,1,6,2.09l-3.11,7.39a34.49,34.49,0,0,0-4.83-1.75,16.07,16.07,0,0,0-4.16-.72q-2.82,0-2.82,1.38a1.72,1.72,0,0,0,1,1.45,53.65,53.65,0,0,0,5.67,2.45,21.65,21.65,0,0,1,5.2,2.81,8.31,8.31,0,0,1,2.52,3.24A11.31,11.31,0,0,1,432,348.19Z" transform="translate(0 0)"/><path class="cls-3" d="M453.44,359q-8.15,0-12.35-4.4T436.89,342q0-8.25,4.54-12.8t12.92-4.54a24.2,24.2,0,0,1,10.87,2.52l-3.37,8.47a35.1,35.1,0,0,0-3.84-1.45,12.38,12.38,0,0,0-3.66-.55,5,5,0,0,0-4.31,2.17,10.62,10.62,0,0,0-1.52,6.13q0,8,5.89,8a17.84,17.84,0,0,0,9.67-2.92v9.11A18.87,18.87,0,0,1,453.44,359Z" transform="translate(0 0)"/><path class="cls-3" d="M490.71,324.61a17.19,17.19,0,0,1,2.84.23l.65.12-1,10.81a17.16,17.16,0,0,0-3.9-.35c-2.5,0-4.31.57-5.45,1.71a6.75,6.75,0,0,0-1.7,4.94v16.32H470.67V325.2h8.53l1.78,5.3h.56a11.43,11.43,0,0,1,4-4.26A9.52,9.52,0,0,1,490.71,324.61Z" transform="translate(0 0)"/><path class="cls-3" d="M498.59,316.93A4.83,4.83,0,0,1,500,313.1c1-.84,2.5-1.26,4.62-1.26a6.94,6.94,0,0,1,4.66,1.29,4.79,4.79,0,0,1,1.47,3.8q0,5-6.13,5T498.59,316.93Zm11.75,41.46H498.88V325.2h11.46Z" transform="translate(0 0)"/><path class="cls-3" d="M559.09,358.39V340.34a10.89,10.89,0,0,0-.92-5,3.11,3.11,0,0,0-2.92-1.69,4.12,4.12,0,0,0-3.87,2.26c-.82,1.5-1.23,3.86-1.23,7.06v15.47H538.67V340.34a11.23,11.23,0,0,0-.88-5A3,3,0,0,0,535,333.6,4.13,4.13,0,0,0,531,336q-1.23,2.4-1.23,7.85v14.53H518.34V325.2H527l1.43,4.1h.68a8.53,8.53,0,0,1,3.82-3.49,13,13,0,0,1,5.7-1.2q7.17,0,10.08,4.37h.91a9.31,9.31,0,0,1,3.91-3.21,13,13,0,0,1,5.52-1.16q5.9,0,8.7,3c1.88,2,2.81,5.07,2.81,9.17v21.59Z" transform="translate(0 0)"/><path class="cls-3" d="M578.1,316.93a4.83,4.83,0,0,1,1.44-3.83c1-.84,2.5-1.26,4.63-1.26a6.93,6.93,0,0,1,4.65,1.29,4.79,4.79,0,0,1,1.47,3.8q0,5-6.12,5T578.1,316.93Zm11.75,41.46H578.39V325.2h11.46Z" transform="translate(0 0)"/><path class="cls-3" d="M618.79,358.39V340.28a10.32,10.32,0,0,0-.95-5,3.25,3.25,0,0,0-3.06-1.69,4.45,4.45,0,0,0-4.19,2.32q-1.29,2.31-1.29,7.94v14.53H597.85V325.2h8.64l1.44,4.1h.67a9.11,9.11,0,0,1,4.06-3.52,14.34,14.34,0,0,1,6-1.17q5.5,0,8.57,3.19t3.06,9v21.59Z" transform="translate(0 0)"/><path class="cls-3" d="M659.69,358.39,657.5,354h-.24a13,13,0,0,1-4.72,3.92,15.61,15.61,0,0,1-6.21,1.06,9.73,9.73,0,0,1-7.38-2.82c-1.8-1.87-2.69-4.51-2.69-7.91s1.23-6.16,3.69-7.89,6-2.7,10.69-2.92l5.54-.17v-.47c0-2.74-1.35-4.1-4-4.1q-3.63,0-9.22,2.46l-3.31-7.56c3.86-2,8.75-3,14.64-3q6.39,0,9.89,3.16t3.5,8.85v21.77Zm-8.49-7.5a5.18,5.18,0,0,0,3.56-1.32,4.4,4.4,0,0,0,1.48-3.43v-2.57l-2.64.11q-5.65.21-5.65,4.16Q648,350.89,651.2,350.89Z" transform="translate(0 0)"/><path class="cls-3" d="M691.69,349.92a17.06,17.06,0,0,0,5.53-1.14v8.35a22.47,22.47,0,0,1-4.41,1.42,25.07,25.07,0,0,1-4.9.43c-3.85,0-6.62-1-8.32-2.83s-2.55-4.78-2.55-8.69V333.78h-4v-4.66l5.1-3.6,3-7h7.5v6.65h8.14v8.58h-8.14V346.7Q688.58,349.93,691.69,349.92Z" transform="translate(0 0)"/><path class="cls-3" d="M702.79,316.93a4.86,4.86,0,0,1,1.43-3.83c1-.84,2.5-1.26,4.63-1.26a6.94,6.94,0,0,1,4.66,1.29,4.79,4.79,0,0,1,1.47,3.8q0,5-6.13,5T702.79,316.93Zm11.75,41.46H703.08V325.2h11.46Z" transform="translate(0 0)"/><path class="cls-3" d="M754.23,341.72q0,8.14-4.38,12.7T737.59,359q-7.56,0-12-4.66t-4.47-12.6q0-8.12,4.38-12.61t12.29-4.5a17.48,17.48,0,0,1,8.64,2.08,14.23,14.23,0,0,1,5.79,6A19.23,19.23,0,0,1,754.23,341.72Zm-21.5,0a14.8,14.8,0,0,0,1.14,6.52,4,4,0,0,0,3.84,2.24,3.88,3.88,0,0,0,3.77-2.24,15.34,15.34,0,0,0,1.09-6.52,14.57,14.57,0,0,0-1.11-6.42,4.42,4.42,0,0,0-7.59,0A14.16,14.16,0,0,0,732.73,341.72Z" transform="translate(0 0)"/><path class="cls-3" d="M781.71,358.39V340.28a10.32,10.32,0,0,0-1-5,3.25,3.25,0,0,0-3.06-1.69,4.45,4.45,0,0,0-4.19,2.32q-1.29,2.31-1.29,7.94v14.53H760.77V325.2h8.64l1.44,4.1h.67a9.11,9.11,0,0,1,4.06-3.52,14.34,14.34,0,0,1,6-1.17q5.51,0,8.57,3.19t3.06,9v21.59Z" transform="translate(0 0)"/><path class="cls-3" d="M848.25,341.72q0,8.14-4.38,12.7T831.61,359q-7.56,0-12-4.66t-4.47-12.6q0-8.12,4.38-12.61t12.29-4.5a17.52,17.52,0,0,1,8.65,2.08,14.2,14.2,0,0,1,5.78,6A19.23,19.23,0,0,1,848.25,341.72Zm-21.51,0a14.64,14.64,0,0,0,1.15,6.52,4,4,0,0,0,3.83,2.24,3.87,3.87,0,0,0,3.77-2.24,15.32,15.32,0,0,0,1.1-6.52,14.4,14.4,0,0,0-1.12-6.42,4.41,4.41,0,0,0-7.58,0A14,14,0,0,0,826.74,341.72Z" transform="translate(0 0)"/><path class="cls-3" d="M875.05,333.78H868v24.61H856.54V333.78h-4.4v-5.62l4.63-2.82v-.55q0-6.57,2.68-9.44t8.6-2.87a25.71,25.71,0,0,1,4.32.35,36.39,36.39,0,0,1,4.74,1.23l-2.47,7.42a15.37,15.37,0,0,0-4.13-.59,2.24,2.24,0,0,0-1.92.81,4.44,4.44,0,0,0-.6,2.62v.88h7.06Z" transform="translate(0 0)"/><path class="cls-3" d="M913,333.31h18.49V356.4A50.79,50.79,0,0,1,915,359q-9.9,0-15.31-5.75t-5.41-16.37q0-10.38,5.92-16.15t16.58-5.77a37.34,37.34,0,0,1,7.64.76,32.52,32.52,0,0,1,6.25,1.94L927,326.72a22.73,22.73,0,0,0-10.17-2.29,9.64,9.64,0,0,0-7.83,3.3q-2.78,3.3-2.77,9.42c0,4,.83,7.06,2.5,9.16a8.71,8.71,0,0,0,7.22,3.14,21.39,21.39,0,0,0,4.75-.49v-6.71H913Z" transform="translate(0 0)"/><path class="cls-3" d="M959.61,324.61a17.28,17.28,0,0,1,2.84.23l.64.12-1,10.81a17.16,17.16,0,0,0-3.9-.35q-3.75,0-5.45,1.71a6.75,6.75,0,0,0-1.7,4.94v16.32H939.57V325.2h8.52l1.79,5.3h.56a11.41,11.41,0,0,1,4-4.26A9.55,9.55,0,0,1,959.61,324.61Z" transform="translate(0 0)"/><path class="cls-3" d="M983.75,359q-8.29,0-12.88-4.41T966.29,342q0-8.4,4.24-12.9t12.13-4.5q7.5,0,11.59,3.91t4.09,11.27v5.09H977.86a5.69,5.69,0,0,0,2,4.37,8,8,0,0,0,5.23,1.58,25.24,25.24,0,0,0,5.55-.57,27.31,27.31,0,0,0,5.5-1.95v8.23a20.1,20.1,0,0,1-5.57,1.91A38.59,38.59,0,0,1,983.75,359Zm-.68-26.58a4.76,4.76,0,0,0-3.38,1.28,6,6,0,0,0-1.6,4h9.85a5.73,5.73,0,0,0-1.37-3.84A4.48,4.48,0,0,0,983.07,332.4Z" transform="translate(0 0)"/><path class="cls-3" d="M1020.84,359q-8.3,0-12.88-4.41T1003.38,342q0-8.4,4.24-12.9t12.13-4.5q7.5,0,11.59,3.91t4.09,11.27v5.09H1015a5.69,5.69,0,0,0,2,4.37,8,8,0,0,0,5.23,1.58,25.24,25.24,0,0,0,5.55-.57,27.31,27.31,0,0,0,5.5-1.95v8.23a20.1,20.1,0,0,1-5.57,1.91A38.59,38.59,0,0,1,1020.84,359Zm-.68-26.58a4.76,4.76,0,0,0-3.38,1.28,6,6,0,0,0-1.6,4H1025a5.73,5.73,0,0,0-1.37-3.84A4.48,4.48,0,0,0,1020.16,332.4Z" transform="translate(0 0)"/><path class="cls-3" d="M1053,339.73a59.18,59.18,0,0,1,3.55-5.16l7.44-9.37h12.77l-11.51,14.12,12.25,19.07h-13.1l-7.27-11.89-3.72,2.84v9.05H1041.9V312.8h11.51v17.93a61.91,61.91,0,0,1-.64,9Z" transform="translate(0 0)"/></g><g class="cls-2"><path class="cls-3" d="M55.65,431q-8.3,0-12.88-4.41T38.19,414q0-8.4,4.25-12.9t12.13-4.5q7.5,0,11.58,3.91t4.09,11.27v5.09H49.76a5.7,5.7,0,0,0,2,4.37A8,8,0,0,0,57,422.83a25.3,25.3,0,0,0,5.55-.57,27.24,27.24,0,0,0,5.49-1.95v8.23a20.15,20.15,0,0,1-5.56,1.91A38.71,38.71,0,0,1,55.65,431ZM55,404.4a4.78,4.78,0,0,0-3.39,1.28,5.94,5.94,0,0,0-1.59,4h9.84a5.72,5.72,0,0,0-1.36-3.84A4.5,4.5,0,0,0,55,404.4Z" transform="translate(0 0)"/><path class="cls-3" d="M83.75,413.46,73.61,397.2h13l5,9.31,5.15-9.31h13l-10.4,16.26,10.81,16.93h-13l-5.59-10.08-5.57,10.08h-13Z" transform="translate(0 0)"/><path class="cls-3" d="M134.43,431a10.39,10.39,0,0,1-8.47-3.84h-.52a41.73,41.73,0,0,1,.52,4.33V444.8H114.51V397.2h9.31l1.62,4.22H126a10,10,0,0,1,8.82-4.81,9.92,9.92,0,0,1,8.64,4.57q3.14,4.57,3.14,12.54t-3.27,12.64A10.3,10.3,0,0,1,134.43,431Zm-3.84-25.37a3.71,3.71,0,0,0-3.53,1.8,11.85,11.85,0,0,0-1.1,5.34v.91q0,4.27,1.15,6.18a3.89,3.89,0,0,0,3.6,1.91,3.35,3.35,0,0,0,3.19-1.89q1-1.89,1-6.26t-1-6.13A3.46,3.46,0,0,0,130.59,405.61Z" transform="translate(0 0)"/><path class="cls-3" d="M174.74,430.39l-2.2-4.39h-.23a13,13,0,0,1-4.72,3.92,15.61,15.61,0,0,1-6.21,1.06,9.73,9.73,0,0,1-7.38-2.82q-2.7-2.81-2.7-7.91c0-3.53,1.24-6.16,3.7-7.89s6-2.7,10.69-2.92l5.54-.17v-.47c0-2.74-1.35-4.1-4-4.1q-3.63,0-9.22,2.46l-3.32-7.56q5.81-3,14.65-3,6.39,0,9.89,3.17t3.5,8.84v21.77Zm-8.49-7.5a5.18,5.18,0,0,0,3.56-1.32,4.4,4.4,0,0,0,1.48-3.43v-2.57l-2.64.11q-5.66.21-5.66,4.16Q163,422.89,166.25,422.89Z" transform="translate(0 0)"/><path class="cls-3" d="M206.73,421.92a17.06,17.06,0,0,0,5.54-1.14v8.35a22.47,22.47,0,0,1-4.41,1.42,25.07,25.07,0,0,1-4.9.43c-3.85,0-6.63-1-8.33-2.83s-2.54-4.78-2.54-8.69V405.78h-4v-4.66l5.1-3.6,3-7h7.5v6.65h8.14v8.58h-8.14V418.7Q203.63,421.93,206.73,421.92Z" transform="translate(0 0)"/><path class="cls-3" d="M238.11,396.61a16.15,16.15,0,0,1,2.84.24l.65.11-1,10.81a17.07,17.07,0,0,0-3.89-.35q-3.75,0-5.45,1.72a6.66,6.66,0,0,0-1.7,4.93v16.32H218.07V397.2h8.53l1.78,5.3h.56a11.43,11.43,0,0,1,4-4.26A9.52,9.52,0,0,1,238.11,396.61Z" transform="translate(0 0)"/><path class="cls-3" d="M246,388.94a4.83,4.83,0,0,1,1.44-3.84c.95-.84,2.5-1.26,4.63-1.26a6.91,6.91,0,0,1,4.65,1.29,4.8,4.8,0,0,1,1.47,3.81q0,5-6.12,5T246,388.94Zm11.75,41.45H246.29V397.2h11.45Z" transform="translate(0 0)"/><path class="cls-3" d="M287.39,430.39l-2.2-4.39H285a13.11,13.11,0,0,1-4.72,3.92A15.61,15.61,0,0,1,274,431a9.7,9.7,0,0,1-7.38-2.82q-2.7-2.81-2.7-7.91,0-5.29,3.69-7.89t10.7-2.92l5.53-.17v-.47c0-2.74-1.34-4.1-4-4.1q-3.63,0-9.23,2.46l-3.31-7.56q5.81-3,14.65-3,6.39,0,9.89,3.17t3.5,8.84v21.77Zm-8.5-7.5a5.15,5.15,0,0,0,3.56-1.32,4.37,4.37,0,0,0,1.48-3.43v-2.57l-2.64.11c-3.76.14-5.65,1.53-5.65,4.16Q275.64,422.89,278.89,422.89Z" transform="translate(0 0)"/><path class="cls-3" d="M319.38,421.92a17.11,17.11,0,0,0,5.54-1.14v8.35a22.47,22.47,0,0,1-4.41,1.42,25.18,25.18,0,0,1-4.91.43c-3.85,0-6.62-1-8.32-2.83s-2.55-4.78-2.55-8.69V405.78h-4v-4.66l5.1-3.6,3-7h7.5v6.65h8.14v8.58h-8.14V418.7Q316.28,421.93,319.38,421.92Z" transform="translate(0 0)"/><path class="cls-3" d="M346.74,431c-5.52,0-9.82-1.47-12.87-4.41s-4.59-7.13-4.59-12.56q0-8.4,4.25-12.9t12.13-4.5q7.5,0,11.59,3.91t4.08,11.27v5.09H340.86a5.66,5.66,0,0,0,2,4.37,8,8,0,0,0,5.23,1.58,25.3,25.3,0,0,0,5.55-.57,27.53,27.53,0,0,0,5.5-1.95v8.23a20.21,20.21,0,0,1-5.57,1.91A38.64,38.64,0,0,1,346.74,431Zm-.67-26.58a4.74,4.74,0,0,0-3.38,1.28,6,6,0,0,0-1.6,4h9.84a5.72,5.72,0,0,0-1.36-3.84A4.48,4.48,0,0,0,346.07,404.4Z" transform="translate(0 0)"/><path class="cls-3" d="M393.44,420.19q0,5.34-3.63,8.06T379.38,431a45.9,45.9,0,0,1-6.42-.4,27.2,27.2,0,0,1-5.56-1.45V420a33.89,33.89,0,0,0,5.84,1.93,24.58,24.58,0,0,0,5.67.77c2.48,0,3.72-.57,3.72-1.7a1.91,1.91,0,0,0-1-1.57,47.4,47.4,0,0,0-6-2.68q-4.56-1.87-6.38-4.26a9.74,9.74,0,0,1-1.82-6.05,8.38,8.38,0,0,1,3.57-7.21q3.58-2.58,10.11-2.58a25.45,25.45,0,0,1,6.17.72,37.65,37.65,0,0,1,6,2.09l-3.11,7.39a34,34,0,0,0-4.83-1.75,16,16,0,0,0-4.16-.71c-1.87,0-2.81.45-2.81,1.37a1.7,1.7,0,0,0,1,1.45,51.65,51.65,0,0,0,5.67,2.45,21.85,21.85,0,0,1,5.2,2.81,8.5,8.5,0,0,1,2.52,3.24A11.49,11.49,0,0,1,393.44,420.19Z" transform="translate(0 0)"/><path class="cls-3" d="M435.66,405.78H428.6v24.61H417.14V405.78h-4.39v-5.62l4.63-2.82v-.55q0-6.57,2.68-9.44c1.79-1.91,4.65-2.87,8.6-2.87a25.89,25.89,0,0,1,4.32.35,36.29,36.29,0,0,1,4.73,1.23l-2.46,7.42a15.43,15.43,0,0,0-4.13-.59,2.23,2.23,0,0,0-1.92.81,4.44,4.44,0,0,0-.6,2.62v.88h7.06Z" transform="translate(0 0)"/><path class="cls-3" d="M460.21,396.61a16.15,16.15,0,0,1,2.84.24l.65.11-1,10.81a17.07,17.07,0,0,0-3.89-.35q-3.75,0-5.45,1.72a6.66,6.66,0,0,0-1.7,4.93v16.32H440.17V397.2h8.53l1.78,5.3H451a11.43,11.43,0,0,1,4-4.26A9.52,9.52,0,0,1,460.21,396.61Z" transform="translate(0 0)"/><path class="cls-3" d="M500,413.72q0,8.14-4.38,12.7T483.38,431q-7.54,0-12-4.66t-4.47-12.6q0-8.12,4.38-12.61t12.29-4.5a17.48,17.48,0,0,1,8.64,2.08,14.28,14.28,0,0,1,5.79,6A19.23,19.23,0,0,1,500,413.72Zm-21.51,0a14.8,14.8,0,0,0,1.14,6.52,4,4,0,0,0,3.84,2.24,3.88,3.88,0,0,0,3.77-2.24,15.32,15.32,0,0,0,1.1-6.52,14.55,14.55,0,0,0-1.12-6.42,4.42,4.42,0,0,0-7.59,0A14.19,14.19,0,0,0,478.52,413.72Z" transform="translate(0 0)"/><path class="cls-3" d="M547.31,430.39V412.34a10.89,10.89,0,0,0-.92-5,3.1,3.1,0,0,0-2.92-1.68,4.09,4.09,0,0,0-3.86,2.25c-.82,1.5-1.23,3.86-1.23,7.06v15.47H526.89V412.34a11.23,11.23,0,0,0-.88-5,3,3,0,0,0-2.84-1.68,4.12,4.12,0,0,0-3.93,2.4q-1.23,2.4-1.23,7.85v14.53H506.56V397.2h8.64l1.44,4.1h.67a8.58,8.58,0,0,1,3.82-3.49,13,13,0,0,1,5.7-1.2q7.18,0,10.08,4.37h.91a9.37,9.37,0,0,1,3.91-3.21,13,13,0,0,1,5.52-1.16q5.89,0,8.7,3t2.82,9.17v21.59Z" transform="translate(0 0)"/><path class="cls-3" d="M602.42,405.78h-7.06v24.61H583.9V405.78h-4.39v-5.62l4.63-2.82v-.55q0-6.57,2.68-9.44t8.6-2.87a25.89,25.89,0,0,1,4.32.35,36.7,36.7,0,0,1,4.73,1.23L602,393.48a15.49,15.49,0,0,0-4.13-.59,2.23,2.23,0,0,0-1.92.81,4.44,4.44,0,0,0-.6,2.62v.88h7.06Z" transform="translate(0 0)"/><path class="cls-3" d="M638.63,413.72q0,8.14-4.38,12.7T622,431q-7.56,0-12-4.66t-4.47-12.6q0-8.12,4.38-12.61t12.29-4.5a17.49,17.49,0,0,1,8.65,2.08,14.2,14.2,0,0,1,5.78,6A19.23,19.23,0,0,1,638.63,413.72Zm-21.51,0a14.78,14.78,0,0,0,1.15,6.52,4,4,0,0,0,3.84,2.24,3.86,3.86,0,0,0,3.76-2.24,15.32,15.32,0,0,0,1.1-6.52,14.57,14.57,0,0,0-1.11-6.42,4.42,4.42,0,0,0-7.59,0A14.17,14.17,0,0,0,617.12,413.72Z" transform="translate(0 0)"/><path class="cls-3" d="M665.2,396.61a16.15,16.15,0,0,1,2.84.24l.65.11-1,10.81a17.07,17.07,0,0,0-3.89-.35q-3.75,0-5.45,1.72a6.66,6.66,0,0,0-1.7,4.93v16.32H645.16V397.2h8.53l1.78,5.3H656a11.43,11.43,0,0,1,4-4.26A9.52,9.52,0,0,1,665.2,396.61Z" transform="translate(0 0)"/><path class="cls-3" d="M714.07,430.39V412.34a10.89,10.89,0,0,0-.92-5,3.1,3.1,0,0,0-2.92-1.68,4.11,4.11,0,0,0-3.87,2.25c-.82,1.5-1.23,3.86-1.23,7.06v15.47H693.65V412.34a11.23,11.23,0,0,0-.88-5,3,3,0,0,0-2.84-1.68A4.12,4.12,0,0,0,686,408q-1.23,2.4-1.23,7.85v14.53H673.32V397.2H682l1.43,4.1h.68a8.58,8.58,0,0,1,3.82-3.49,13,13,0,0,1,5.7-1.2c4.79,0,8.14,1.46,10.08,4.37h.91a9.31,9.31,0,0,1,3.91-3.21,13,13,0,0,1,5.52-1.16q5.9,0,8.7,3c1.88,2,2.81,5.07,2.81,9.17v21.59Z" transform="translate(0 0)"/><path class="cls-3" d="M749.34,431q-8.3,0-12.87-4.41T731.88,414q0-8.4,4.25-12.9t12.13-4.5q7.5,0,11.58,3.91t4.09,11.27v5.09H743.45a5.7,5.7,0,0,0,2,4.37,8,8,0,0,0,5.23,1.58,25.3,25.3,0,0,0,5.55-.57,27.24,27.24,0,0,0,5.49-1.95v8.23a20,20,0,0,1-5.56,1.91A38.71,38.71,0,0,1,749.34,431Zm-.67-26.58a4.78,4.78,0,0,0-3.39,1.28,6,6,0,0,0-1.59,4h9.84a5.72,5.72,0,0,0-1.36-3.84A4.5,4.5,0,0,0,748.67,404.4Z" transform="translate(0 0)"/><path class="cls-3" d="M790.45,396.61a16.24,16.24,0,0,1,2.84.24l.64.11-1,10.81a17.16,17.16,0,0,0-3.9-.35q-3.75,0-5.45,1.72a6.71,6.71,0,0,0-1.7,4.93v16.32H770.41V397.2h8.52l1.79,5.3h.56a11.41,11.41,0,0,1,4-4.26A9.55,9.55,0,0,1,790.45,396.61Z" transform="translate(0 0)"/><path class="cls-3" d="M851.24,387.56v25.78c0,5.6-1.59,10-4.76,13S838.73,431,832.75,431s-10.33-1.5-13.46-4.49-4.7-7.28-4.7-12.89v-26h11.63v25.13c0,3,.56,5.23,1.7,6.6a6.15,6.15,0,0,0,5,2q3.54,0,5.14-2t1.59-6.66V387.56Z" transform="translate(0 0)"/><path class="cls-3" d="M888.24,417.38a12.7,12.7,0,0,1-2,7.08,13.22,13.22,0,0,1-5.83,4.8,21.67,21.67,0,0,1-8.94,1.72,36.27,36.27,0,0,1-7.18-.6,26.49,26.49,0,0,1-6-2.1V418a34.44,34.44,0,0,0,6.88,2.65,25.91,25.91,0,0,0,6.57.95,6.4,6.4,0,0,0,3.77-.89,2.74,2.74,0,0,0,1.21-2.3,2.55,2.55,0,0,0-.49-1.54,5.62,5.62,0,0,0-1.55-1.33q-1.07-.67-5.7-2.76a27.29,27.29,0,0,1-6.28-3.69,11.38,11.38,0,0,1-3.11-4.1,13.68,13.68,0,0,1-1-5.48,11,11,0,0,1,4.31-9.23q4.3-3.3,11.83-3.31A33.24,33.24,0,0,1,888.24,390L884.69,399a25.75,25.75,0,0,0-10.37-2.75A5.38,5.38,0,0,0,871,397a2.4,2.4,0,0,0-1,2,2.83,2.83,0,0,0,1.3,2.26,49.73,49.73,0,0,0,7.07,3.63q5.55,2.49,7.69,5.35A11.57,11.57,0,0,1,888.24,417.38Z" transform="translate(0 0)"/><path class="cls-3" d="M922.87,417.38a12.7,12.7,0,0,1-2,7.08,13.28,13.28,0,0,1-5.83,4.8,21.67,21.67,0,0,1-8.94,1.72,36.27,36.27,0,0,1-7.18-.6,26.49,26.49,0,0,1-6-2.1V418a34.2,34.2,0,0,0,6.88,2.65,25.83,25.83,0,0,0,6.56.95,6.42,6.42,0,0,0,3.78-.89,2.75,2.75,0,0,0,1.2-2.3,2.54,2.54,0,0,0-.48-1.54,5.62,5.62,0,0,0-1.55-1.33q-1.07-.67-5.7-2.76a27.29,27.29,0,0,1-6.28-3.69,11.27,11.27,0,0,1-3.11-4.1,13.68,13.68,0,0,1-1-5.48,11,11,0,0,1,4.31-9.23q4.31-3.3,11.83-3.31A33.24,33.24,0,0,1,922.87,390L919.32,399A25.75,25.75,0,0,0,909,396.2a5.38,5.38,0,0,0-3.28.79,2.41,2.41,0,0,0-1,2,2.84,2.84,0,0,0,1.31,2.26,49.73,49.73,0,0,0,7.07,3.63q5.54,2.49,7.69,5.35A11.57,11.57,0,0,1,922.87,417.38Z" transform="translate(0 0)"/><path class="cls-3" d="M941.06,414.8v15.59H929.49V387.56h14q17.46,0,17.46,12.65,0,7.46-7.26,11.52l12.48,18.66H953.07L944,414.8Zm0-8.7h2.17c4,0,6.06-1.78,6.06-5.36q0-4.42-5.94-4.42h-2.29Z" transform="translate(0 0)"/></g></g><rect class="cls-4" x="35.67" y="224.21" width="193.11" height="52.51" rx="9.61"/><rect class="cls-3" x="1003.72" y="23.48" width="175" height="175"/><rect x="1062.05" y="34.08" width="5.3" height="5.3"/><rect x="1083.26" y="34.08" width="5.3" height="5.3"/><rect x="1099.17" y="34.08" width="5.3" height="5.3"/><rect x="1115.08" y="34.08" width="5.3" height="5.3"/><rect x="1067.35" y="39.39" width="5.3" height="5.3"/><rect x="1072.66" y="39.39" width="5.3" height="5.3"/><rect x="1077.96" y="39.39" width="5.3" height="5.3"/><rect x="1083.26" y="39.39" width="5.3" height="5.3"/><rect x="1088.57" y="39.39" width="5.3" height="5.3"/><rect x="1093.87" y="39.39" width="5.3" height="5.3"/><rect x="1104.47" y="39.39" width="5.3" height="5.3"/><rect x="1109.78" y="39.39" width="5.3" height="5.3"/><rect x="1120.38" y="39.39" width="5.3" height="5.3"/><rect x="1072.66" y="44.69" width="5.3" height="5.3"/><rect x="1083.26" y="44.69" width="5.3" height="5.3"/><rect x="1099.17" y="44.69" width="5.3" height="5.3"/><rect x="1104.47" y="44.69" width="5.3" height="5.3"/><rect x="1109.78" y="44.69" width="5.3" height="5.3"/><rect x="1120.38" y="44.69" width="5.3" height="5.3"/><rect x="1062.05" y="49.99" width="5.3" height="5.3"/><rect x="1067.35" y="49.99" width="5.3" height="5.3"/><rect x="1072.66" y="49.99" width="5.3" height="5.3"/><rect x="1077.96" y="49.99" width="5.3" height="5.3"/><rect x="1083.26" y="49.99" width="5.3" height="5.3"/><rect x="1088.57" y="49.99" width="5.3" height="5.3"/><rect x="1093.87" y="49.99" width="5.3" height="5.3"/><rect x="1109.78" y="49.99" width="5.3" height="5.3"/><rect x="1115.08" y="49.99" width="5.3" height="5.3"/><rect x="1062.05" y="55.3" width="5.3" height="5.3"/><rect x="1077.96" y="55.3" width="5.3" height="5.3"/><rect x="1083.26" y="55.3" width="5.3" height="5.3"/><rect x="1088.57" y="55.3" width="5.3" height="5.3"/><rect x="1099.17" y="55.3" width="5.3" height="5.3"/><rect x="1104.47" y="55.3" width="5.3" height="5.3"/><rect x="1109.78" y="55.3" width="5.3" height="5.3"/><rect x="1056.75" y="60.6" width="5.3" height="5.3"/><rect x="1062.05" y="60.6" width="5.3" height="5.3"/><rect x="1083.26" y="60.6" width="5.3" height="5.3"/><rect x="1088.57" y="60.6" width="5.3" height="5.3"/><rect x="1115.08" y="60.6" width="5.3" height="5.3"/><rect x="1120.38" y="60.6" width="5.3" height="5.3"/><rect x="1056.75" y="65.9" width="5.3" height="5.3"/><rect x="1067.35" y="65.9" width="5.3" height="5.3"/><rect x="1077.96" y="65.9" width="5.3" height="5.3"/><rect x="1088.57" y="65.9" width="5.3" height="5.3"/><rect x="1099.17" y="65.9" width="5.3" height="5.3"/><rect x="1109.78" y="65.9" width="5.3" height="5.3"/><rect x="1120.38" y="65.9" width="5.3" height="5.3"/><rect x="1067.35" y="71.21" width="5.3" height="5.3"/><rect x="1077.96" y="71.21" width="5.3" height="5.3"/><rect x="1088.57" y="71.21" width="5.3" height="5.3"/><rect x="1104.47" y="71.21" width="5.3" height="5.3"/><rect x="1109.78" y="71.21" width="5.3" height="5.3"/><rect x="1014.32" y="76.51" width="5.3" height="5.3"/><rect x="1030.23" y="76.51" width="5.3" height="5.3"/><rect x="1040.84" y="76.51" width="5.3" height="5.3"/><rect x="1046.14" y="76.51" width="5.3" height="5.3"/><rect x="1056.75" y="76.51" width="5.3" height="5.3"/><rect x="1067.35" y="76.51" width="5.3" height="5.3"/><rect x="1093.87" y="76.51" width="5.3" height="5.3"/><rect x="1120.38" y="76.51" width="5.3" height="5.3"/><rect x="1125.69" y="76.51" width="5.3" height="5.3"/><rect x="1136.29" y="76.51" width="5.3" height="5.3"/><rect x="1019.63" y="81.81" width="5.3" height="5.3"/><rect x="1024.93" y="81.81" width="5.3" height="5.3"/><rect x="1035.54" y="81.81" width="5.3" height="5.3"/><rect x="1051.44" y="81.81" width="5.3" height="5.3"/><rect x="1056.75" y="81.81" width="5.3" height="5.3"/><rect x="1067.35" y="81.81" width="5.3" height="5.3"/><rect x="1088.57" y="81.81" width="5.3" height="5.3"/><rect x="1093.87" y="81.81" width="5.3" height="5.3"/><rect x="1104.47" y="81.81" width="5.3" height="5.3"/><rect x="1109.78" y="81.81" width="5.3" height="5.3"/><rect x="1120.38" y="81.81" width="5.3" height="5.3"/><rect x="1125.69" y="81.81" width="5.3" height="5.3"/><rect x="1130.99" y="81.81" width="5.3" height="5.3"/><rect x="1146.9" y="81.81" width="5.3" height="5.3"/><rect x="1162.81" y="81.81" width="5.3" height="5.3"/><rect x="1030.23" y="87.11" width="5.3" height="5.3"/><rect x="1040.84" y="87.11" width="5.3" height="5.3"/><rect x="1046.14" y="87.11" width="5.3" height="5.3"/><rect x="1051.44" y="87.11" width="5.3" height="5.3"/><rect x="1056.75" y="87.11" width="5.3" height="5.3"/><rect x="1062.05" y="87.11" width="5.3" height="5.3"/><rect x="1072.66" y="87.11" width="5.3" height="5.3"/><rect x="1077.96" y="87.11" width="5.3" height="5.3"/><rect x="1099.17" y="87.11" width="5.3" height="5.3"/><rect x="1115.08" y="87.11" width="5.3" height="5.3"/><rect x="1125.69" y="87.11" width="5.3" height="5.3"/><rect x="1136.29" y="87.11" width="5.3" height="5.3"/><rect x="1146.9" y="87.11" width="5.3" height="5.3"/><rect x="1152.2" y="87.11" width="5.3" height="5.3"/><rect x="1157.51" y="87.11" width="5.3" height="5.3"/><rect x="1014.32" y="92.42" width="5.3" height="5.3"/><rect x="1019.63" y="92.42" width="5.3" height="5.3"/><rect x="1024.93" y="92.42" width="5.3" height="5.3"/><rect x="1030.23" y="92.42" width="5.3" height="5.3"/><rect x="1040.84" y="92.42" width="5.3" height="5.3"/><rect x="1051.44" y="92.42" width="5.3" height="5.3"/><rect x="1056.75" y="92.42" width="5.3" height="5.3"/><rect x="1072.66" y="92.42" width="5.3" height="5.3"/><rect x="1077.96" y="92.42" width="5.3" height="5.3"/><rect x="1088.57" y="92.42" width="5.3" height="5.3"/><rect x="1093.87" y="92.42" width="5.3" height="5.3"/><rect x="1136.29" y="92.42" width="5.3" height="5.3"/><rect x="1152.2" y="92.42" width="5.3" height="5.3"/><rect x="1157.51" y="92.42" width="5.3" height="5.3"/><rect x="1024.93" y="97.72" width="5.3" height="5.3"/><rect x="1035.54" y="97.72" width="5.3" height="5.3"/><rect x="1046.14" y="97.72" width="5.3" height="5.3"/><rect x="1062.05" y="97.72" width="5.3" height="5.3"/><rect x="1099.17" y="97.72" width="5.3" height="5.3"/><rect x="1104.47" y="97.72" width="5.3" height="5.3"/><rect x="1115.08" y="97.72" width="5.3" height="5.3"/><rect x="1120.38" y="97.72" width="5.3" height="5.3"/><rect x="1125.69" y="97.72" width="5.3" height="5.3"/><rect x="1130.99" y="97.72" width="5.3" height="5.3"/><rect x="1146.9" y="97.72" width="5.3" height="5.3"/><rect x="1157.51" y="97.72" width="5.3" height="5.3"/><rect x="1162.81" y="97.72" width="5.3" height="5.3"/><rect x="1014.32" y="103.02" width="5.3" height="5.3"/><rect x="1019.63" y="103.02" width="5.3" height="5.3"/><rect x="1030.23" y="103.02" width="5.3" height="5.3"/><rect x="1072.66" y="103.02" width="5.3" height="5.3"/><rect x="1077.96" y="103.02" width="5.3" height="5.3"/><rect x="1093.87" y="103.02" width="5.3" height="5.3"/><rect x="1115.08" y="103.02" width="5.3" height="5.3"/><rect x="1125.69" y="103.02" width="5.3" height="5.3"/><rect x="1014.32" y="108.33" width="5.3" height="5.3"/><rect x="1019.63" y="108.33" width="5.3" height="5.3"/><rect x="1024.93" y="108.33" width="5.3" height="5.3"/><rect x="1035.54" y="108.33" width="5.3" height="5.3"/><rect x="1046.14" y="108.33" width="5.3" height="5.3"/><rect x="1062.05" y="108.33" width="5.3" height="5.3"/><rect x="1067.35" y="108.33" width="5.3" height="5.3"/><rect x="1093.87" y="108.33" width="5.3" height="5.3"/><rect x="1099.17" y="108.33" width="5.3" height="5.3"/><rect x="1104.47" y="108.33" width="5.3" height="5.3"/><rect x="1109.78" y="108.33" width="5.3" height="5.3"/><rect x="1120.38" y="108.33" width="5.3" height="5.3"/><rect x="1125.69" y="108.33" width="5.3" height="5.3"/><rect x="1146.9" y="108.33" width="5.3" height="5.3"/><rect x="1152.2" y="108.33" width="5.3" height="5.3"/><rect x="1157.51" y="108.33" width="5.3" height="5.3"/><rect x="1162.81" y="108.33" width="5.3" height="5.3"/><rect x="1014.32" y="113.63" width="5.3" height="5.3"/><rect x="1040.84" y="113.63" width="5.3" height="5.3"/><rect x="1051.44" y="113.63" width="5.3" height="5.3"/><rect x="1056.75" y="113.63" width="5.3" height="5.3"/><rect x="1062.05" y="113.63" width="5.3" height="5.3"/><rect x="1072.66" y="113.63" width="5.3" height="5.3"/><rect x="1083.26" y="113.63" width="5.3" height="5.3"/><rect x="1088.57" y="113.63" width="5.3" height="5.3"/><rect x="1099.17" y="113.63" width="5.3" height="5.3"/><rect x="1104.47" y="113.63" width="5.3" height="5.3"/><rect x="1109.78" y="113.63" width="5.3" height="5.3"/><rect x="1115.08" y="113.63" width="5.3" height="5.3"/><rect x="1120.38" y="113.63" width="5.3" height="5.3"/><rect x="1125.69" y="113.63" width="5.3" height="5.3"/><rect x="1130.99" y="113.63" width="5.3" height="5.3"/><rect x="1141.6" y="113.63" width="5.3" height="5.3"/><rect x="1146.9" y="113.63" width="5.3" height="5.3"/><rect x="1157.51" y="113.63" width="5.3" height="5.3"/><rect x="1014.32" y="118.93" width="5.3" height="5.3"/><rect x="1024.93" y="118.93" width="5.3" height="5.3"/><rect x="1046.14" y="118.93" width="5.3" height="5.3"/><rect x="1051.44" y="118.93" width="5.3" height="5.3"/><rect x="1056.75" y="118.93" width="5.3" height="5.3"/><rect x="1062.05" y="118.93" width="5.3" height="5.3"/><rect x="1067.35" y="118.93" width="5.3" height="5.3"/><rect x="1077.96" y="118.93" width="5.3" height="5.3"/><rect x="1083.26" y="118.93" width="5.3" height="5.3"/><rect x="1088.57" y="118.93" width="5.3" height="5.3"/><rect x="1093.87" y="118.93" width="5.3" height="5.3"/><rect x="1104.47" y="118.93" width="5.3" height="5.3"/><rect x="1115.08" y="118.93" width="5.3" height="5.3"/><rect x="1125.69" y="118.93" width="5.3" height="5.3"/><rect x="1157.51" y="118.93" width="5.3" height="5.3"/><rect x="1019.63" y="124.24" width="5.3" height="5.3"/><rect x="1035.54" y="124.24" width="5.3" height="5.3"/><rect x="1067.35" y="124.24" width="5.3" height="5.3"/><rect x="1072.66" y="124.24" width="5.3" height="5.3"/><rect x="1077.96" y="124.24" width="5.3" height="5.3"/><rect x="1093.87" y="124.24" width="5.3" height="5.3"/><rect x="1104.47" y="124.24" width="5.3" height="5.3"/><rect x="1125.69" y="124.24" width="5.3" height="5.3"/><rect x="1130.99" y="124.24" width="5.3" height="5.3"/><rect x="1136.29" y="124.24" width="5.3" height="5.3"/><rect x="1146.9" y="124.24" width="5.3" height="5.3"/><rect x="1162.81" y="124.24" width="5.3" height="5.3"/><rect x="1014.32" y="129.54" width="5.3" height="5.3"/><rect x="1030.23" y="129.54" width="5.3" height="5.3"/><rect x="1035.54" y="129.54" width="5.3" height="5.3"/><rect x="1040.84" y="129.54" width="5.3" height="5.3"/><rect x="1046.14" y="129.54" width="5.3" height="5.3"/><rect x="1056.75" y="129.54" width="5.3" height="5.3"/><rect x="1062.05" y="129.54" width="5.3" height="5.3"/><rect x="1067.35" y="129.54" width="5.3" height="5.3"/><rect x="1083.26" y="129.54" width="5.3" height="5.3"/><rect x="1104.47" y="129.54" width="5.3" height="5.3"/><rect x="1120.38" y="129.54" width="5.3" height="5.3"/><rect x="1136.29" y="129.54" width="5.3" height="5.3"/><rect x="1141.6" y="129.54" width="5.3" height="5.3"/><rect x="1157.51" y="129.54" width="5.3" height="5.3"/><rect x="1162.81" y="129.54" width="5.3" height="5.3"/><rect x="1024.93" y="134.84" width="5.3" height="5.3"/><rect x="1030.23" y="134.84" width="5.3" height="5.3"/><rect x="1035.54" y="134.84" width="5.3" height="5.3"/><rect x="1040.84" y="134.84" width="5.3" height="5.3"/><rect x="1051.44" y="134.84" width="5.3" height="5.3"/><rect x="1056.75" y="134.84" width="5.3" height="5.3"/><rect x="1062.05" y="134.84" width="5.3" height="5.3"/><rect x="1067.35" y="134.84" width="5.3" height="5.3"/><rect x="1072.66" y="134.84" width="5.3" height="5.3"/><rect x="1077.96" y="134.84" width="5.3" height="5.3"/><rect x="1083.26" y="134.84" width="5.3" height="5.3"/><rect x="1104.47" y="134.84" width="5.3" height="5.3"/><rect x="1109.78" y="134.84" width="5.3" height="5.3"/><rect x="1115.08" y="134.84" width="5.3" height="5.3"/><rect x="1130.99" y="134.84" width="5.3" height="5.3"/><rect x="1141.6" y="134.84" width="5.3" height="5.3"/><rect x="1157.51" y="134.84" width="5.3" height="5.3"/><rect x="1162.81" y="134.84" width="5.3" height="5.3"/><rect x="1014.32" y="140.14" width="5.3" height="5.3"/><rect x="1024.93" y="140.14" width="5.3" height="5.3"/><rect x="1046.14" y="140.14" width="5.3" height="5.3"/><rect x="1051.44" y="140.14" width="5.3" height="5.3"/><rect x="1056.75" y="140.14" width="5.3" height="5.3"/><rect x="1072.66" y="140.14" width="5.3" height="5.3"/><rect x="1088.57" y="140.14" width="5.3" height="5.3"/><rect x="1093.87" y="140.14" width="5.3" height="5.3"/><rect x="1099.17" y="140.14" width="5.3" height="5.3"/><rect x="1120.38" y="140.14" width="5.3" height="5.3"/><rect x="1125.69" y="140.14" width="5.3" height="5.3"/><rect x="1130.99" y="140.14" width="5.3" height="5.3"/><rect x="1136.29" y="140.14" width="5.3" height="5.3"/><rect x="1141.6" y="140.14" width="5.3" height="5.3"/><rect x="1152.2" y="140.14" width="5.3" height="5.3"/><rect x="1056.75" y="145.45" width="5.3" height="5.3"/><rect x="1062.05" y="145.45" width="5.3" height="5.3"/><rect x="1072.66" y="145.45" width="5.3" height="5.3"/><rect x="1077.96" y="145.45" width="5.3" height="5.3"/><rect x="1083.26" y="145.45" width="5.3" height="5.3"/><rect x="1120.38" y="145.45" width="5.3" height="5.3"/><rect x="1141.6" y="145.45" width="5.3" height="5.3"/><rect x="1152.2" y="145.45" width="5.3" height="5.3"/><rect x="1157.51" y="145.45" width="5.3" height="5.3"/><rect x="1162.81" y="145.45" width="5.3" height="5.3"/><rect x="1077.96" y="150.75" width="5.3" height="5.3"/><rect x="1083.26" y="150.75" width="5.3" height="5.3"/><rect x="1088.57" y="150.75" width="5.3" height="5.3"/><rect x="1104.47" y="150.75" width="5.3" height="5.3"/><rect x="1120.38" y="150.75" width="5.3" height="5.3"/><rect x="1130.99" y="150.75" width="5.3" height="5.3"/><rect x="1141.6" y="150.75" width="5.3" height="5.3"/><rect x="1157.51" y="150.75" width="5.3" height="5.3"/><rect x="1056.75" y="156.05" width="5.3" height="5.3"/><rect x="1062.05" y="156.05" width="5.3" height="5.3"/><rect x="1083.26" y="156.05" width="5.3" height="5.3"/><rect x="1120.38" y="156.05" width="5.3" height="5.3"/><rect x="1141.6" y="156.05" width="5.3" height="5.3"/><rect x="1146.9" y="156.05" width="5.3" height="5.3"/><rect x="1152.2" y="156.05" width="5.3" height="5.3"/><rect x="1157.51" y="156.05" width="5.3" height="5.3"/><rect x="1088.57" y="161.36" width="5.3" height="5.3"/><rect x="1104.47" y="161.36" width="5.3" height="5.3"/><rect x="1109.78" y="161.36" width="5.3" height="5.3"/><rect x="1120.38" y="161.36" width="5.3" height="5.3"/><rect x="1125.69" y="161.36" width="5.3" height="5.3"/><rect x="1130.99" y="161.36" width="5.3" height="5.3"/><rect x="1136.29" y="161.36" width="5.3" height="5.3"/><rect x="1141.6" y="161.36" width="5.3" height="5.3"/><rect x="1162.81" y="161.36" width="5.3" height="5.3"/><rect x="1056.75" y="166.66" width="5.3" height="5.3"/><rect x="1067.35" y="166.66" width="5.3" height="5.3"/><rect x="1077.96" y="166.66" width="5.3" height="5.3"/><rect x="1088.57" y="166.66" width="5.3" height="5.3"/><rect x="1120.38" y="166.66" width="5.3" height="5.3"/><rect x="1130.99" y="166.66" width="5.3" height="5.3"/><rect x="1136.29" y="166.66" width="5.3" height="5.3"/><rect x="1141.6" y="166.66" width="5.3" height="5.3"/><rect x="1146.9" y="166.66" width="5.3" height="5.3"/><rect x="1152.2" y="166.66" width="5.3" height="5.3"/><rect x="1157.51" y="166.66" width="5.3" height="5.3"/><rect x="1083.26" y="171.96" width="5.3" height="5.3"/><rect x="1104.47" y="171.96" width="5.3" height="5.3"/><rect x="1115.08" y="171.96" width="5.3" height="5.3"/><rect x="1120.38" y="171.96" width="5.3" height="5.3"/><rect x="1125.69" y="171.96" width="5.3" height="5.3"/><rect x="1141.6" y="171.96" width="5.3" height="5.3"/><rect x="1146.9" y="171.96" width="5.3" height="5.3"/><rect x="1152.2" y="171.96" width="5.3" height="5.3"/><rect x="1162.81" y="171.96" width="5.3" height="5.3"/><rect x="1072.66" y="177.27" width="5.3" height="5.3"/><rect x="1083.26" y="177.27" width="5.3" height="5.3"/><rect x="1088.57" y="177.27" width="5.3" height="5.3"/><rect x="1099.17" y="177.27" width="5.3" height="5.3"/><rect x="1104.47" y="177.27" width="5.3" height="5.3"/><rect x="1109.78" y="177.27" width="5.3" height="5.3"/><rect x="1115.08" y="177.27" width="5.3" height="5.3"/><rect x="1120.38" y="177.27" width="5.3" height="5.3"/><rect x="1125.69" y="177.27" width="5.3" height="5.3"/><rect x="1141.6" y="177.27" width="5.3" height="5.3"/><rect x="1157.51" y="177.27" width="5.3" height="5.3"/><rect x="1056.75" y="182.57" width="5.3" height="5.3"/><rect x="1072.66" y="182.57" width="5.3" height="5.3"/><rect x="1088.57" y="182.57" width="5.3" height="5.3"/><rect x="1104.47" y="182.57" width="5.3" height="5.3"/><rect x="1115.08" y="182.57" width="5.3" height="5.3"/><rect x="1120.38" y="182.57" width="5.3" height="5.3"/><rect x="1125.69" y="182.57" width="5.3" height="5.3"/><rect x="1130.99" y="182.57" width="5.3" height="5.3"/><rect x="1136.29" y="182.57" width="5.3" height="5.3"/><rect x="1146.9" y="182.57" width="5.3" height="5.3"/><rect x="1157.51" y="182.57" width="5.3" height="5.3"/><rect class="cls-5" x="1019.89" y="39.65" width="25.98" height="25.98"/><path d="M1045.88,34.08h-31.56V71.21h37.12V34.08Zm0,31.56h-26v-26h26Z" transform="translate(0 0)"/><rect class="cls-5" x="1136.56" y="39.65" width="25.98" height="25.98"/><path d="M1162.54,34.08H1131V71.21h37.12V34.08Zm0,31.56h-26v-26h26Z" transform="translate(0 0)"/><rect class="cls-5" x="1019.89" y="156.32" width="25.98" height="25.98"/><path d="M1045.88,150.75h-31.56v37.12h37.12V150.75Zm0,31.55h-26v-26h26Z" transform="translate(0 0)"/><rect x="1024.93" y="44.69" width="15.91" height="15.91"/><rect x="1141.6" y="44.69" width="15.91" height="15.91"/><rect x="1024.93" y="161.36" width="15.91" height="15.91"/></svg>