<svg id="Layer_1" data-name="Layer 1" xmlns="http://www.w3.org/2000/svg" xmlns:xlink="http://www.w3.org/1999/xlink" viewBox="0 0 1200 675"><defs><style>.cls-1{fill:url(#linear-gradient);}.cls-2{isolation:isolate;}.cls-3{fill:#fff;}.cls-4,.cls-5{fill:none;}.cls-4{stroke:#fff;stroke-miterlimit:10;stroke-width:1.51px;}</style><linearGradient id="linear-gradient" x1="131.25" y1="805.83" x2="1068.75" y2="-131.67" gradientTransform="matrix(1, 0, 0, -1, 0, 674.58)" gradientUnits="userSpaceOnUse"><stop offset="0" stop-color="#3b82f6"/><stop offset="0.53" stop-color="#1d4ed8"/><stop offset="1" stop-color="#1e40af"/></linearGradient></defs><rect class="cls-1" width="1200" height="675"/><g class="cls-2"><path class="cls-3" d="M703.29,623.16a10.85,10.85,0,0,1-2.32,7.31,8.88,8.88,0,0,1-12.73,0,10.89,10.89,0,0,1-2.31-7.34,10.69,10.69,0,0,1,2.33-7.29,8,8,0,0,1,6.37-2.67,8,8,0,0,1,6.36,2.68A10.85,10.85,0,0,1,703.29,623.16Zm-15.88,0a10,10,0,0,0,1.85,6.44,7.44,7.44,0,0,0,10.7,0,10,10,0,0,0,1.85-6.46,9.86,9.86,0,0,0-1.85-6.43,7.45,7.45,0,0,0-10.67,0A9.7,9.7,0,0,0,687.41,623.16Z" transform="translate(0 0)"/><path class="cls-3" d="M708.73,618.46v9.35a4.55,4.55,0,0,0,.91,3.16,3.69,3.69,0,0,0,2.83,1,4.94,4.94,0,0,0,3.79-1.3,6.1,6.1,0,0,0,1.22-4.24v-8h1.3v14.43h-1.12l-.24-2h-.08a4.56,4.56,0,0,1-2,1.64,6.74,6.74,0,0,1-2.88.62,6,6,0,0,1-2.22-.37,4.19,4.19,0,0,1-1.59-1.12c.05.81.07,1.57.07,2.26v5.49h-1.32v-21Z" transform="translate(0 0)"/><path class="cls-3" d="M735.56,625.65a8.18,8.18,0,0,1-1.71,5.52,5.93,5.93,0,0,1-4.73,2,6.15,6.15,0,0,1-3.35-.92,5.86,5.86,0,0,1-2.21-2.63,9.46,9.46,0,0,1-.77-4,8.14,8.14,0,0,1,1.71-5.5,5.91,5.91,0,0,1,4.7-2,5.81,5.81,0,0,1,4.67,2A8.19,8.19,0,0,1,735.56,625.65Zm-11.39,0a7.28,7.28,0,0,0,1.31,4.64,4.92,4.92,0,0,0,7.39,0,7.34,7.34,0,0,0,1.31-4.64,7.23,7.23,0,0,0-1.32-4.63,5,5,0,0,0-7.4,0A7.36,7.36,0,0,0,724.17,625.65Z" transform="translate(0 0)"/><path class="cls-3" d="M743.23,639.42h-1.31a16.1,16.1,0,0,1,.4-3.16,24.54,24.54,0,0,1,1-3.53l-6-14.27h1.37L742.2,627l1.66,4.16h.08l1.14-3.16,3.61-9.56h1.37l-5.37,13.81a22.12,22.12,0,0,0-1,3.57A24.53,24.53,0,0,0,743.23,639.42Z" transform="translate(0 0)"/><path class="cls-3" d="M759.11,624.69v1.14h-1.86a5.45,5.45,0,0,0-3.33.83,2.75,2.75,0,0,0-1.09,2.31,2.52,2.52,0,0,0,1.16,2.19,5.66,5.66,0,0,0,3.24.8,8.86,8.86,0,0,0,1.85-.18,12.32,12.32,0,0,0,2.32-.88v1.23a8.42,8.42,0,0,1-4.28,1,7,7,0,0,1-4.18-1.08,3.49,3.49,0,0,1-1.5-3q0-3,3.29-3.77v-.12q-2.85-.84-2.85-3.17a3.32,3.32,0,0,1,1.36-2.8,6.09,6.09,0,0,1,3.75-1,11.65,11.65,0,0,1,2.31.21,11.06,11.06,0,0,1,2.2.69L761,620.2a10,10,0,0,0-4-.85,4.6,4.6,0,0,0-2.81.7,2.35,2.35,0,0,0-.92,2q0,2.65,4.32,2.65Z" transform="translate(0 0)"/><path class="cls-3" d="M762.48,618.46h1.36q3.85,10.37,4.22,11.4c.25.68.46,1.3.65,1.86h.08q5.3-4.89,5.3-13.26h1.26a20.36,20.36,0,0,1-1.46,8.06,19,19,0,0,1-4.64,6.37H767.9Z" transform="translate(0 0)"/><path class="cls-3" d="M785.39,624.69v1.14h-1.86a5.46,5.46,0,0,0-3.34.83,2.74,2.74,0,0,0-1.08,2.31,2.51,2.51,0,0,0,1.15,2.19,5.66,5.66,0,0,0,3.24.8,9,9,0,0,0,1.86-.18,12,12,0,0,0,2.31-.88v1.23a8.42,8.42,0,0,1-4.28,1,7.06,7.06,0,0,1-4.18-1.08,3.49,3.49,0,0,1-1.5-3q0-3,3.29-3.77v-.12q-2.85-.84-2.85-3.17a3.33,3.33,0,0,1,1.37-2.8,6.06,6.06,0,0,1,3.74-1,11.83,11.83,0,0,1,2.32.21,11.27,11.27,0,0,1,2.2.69l-.5,1.12a10,10,0,0,0-4-.85,4.62,4.62,0,0,0-2.81.7,2.38,2.38,0,0,0-.92,2q0,2.65,4.33,2.65Z" transform="translate(0 0)"/><path class="cls-3" d="M792.29,618.46v10.28a4,4,0,0,0,.62,2.51,2.49,2.49,0,0,0,2,.74,7,7,0,0,0,1.71-.21v1.11a5.13,5.13,0,0,1-.81.18,6.24,6.24,0,0,1-1,.09,3.62,3.62,0,0,1-2.92-1.07,4.93,4.93,0,0,1-.89-3.22V618.46Zm-1.24-2.26a21.91,21.91,0,0,0,.76-2.44,24.16,24.16,0,0,0,.56-2.79H794v.23a18.93,18.93,0,0,1-.84,2.53,18.65,18.65,0,0,1-1.28,2.68h-.78Z" transform="translate(0 0)"/><path class="cls-3" d="M800.1,626.07a6.67,6.67,0,0,0,.46,2.82,3.91,3.91,0,0,0,1.51,1.6,9.59,9.59,0,0,0,2.9,1,7.59,7.59,0,0,1,3,1.14,2.33,2.33,0,0,1,.88,2,4,4,0,0,1-.17,1.14,6.82,6.82,0,0,1-.41,1,10.75,10.75,0,0,1-.92,1.43h-1.28a9.85,9.85,0,0,0,1.13-1.88,4.08,4.08,0,0,0,.39-1.57,1.47,1.47,0,0,0-.79-1.33,9.43,9.43,0,0,0-2.74-.85,8.19,8.19,0,0,1-3.21-1.22,4.61,4.61,0,0,1-1.63-2.13,8.53,8.53,0,0,1-.51-3.08,8.83,8.83,0,0,1,1.77-5.89,6.28,6.28,0,0,1,5-2.08,10.1,10.1,0,0,1,3.56.65l-.36,1.17a13.79,13.79,0,0,0-1.81-.47,9.2,9.2,0,0,0-1.44-.16Q800.09,619.37,800.1,626.07Z" transform="translate(0 0)"/><path class="cls-3" d="M831.36,626a7.62,7.62,0,0,1-1.69,5.23,5.93,5.93,0,0,1-4.69,1.92,5.81,5.81,0,0,1-4.62-1.9,9,9,0,0,1,.32-10.87,8,8,0,0,1,5.8-1.93h5.94v1.14h-3.37A9.44,9.44,0,0,1,831.36,626Zm-11.28.06a6.6,6.6,0,0,0,1.29,4.33A4.46,4.46,0,0,0,825,632a4.5,4.5,0,0,0,3.65-1.54,6.32,6.32,0,0,0,1.3-4.22,9.48,9.48,0,0,0-2.4-6.6h-1.05a5.65,5.65,0,0,0-6.45,6.47Z" transform="translate(0 0)"/><path class="cls-3" d="M844.33,618.46v1.14h-5.71v9a3.89,3.89,0,0,0,.73,2.58,2.89,2.89,0,0,0,2.31.84,7,7,0,0,0,1.94-.26v1.11a6.34,6.34,0,0,1-2.23.3,4,4,0,0,1-3.06-1.13,4.71,4.71,0,0,1-1-3.27V619.6h-3.94v-.77l2.15-.37Z" transform="translate(0 0)"/><path class="cls-3" d="M857.68,639.42V623.53a4.44,4.44,0,0,0-1-3.17,4,4,0,0,0-3-1,4.59,4.59,0,0,0-3.65,1.33,6.34,6.34,0,0,0-1.15,4.22v8h-1.32V618.46h1.12l.25,2h.08a4.37,4.37,0,0,1,2-1.71,6.55,6.55,0,0,1,2.72-.55,5.35,5.35,0,0,1,4,1.31,5.46,5.46,0,0,1,1.29,4v16Z" transform="translate(0 0)"/><path class="cls-3" d="M861.21,618.46h1.35q3.86,10.37,4.22,11.4c.25.68.47,1.3.65,1.86h.08q5.29-4.89,5.3-13.26h1.26a20.36,20.36,0,0,1-1.46,8.06,19.09,19.09,0,0,1-4.63,6.37h-1.36Z" transform="translate(0 0)"/><path class="cls-3" d="M896.66,632a2.27,2.27,0,0,0,.9-.16v1.11a2.75,2.75,0,0,1-1.09.22,2.39,2.39,0,0,1-1.89-.77,3.31,3.31,0,0,1-.69-2.27V619.6h-7.07v13.29h-1.3V619.6h-2.94v-.77l2.19-.37h13.36v1.14h-2.94v10.33C895.19,631.3,895.68,632,896.66,632Z" transform="translate(0 0)"/><path class="cls-3" d="M913.18,625.63a8.35,8.35,0,0,1-1.65,5.61,6.06,6.06,0,0,1-4.86,1.92,7.17,7.17,0,0,1-2.23-.36,5.75,5.75,0,0,1-2-1h0l0,1.25,0,2.48v3.94h-1.3V625.36a8.21,8.21,0,0,1,1.52-5.37,5.49,5.49,0,0,1,4.47-1.81,5.36,5.36,0,0,1,4.45,1.89A8.65,8.65,0,0,1,913.18,625.63Zm-6.09-6.26a4,4,0,0,0-3.47,1.47,7.68,7.68,0,0,0-1.1,4.58v5a6.55,6.55,0,0,0,1.9,1.21,5.89,5.89,0,0,0,2.27.41,4.65,4.65,0,0,0,3.85-1.56,7.57,7.57,0,0,0,1.26-4.8,8,8,0,0,0-1.13-4.67A4.1,4.1,0,0,0,907.09,619.37Z" transform="translate(0 0)"/><path class="cls-3" d="M928.49,633.16a3.63,3.63,0,0,1-2.35-.69,4.36,4.36,0,0,1-1.31-1.94h-.14a4.2,4.2,0,0,1-1.38,2,3.79,3.79,0,0,1-2.27.63,3.93,3.93,0,0,1-3.46-1.86,9.59,9.59,0,0,1-1.24-5.34,18.34,18.34,0,0,1,.39-3.92,16.26,16.26,0,0,1,1.25-3.58h1.35a20.14,20.14,0,0,0-1.24,3.8,18.78,18.78,0,0,0-.37,3.75,8.93,8.93,0,0,0,.89,4.43,2.81,2.81,0,0,0,2.54,1.52,2.58,2.58,0,0,0,2.18-1,4.66,4.66,0,0,0,.75-2.86v-4.3h1.32v4.3a4.64,4.64,0,0,0,.77,2.83,2.66,2.66,0,0,0,2.24,1,2.7,2.7,0,0,0,2.5-1.54,9.37,9.37,0,0,0,.85-4.41,17.76,17.76,0,0,0-.37-3.76,19.81,19.81,0,0,0-1.24-3.79h1.37a16.2,16.2,0,0,1,1.23,3.54,18.59,18.59,0,0,1,.39,4,9.8,9.8,0,0,1-1.21,5.31A3.86,3.86,0,0,1,928.49,633.16Zm-4.54-17a21.91,21.91,0,0,0,.76-2.44,26.49,26.49,0,0,0,.56-2.79h1.58v.23a18.93,18.93,0,0,1-.84,2.53,18.63,18.63,0,0,1-1.29,2.68H924Z" transform="translate(0 0)"/><path class="cls-3" d="M947.2,639.42V623.53a4.44,4.44,0,0,0-1-3.17,4,4,0,0,0-3-1,4.59,4.59,0,0,0-3.65,1.33,6.34,6.34,0,0,0-1.15,4.22v8h-1.32V618.46h1.12l.25,2h.08a4.37,4.37,0,0,1,1.95-1.71,6.58,6.58,0,0,1,2.72-.55,5.35,5.35,0,0,1,4,1.31,5.46,5.46,0,0,1,1.29,4v16Z" transform="translate(0 0)"/><path class="cls-3" d="M950.73,618.46h1.35q3.85,10.37,4.23,11.4c.24.68.46,1.3.65,1.86H957q5.3-4.89,5.29-13.26h1.26a20.18,20.18,0,0,1-1.46,8.06,19,19,0,0,1-4.63,6.37h-1.35Z" transform="translate(0 0)"/><path class="cls-3" d="M972.58,632.89v-1.11l7.08-9-6.91-8.23v-1.09h12.8v1.25H977l-2.41,0,6.82,8-7,8.92h12v1.25Z" transform="translate(0 0)"/><path class="cls-3" d="M1001.1,625.65a8.18,8.18,0,0,1-1.71,5.52,5.93,5.93,0,0,1-4.73,2,6.09,6.09,0,0,1-3.34-.92,5.82,5.82,0,0,1-2.22-2.63,9.46,9.46,0,0,1-.77-4,8.14,8.14,0,0,1,1.71-5.5,5.91,5.91,0,0,1,4.7-2,5.81,5.81,0,0,1,4.67,2A8.19,8.19,0,0,1,1001.1,625.65Zm-11.39,0a7.28,7.28,0,0,0,1.31,4.64,4.92,4.92,0,0,0,7.39,0,7.34,7.34,0,0,0,1.31-4.64A7.23,7.23,0,0,0,998.4,621a5,5,0,0,0-7.4,0A7.36,7.36,0,0,0,989.71,625.65Z" transform="translate(0 0)"/><path class="cls-3" d="M1011.3,612.09a6.17,6.17,0,0,1,4.23,1.35,4.76,4.76,0,0,1,1.53,3.76,4.82,4.82,0,0,1-1,3.08,4.5,4.5,0,0,1-2.84,1.58v.08a5.32,5.32,0,0,1,3.47,1.64,5.75,5.75,0,0,1,1.12,3.81,5.19,5.19,0,0,1-1.75,4.17,7.11,7.11,0,0,1-4.75,1.49,10.45,10.45,0,0,1-4.94-1.33v7.7h-1.31v-21a6.36,6.36,0,0,1,1.6-4.63A6.12,6.12,0,0,1,1011.3,612.09Zm0,1.16a4.79,4.79,0,0,0-3.64,1.29,5.31,5.31,0,0,0-1.22,3.77v12.32a12.13,12.13,0,0,0,2.58,1.08,9,9,0,0,0,2.33.3,5.8,5.8,0,0,0,3.89-1.2,4.26,4.26,0,0,0,1.4-3.39q0-4.83-5.21-4.83h-1.56v-1.17h1.4a4.61,4.61,0,0,0,3.31-1.08,4.2,4.2,0,0,0,1.13-3.17,3.67,3.67,0,0,0-1.16-2.88A4.7,4.7,0,0,0,1011.27,613.25Z" transform="translate(0 0)"/><path class="cls-3" d="M1022.71,618.46v10.28a4,4,0,0,0,.62,2.51,2.52,2.52,0,0,0,2,.74,7.15,7.15,0,0,0,1.71-.21v1.11a5.74,5.74,0,0,1-.81.18,6.36,6.36,0,0,1-1,.09,3.61,3.61,0,0,1-2.91-1.07,4.87,4.87,0,0,1-.9-3.22V618.46Z" transform="translate(0 0)"/><path class="cls-3" d="M1036.48,624.69v1.14h-1.86a5.45,5.45,0,0,0-3.33.83,2.72,2.72,0,0,0-1.09,2.31,2.52,2.52,0,0,0,1.16,2.19,5.66,5.66,0,0,0,3.24.8,9,9,0,0,0,1.86-.18,12.24,12.24,0,0,0,2.3-.88v1.23a8.39,8.39,0,0,1-4.27,1,7,7,0,0,1-4.18-1.08,3.49,3.49,0,0,1-1.5-3q0-3,3.29-3.77v-.12q-2.85-.84-2.85-3.17a3.32,3.32,0,0,1,1.36-2.8,6.07,6.07,0,0,1,3.75-1,11.65,11.65,0,0,1,2.31.21,11.06,11.06,0,0,1,2.2.69l-.49,1.12a10,10,0,0,0-4-.85,4.6,4.6,0,0,0-2.81.7,2.35,2.35,0,0,0-.92,2q0,2.65,4.32,2.65Z" transform="translate(0 0)"/><path class="cls-3" d="M1051.14,618.46v1.14h-5.71v9a3.9,3.9,0,0,0,.72,2.58,2.92,2.92,0,0,0,2.32.84,7,7,0,0,0,1.94-.26v1.11a6.38,6.38,0,0,1-2.23.3,3.93,3.93,0,0,1-3.06-1.13,4.67,4.67,0,0,1-1-3.27V619.6h-3.94v-.77l2.15-.37Z" transform="translate(0 0)"/><path class="cls-3" d="M1055.51,618.46v10.28a4,4,0,0,0,.61,2.51,2.53,2.53,0,0,0,2,.74,7.15,7.15,0,0,0,1.71-.21v1.11a5.74,5.74,0,0,1-.81.18,6.33,6.33,0,0,1-1,.09,3.62,3.62,0,0,1-2.92-1.07,4.87,4.87,0,0,1-.89-3.22V618.46Z" transform="translate(0 0)"/><path class="cls-3" d="M1064.06,626.56l7.36-8.1h1.6l-5.68,6.16,6.17,8.27h-1.58l-5.48-7.29-2.37,2.15v5.14h-1.31V618.46h1.31v4.13l-.09,4Z" transform="translate(0 0)"/><path class="cls-3" d="M1086,639.42V623.53a4.44,4.44,0,0,0-1-3.17,4,4,0,0,0-3-1,4.6,4.6,0,0,0-3.66,1.33,6.34,6.34,0,0,0-1.15,4.22v8h-1.32V618.46H1077l.25,2h.08a4.37,4.37,0,0,1,2-1.71,6.59,6.59,0,0,1,2.73-.55,5.34,5.34,0,0,1,4,1.31,5.46,5.46,0,0,1,1.29,4v16Zm-5-23.22a22.1,22.1,0,0,0,.75-2.44,24.16,24.16,0,0,0,.56-2.79h1.58v.23a18.93,18.93,0,0,1-.84,2.53,17.64,17.64,0,0,1-1.28,2.68H1081Z" transform="translate(0 0)"/><path class="cls-3" d="M1096.08,617.6a22.15,22.15,0,0,0,.76-2.45,25.41,25.41,0,0,0,.55-2.79H1099v.23a18.75,18.75,0,0,1-.83,2.54,19.16,19.16,0,0,1-1.29,2.68h-.77Zm15.08,15.29h-10.61V613.48h10.61v1.25h-9.25v7.34h8.73v1.25h-8.73v8.32h9.25Z" transform="translate(0 0)"/><path class="cls-3" d="M1112.79,618.46h1.36q3.84,10.37,4.22,11.4c.25.68.46,1.3.65,1.86h.08q5.3-4.89,5.3-13.26h1.26a20.36,20.36,0,0,1-1.46,8.06,19.13,19.13,0,0,1-4.64,6.37h-1.35Z" transform="translate(0 0)"/><path class="cls-3" d="M1140.5,633.16a3.63,3.63,0,0,1-2.35-.69,4.36,4.36,0,0,1-1.31-1.94h-.13a4.28,4.28,0,0,1-1.39,2,3.79,3.79,0,0,1-2.27.63,3.93,3.93,0,0,1-3.46-1.86,9.67,9.67,0,0,1-1.24-5.34,18.34,18.34,0,0,1,.39-3.92,16.26,16.26,0,0,1,1.25-3.58h1.35a20.14,20.14,0,0,0-1.24,3.8,18.79,18.79,0,0,0-.36,3.75,8.94,8.94,0,0,0,.88,4.43,2.81,2.81,0,0,0,2.54,1.52,2.58,2.58,0,0,0,2.18-1,4.66,4.66,0,0,0,.75-2.86v-4.3h1.32v4.3a4.58,4.58,0,0,0,.78,2.83,2.62,2.62,0,0,0,2.23,1,2.7,2.7,0,0,0,2.5-1.54,9.37,9.37,0,0,0,.85-4.41,17.76,17.76,0,0,0-.37-3.76,19.81,19.81,0,0,0-1.24-3.79h1.37a16.2,16.2,0,0,1,1.23,3.54,18.59,18.59,0,0,1,.39,4,9.8,9.8,0,0,1-1.21,5.31A3.84,3.84,0,0,1,1140.5,633.16Z" transform="translate(0 0)"/><path class="cls-3" d="M1161,626a7.62,7.62,0,0,1-1.69,5.23,5.93,5.93,0,0,1-4.69,1.92,5.81,5.81,0,0,1-4.62-1.9,9,9,0,0,1,.32-10.87,8,8,0,0,1,5.8-1.93h6v1.14h-3.38A9.44,9.44,0,0,1,1161,626Zm-11.28.06a6.6,6.6,0,0,0,1.29,4.33,5.08,5.08,0,0,0,7.31,0,6.32,6.32,0,0,0,1.3-4.22,9.48,9.48,0,0,0-2.4-6.6h-1a5.65,5.65,0,0,0-6.45,6.47Z" transform="translate(0 0)"/><path class="cls-3" d="M1175.17,639.42V623.53a4.39,4.39,0,0,0-1-3.17,4,4,0,0,0-3-1,4.59,4.59,0,0,0-3.65,1.33,6.34,6.34,0,0,0-1.15,4.22v8h-1.32V618.46h1.12l.25,2h.08a4.37,4.37,0,0,1,2-1.71,6.58,6.58,0,0,1,2.72-.55,5.35,5.35,0,0,1,4,1.31,5.46,5.46,0,0,1,1.29,4v16Z" transform="translate(0 0)"/></g><g class="cls-2"><path class="cls-3" d="M59.77,191l-1.41-4.62H51.28L49.87,191H45.44l6.85-19.49h5L64.2,191Zm-2.39-8.07q-2-6.28-2.2-7.1c-.17-.55-.28-1-.35-1.31-.3,1.14-1.13,3.94-2.51,8.41Z" transform="translate(0 0)"/><path class="cls-3" d="M64.28,176.11h4.15l2.9,8.23.91,3h.11a13,13,0,0,0,2.2-4.65,26.66,26.66,0,0,0,.68-6.6h4.09a25.68,25.68,0,0,1-.58,5.86,17.21,17.21,0,0,1-1.86,4.66A21,21,0,0,1,73.49,191H69.85Z" transform="translate(0 0)"/><path class="cls-3" d="M96,183.5a8,8,0,0,1-1.92,5.67,6.92,6.92,0,0,1-5.32,2.05,7.5,7.5,0,0,1-3.77-.94,6.23,6.23,0,0,1-2.51-2.69,9.09,9.09,0,0,1-.88-4.09,7.94,7.94,0,0,1,1.9-5.65,7,7,0,0,1,5.34-2,7.47,7.47,0,0,1,3.77.93,6.18,6.18,0,0,1,2.51,2.67A9,9,0,0,1,96,183.5Zm-10.27,0a6.14,6.14,0,0,0,.73,3.33A2.57,2.57,0,0,0,88.81,188a2.54,2.54,0,0,0,2.33-1.12,6.26,6.26,0,0,0,.71-3.34,6.08,6.08,0,0,0-.71-3.3,3,3,0,0,0-4.69,0A6.09,6.09,0,0,0,85.73,183.5Z" transform="translate(0 0)"/><path class="cls-3" d="M103.39,176.11V186.3a1.57,1.57,0,0,0,.49,1.28,1.93,1.93,0,0,0,1.28.41,8.85,8.85,0,0,0,2.56-.47v3a8.23,8.23,0,0,1-3.49.68,5,5,0,0,1-3.71-1.23,5.17,5.17,0,0,1-1.18-3.69V176.11Z" transform="translate(0 0)"/><path class="cls-3" d="M111.48,175.91a4.77,4.77,0,0,1,2,.34,3.15,3.15,0,0,1,1.29,1.08,9.66,9.66,0,0,1,1.07,2.39l1,2.93,3.71-6.54h4.07l-6,10.11,2.59,6.31a2.93,2.93,0,0,0,.84,1.2,2,2,0,0,0,1.27.35,5.24,5.24,0,0,0,1.34-.17v3.16a7.61,7.61,0,0,1-2.59.41,4.08,4.08,0,0,1-2.71-.89,6.61,6.61,0,0,1-1.75-3l-1.38-4.33L112,197.48h-4.31l6.66-11.75-1.77-4.67a3.27,3.27,0,0,0-.8-1.34,1.72,1.72,0,0,0-1.21-.41,4.94,4.94,0,0,0-1.53.25v-3.24A9.65,9.65,0,0,1,111.48,175.91Z" transform="translate(0 0)"/><path class="cls-3" d="M132.71,179.15v7.15a1.6,1.6,0,0,0,.48,1.28,1.93,1.93,0,0,0,1.28.41,8.79,8.79,0,0,0,2.55-.47v3a8.09,8.09,0,0,1-3.48.68,4.93,4.93,0,0,1-3.7-1.23,5.13,5.13,0,0,1-1.18-3.69v-7.15h-3.73v-1.69l2.33-1.35H138v3Z" transform="translate(0 0)"/><path class="cls-3" d="M154.84,197.48h-4.05v-15.2a4.18,4.18,0,0,0-.57-2.41,2.09,2.09,0,0,0-1.82-.8,2.76,2.76,0,0,0-2.46,1.13,7.11,7.11,0,0,0-.75,3.77v7h-4.05V176.11h3.09l.54,1.9H145a4.27,4.27,0,0,1,1.86-1.63,6.37,6.37,0,0,1,2.71-.55,5.19,5.19,0,0,1,3.93,1.4,5.63,5.63,0,0,1,1.34,4Zm-8-23.42c.16-.48.36-1.2.6-2.17a24.66,24.66,0,0,0,.49-2.58h3.76v.32a36.88,36.88,0,0,1-2.48,4.84h-2.37Z" transform="translate(0 0)"/><path class="cls-3" d="M177.57,191H166.39V171.54h11.18v3.37H170.5v4.26h6.58v3.38H170.5v5h7.07Z" transform="translate(0 0)"/><path class="cls-3" d="M196.43,188a3.53,3.53,0,0,0,1.73-.46v2.91a5.18,5.18,0,0,1-1.39.53,7,7,0,0,1-1.56.2,4,4,0,0,1-3-1.09,4.53,4.53,0,0,1-1.05-3.26V179.2h-4.48V191H182.6V179.2h-3.1v-1.74l2.37-1.35h16.45v3.09h-3.14v7.51a1.3,1.3,0,0,0,.36,1A1.31,1.31,0,0,0,196.43,188Z" transform="translate(0 0)"/><path class="cls-3" d="M205.43,176.11V186.3a1.57,1.57,0,0,0,.49,1.28,1.93,1.93,0,0,0,1.28.41,8.79,8.79,0,0,0,2.56-.47v3a8.2,8.2,0,0,1-3.49.68,4.91,4.91,0,0,1-3.7-1.23,5.13,5.13,0,0,1-1.19-3.69V176.11Z" transform="translate(0 0)"/><path class="cls-3" d="M226.16,184.64a6.6,6.6,0,0,1-.9,3.45,6,6,0,0,1-2.56,2.32,8.79,8.79,0,0,1-3.88.81,7.05,7.05,0,0,1-5.36-2,7.66,7.66,0,0,1-1.91-5.51q0-7.64,8.38-7.63h7.61v3h-3.77A8,8,0,0,1,226.16,184.64Zm-10.44-.93a5.35,5.35,0,0,0,.79,3.16,2.72,2.72,0,0,0,2.36,1.09,2.82,2.82,0,0,0,2.34-1A4.69,4.69,0,0,0,222,184a8.72,8.72,0,0,0-.39-2.68,7.17,7.17,0,0,0-1.29-2.3h-.67a3.73,3.73,0,0,0-3,1.09A5.71,5.71,0,0,0,215.72,183.71Z" transform="translate(0 0)"/><path class="cls-3" d="M236.41,179.15v7.15a1.6,1.6,0,0,0,.48,1.28,1.93,1.93,0,0,0,1.28.41,8.79,8.79,0,0,0,2.55-.47v3a8.06,8.06,0,0,1-3.48.68,4.93,4.93,0,0,1-3.7-1.23,5.13,5.13,0,0,1-1.18-3.69v-7.15h-3.73v-1.69l2.33-1.35h10.72v3Z" transform="translate(0 0)"/><path class="cls-3" d="M258.33,183.5a8,8,0,0,1-1.92,5.67,6.92,6.92,0,0,1-5.32,2.05,7.5,7.5,0,0,1-3.77-.94,6.28,6.28,0,0,1-2.51-2.69,9.09,9.09,0,0,1-.88-4.09,7.94,7.94,0,0,1,1.9-5.65,7,7,0,0,1,5.34-2,7.47,7.47,0,0,1,3.77.93,6.18,6.18,0,0,1,2.51,2.67A9,9,0,0,1,258.33,183.5Zm-10.27,0a6.14,6.14,0,0,0,.73,3.33,2.57,2.57,0,0,0,2.35,1.13,2.54,2.54,0,0,0,2.33-1.12,6.26,6.26,0,0,0,.71-3.34,6.08,6.08,0,0,0-.71-3.3,3,3,0,0,0-4.69,0A6.09,6.09,0,0,0,248.06,183.5Z" transform="translate(0 0)"/><path class="cls-3" d="M259.65,191l6.28-14-.46-1.23a4.1,4.1,0,0,0-1.09-1.68,2.94,2.94,0,0,0-1.87-.49,5.89,5.89,0,0,0-1.36.17v-3.34a9.92,9.92,0,0,1,2.21-.23,6.59,6.59,0,0,1,2.61.46,4.66,4.66,0,0,1,1.84,1.44,10.41,10.41,0,0,1,1.44,2.87L273,185.13a7.54,7.54,0,0,0,1,2,1.53,1.53,0,0,0,1.23.65,3.37,3.37,0,0,0,.92-.14v3.14a4,4,0,0,1-1.06.28,8.44,8.44,0,0,1-1.28.12,3.8,3.8,0,0,1-2.39-.72,4.73,4.73,0,0,1-1.47-2.3q-1.51-4.29-1.8-5.17c-.19-.59-.34-1.11-.46-1.57h-.08c-.4,1.36-.74,2.38-1,3L263.85,191Z" transform="translate(0 0)"/><path class="cls-3" d="M292.1,197.48h-4.05v-15.2a4.18,4.18,0,0,0-.57-2.41,2.09,2.09,0,0,0-1.82-.8,2.73,2.73,0,0,0-2.45,1.13,7,7,0,0,0-.76,3.77v7H278.4V176.11h3.09L282,178h.22a4.3,4.3,0,0,1,1.87-1.63,6.29,6.29,0,0,1,2.7-.55,5.16,5.16,0,0,1,3.93,1.4,5.63,5.63,0,0,1,1.34,4Zm-8-23.42c.16-.48.36-1.2.59-2.17s.4-1.84.5-2.58H289v.32a35.7,35.7,0,0,1-2.48,4.84h-2.36Z" transform="translate(0 0)"/></g><path class="cls-3" d="M66.57,289.39l-2.1-8H50.55l-2.17,8H35.67l14-43H65.08l14.15,43Zm-4.51-17.52-1.84-7q-.64-2.34-1.57-6.07c-.62-2.48-1-4.25-1.22-5.33-.17,1-.52,2.64-1,4.92S54.77,265.18,53,271.9Z" transform="translate(0 0)"/><path class="cls-3" d="M94.58,256.2V278c0,2,1.15,3,3.43,3a13.18,13.18,0,0,0,3-.31,24.53,24.53,0,0,0,3.13-.95v8.41a20.84,20.84,0,0,1-9,1.85c-4.1,0-7.12-1-9-2.89s-2.9-4.78-2.9-8.57V256.2Zm-8.64-4.13c.39-1.33.81-3.09,1.26-5.26s.76-3.88.94-5.12H98.22v.77A97.21,97.21,0,0,1,92.53,253H85.94Z" transform="translate(0 0)"/><path class="cls-3" d="M125.37,264.72v13.1a3.32,3.32,0,0,0,.77,2.34,2.81,2.81,0,0,0,2.16.82,16.45,16.45,0,0,0,5.66-1.26v8.35a20,20,0,0,1-8.94,1.85c-4,0-6.83-.93-8.54-2.77s-2.56-4.74-2.56-8.69V264.72H106v-4.86l5.68-3.66h23.47v8.52Z" transform="translate(0 0)"/><path class="cls-3" d="M162,303.8V270.49c0-3.92-1.34-5.89-4-5.89a4.46,4.46,0,0,0-4.19,2.32q-1.29,2.31-1.29,7.94v14.53H141V256.2h8.64l1.44,4.1h.67a9.14,9.14,0,0,1,4.06-3.52,14.22,14.22,0,0,1,6-1.17c3.67,0,6.53,1.07,8.57,3.19s3.06,5.13,3.06,9v36Z" transform="translate(0 0)"/><path class="cls-3" d="M192.67,274.21a10.3,10.3,0,0,0,1,5,3.49,3.49,0,0,0,3.3,1.67,4.11,4.11,0,0,0,3.94-2.43c.81-1.62,1.22-4.21,1.21-7.76V256.2h11.52v33.19H205l-1.55-4.45H203a8.23,8.23,0,0,1-2.65,3.81,5.91,5.91,0,0,1-3.59,1.23,5.14,5.14,0,0,1-2.64-.59,5.61,5.61,0,0,1-1.81-1.85,54.74,54.74,0,0,1,.35,6.89v9.37H181.21V256.2h11.46Z" transform="translate(0 0)"/><path class="cls-3" d="M232.69,290a10.88,10.88,0,0,1-9.26-4.53q-3.35-4.53-3.34-12.5,0-8.19,3.53-12.71a11.8,11.8,0,0,1,9.86-4.51,11.44,11.44,0,0,1,5.57,1.2,9.13,9.13,0,0,1,3.54,3.72h.47a11.67,11.67,0,0,1,2.05-4.45h9.61a39.65,39.65,0,0,0-1.8,6.76,39.14,39.14,0,0,0-.66,7v7.5q0,3.54,2.4,3.54a5.11,5.11,0,0,0,1.73-.29v8.52a6.56,6.56,0,0,1-2.1.53,17.07,17.07,0,0,1-2.47.24,12,12,0,0,1-5.82-1.15,8.21,8.21,0,0,1-3.29-3.75H242A10.44,10.44,0,0,1,232.69,290Zm3.89-8.88a4.34,4.34,0,0,0,3.83-1.74c.81-1.17,1.23-3.22,1.27-6.17v-.29q0-4.37-1.26-6.33a4.36,4.36,0,0,0-3.95-2,3.82,3.82,0,0,0-3.55,2.17,13.14,13.14,0,0,0-1.2,6.24q0,8.08,4.86,8.1Z" transform="translate(0 0)"/><path class="cls-3" d="M309.12,272.72q0,8.14-4.38,12.7T292.48,290q-7.56,0-12-4.66T276,272.72q0-8.12,4.38-12.61t12.29-4.5a17.46,17.46,0,0,1,8.64,2.08,14.25,14.25,0,0,1,5.79,6A19.35,19.35,0,0,1,309.12,272.72Zm-21.5,0a14.73,14.73,0,0,0,1.14,6.52,4,4,0,0,0,3.84,2.24,3.84,3.84,0,0,0,3.76-2.24,15.16,15.16,0,0,0,1.1-6.52,14.55,14.55,0,0,0-1.11-6.42,4.42,4.42,0,0,0-6.06-1.53,4.48,4.48,0,0,0-1.53,1.53A14.27,14.27,0,0,0,287.62,272.72Z" transform="translate(0 0)"/><path class="cls-3" d="M327.11,274.21a10.3,10.3,0,0,0,1,5,3.52,3.52,0,0,0,3.3,1.67,4.11,4.11,0,0,0,3.94-2.43c.81-1.62,1.21-4.21,1.22-7.76V256.2h11.51v33.19H339.5l-1.56-4.45h-.47a8.23,8.23,0,0,1-2.65,3.81,5.91,5.91,0,0,1-3.59,1.23,5.13,5.13,0,0,1-2.63-.59,5.64,5.64,0,0,1-1.82-1.85,54.74,54.74,0,0,1,.35,6.89v9.37H315.66V256.2h11.45Z" transform="translate(0 0)"/><path class="cls-3" d="M387.67,272.72q0,8.14-4.38,12.7T371,290q-7.56,0-12-4.66t-4.47-12.6q0-8.12,4.38-12.61t12.29-4.5a17.52,17.52,0,0,1,8.65,2.08,14.23,14.23,0,0,1,5.78,6A19.29,19.29,0,0,1,387.67,272.72Zm-21.51,0a14.88,14.88,0,0,0,1.15,6.52,4,4,0,0,0,3.84,2.24,3.87,3.87,0,0,0,3.76-2.24,15.31,15.31,0,0,0,1.1-6.52,14.55,14.55,0,0,0-1.11-6.42,4.42,4.42,0,0,0-6.06-1.53,4.48,4.48,0,0,0-1.53,1.53A14.15,14.15,0,0,0,366.16,272.72Z" transform="translate(0 0)"/><path class="cls-3" d="M411.49,303.8H399.42a38.31,38.31,0,0,1,.76-6.49,69,69,0,0,1,2.08-8.27L390.19,256.2h11.95l3.4,10.75c.94,3.09,1.57,5.36,1.89,6.84s.55,2.8.69,4h.23A60,60,0,0,1,411,267.48l3.66-11.28H426.6L414.36,289a43.57,43.57,0,0,0-2.07,7.43A38.85,38.85,0,0,0,411.49,303.8Z" transform="translate(0 0)"/><path class="cls-3" d="M451.1,268.44v7.44h-4.34a23.82,23.82,0,0,0-4.13.27,4.88,4.88,0,0,0-2.18.8,2,2,0,0,0-.69,1.69c0,1.89,2,2.83,6.06,2.84a27.87,27.87,0,0,0,11.75-2.58v8.76a26.61,26.61,0,0,1-6.36,1.83,48.09,48.09,0,0,1-7.09.49q-8.12,0-12-2.44a8.21,8.21,0,0,1-3.85-7.54,7,7,0,0,1,2.16-5.19,9.79,9.79,0,0,1,5.84-2.61v-.29a8.45,8.45,0,0,1-4.38-2.67,6.91,6.91,0,0,1-1.62-4.6,7.39,7.39,0,0,1,3.78-6.66c2.51-1.55,6.16-2.33,10.92-2.33a30.68,30.68,0,0,1,12.6,2.52l-3.25,7.73a21.85,21.85,0,0,0-8.88-2.08c-2.91,0-4.36.74-4.36,2.2a2,2,0,0,0,1.49,1.89,15.15,15.15,0,0,0,4.92.57Z" transform="translate(0 0)"/><path class="cls-3" d="M459.68,256.2h11.75l6,18.72a28.31,28.31,0,0,1,1,4.16h.29a35.58,35.58,0,0,0,3.53-9.9,67.39,67.39,0,0,0,1-13h11.46a48.94,48.94,0,0,1-3,17.77,50.85,50.85,0,0,1-9.92,15.42h-9.61Z" transform="translate(0 0)"/><path class="cls-3" d="M534.39,290a11.17,11.17,0,0,1-6.3-1.59,9.76,9.76,0,0,1-3.61-5.12h-.35a10,10,0,0,1-3.45,5,10.78,10.78,0,0,1-6.51,1.73q-6.76,0-10.59-4.47t-3.82-12.26a46.32,46.32,0,0,1,.7-8.4,56.38,56.38,0,0,1,2.43-8.65h11.69a36.57,36.57,0,0,0-3.66,16.58,15.52,15.52,0,0,0,.95,6.37,3.37,3.37,0,0,0,3.27,2,3,3,0,0,0,3-1.52,14.21,14.21,0,0,0,.75-5.6V266h10.9v8a22.57,22.57,0,0,0,.32,4.42,2.93,2.93,0,0,0,3.11,2.73,1.36,1.36,0,0,0,.29,0,3.41,3.41,0,0,0,3.18-2,13.84,13.84,0,0,0,1-6.17,44.13,44.13,0,0,0-.88-8.58A32.79,32.79,0,0,0,534,256.2h11.69a45.22,45.22,0,0,1,3.13,17.05q0,7.85-3.85,12.29T534.39,290Zm-13.3-37.91c.39-1.33.81-3.09,1.26-5.26s.76-3.88.93-5.12h10.08v.77A95.16,95.16,0,0,1,527.68,253h-6.59Z" transform="translate(0 0)"/><path class="cls-3" d="M551.73,256.2h11.75l6,18.72a28.31,28.31,0,0,1,1,4.16h.29a35.58,35.58,0,0,0,3.53-9.9,67.39,67.39,0,0,0,1-13h11.46a48.94,48.94,0,0,1-3,17.77,50.85,50.85,0,0,1-9.92,15.42h-9.61Z" transform="translate(0 0)"/><path class="cls-3" d="M619.64,290a10.88,10.88,0,0,1-9.26-4.53q-3.33-4.53-3.34-12.5,0-8.19,3.53-12.71a11.83,11.83,0,0,1,9.86-4.51A11.44,11.44,0,0,1,626,257a9.13,9.13,0,0,1,3.54,3.72H630a11.64,11.64,0,0,1,2-4.45h9.61a39.65,39.65,0,0,0-1.8,6.76,39.14,39.14,0,0,0-.66,7v7.5q0,3.54,2.4,3.54a5.11,5.11,0,0,0,1.73-.29v8.52a6.56,6.56,0,0,1-2.09.53,17.21,17.21,0,0,1-2.48.24,11.9,11.9,0,0,1-5.81-1.15,8.23,8.23,0,0,1-3.3-3.75H629A10.48,10.48,0,0,1,619.64,290Zm3.9-8.88a4.32,4.32,0,0,0,3.82-1.74c.81-1.17,1.24-3.22,1.27-6.17v-.29q0-4.37-1.25-6.33a4.37,4.37,0,0,0-4-2,3.85,3.85,0,0,0-3.54,2.17,13,13,0,0,0-1.21,6.24q0,8.08,4.91,8.1Z" transform="translate(0 0)"/><path class="cls-3" d="M685.65,281a12.23,12.23,0,0,0,4.54-1v7.88a13.6,13.6,0,0,1-4,1.54,20.88,20.88,0,0,1-4.91.6c-3.38,0-5.87-.9-7.48-2.68s-2.42-4.53-2.42-8.22v-14.4H664v24.67H652.57V264.72h-7.06v-4.86l5.86-3.66h38.82v8.52h-7.33v13.1a3.44,3.44,0,0,0,.74,2.33A2.57,2.57,0,0,0,685.65,281Z" transform="translate(0 0)"/><path class="cls-3" d="M728.19,272.72q0,8.14-4.38,12.7T711.54,290q-7.54,0-12-4.66t-4.47-12.6q0-8.12,4.38-12.61t12.29-4.5a17.46,17.46,0,0,1,8.64,2.08,14.25,14.25,0,0,1,5.79,6A19.15,19.15,0,0,1,728.19,272.72Zm-21.51,0a14.73,14.73,0,0,0,1.14,6.52,4,4,0,0,0,3.84,2.24,3.89,3.89,0,0,0,3.77-2.24,15.31,15.31,0,0,0,1.1-6.52,14.56,14.56,0,0,0-1.12-6.42,4.42,4.42,0,0,0-6.06-1.53,4.48,4.48,0,0,0-1.53,1.53A14.27,14.27,0,0,0,706.68,272.72Zm1.76-20.65c.39-1.33.81-3.09,1.26-5.26s.76-3.88.94-5.12h10.07v.77A94,94,0,0,1,715,253h-6.59Z" transform="translate(0 0)"/><path class="cls-3" d="M754.32,255.67c3.12,0,5.53.63,7.21,1.89s3.12,3.47,4.33,6.63l1.2,3.11,5.51-11.1h11.95l-12.36,22,5.27,13.33q1.26,3.23,3.72,3.22a12.07,12.07,0,0,0,3.11-.41v8.23a19.75,19.75,0,0,1-7.06,1.2,9.31,9.31,0,0,1-6.39-2.15,14.43,14.43,0,0,1-3.89-6.75l-2.14-6.54-7.15,15.44H744.8l14.88-26.36-3.49-9.17c-.93-2.41-2.27-3.61-4-3.61a12.09,12.09,0,0,0-3.9.74v-8.59A17.26,17.26,0,0,1,754.32,255.67Z" transform="translate(0 0)"/><path class="cls-3" d="M822.61,290a11.17,11.17,0,0,1-6.3-1.59,9.69,9.69,0,0,1-3.6-5.12h-.35a10,10,0,0,1-3.46,5,10.78,10.78,0,0,1-6.51,1.73q-6.76,0-10.59-4.47t-3.8-12.3a46.32,46.32,0,0,1,.7-8.4,56.42,56.42,0,0,1,2.44-8.65H802.8a36.57,36.57,0,0,0-3.66,16.58,15.72,15.72,0,0,0,1,6.37,3.37,3.37,0,0,0,3.27,2,3,3,0,0,0,3-1.52,14.21,14.21,0,0,0,.75-5.6V266H818v8a22.57,22.57,0,0,0,.32,4.42,2.93,2.93,0,0,0,3.11,2.73,1.36,1.36,0,0,0,.29,0,3.37,3.37,0,0,0,3.18-2,13.84,13.84,0,0,0,1-6.17,43.37,43.37,0,0,0-.88-8.58,32.32,32.32,0,0,0-2.78-8.17H834a45.22,45.22,0,0,1,3.13,17.05q0,7.85-3.85,12.29T822.61,290Zm-13.3-37.91c.39-1.33.81-3.09,1.26-5.26s.76-3.88.94-5.12h10.07v.77A95.16,95.16,0,0,1,815.9,253h-6.59Z" transform="translate(0 0)"/><path class="cls-3" d="M876.43,272.84q0,8.06-3.49,12.6a11.44,11.44,0,0,1-9.58,4.54,18.32,18.32,0,0,1-4.36-.53,12.87,12.87,0,0,1-3.64-1.44h-.76a58.2,58.2,0,0,1,.65,7.8v8H843.79V273q0-8.21,4.34-12.8t12.16-4.6a16.55,16.55,0,0,1,8.42,2.14,14.45,14.45,0,0,1,5.71,6.06A19.66,19.66,0,0,1,876.43,272.84Zm-16.32-8.7q-4.86,0-4.86,7.32v7.44a5.66,5.66,0,0,0,2.28,1.64,7.26,7.26,0,0,0,2.64.56,3.76,3.76,0,0,0,3.56-1.93q1.07-1.94,1.07-6.33c0-3.07-.38-5.28-1.13-6.65a3.76,3.76,0,0,0-3.56-2.05Z" transform="translate(0 0)"/><path class="cls-3" d="M903.62,268.44v7.44h-4.34a23.82,23.82,0,0,0-4.13.27,4.88,4.88,0,0,0-2.18.8,2,2,0,0,0-.69,1.69c0,1.89,2,2.83,6.06,2.84a27.87,27.87,0,0,0,11.75-2.58v8.76a26.61,26.61,0,0,1-6.36,1.83,48.09,48.09,0,0,1-7.09.49q-8.11,0-12-2.44a8.19,8.19,0,0,1-3.85-7.54,7,7,0,0,1,2.16-5.19,9.79,9.79,0,0,1,5.84-2.61v-.29a8.45,8.45,0,0,1-4.38-2.67,6.91,6.91,0,0,1-1.62-4.6,7.38,7.38,0,0,1,3.77-6.66q3.78-2.33,10.93-2.33a30.68,30.68,0,0,1,12.6,2.52l-3.25,7.73a21.85,21.85,0,0,0-8.88-2.08c-2.91,0-4.36.74-4.36,2.2a2,2,0,0,0,1.49,1.89,15.15,15.15,0,0,0,4.92.57Z" transform="translate(0 0)"/><path class="cls-3" d="M914.72,273.07c0-5.6,1.47-9.92,4.41-12.93s7.15-4.53,12.64-4.53a26.51,26.51,0,0,1,11.63,2.75l-3.25,8.41a39.78,39.78,0,0,0-4.38-1.52,15.48,15.48,0,0,0-4-.65,4.51,4.51,0,0,0-4,2.19c-.93,1.45-1.39,3.61-1.39,6.46a7.93,7.93,0,0,0,.78,3.92,6.1,6.1,0,0,0,2.53,2.27,19.79,19.79,0,0,0,4.86,1.6,13,13,0,0,1,6.58,3.06,7.8,7.8,0,0,1,2.18,5.82q0,4.77-4.07,10.16H927.49a23.08,23.08,0,0,0,3.18-4.36,8.27,8.27,0,0,0,1.28-3.34,1.89,1.89,0,0,0-.63-1.51,7.11,7.11,0,0,0-2.19-1.08,37.13,37.13,0,0,0-4-1.13,14,14,0,0,1-6-2.79,11.48,11.48,0,0,1-3.24-5A24,24,0,0,1,914.72,273.07Z" transform="translate(0 0)"/><path class="cls-3" d="M55.71,336.72v13.1a3.26,3.26,0,0,0,.76,2.34,2.82,2.82,0,0,0,2.17.82,16.68,16.68,0,0,0,5.65-1.26v8.35a20,20,0,0,1-8.94,1.85q-6,0-8.54-2.77c-1.71-1.85-2.56-4.74-2.56-8.69V336.72H36.34v-4.86L42,328.2H65.49v8.52Z" transform="translate(0 0)"/><path class="cls-3" d="M92.3,375.8V342.49c0-3.92-1.34-5.89-4-5.89a4.46,4.46,0,0,0-4.19,2.32c-.86,1.54-1.28,4.19-1.28,7.94v14.53H71.35V328.2H80l1.44,4.1h.67a9.14,9.14,0,0,1,4.06-3.52,14.37,14.37,0,0,1,6-1.17c3.67,0,6.53,1.07,8.57,3.19s3.06,5.13,3.06,9v36Z" transform="translate(0 0)"/><path class="cls-3" d="M110.11,345.07c0-5.6,1.47-9.92,4.41-12.93s7.15-4.53,12.64-4.53a26.51,26.51,0,0,1,11.63,2.75l-3.25,8.41a39.78,39.78,0,0,0-4.38-1.52,15.48,15.48,0,0,0-4-.65,4.51,4.51,0,0,0-4,2.19c-.93,1.45-1.39,3.61-1.39,6.46a7.93,7.93,0,0,0,.78,3.92,6.1,6.1,0,0,0,2.53,2.27,19.79,19.79,0,0,0,4.86,1.6,13,13,0,0,1,6.58,3.06,7.8,7.8,0,0,1,2.18,5.82q0,4.77-4.07,10.16H122.88a23.08,23.08,0,0,0,3.18-4.36,8.27,8.27,0,0,0,1.28-3.34,1.89,1.89,0,0,0-.63-1.51,7.11,7.11,0,0,0-2.19-1.08,37.13,37.13,0,0,0-4-1.13,14.12,14.12,0,0,1-6-2.78,11.63,11.63,0,0,1-3.24-5A24.06,24.06,0,0,1,110.11,345.07Z" transform="translate(0 0)"/><path class="cls-3" d="M196,353a12.27,12.27,0,0,0,4.54-1v7.88a13.6,13.6,0,0,1-4,1.54,20.88,20.88,0,0,1-4.91.6c-3.38,0-5.87-.9-7.48-2.68s-2.42-4.53-2.42-8.22v-14.4h-7.38v24.67H162.9V336.72h-7.06v-4.86l5.86-3.66h38.82v8.52H193.2v13.1a3.44,3.44,0,0,0,.73,2.33A2.62,2.62,0,0,0,196,353Z" transform="translate(0 0)"/><path class="cls-3" d="M239.34,344.84q0,8.06-3.49,12.6a11.44,11.44,0,0,1-9.58,4.54,18.32,18.32,0,0,1-4.36-.53,12.87,12.87,0,0,1-3.64-1.44h-.76a58.2,58.2,0,0,1,.65,7.8v8H206.7V345q0-8.21,4.34-12.8t12.16-4.6a16.55,16.55,0,0,1,8.42,2.14,14.45,14.45,0,0,1,5.71,6.06A19.66,19.66,0,0,1,239.34,344.84ZM223,336.14q-4.86,0-4.86,7.32v7.44a5.66,5.66,0,0,0,2.28,1.64,7.26,7.26,0,0,0,2.64.56,3.76,3.76,0,0,0,3.56-1.93c.71-1.29,1.06-3.4,1.07-6.33s-.38-5.28-1.13-6.65A3.76,3.76,0,0,0,223,336.14Z" transform="translate(0 0)"/><path class="cls-3" d="M279.36,362a11.17,11.17,0,0,1-6.3-1.59,9.69,9.69,0,0,1-3.6-5.12h-.36a10,10,0,0,1-3.45,5,10.78,10.78,0,0,1-6.51,1.73q-6.76,0-10.59-4.47t-3.82-12.26a46.32,46.32,0,0,1,.7-8.4,56.38,56.38,0,0,1,2.43-8.65h11.69a36.57,36.57,0,0,0-3.66,16.58,15.52,15.52,0,0,0,.95,6.37,3.37,3.37,0,0,0,3.27,2,3,3,0,0,0,3-1.52,14.21,14.21,0,0,0,.75-5.6V338h10.9v8a22.57,22.57,0,0,0,.32,4.42,2.93,2.93,0,0,0,3.11,2.73,1.36,1.36,0,0,0,.29,0,3.37,3.37,0,0,0,3.18-2,13.82,13.82,0,0,0,1-6.16,43.47,43.47,0,0,0-.88-8.59A32.85,32.85,0,0,0,279,328.2h11.7a45.22,45.22,0,0,1,3.13,17.05q0,7.85-3.85,12.29T279.36,362Zm-13.3-37.91c.39-1.33.81-3.09,1.26-5.26s.76-3.88.93-5.12h10.08v.77A95.16,95.16,0,0,1,272.65,325h-6.59Z" transform="translate(0 0)"/><path class="cls-3" d="M321.6,375.8V342.49c0-3.92-1.33-5.89-4-5.89a4.46,4.46,0,0,0-4.19,2.32q-1.29,2.31-1.29,7.94v14.53H300.66V328.2h8.64l1.43,4.1h.68a9.14,9.14,0,0,1,4.06-3.52,14.22,14.22,0,0,1,6-1.17c3.67,0,6.53,1.07,8.57,3.19s3.06,5.13,3.06,9v36Z" transform="translate(0 0)"/><path class="cls-3" d="M336.9,328.2h11.75l6,18.72a29.64,29.64,0,0,1,1,4.16H356a35.58,35.58,0,0,0,3.53-9.9,68.19,68.19,0,0,0,1-13H372A48.79,48.79,0,0,1,369,346a50.82,50.82,0,0,1-9.91,15.42h-9.61Z" transform="translate(0 0)"/><path class="cls-3" d="M391.86,361.39v-9l13-13.51L392.2,327.25v-8.7h29.65v9.29H412a57,57,0,0,1-6.91-.3l12.36,11.28-13,13.51c2.79-.26,5.25-.38,7.38-.38h11.75v9.43Z" transform="translate(0 0)"/><path class="cls-3" d="M461.47,344.72q0,8.14-4.38,12.7T444.83,362q-7.56,0-12-4.66t-4.47-12.6q0-8.12,4.38-12.61t12.29-4.5a17.63,17.63,0,0,1,8.65,2.08,14.23,14.23,0,0,1,5.78,6A19.29,19.29,0,0,1,461.47,344.72Zm-21.51,0a14.59,14.59,0,0,0,1.15,6.52,4,4,0,0,0,3.83,2.24,3.86,3.86,0,0,0,3.77-2.24,15.31,15.31,0,0,0,1.1-6.52,14.42,14.42,0,0,0-1.12-6.42,4.41,4.41,0,0,0-7.58,0,14,14,0,0,0-1.11,6.42Z" transform="translate(0 0)"/><path class="cls-3" d="M484.61,315.48q7.27,0,11.38,3.08a10,10,0,0,1,4.12,8.52,10.15,10.15,0,0,1-2.15,6.83,9.8,9.8,0,0,1-6.08,3.13v.24c3.75.49,6.5,1.65,8.24,3.5a10.63,10.63,0,0,1,2.63,7.6q0,6.24-3.84,9.92T488.65,362a26.35,26.35,0,0,1-5.24-.49,15.6,15.6,0,0,1-4-1.24V375.8H468V329.28q0-6.55,4.38-10.18T484.61,315.48Zm-.35,8.53a4.23,4.23,0,0,0-3.65,1.56,8,8,0,0,0-1.15,4.74v21.12a7.76,7.76,0,0,0,2.56,1.1,11.71,11.71,0,0,0,3,.45,6.49,6.49,0,0,0,4.44-1.42,5.36,5.36,0,0,0,1.63-4.26,4.61,4.61,0,0,0-1.59-3.68,6.52,6.52,0,0,0-4.42-1.36h-1.67v-8.53h1.11a3.73,3.73,0,0,0,3.08-1.34,5.65,5.65,0,0,0,1.08-3.64,4.76,4.76,0,0,0-1.23-3.51,4.36,4.36,0,0,0-3.19-1.24Z" transform="translate(0 0)"/><path class="cls-3" d="M520.5,328.2V350q0,3,3.43,3a13.18,13.18,0,0,0,3-.31,24.53,24.53,0,0,0,3.13-.95v8.41a20.84,20.84,0,0,1-9,1.85c-4.1,0-7.12-1-9-2.89s-2.9-4.78-2.9-8.57V328.2Z" transform="translate(0 0)"/><path class="cls-3" d="M555.92,340.44v7.44h-4.34a23.82,23.82,0,0,0-4.13.27,5,5,0,0,0-2.18.8,2,2,0,0,0-.69,1.69c0,1.89,2,2.83,6.07,2.84a27.87,27.87,0,0,0,11.75-2.58v8.76a26.61,26.61,0,0,1-6.36,1.83,46,46,0,0,1-7,.51q-8.12,0-12-2.44a8.33,8.33,0,0,1-3.9-7.56,7.09,7.09,0,0,1,2.15-5.19,9.88,9.88,0,0,1,5.85-2.61v-.29a8.43,8.43,0,0,1-4.38-2.66,6.89,6.89,0,0,1-1.63-4.61,7.39,7.39,0,0,1,3.78-6.66q3.78-2.33,10.93-2.33a33.84,33.84,0,0,1,6.11.53,34.31,34.31,0,0,1,6.49,2l-3.26,7.73a21.8,21.8,0,0,0-8.87-2.08c-2.91,0-4.37.74-4.37,2.2a2,2,0,0,0,1.5,1.89,15.15,15.15,0,0,0,4.92.57Z" transform="translate(0 0)"/><path class="cls-3" d="M584.54,336.72v13.1a3.27,3.27,0,0,0,.77,2.34,2.81,2.81,0,0,0,2.16.82,16.45,16.45,0,0,0,5.66-1.26v8.35a20,20,0,0,1-8.94,1.85q-6,0-8.54-2.77c-1.71-1.85-2.56-4.74-2.56-8.69V336.72h-7.91v-4.86l5.68-3.66h23.47v8.52Z" transform="translate(0 0)"/><path class="cls-3" d="M611.58,328.2V350c0,2,1.15,3,3.43,3a13.18,13.18,0,0,0,3-.31,24.53,24.53,0,0,0,3.13-.95v8.41a20.84,20.84,0,0,1-9,1.85c-4.1,0-7.12-1-9-2.89s-2.9-4.78-2.9-8.57V328.2Z" transform="translate(0 0)"/><path class="cls-3" d="M649.46,342.73l12.43,18.66H649l-7.39-11.69-3.78,2.87v8.82H626.29V328.2H637.8v7.2c0,2.29-.09,4.67-.29,7.15h.24c.37-.51.85-1.22,1.43-2.14s1.29-1.9,2.11-3l7.21-9.25h12.83Z" transform="translate(0 0)"/><path class="cls-3" d="M686.79,375.8V342.49c0-3.92-1.34-5.89-4-5.89a4.45,4.45,0,0,0-4.19,2.32q-1.29,2.31-1.29,7.94v14.53H665.84V328.2h8.64l1.44,4.1h.67a9.14,9.14,0,0,1,4.06-3.52,14.37,14.37,0,0,1,6-1.17c3.68,0,6.53,1.07,8.57,3.19s3.06,5.13,3.06,9v36Zm-7.62-51.73c.39-1.33.81-3.09,1.26-5.26s.76-3.88.94-5.12h10.08v.77A93.87,93.87,0,0,1,685.76,325h-6.59Z" transform="translate(0 0)"/><path class="cls-3" d="M704.6,345.07c0-5.6,1.47-9.92,4.41-12.93s7.15-4.53,12.64-4.53a26.51,26.51,0,0,1,11.63,2.75L730,338.77a39.78,39.78,0,0,0-4.38-1.52,15.07,15.07,0,0,0-4-.65,4.51,4.51,0,0,0-4,2.19,12.18,12.18,0,0,0-1.39,6.46,7.93,7.93,0,0,0,.78,3.92,6.1,6.1,0,0,0,2.53,2.27,19.87,19.87,0,0,0,4.87,1.6A13,13,0,0,1,731,356.1a7.77,7.77,0,0,1,2.19,5.82q0,4.77-4.08,10.16H717.38a23.81,23.81,0,0,0,3.17-4.36,8.27,8.27,0,0,0,1.28-3.34,1.89,1.89,0,0,0-.63-1.51,7.17,7.17,0,0,0-2.18-1.08,39.58,39.58,0,0,0-4-1.13,14.07,14.07,0,0,1-6-2.78,11.46,11.46,0,0,1-3.23-5A23.77,23.77,0,0,1,704.6,345.07Z" transform="translate(0 0)"/><path class="cls-3" d="M747.32,327.14c.39-1.33.81-3.09,1.26-5.26s.76-3.88.93-5.11h10.08v.76a94.34,94.34,0,0,1-5.68,10.58h-6.59Zm39,34.25H760.88V318.56h25.43v9.29H772.45v6.73h12.84v9.29H772.45V352h13.86Z" transform="translate(0 0)"/><path class="cls-3" d="M789.21,328.2H801l6,18.72a28.31,28.31,0,0,1,1,4.16h.29a35.58,35.58,0,0,0,3.53-9.9,67.39,67.39,0,0,0,1-13h11.46a48.94,48.94,0,0,1-3,17.77,50.85,50.85,0,0,1-9.92,15.42h-9.61Z" transform="translate(0 0)"/><path class="cls-3" d="M863.92,362a11.17,11.17,0,0,1-6.3-1.59,9.69,9.69,0,0,1-3.6-5.12h-.36a10,10,0,0,1-3.45,5A10.77,10.77,0,0,1,843.7,362q-6.76,0-10.59-4.47t-3.82-12.26a46.32,46.32,0,0,1,.7-8.4,56.38,56.38,0,0,1,2.43-8.65h11.69a36.57,36.57,0,0,0-3.66,16.58,15.52,15.52,0,0,0,.95,6.37,3.37,3.37,0,0,0,3.27,2,3,3,0,0,0,3-1.52,14.21,14.21,0,0,0,.75-5.6V338h10.9v8a22.57,22.57,0,0,0,.32,4.42,2.93,2.93,0,0,0,3.11,2.73,1.36,1.36,0,0,0,.29,0,3.37,3.37,0,0,0,3.18-2,13.82,13.82,0,0,0,1-6.16,43.47,43.47,0,0,0-.88-8.59,32.85,32.85,0,0,0-2.78-8.17h11.69a45.22,45.22,0,0,1,3.13,17.05q0,7.85-3.85,12.29T863.92,362Z" transform="translate(0 0)"/><path class="cls-3" d="M900.71,362q-7.85,0-12.39-4.25T883.78,346q0-9.17,4.85-13.51t15.07-4.33h16.85v8.52H912.4a12.51,12.51,0,0,1,5.34,10.7,14.43,14.43,0,0,1-2,7.69,13.24,13.24,0,0,1-5.89,5.09A21.3,21.3,0,0,1,900.71,362Zm-5.24-16a8,8,0,0,0,1.42,5.1,4.77,4.77,0,0,0,3.94,1.79q5.28,0,5.28-7.21a18.24,18.24,0,0,0-.25-3.22,11.15,11.15,0,0,0-.78-2.52,19.27,19.27,0,0,0-2-3.2h-.65q-3.72,0-5.34,2.16t-1.62,7.1Z" transform="translate(0 0)"/><path class="cls-3" d="M947,375.8V342.49c0-3.92-1.33-5.89-4-5.89a4.46,4.46,0,0,0-4.19,2.32q-1.29,2.31-1.29,7.94v14.53H926.09V328.2h8.64l1.43,4.1h.68a9.08,9.08,0,0,1,4.06-3.52,14.22,14.22,0,0,1,6-1.17c3.67,0,6.53,1.07,8.57,3.19s3.06,5.13,3.06,9v36Z" transform="translate(0 0)"/><path class="cls-3" d="M964.85,345.07c0-5.6,1.47-9.92,4.4-12.93s7.16-4.53,12.65-4.53a26.51,26.51,0,0,1,11.63,2.75l-3.25,8.41a39.78,39.78,0,0,0-4.38-1.52,15.48,15.48,0,0,0-4-.65,4.51,4.51,0,0,0-4,2.19c-.93,1.45-1.39,3.61-1.39,6.46a8,8,0,0,0,.77,3.92,6.06,6.06,0,0,0,2.54,2.27,19.79,19.79,0,0,0,4.86,1.6,13,13,0,0,1,6.58,3.06,7.82,7.82,0,0,1,2.18,5.82q0,4.77-4.07,10.16H977.62a23.08,23.08,0,0,0,3.18-4.36,8.11,8.11,0,0,0,1.27-3.34,1.89,1.89,0,0,0-.63-1.51,7.17,7.17,0,0,0-2.18-1.08,39.58,39.58,0,0,0-4-1.13,14,14,0,0,1-6-2.78,11.48,11.48,0,0,1-3.24-5A24,24,0,0,1,964.85,345.07Z" transform="translate(0 0)"/><path class="cls-3" d="M56.91,447.8H44.84a37.1,37.1,0,0,1,.76-6.48A68.37,68.37,0,0,1,47.68,433L35.61,400.2h12L51,411q1.41,4.63,1.89,6.84c.32,1.47.55,2.8.69,4h.23a60.67,60.67,0,0,1,2.67-10.28L60.1,400.2H72L59.78,433a43.57,43.57,0,0,0-2.07,7.43A38.85,38.85,0,0,0,56.91,447.8Z" transform="translate(0 0)"/><path class="cls-3" d="M87.2,400.2V422q0,3,3.43,3a13.18,13.18,0,0,0,3-.31,24.53,24.53,0,0,0,3.13-.95v8.41a20.84,20.84,0,0,1-9,1.85c-4.1,0-7.12-1-9-2.89s-2.91-4.78-2.91-8.57V400.2Z" transform="translate(0 0)"/><path class="cls-3" d="M113.07,434a10.88,10.88,0,0,1-9.26-4.53q-3.34-4.53-3.34-12.49,0-8.21,3.53-12.72a11.8,11.8,0,0,1,9.86-4.51,11.44,11.44,0,0,1,5.57,1.2,9.13,9.13,0,0,1,3.54,3.72h.47a11.64,11.64,0,0,1,2-4.45h9.61a39.65,39.65,0,0,0-1.8,6.76,39.14,39.14,0,0,0-.66,7v7.5q0,3.54,2.4,3.54a5.11,5.11,0,0,0,1.73-.29v8.52a6.08,6.08,0,0,1-2.09.53,17.21,17.21,0,0,1-2.48.24,12,12,0,0,1-5.82-1.15,8.21,8.21,0,0,1-3.29-3.75h-.7A10.46,10.46,0,0,1,113.07,434Zm3.9-8.88a4.32,4.32,0,0,0,3.82-1.74c.81-1.17,1.23-3.22,1.27-6.17v-.29q0-4.37-1.26-6.33a4.34,4.34,0,0,0-4-2,3.85,3.85,0,0,0-3.55,2.16,13.14,13.14,0,0,0-1.2,6.24q0,8.11,5,8.11Z" transform="translate(0 0)"/><path class="cls-3" d="M169,434a10.88,10.88,0,0,1-9.26-4.53q-3.35-4.53-3.34-12.49,0-8.21,3.53-12.72a11.8,11.8,0,0,1,9.86-4.51,11.4,11.4,0,0,1,5.56,1.2,9,9,0,0,1,3.55,3.72h.47a11.42,11.42,0,0,1,2-4.45H191a39.65,39.65,0,0,0-1.8,6.76,39.14,39.14,0,0,0-.66,7v7.5q0,3.54,2.4,3.54a5.11,5.11,0,0,0,1.73-.29v8.52a6.07,6.07,0,0,1-2.1.53,17.07,17.07,0,0,1-2.47.24,12,12,0,0,1-5.82-1.15,8.21,8.21,0,0,1-3.29-3.75h-.71A10.48,10.48,0,0,1,169,434Zm3.89-8.88a4.34,4.34,0,0,0,3.83-1.74c.81-1.17,1.23-3.22,1.27-6.17v-.29q0-4.37-1.26-6.33a4.35,4.35,0,0,0-3.95-2,3.85,3.85,0,0,0-3.55,2.16A13.09,13.09,0,0,0,168,417q0,8.1,4.86,8.1Z" transform="translate(0 0)"/><path class="cls-3" d="M235,425a12.27,12.27,0,0,0,4.54-1v7.88a13.6,13.6,0,0,1-4,1.54,20.73,20.73,0,0,1-4.9.6c-3.38,0-5.88-.9-7.49-2.68s-2.42-4.53-2.42-8.22v-14.4h-7.38v24.67H201.9V408.72h-7.06v-4.86l5.86-3.66h38.81v8.52h-7.32v13.1a3.44,3.44,0,0,0,.73,2.33A2.6,2.6,0,0,0,235,425Z" transform="translate(0 0)"/><path class="cls-3" d="M241.86,433.39l14.27-31-.41-1.2a8.28,8.28,0,0,0-2.19-3.6,5.39,5.39,0,0,0-3.7-1.2,15.89,15.89,0,0,0-4,.5v-9a21.48,21.48,0,0,1,2.87-.38c1.14-.08,2-.12,2.67-.12q5.91,0,9.2,2.45T266,398.2l7.2,20.16a30.86,30.86,0,0,0,1.75,4,5.82,5.82,0,0,0,1.62,2A4.2,4.2,0,0,0,279,425a8.5,8.5,0,0,0,2.19-.29V433a10.76,10.76,0,0,1-2.85.67,25.74,25.74,0,0,1-3.5.33,9.75,9.75,0,0,1-6.17-2,14.51,14.51,0,0,1-4.26-6.53l-2.05-5.6a36.38,36.38,0,0,1-1.5-5.62h-.23a26.84,26.84,0,0,1-1.44,5.57l-5.45,13.56Z" transform="translate(0 0)"/><path class="cls-3" d="M317.41,416.72q0,8.14-4.38,12.7T300.77,434q-7.56,0-12-4.66t-4.47-12.6q0-8.12,4.38-12.61t12.29-4.5a17.46,17.46,0,0,1,8.64,2.08,14.31,14.31,0,0,1,5.79,6A19.29,19.29,0,0,1,317.41,416.72Zm-21.5,0a14.73,14.73,0,0,0,1.14,6.52,4,4,0,0,0,3.84,2.24,3.89,3.89,0,0,0,3.77-2.24,15.3,15.3,0,0,0,1.09-6.52,14.55,14.55,0,0,0-1.11-6.42,4.42,4.42,0,0,0-6.06-1.53,4.48,4.48,0,0,0-1.53,1.53A14.27,14.27,0,0,0,295.91,416.72Z" transform="translate(0 0)"/><path class="cls-3" d="M339.8,433.86c-5.32,0-9.3-1.27-12-3.79s-4-6.48-4-11.86v-18h11.46v18.6c0,2.23.38,3.79,1.15,4.7a4.44,4.44,0,0,0,3.59,1.37,4.36,4.36,0,0,0,4.15-2.22c.83-1.47,1.24-3.93,1.24-7.36a60.14,60.14,0,0,0-2.25-15.09h11.57a67.75,67.75,0,0,1,1.7,8.1,54.48,54.48,0,0,1,.47,7.22q0,9.2-4.21,13.77T339.8,433.86Zm-3.66-37.79c.39-1.33.81-3.09,1.26-5.26s.76-3.88.93-5.11h10.08v.76A95.44,95.44,0,0,1,342.73,397h-6.59Z" transform="translate(0 0)"/><path class="cls-3" d="M379.23,434q-7.85,0-12.39-4.25T362.3,418q0-9.17,4.85-13.51t15.07-4.33h16.84v8.52h-8.14a12.48,12.48,0,0,1,5.33,10.7,14.25,14.25,0,0,1-2.05,7.69,13.24,13.24,0,0,1-5.89,5.09A21.37,21.37,0,0,1,379.23,434ZM374,418a8,8,0,0,0,1.42,5.1,4.75,4.75,0,0,0,3.94,1.79q5.26,0,5.27-7.21a17.34,17.34,0,0,0-.25-3.22,10.64,10.64,0,0,0-.77-2.52,20.68,20.68,0,0,0-2-3.2H381q-3.72,0-5.35,2.16T374,418Z" transform="translate(0 0)"/><path class="cls-3" d="M420.69,408.72v13.1a3.26,3.26,0,0,0,.76,2.34,2.82,2.82,0,0,0,2.17.82,16.63,16.63,0,0,0,5.65-1.26v8.35a20,20,0,0,1-8.94,1.85q-6,0-8.54-2.77c-1.71-1.85-2.56-4.74-2.56-8.69V408.72h-7.91v-4.86L407,400.2h23.47v8.52Z" transform="translate(0 0)"/><path class="cls-3" d="M457,412.44v7.44h-4.33a23.82,23.82,0,0,0-4.13.27,5,5,0,0,0-2.19.8,2,2,0,0,0-.68,1.69c0,1.89,2,2.83,6.06,2.84a27.87,27.87,0,0,0,11.75-2.58v8.76a26.61,26.61,0,0,1-6.36,1.83A45.51,45.51,0,0,1,450,434q-8.11,0-12-2.44a8.13,8.13,0,0,1-3.81-7.54,7.09,7.09,0,0,1,2.15-5.19,9.88,9.88,0,0,1,5.85-2.61v-.29a8.43,8.43,0,0,1-4.38-2.66,7,7,0,0,1-1.63-4.6A7.4,7.4,0,0,1,440,402q3.78-2.33,10.93-2.33a30.68,30.68,0,0,1,12.6,2.52l-3.25,7.74a21.53,21.53,0,0,0-8.88-2.08c-2.91,0-4.36.73-4.37,2.19a2,2,0,0,0,1.5,1.89,15.15,15.15,0,0,0,4.92.57Z" transform="translate(0 0)"/><path class="cls-3" d="M485.43,433.86q-8,0-12-3.79t-4-11.86v-18h11.45v18.6c0,2.23.39,3.79,1.16,4.7a4.44,4.44,0,0,0,3.59,1.37,4.37,4.37,0,0,0,4.14-2.22c.83-1.47,1.25-3.93,1.25-7.36a60.15,60.15,0,0,0-2.26-15.09h11.57a67.75,67.75,0,0,1,1.7,8.1,54.48,54.48,0,0,1,.47,7.22q0,9.2-4.2,13.77T485.43,433.86Z" transform="translate(0 0)"/><path class="cls-3" d="M524.87,434q-7.86,0-12.4-4.25T507.93,418q0-9.17,4.85-13.51t15.07-4.33H544.7v8.52h-8.14a12.5,12.5,0,0,1,5.33,10.7,14.43,14.43,0,0,1-2,7.69A13.28,13.28,0,0,1,534,432.2,21.37,21.37,0,0,1,524.87,434Zm-5.25-16a8,8,0,0,0,1.42,5.1,4.77,4.77,0,0,0,3.94,1.79q5.28,0,5.28-7.21a18.24,18.24,0,0,0-.25-3.22,11.15,11.15,0,0,0-.78-2.52,19.27,19.27,0,0,0-2-3.2h-.65q-3.72,0-5.34,2.16T519.62,418Z" transform="translate(0 0)"/><path class="cls-3" d="M571.18,447.8V414.49q0-5.88-4-5.88a4.45,4.45,0,0,0-4.19,2.31q-1.29,2.31-1.29,7.94v14.53H550.24V400.2h8.64l1.43,4.1H561a9.14,9.14,0,0,1,4.06-3.52,14.22,14.22,0,0,1,6-1.17c3.67,0,6.53,1.07,8.57,3.19s3.06,5.13,3.06,9v36Z" transform="translate(0 0)"/><path class="cls-3" d="M622.1,408.72v13.1a3.36,3.36,0,0,0,.76,2.34A2.81,2.81,0,0,0,625,425a16.69,16.69,0,0,0,5.66-1.26v8.35a20,20,0,0,1-8.94,1.85q-6,0-8.54-2.77c-1.71-1.85-2.56-4.74-2.56-8.69V408.72h-7.91v-4.86l5.68-3.66h23.47v8.52Z" transform="translate(0 0)"/><path class="cls-3" d="M671.29,434a11.17,11.17,0,0,1-6.3-1.59,9.69,9.69,0,0,1-3.6-5.12H661a10,10,0,0,1-3.46,5A10.75,10.75,0,0,1,651,434q-6.78,0-10.59-4.47t-3.83-12.26a46.33,46.33,0,0,1,.71-8.4,53.91,53.91,0,0,1,2.43-8.65h11.69a36.45,36.45,0,0,0-3.67,16.58,15.39,15.39,0,0,0,1,6.37,3.32,3.32,0,0,0,3.26,2,3,3,0,0,0,3-1.52,14.57,14.57,0,0,0,.74-5.6V410h10.9v8a22.57,22.57,0,0,0,.32,4.42,2.93,2.93,0,0,0,3.4,2.7,3.37,3.37,0,0,0,3.18-2,13.82,13.82,0,0,0,1-6.16,43.47,43.47,0,0,0-.88-8.59,32.32,32.32,0,0,0-2.78-8.17h11.69a45.22,45.22,0,0,1,3.13,17.05q0,7.85-3.85,12.29T671.29,434Z" transform="translate(0 0)"/><path class="cls-3" d="M688.63,400.2h11.75l6,18.72a28.31,28.31,0,0,1,1,4.16h.3a35.58,35.58,0,0,0,3.53-9.9,68.19,68.19,0,0,0,1-13h11.45a48.94,48.94,0,0,1-3,17.77,50.54,50.54,0,0,1-9.92,15.42h-9.61Z" transform="translate(0 0)"/><path class="cls-3" d="M754.49,407.05q-6.35-4.12-6.35-10.31a8,8,0,0,1,3.67-7q3.68-2.46,10.62-2.46a33.31,33.31,0,0,1,14.71,3.37l-4.28,8.26q-6.21-3.11-10.25-3.11c-2.36,0-3.55.64-3.55,1.91a2.55,2.55,0,0,0,1.13,1.87,59.06,59.06,0,0,0,6.55,4,21.66,21.66,0,0,1,7.82,6.72,16.1,16.1,0,0,1,2.52,9.13q0,7-4.41,10.82T760.32,434q-7.41,0-11.89-3.64a11.91,11.91,0,0,1-4.48-9.78Q744,410.54,754.49,407.05Zm10.93,12.25q0-4.46-4.8-7.88a6.71,6.71,0,0,0-3.62,3.09,10.21,10.21,0,0,0-1.42,5.37A6,6,0,0,0,756.9,424a4.88,4.88,0,0,0,6.91.18l.28-.29A7,7,0,0,0,765.42,419.3Z" transform="translate(0 0)"/><path class="cls-3" d="M795,400.2V422c0,2,1.15,3,3.43,3a13.18,13.18,0,0,0,3-.31,24.53,24.53,0,0,0,3.13-.95v8.41a20.84,20.84,0,0,1-9,1.85c-4.1,0-7.12-1-9-2.89s-2.9-4.78-2.9-8.57V400.2Z" transform="translate(0 0)"/><path class="cls-3" d="M820.82,434a10.88,10.88,0,0,1-9.26-4.53q-3.33-4.53-3.34-12.49,0-8.21,3.53-12.72a11.83,11.83,0,0,1,9.86-4.51,11.44,11.44,0,0,1,5.57,1.2,8.94,8.94,0,0,1,3.54,3.72h.47a11.64,11.64,0,0,1,2-4.45h9.61A39.65,39.65,0,0,0,841,407a39.14,39.14,0,0,0-.66,7v7.5q0,3.54,2.4,3.54a4.88,4.88,0,0,0,1.73-.29v8.52a6.08,6.08,0,0,1-2.09.53A19,19,0,0,1,840,434a11.9,11.9,0,0,1-5.81-1.15,8.23,8.23,0,0,1-3.3-3.75h-.7A10.48,10.48,0,0,1,820.82,434Zm3.9-8.88a4.32,4.32,0,0,0,3.82-1.74c.81-1.17,1.24-3.22,1.28-6.17v-.29q0-4.37-1.26-6.33a4.36,4.36,0,0,0-4-2,3.82,3.82,0,0,0-3.54,2.16,13.14,13.14,0,0,0-1.2,6.24q0,8.11,4.9,8.11Z" transform="translate(0 0)"/><path class="cls-3" d="M859.08,407.05q-6.35-4.12-6.35-10.31a8,8,0,0,1,3.67-7q3.68-2.46,10.62-2.46a33.31,33.31,0,0,1,14.71,3.37l-4.28,8.26q-6.21-3.11-10.25-3.11c-2.36,0-3.55.64-3.55,1.91a2.55,2.55,0,0,0,1.13,1.87,59.06,59.06,0,0,0,6.55,4,21.66,21.66,0,0,1,7.82,6.72,16.1,16.1,0,0,1,2.52,9.13q0,7-4.41,10.82T864.91,434q-7.41,0-11.89-3.64a11.91,11.91,0,0,1-4.48-9.78Q848.54,410.54,859.08,407.05ZM870,419.3q0-4.46-4.8-7.88a6.71,6.71,0,0,0-3.62,3.09,10.21,10.21,0,0,0-1.42,5.37,6,6,0,0,0,1.32,4.08,4.88,4.88,0,0,0,6.91.18l.28-.29A7,7,0,0,0,870,419.3Z" transform="translate(0 0)"/><path class="cls-3" d="M899.54,400.2V422c0,2,1.15,3,3.43,3a13.18,13.18,0,0,0,3-.31,24.53,24.53,0,0,0,3.13-.95v8.41A21,21,0,0,1,900,434c-4.1,0-7.12-1-9-2.89s-2.9-4.78-2.9-8.57V400.2Z" transform="translate(0 0)"/><path class="cls-3" d="M937.42,414.73l12.43,18.66H936.93l-7.39-11.69-3.78,2.87v8.82H914.25V400.2h11.51v7.2c0,2.29-.09,4.67-.29,7.15h.24c.37-.51.84-1.22,1.43-2.14s1.29-1.9,2.11-3l7.21-9.26h12.83Z" transform="translate(0 0)"/><path class="cls-3" d="M965,434a10.85,10.85,0,0,1-9.25-4.53q-3.35-4.53-3.34-12.49,0-8.21,3.53-12.72a11.81,11.81,0,0,1,9.85-4.51,11.44,11.44,0,0,1,5.57,1.2,9,9,0,0,1,3.55,3.72h.46a11.64,11.64,0,0,1,2-4.45H987a39.65,39.65,0,0,0-1.8,6.76,39.14,39.14,0,0,0-.66,7v7.5c0,2.36.8,3.54,2.41,3.54a5,5,0,0,0,1.72-.29v8.52a6.08,6.08,0,0,1-2.09.53,17.21,17.21,0,0,1-2.48.24,11.9,11.9,0,0,1-5.81-1.15,8.23,8.23,0,0,1-3.3-3.75h-.7A10.48,10.48,0,0,1,965,434Zm3.9-8.88a4.32,4.32,0,0,0,3.82-1.74c.81-1.17,1.24-3.22,1.28-6.17v-.29q0-4.37-1.26-6.33a4.36,4.36,0,0,0-4-2,3.82,3.82,0,0,0-3.54,2.16A13.06,13.06,0,0,0,964,417q0,8.1,4.86,8.1Z" transform="translate(0 0)"/><path class="cls-3" d="M1009.61,434q-7.85,0-12.39-4.25T992.68,418q0-9.17,4.85-13.51t15.07-4.33h16.85v8.52h-8.15a12.48,12.48,0,0,1,5.33,10.7,14.25,14.25,0,0,1-2.05,7.69,13.24,13.24,0,0,1-5.89,5.09A21.37,21.37,0,0,1,1009.61,434Zm-5.24-16a8,8,0,0,0,1.42,5.1,4.77,4.77,0,0,0,3.94,1.79q5.26,0,5.27-7.21a17.34,17.34,0,0,0-.25-3.22,10.64,10.64,0,0,0-.77-2.52,20.68,20.68,0,0,0-2-3.2h-.64q-3.72,0-5.35,2.16T1004.37,418Z" transform="translate(0 0)"/><path class="cls-3" d="M1046.38,400.2V422q0,3,3.43,3a13.12,13.12,0,0,0,3-.31,24.19,24.19,0,0,0,3.14-.95v8.41a21,21,0,0,1-9,1.85c-4.1,0-7.12-1-9.06-2.89s-2.9-4.78-2.9-8.57V400.2Z" transform="translate(0 0)"/><path class="cls-3" d="M1094.63,434a11.17,11.17,0,0,1-6.3-1.59,9.69,9.69,0,0,1-3.6-5.12h-.35a10,10,0,0,1-3.46,5,10.75,10.75,0,0,1-6.5,1.73q-6.78,0-10.59-4.47t-3.83-12.3a46.33,46.33,0,0,1,.71-8.4,53.91,53.91,0,0,1,2.43-8.65h11.69a36.45,36.45,0,0,0-3.67,16.58,15.39,15.39,0,0,0,1,6.37,3.32,3.32,0,0,0,3.26,2,3,3,0,0,0,3-1.52,14.57,14.57,0,0,0,.74-5.6V410H1090v8a22.57,22.57,0,0,0,.32,4.42,2.93,2.93,0,0,0,3.4,2.7,3.37,3.37,0,0,0,3.18-2,13.82,13.82,0,0,0,1-6.16,43.47,43.47,0,0,0-.88-8.59,32.32,32.32,0,0,0-2.78-8.17H1106a45.22,45.22,0,0,1,3.13,17.05q0,7.85-3.85,12.29T1094.63,434Zm-13.3-37.91c.39-1.33.81-3.09,1.26-5.26s.76-3.88.94-5.11h10.08v.76a94.28,94.28,0,0,1-5.69,10.57h-6.59Z" transform="translate(0 0)"/><path class="cls-3" d="M1112,400.2h11.75l6,18.72a28.31,28.31,0,0,1,1,4.16h.3a35.58,35.58,0,0,0,3.53-9.9,68.19,68.19,0,0,0,1-13H1147a48.94,48.94,0,0,1-3,17.77,50.54,50.54,0,0,1-9.92,15.42h-9.61Z" transform="translate(0 0)"/><path class="cls-3" d="M76.48,497A12.13,12.13,0,0,0,81,496v7.88a13.6,13.6,0,0,1-4,1.54,20.88,20.88,0,0,1-4.91.6c-3.38,0-5.87-.9-7.48-2.68s-2.42-4.53-2.42-8.22v-14.4H54.86v24.67H43.4V480.72H36.34v-4.86l5.86-3.66H81v8.52H73.69v13.1a3.44,3.44,0,0,0,.74,2.33A2.57,2.57,0,0,0,76.48,497Z" transform="translate(0 0)"/><path class="cls-3" d="M119,488.72q0,8.14-4.38,12.7T102.38,506q-7.56,0-12-4.66t-4.47-12.6q0-8.12,4.38-12.61t12.29-4.5a17.46,17.46,0,0,1,8.64,2.08,14.31,14.31,0,0,1,5.79,6A19.27,19.27,0,0,1,119,488.72Zm-21.51,0a14.73,14.73,0,0,0,1.14,6.52,4,4,0,0,0,3.84,2.24,3.89,3.89,0,0,0,3.77-2.24,15.31,15.31,0,0,0,1.1-6.52,14.56,14.56,0,0,0-1.12-6.42,4.42,4.42,0,0,0-6.06-1.53,4.48,4.48,0,0,0-1.53,1.53,14.12,14.12,0,0,0-1.12,6.42Z" transform="translate(0 0)"/><path class="cls-3" d="M121.59,505.39l14.27-31-.41-1.2a8.16,8.16,0,0,0-2.18-3.6,5.37,5.37,0,0,0-3.71-1.2,15.89,15.89,0,0,0-4,.5v-9a21.48,21.48,0,0,1,2.87-.38q1.69-.12,2.67-.12,5.91,0,9.19,2.45t5.42,8.36L153,490.39a32.24,32.24,0,0,0,1.74,4,5.65,5.65,0,0,0,1.63,2,4.2,4.2,0,0,0,2.4.58,8.63,8.63,0,0,0,2.2-.29V505a10.83,10.83,0,0,1-2.86.67,25.74,25.74,0,0,1-3.5.33,9.71,9.71,0,0,1-6.16-2,14.58,14.58,0,0,1-4.27-6.53l-2.05-5.6a37.51,37.51,0,0,1-1.49-5.62h-.24a27.45,27.45,0,0,1-1.43,5.57l-5.45,13.56Z" transform="translate(0 0)"/><path class="cls-3" d="M176.85,472.2V494q0,3,3.43,3a13.18,13.18,0,0,0,3-.31,24.19,24.19,0,0,0,3.14-.95v8.41a21,21,0,0,1-9,1.85c-4.11,0-7.12-1-9.06-2.89s-2.9-4.78-2.9-8.57V472.2Z" transform="translate(0 0)"/><path class="cls-3" d="M207.64,480.72v13.1a3.26,3.26,0,0,0,.76,2.34,2.82,2.82,0,0,0,2.17.82,16.4,16.4,0,0,0,5.65-1.26v8.35a19.92,19.92,0,0,1-8.93,1.85c-4,0-6.83-.92-8.54-2.77s-2.57-4.74-2.57-8.69V480.72h-7.91v-4.86L194,472.2h23.46v8.52Z" transform="translate(0 0)"/><path class="cls-3" d="M255,488.72q0,8.14-4.38,12.7T238.34,506q-7.56,0-12-4.66t-4.47-12.6q0-8.12,4.38-12.61t12.29-4.5a17.46,17.46,0,0,1,8.64,2.08,14.31,14.31,0,0,1,5.79,6A19.43,19.43,0,0,1,255,488.72Zm-21.5,0a14.73,14.73,0,0,0,1.14,6.52,4,4,0,0,0,3.84,2.24,3.84,3.84,0,0,0,3.76-2.24,15.16,15.16,0,0,0,1.1-6.52,14.55,14.55,0,0,0-1.11-6.42,4.42,4.42,0,0,0-6.06-1.53,4.48,4.48,0,0,0-1.53,1.53,14.15,14.15,0,0,0-1.16,6.42Z" transform="translate(0 0)"/><path class="cls-3" d="M278.8,519.8H266.73a37.1,37.1,0,0,1,.76-6.48,69.15,69.15,0,0,1,2.08-8.28L257.5,472.2h12l3.35,10.8q1.41,4.63,1.89,6.84a38.88,38.88,0,0,1,.69,4h.24a61.6,61.6,0,0,1,2.66-10.28L282,472.2h11.93L281.67,505a42.64,42.64,0,0,0-2.06,7.43A39.69,39.69,0,0,0,278.8,519.8Z" transform="translate(0 0)"/><path class="cls-3" d="M330.22,488.84q0,8.06-3.49,12.6a11.44,11.44,0,0,1-9.58,4.54,18.32,18.32,0,0,1-4.36-.53,12.87,12.87,0,0,1-3.64-1.44h-.76a58.2,58.2,0,0,1,.65,7.8v8H297.58V489q0-8.21,4.34-12.8t12.15-4.6a16.59,16.59,0,0,1,8.43,2.14,14.45,14.45,0,0,1,5.71,6.06A19.66,19.66,0,0,1,330.22,488.84Zm-16.32-8.7q-4.86,0-4.86,7.32v7.44a5.66,5.66,0,0,0,2.28,1.64,7.26,7.26,0,0,0,2.64.56,3.76,3.76,0,0,0,3.56-1.93q1.07-1.94,1.07-6.33c0-3.07-.38-5.28-1.13-6.65a3.76,3.76,0,0,0-3.56-2.05Z" transform="translate(0 0)"/><path class="cls-3" d="M347.85,506a10.85,10.85,0,0,1-9.25-4.53q-3.35-4.53-3.34-12.49,0-8.21,3.53-12.72a11.8,11.8,0,0,1,9.86-4.51,11.4,11.4,0,0,1,5.56,1.2,9,9,0,0,1,3.55,3.72h.47a11.42,11.42,0,0,1,2-4.45h9.61A38.54,38.54,0,0,0,368,479a39.14,39.14,0,0,0-.66,7v7.5c0,2.36.81,3.54,2.41,3.54a5.11,5.11,0,0,0,1.73-.29v8.52a6.07,6.07,0,0,1-2.1.53A17.69,17.69,0,0,1,367,506a12,12,0,0,1-5.81-1.15,8.23,8.23,0,0,1-3.3-3.75h-.7A10.46,10.46,0,0,1,347.85,506Zm3.9-8.88a4.32,4.32,0,0,0,3.82-1.74c.81-1.17,1.24-3.22,1.28-6.17v-.29q0-4.37-1.26-6.33a4.36,4.36,0,0,0-4-2,3.82,3.82,0,0,0-3.54,2.16,13.14,13.14,0,0,0-1.2,6.24q0,8.11,4.9,8.11Zm-3.81-29c.39-1.33.81-3.09,1.26-5.26s.77-3.88.94-5.11h10.08v.76A93.18,93.18,0,0,1,354.53,469h-6.59Z" transform="translate(0 0)"/><path class="cls-3" d="M392.5,519.8V505.62q-8-.56-12.48-4.9t-4.45-11.59a26.26,26.26,0,0,1,1.62-9.24,31.54,31.54,0,0,1,5.15-8.69l8.52,5.16a20.22,20.22,0,0,0-3,6,22.81,22.81,0,0,0-1.11,6.95,7.16,7.16,0,0,0,5.77,7.79V485.23q0-6.83,3.23-10.13t10-3.31q7.2,0,11.41,4.19t4.2,11.72q0,7.76-4.76,12.46t-13.2,5.46V519.8Zm17.38-32a11.59,11.59,0,0,0-1.06-5.56,3.26,3.26,0,0,0-3-1.88,2,2,0,0,0-2,1,8,8,0,0,0-.54,3.5V497.1a6.26,6.26,0,0,0,4.81-2.64,11.35,11.35,0,0,0,1.79-6.71Z" transform="translate(0 0)"/><path class="cls-3" d="M448.72,519.8V486.49q0-5.88-4-5.88a4.45,4.45,0,0,0-4.19,2.31q-1.29,2.31-1.29,7.94v14.53H427.78V472.2h8.64l1.43,4.1h.68a9.08,9.08,0,0,1,4.06-3.52,14.22,14.22,0,0,1,6-1.17c3.67,0,6.53,1.07,8.57,3.19s3.06,5.13,3.06,9v36Z" transform="translate(0 0)"/><path class="cls-3" d="M483.47,506q-7.86,0-12.39-4.25T466.54,490q0-9.17,4.84-13.51t15.08-4.33H503.3v8.52h-8.14a12.5,12.5,0,0,1,5.33,10.7,14.25,14.25,0,0,1-2.05,7.69,13.24,13.24,0,0,1-5.89,5.09A21.37,21.37,0,0,1,483.47,506Zm-5.24-16a8,8,0,0,0,1.42,5.1,4.75,4.75,0,0,0,3.94,1.79q5.27,0,5.27-7.21a17.34,17.34,0,0,0-.25-3.22,11,11,0,0,0-.78-2.52,19.27,19.27,0,0,0-2-3.2h-.64q-3.72,0-5.35,2.16C478.75,484.34,478.22,486.71,478.23,490Z" transform="translate(0 0)"/><path class="cls-3" d="M529.79,519.8V486.49q0-5.88-4-5.88a4.45,4.45,0,0,0-4.19,2.31c-.86,1.54-1.28,4.19-1.28,7.94v14.53H508.84V472.2h8.64l1.44,4.1h.67a9.14,9.14,0,0,1,4.06-3.52,14.37,14.37,0,0,1,6-1.17c3.67,0,6.53,1.07,8.57,3.19s3.06,5.13,3.06,9v36Z" transform="translate(0 0)"/><path class="cls-3" d="M547.6,489.07q0-8.4,4.41-12.93t12.64-4.53a26.35,26.35,0,0,1,11.63,2.76l-3.25,8.4a39.78,39.78,0,0,0-4.38-1.52,15.06,15.06,0,0,0-4-.64,4.48,4.48,0,0,0-4,2.18c-.93,1.45-1.39,3.61-1.39,6.46a7.93,7.93,0,0,0,.78,3.92,6.1,6.1,0,0,0,2.53,2.27,19.79,19.79,0,0,0,4.86,1.6A13,13,0,0,1,574,500.1a7.8,7.8,0,0,1,2.18,5.82q0,4.77-4.07,10.16H560.37a23.08,23.08,0,0,0,3.18-4.36,8.27,8.27,0,0,0,1.28-3.34,1.89,1.89,0,0,0-.63-1.51,7.11,7.11,0,0,0-2.19-1.08,37.13,37.13,0,0,0-4-1.13,14.07,14.07,0,0,1-6-2.78,11.63,11.63,0,0,1-3.24-5A24,24,0,0,1,547.6,489.07Z" transform="translate(0 0)"/><rect class="cls-4" x="35.67" y="155.21" width="273.76" height="52.51" rx="11.44"/><rect class="cls-3" x="1003.72" y="23.48" width="175" height="175"/><rect x="1062.05" y="34.08" width="5.3" height="5.3"/><rect x="1083.26" y="34.08" width="5.3" height="5.3"/><rect x="1099.17" y="34.08" width="5.3" height="5.3"/><rect x="1115.08" y="34.08" width="5.3" height="5.3"/><rect x="1067.35" y="39.39" width="5.3" height="5.3"/><rect x="1072.66" y="39.39" width="5.3" height="5.3"/><rect x="1077.96" y="39.39" width="5.3" height="5.3"/><rect x="1083.26" y="39.39" width="5.3" height="5.3"/><rect x="1088.57" y="39.39" width="5.3" height="5.3"/><rect x="1093.87" y="39.39" width="5.3" height="5.3"/><rect x="1104.47" y="39.39" width="5.3" height="5.3"/><rect x="1109.78" y="39.39" width="5.3" height="5.3"/><rect x="1120.38" y="39.39" width="5.3" height="5.3"/><rect x="1072.66" y="44.69" width="5.3" height="5.3"/><rect x="1083.26" y="44.69" width="5.3" height="5.3"/><rect x="1099.17" y="44.69" width="5.3" height="5.3"/><rect x="1104.47" y="44.69" width="5.3" height="5.3"/><rect x="1109.78" y="44.69" width="5.3" height="5.3"/><rect x="1120.38" y="44.69" width="5.3" height="5.3"/><rect x="1062.05" y="49.99" width="5.3" height="5.3"/><rect x="1067.35" y="49.99" width="5.3" height="5.3"/><rect x="1072.66" y="49.99" width="5.3" height="5.3"/><rect x="1077.96" y="49.99" width="5.3" height="5.3"/><rect x="1083.26" y="49.99" width="5.3" height="5.3"/><rect x="1088.57" y="49.99" width="5.3" height="5.3"/><rect x="1093.87" y="49.99" width="5.3" height="5.3"/><rect x="1109.78" y="49.99" width="5.3" height="5.3"/><rect x="1115.08" y="49.99" width="5.3" height="5.3"/><rect x="1062.05" y="55.3" width="5.3" height="5.3"/><rect x="1077.96" y="55.3" width="5.3" height="5.3"/><rect x="1083.26" y="55.3" width="5.3" height="5.3"/><rect x="1088.57" y="55.3" width="5.3" height="5.3"/><rect x="1099.17" y="55.3" width="5.3" height="5.3"/><rect x="1104.47" y="55.3" width="5.3" height="5.3"/><rect x="1109.78" y="55.3" width="5.3" height="5.3"/><rect x="1056.75" y="60.6" width="5.3" height="5.3"/><rect x="1062.05" y="60.6" width="5.3" height="5.3"/><rect x="1083.26" y="60.6" width="5.3" height="5.3"/><rect x="1088.57" y="60.6" width="5.3" height="5.3"/><rect x="1115.08" y="60.6" width="5.3" height="5.3"/><rect x="1120.38" y="60.6" width="5.3" height="5.3"/><rect x="1056.75" y="65.9" width="5.3" height="5.3"/><rect x="1067.35" y="65.9" width="5.3" height="5.3"/><rect x="1077.96" y="65.9" width="5.3" height="5.3"/><rect x="1088.57" y="65.9" width="5.3" height="5.3"/><rect x="1099.17" y="65.9" width="5.3" height="5.3"/><rect x="1109.78" y="65.9" width="5.3" height="5.3"/><rect x="1120.38" y="65.9" width="5.3" height="5.3"/><rect x="1067.35" y="71.21" width="5.3" height="5.3"/><rect x="1077.96" y="71.21" width="5.3" height="5.3"/><rect x="1088.57" y="71.21" width="5.3" height="5.3"/><rect x="1104.47" y="71.21" width="5.3" height="5.3"/><rect x="1109.78" y="71.21" width="5.3" height="5.3"/><rect x="1014.32" y="76.51" width="5.3" height="5.3"/><rect x="1030.23" y="76.51" width="5.3" height="5.3"/><rect x="1040.84" y="76.51" width="5.3" height="5.3"/><rect x="1046.14" y="76.51" width="5.3" height="5.3"/><rect x="1056.75" y="76.51" width="5.3" height="5.3"/><rect x="1067.35" y="76.51" width="5.3" height="5.3"/><rect x="1093.87" y="76.51" width="5.3" height="5.3"/><rect x="1120.38" y="76.51" width="5.3" height="5.3"/><rect x="1125.69" y="76.51" width="5.3" height="5.3"/><rect x="1136.29" y="76.51" width="5.3" height="5.3"/><rect x="1019.63" y="81.81" width="5.3" height="5.3"/><rect x="1024.93" y="81.81" width="5.3" height="5.3"/><rect x="1035.54" y="81.81" width="5.3" height="5.3"/><rect x="1051.44" y="81.81" width="5.3" height="5.3"/><rect x="1056.75" y="81.81" width="5.3" height="5.3"/><rect x="1067.35" y="81.81" width="5.3" height="5.3"/><rect x="1088.57" y="81.81" width="5.3" height="5.3"/><rect x="1093.87" y="81.81" width="5.3" height="5.3"/><rect x="1104.47" y="81.81" width="5.3" height="5.3"/><rect x="1109.78" y="81.81" width="5.3" height="5.3"/><rect x="1120.38" y="81.81" width="5.3" height="5.3"/><rect x="1125.69" y="81.81" width="5.3" height="5.3"/><rect x="1130.99" y="81.81" width="5.3" height="5.3"/><rect x="1146.9" y="81.81" width="5.3" height="5.3"/><rect x="1162.81" y="81.81" width="5.3" height="5.3"/><rect x="1030.23" y="87.11" width="5.3" height="5.3"/><rect x="1040.84" y="87.11" width="5.3" height="5.3"/><rect x="1046.14" y="87.11" width="5.3" height="5.3"/><rect x="1051.44" y="87.11" width="5.3" height="5.3"/><rect x="1056.75" y="87.11" width="5.3" height="5.3"/><rect x="1062.05" y="87.11" width="5.3" height="5.3"/><rect x="1072.66" y="87.11" width="5.3" height="5.3"/><rect x="1077.96" y="87.11" width="5.3" height="5.3"/><rect x="1099.17" y="87.11" width="5.3" height="5.3"/><rect x="1115.08" y="87.11" width="5.3" height="5.3"/><rect x="1125.69" y="87.11" width="5.3" height="5.3"/><rect x="1136.29" y="87.11" width="5.3" height="5.3"/><rect x="1146.9" y="87.11" width="5.3" height="5.3"/><rect x="1152.2" y="87.11" width="5.3" height="5.3"/><rect x="1157.51" y="87.11" width="5.3" height="5.3"/><rect x="1014.32" y="92.42" width="5.3" height="5.3"/><rect x="1019.63" y="92.42" width="5.3" height="5.3"/><rect x="1024.93" y="92.42" width="5.3" height="5.3"/><rect x="1030.23" y="92.42" width="5.3" height="5.3"/><rect x="1040.84" y="92.42" width="5.3" height="5.3"/><rect x="1051.44" y="92.42" width="5.3" height="5.3"/><rect x="1056.75" y="92.42" width="5.3" height="5.3"/><rect x="1072.66" y="92.42" width="5.3" height="5.3"/><rect x="1077.96" y="92.42" width="5.3" height="5.3"/><rect x="1088.57" y="92.42" width="5.3" height="5.3"/><rect x="1093.87" y="92.42" width="5.3" height="5.3"/><rect x="1136.29" y="92.42" width="5.3" height="5.3"/><rect x="1152.2" y="92.42" width="5.3" height="5.3"/><rect x="1157.51" y="92.42" width="5.3" height="5.3"/><rect x="1024.93" y="97.72" width="5.3" height="5.3"/><rect x="1035.54" y="97.72" width="5.3" height="5.3"/><rect x="1046.14" y="97.72" width="5.3" height="5.3"/><rect x="1062.05" y="97.72" width="5.3" height="5.3"/><rect x="1099.17" y="97.72" width="5.3" height="5.3"/><rect x="1104.47" y="97.72" width="5.3" height="5.3"/><rect x="1115.08" y="97.72" width="5.3" height="5.3"/><rect x="1120.38" y="97.72" width="5.3" height="5.3"/><rect x="1125.69" y="97.72" width="5.3" height="5.3"/><rect x="1130.99" y="97.72" width="5.3" height="5.3"/><rect x="1146.9" y="97.72" width="5.3" height="5.3"/><rect x="1157.51" y="97.72" width="5.3" height="5.3"/><rect x="1162.81" y="97.72" width="5.3" height="5.3"/><rect x="1014.32" y="103.02" width="5.3" height="5.3"/><rect x="1019.63" y="103.02" width="5.3" height="5.3"/><rect x="1030.23" y="103.02" width="5.3" height="5.3"/><rect x="1072.66" y="103.02" width="5.3" height="5.3"/><rect x="1077.96" y="103.02" width="5.3" height="5.3"/><rect x="1093.87" y="103.02" width="5.3" height="5.3"/><rect x="1115.08" y="103.02" width="5.3" height="5.3"/><rect x="1125.69" y="103.02" width="5.3" height="5.3"/><rect x="1014.32" y="108.33" width="5.3" height="5.3"/><rect x="1019.63" y="108.33" width="5.3" height="5.3"/><rect x="1024.93" y="108.33" width="5.3" height="5.3"/><rect x="1035.54" y="108.33" width="5.3" height="5.3"/><rect x="1046.14" y="108.33" width="5.3" height="5.3"/><rect x="1062.05" y="108.33" width="5.3" height="5.3"/><rect x="1067.35" y="108.33" width="5.3" height="5.3"/><rect x="1093.87" y="108.33" width="5.3" height="5.3"/><rect x="1099.17" y="108.33" width="5.3" height="5.3"/><rect x="1104.47" y="108.33" width="5.3" height="5.3"/><rect x="1109.78" y="108.33" width="5.3" height="5.3"/><rect x="1120.38" y="108.33" width="5.3" height="5.3"/><rect x="1125.69" y="108.33" width="5.3" height="5.3"/><rect x="1146.9" y="108.33" width="5.3" height="5.3"/><rect x="1152.2" y="108.33" width="5.3" height="5.3"/><rect x="1157.51" y="108.33" width="5.3" height="5.3"/><rect x="1162.81" y="108.33" width="5.3" height="5.3"/><rect x="1014.32" y="113.63" width="5.3" height="5.3"/><rect x="1040.84" y="113.63" width="5.3" height="5.3"/><rect x="1051.44" y="113.63" width="5.3" height="5.3"/><rect x="1056.75" y="113.63" width="5.3" height="5.3"/><rect x="1062.05" y="113.63" width="5.3" height="5.3"/><rect x="1072.66" y="113.63" width="5.3" height="5.3"/><rect x="1083.26" y="113.63" width="5.3" height="5.3"/><rect x="1088.57" y="113.63" width="5.3" height="5.3"/><rect x="1099.17" y="113.63" width="5.3" height="5.3"/><rect x="1104.47" y="113.63" width="5.3" height="5.3"/><rect x="1109.78" y="113.63" width="5.3" height="5.3"/><rect x="1115.08" y="113.63" width="5.3" height="5.3"/><rect x="1120.38" y="113.63" width="5.3" height="5.3"/><rect x="1125.69" y="113.63" width="5.3" height="5.3"/><rect x="1130.99" y="113.63" width="5.3" height="5.3"/><rect x="1141.6" y="113.63" width="5.3" height="5.3"/><rect x="1146.9" y="113.63" width="5.3" height="5.3"/><rect x="1157.51" y="113.63" width="5.3" height="5.3"/><rect x="1014.32" y="118.93" width="5.3" height="5.3"/><rect x="1024.93" y="118.93" width="5.3" height="5.3"/><rect x="1046.14" y="118.93" width="5.3" height="5.3"/><rect x="1051.44" y="118.93" width="5.3" height="5.3"/><rect x="1056.75" y="118.93" width="5.3" height="5.3"/><rect x="1062.05" y="118.93" width="5.3" height="5.3"/><rect x="1067.35" y="118.93" width="5.3" height="5.3"/><rect x="1077.96" y="118.93" width="5.3" height="5.3"/><rect x="1083.26" y="118.93" width="5.3" height="5.3"/><rect x="1088.57" y="118.93" width="5.3" height="5.3"/><rect x="1093.87" y="118.93" width="5.3" height="5.3"/><rect x="1104.47" y="118.93" width="5.3" height="5.3"/><rect x="1115.08" y="118.93" width="5.3" height="5.3"/><rect x="1125.69" y="118.93" width="5.3" height="5.3"/><rect x="1157.51" y="118.93" width="5.3" height="5.3"/><rect x="1019.63" y="124.24" width="5.3" height="5.3"/><rect x="1035.54" y="124.24" width="5.3" height="5.3"/><rect x="1067.35" y="124.24" width="5.3" height="5.3"/><rect x="1072.66" y="124.24" width="5.3" height="5.3"/><rect x="1077.96" y="124.24" width="5.3" height="5.3"/><rect x="1093.87" y="124.24" width="5.3" height="5.3"/><rect x="1104.47" y="124.24" width="5.3" height="5.3"/><rect x="1125.69" y="124.24" width="5.3" height="5.3"/><rect x="1130.99" y="124.24" width="5.3" height="5.3"/><rect x="1136.29" y="124.24" width="5.3" height="5.3"/><rect x="1146.9" y="124.24" width="5.3" height="5.3"/><rect x="1162.81" y="124.24" width="5.3" height="5.3"/><rect x="1014.32" y="129.54" width="5.3" height="5.3"/><rect x="1030.23" y="129.54" width="5.3" height="5.3"/><rect x="1035.54" y="129.54" width="5.3" height="5.3"/><rect x="1040.84" y="129.54" width="5.3" height="5.3"/><rect x="1046.14" y="129.54" width="5.3" height="5.3"/><rect x="1056.75" y="129.54" width="5.3" height="5.3"/><rect x="1062.05" y="129.54" width="5.3" height="5.3"/><rect x="1067.35" y="129.54" width="5.3" height="5.3"/><rect x="1083.26" y="129.54" width="5.3" height="5.3"/><rect x="1104.47" y="129.54" width="5.3" height="5.3"/><rect x="1120.38" y="129.54" width="5.3" height="5.3"/><rect x="1136.29" y="129.54" width="5.3" height="5.3"/><rect x="1141.6" y="129.54" width="5.3" height="5.3"/><rect x="1157.51" y="129.54" width="5.3" height="5.3"/><rect x="1162.81" y="129.54" width="5.3" height="5.3"/><rect x="1024.93" y="134.84" width="5.3" height="5.3"/><rect x="1030.23" y="134.84" width="5.3" height="5.3"/><rect x="1035.54" y="134.84" width="5.3" height="5.3"/><rect x="1040.84" y="134.84" width="5.3" height="5.3"/><rect x="1051.44" y="134.84" width="5.3" height="5.3"/><rect x="1056.75" y="134.84" width="5.3" height="5.3"/><rect x="1062.05" y="134.84" width="5.3" height="5.3"/><rect x="1067.35" y="134.84" width="5.3" height="5.3"/><rect x="1072.66" y="134.84" width="5.3" height="5.3"/><rect x="1077.96" y="134.84" width="5.3" height="5.3"/><rect x="1083.26" y="134.84" width="5.3" height="5.3"/><rect x="1104.47" y="134.84" width="5.3" height="5.3"/><rect x="1109.78" y="134.84" width="5.3" height="5.3"/><rect x="1115.08" y="134.84" width="5.3" height="5.3"/><rect x="1130.99" y="134.84" width="5.3" height="5.3"/><rect x="1141.6" y="134.84" width="5.3" height="5.3"/><rect x="1157.51" y="134.84" width="5.3" height="5.3"/><rect x="1162.81" y="134.84" width="5.3" height="5.3"/><rect x="1014.32" y="140.14" width="5.3" height="5.3"/><rect x="1024.93" y="140.14" width="5.3" height="5.3"/><rect x="1046.14" y="140.14" width="5.3" height="5.3"/><rect x="1051.44" y="140.14" width="5.3" height="5.3"/><rect x="1056.75" y="140.14" width="5.3" height="5.3"/><rect x="1072.66" y="140.14" width="5.3" height="5.3"/><rect x="1088.57" y="140.14" width="5.3" height="5.3"/><rect x="1093.87" y="140.14" width="5.3" height="5.3"/><rect x="1099.17" y="140.14" width="5.3" height="5.3"/><rect x="1120.38" y="140.14" width="5.3" height="5.3"/><rect x="1125.69" y="140.14" width="5.3" height="5.3"/><rect x="1130.99" y="140.14" width="5.3" height="5.3"/><rect x="1136.29" y="140.14" width="5.3" height="5.3"/><rect x="1141.6" y="140.14" width="5.3" height="5.3"/><rect x="1152.2" y="140.14" width="5.3" height="5.3"/><rect x="1056.75" y="145.45" width="5.3" height="5.3"/><rect x="1062.05" y="145.45" width="5.3" height="5.3"/><rect x="1072.66" y="145.45" width="5.3" height="5.3"/><rect x="1077.96" y="145.45" width="5.3" height="5.3"/><rect x="1083.26" y="145.45" width="5.3" height="5.3"/><rect x="1120.38" y="145.45" width="5.3" height="5.3"/><rect x="1141.6" y="145.45" width="5.3" height="5.3"/><rect x="1152.2" y="145.45" width="5.3" height="5.3"/><rect x="1157.51" y="145.45" width="5.3" height="5.3"/><rect x="1162.81" y="145.45" width="5.3" height="5.3"/><rect x="1077.96" y="150.75" width="5.3" height="5.3"/><rect x="1083.26" y="150.75" width="5.3" height="5.3"/><rect x="1088.57" y="150.75" width="5.3" height="5.3"/><rect x="1104.47" y="150.75" width="5.3" height="5.3"/><rect x="1120.38" y="150.75" width="5.3" height="5.3"/><rect x="1130.99" y="150.75" width="5.3" height="5.3"/><rect x="1141.6" y="150.75" width="5.3" height="5.3"/><rect x="1157.51" y="150.75" width="5.3" height="5.3"/><rect x="1056.75" y="156.05" width="5.3" height="5.3"/><rect x="1062.05" y="156.05" width="5.3" height="5.3"/><rect x="1083.26" y="156.05" width="5.3" height="5.3"/><rect x="1120.38" y="156.05" width="5.3" height="5.3"/><rect x="1141.6" y="156.05" width="5.3" height="5.3"/><rect x="1146.9" y="156.05" width="5.3" height="5.3"/><rect x="1152.2" y="156.05" width="5.3" height="5.3"/><rect x="1157.51" y="156.05" width="5.3" height="5.3"/><rect x="1088.57" y="161.36" width="5.3" height="5.3"/><rect x="1104.47" y="161.36" width="5.3" height="5.3"/><rect x="1109.78" y="161.36" width="5.3" height="5.3"/><rect x="1120.38" y="161.36" width="5.3" height="5.3"/><rect x="1125.69" y="161.36" width="5.3" height="5.3"/><rect x="1130.99" y="161.36" width="5.3" height="5.3"/><rect x="1136.29" y="161.36" width="5.3" height="5.3"/><rect x="1141.6" y="161.36" width="5.3" height="5.3"/><rect x="1162.81" y="161.36" width="5.3" height="5.3"/><rect x="1056.75" y="166.66" width="5.3" height="5.3"/><rect x="1067.35" y="166.66" width="5.3" height="5.3"/><rect x="1077.96" y="166.66" width="5.3" height="5.3"/><rect x="1088.57" y="166.66" width="5.3" height="5.3"/><rect x="1120.38" y="166.66" width="5.3" height="5.3"/><rect x="1130.99" y="166.66" width="5.3" height="5.3"/><rect x="1136.29" y="166.66" width="5.3" height="5.3"/><rect x="1141.6" y="166.66" width="5.3" height="5.3"/><rect x="1146.9" y="166.66" width="5.3" height="5.3"/><rect x="1152.2" y="166.66" width="5.3" height="5.3"/><rect x="1157.51" y="166.66" width="5.3" height="5.3"/><rect x="1083.26" y="171.96" width="5.3" height="5.3"/><rect x="1104.47" y="171.96" width="5.3" height="5.3"/><rect x="1115.08" y="171.96" width="5.3" height="5.3"/><rect x="1120.38" y="171.96" width="5.3" height="5.3"/><rect x="1125.69" y="171.96" width="5.3" height="5.3"/><rect x="1141.6" y="171.96" width="5.3" height="5.3"/><rect x="1146.9" y="171.96" width="5.3" height="5.3"/><rect x="1152.2" y="171.96" width="5.3" height="5.3"/><rect x="1162.81" y="171.96" width="5.3" height="5.3"/><rect x="1072.66" y="177.27" width="5.3" height="5.3"/><rect x="1083.26" y="177.27" width="5.3" height="5.3"/><rect x="1088.57" y="177.27" width="5.3" height="5.3"/><rect x="1099.17" y="177.27" width="5.3" height="5.3"/><rect x="1104.47" y="177.27" width="5.3" height="5.3"/><rect x="1109.78" y="177.27" width="5.3" height="5.3"/><rect x="1115.08" y="177.27" width="5.3" height="5.3"/><rect x="1120.38" y="177.27" width="5.3" height="5.3"/><rect x="1125.69" y="177.27" width="5.3" height="5.3"/><rect x="1141.6" y="177.27" width="5.3" height="5.3"/><rect x="1157.51" y="177.27" width="5.3" height="5.3"/><rect x="1056.75" y="182.57" width="5.3" height="5.3"/><rect x="1072.66" y="182.57" width="5.3" height="5.3"/><rect x="1088.57" y="182.57" width="5.3" height="5.3"/><rect x="1104.47" y="182.57" width="5.3" height="5.3"/><rect x="1115.08" y="182.57" width="5.3" height="5.3"/><rect x="1120.38" y="182.57" width="5.3" height="5.3"/><rect x="1125.69" y="182.57" width="5.3" height="5.3"/><rect x="1130.99" y="182.57" width="5.3" height="5.3"/><rect x="1136.29" y="182.57" width="5.3" height="5.3"/><rect x="1146.9" y="182.57" width="5.3" height="5.3"/><rect x="1157.51" y="182.57" width="5.3" height="5.3"/><rect class="cls-5" x="1019.89" y="39.65" width="25.98" height="25.98"/><path d="M1045.88,34.08h-31.56V71.21h37.12V34.08Zm0,31.56h-26v-26h26Z" transform="translate(0 0)"/><rect class="cls-5" x="1136.56" y="39.65" width="25.98" height="25.98"/><path d="M1162.54,34.08H1131V71.21h37.12V34.08Zm0,31.56h-26v-26h26Z" transform="translate(0 0)"/><rect class="cls-5" x="1019.89" y="156.32" width="25.98" height="25.98"/><path d="M1045.88,150.75h-31.56v37.12h37.12V150.75Zm0,31.55h-26v-26h26Z" transform="translate(0 0)"/><rect x="1024.93" y="44.69" width="15.91" height="15.91"/><rect x="1141.6" y="44.69" width="15.91" height="15.91"/><rect x="1024.93" y="161.36" width="15.91" height="15.91"/></svg>