<?xml version="1.0" encoding="utf-8"?>
<!-- Generator: Adobe Illustrator 26.0.3, SVG Export Plug-In . SVG Version: 6.00 Build 0)  -->
<svg version="1.1" id="Layer_1" xmlns="http://www.w3.org/2000/svg" xmlns:xlink="http://www.w3.org/1999/xlink" x="0px" y="0px"
	 viewBox="0 0 500 500" style="enable-background:new 0 0 500 500;" xml:space="preserve">
<style type="text/css">
	.st0{fill:#FAFAFA;}
	.st1{fill:#407BFF;}
	.st2{opacity:0.4;fill:#FFFFFF;enable-background:new    ;}
	.st3{opacity:0.2;fill:#FFFFFF;enable-background:new    ;}
	.st4{opacity:0.6;fill:#FFFFFF;enable-background:new    ;}
	.st5{fill:#E0E0E0;}
	.st6{fill:#EBEBEB;}
	.st7{fill:#F5F5F5;}
	.st8{opacity:0.85;}
	.st9{fill:#FFFFFF;}
	.st10{fill:#263238;}
	.st11{fill:#37474F;}
	.st12{fill:#FFA8A7;}
	.st13{fill:#F28F8F;}
	.st14{fill:#FFBDA7;}
	.st15{fill:#455A64;}
	.st16{fill:#F0997A;}
	.st17{fill:#B16668;}
	.st18{opacity:0.3;enable-background:new    ;}
	.st19{opacity:0.1;enable-background:new    ;}
	.st20{opacity:0.8;fill:#FFFFFF;enable-background:new    ;}
	.st21{opacity:0.3;fill:#407BFF;enable-background:new    ;}
</style>
<g id="freepik--Floor--inject-44">
	<path id="freepik--floor--inject-44" class="st0" d="M82.5,257.5c-92.5,53.4-92.5,140,0,193.5s242.5,53.4,335.1,0s92.5-140,0-193.5
		S175,204.1,82.5,257.5z"/>
</g>
<g id="freepik--Plants--inject-44">
	<g id="freepik--plants--inject-44_00000023251079396438411640000011893467061318699175_">
		<g id="freepik--plants--inject-44">
			<path class="st1" d="M445.9,391.9c1.1-2.4,3.4-4,6.1-4c3.5-0.2,7,1.3,7.2,1.7s-2.4,3.2-6.5,3.9
				C450.3,394,447.8,393.4,445.9,391.9z"/>
			<path class="st1" d="M439.4,397.8c2.1-1.6,4.9-1.9,7.2-0.8c3.2,1.5,5.7,4.4,5.6,4.8s-3.6,1.7-7.5,0.5
				C442.3,401.7,440.4,400.1,439.4,397.8z"/>
			<path class="st2" d="M439.4,397.8c2.1-1.6,4.9-1.9,7.2-0.8c3.2,1.5,5.7,4.4,5.6,4.8s-3.6,1.7-7.5,0.5
				C442.3,401.7,440.4,400.1,439.4,397.8z"/>
			<path class="st1" d="M433.3,394.9c-1.2-2.3-1-5.1,0.5-7.2c2-2.9,4.9-4.9,5.3-4.7s1.2,4.2-0.2,7.6
				C437.3,394.3,434.3,394.5,433.3,394.9z"/>
			<path class="st1" d="M428.2,404.6c1.7-2,4.4-2.9,6.9-2.2c3.5,0.8,6.5,3.1,6.5,3.5s-3.1,2.4-7.3,2.1
				C431.9,407.8,429.6,406.6,428.2,404.6z"/>
		</g>
		<g id="freepik--plants--inject-44_00000056402453931325584950000013381728426204197017_">
			<path class="st1" d="M430.8,365.5c2-2.1,2.7-5.1,1.7-7.8c-1.2-3.7-4.1-6.7-4.5-6.7s-2.3,3.7-1.4,8.2
				C426.9,361.8,428.5,364.2,430.8,365.5z"/>
			<path class="st1" d="M427.3,374.5c0.9-2.7,0-5.7-2.1-7.7c-2.8-2.7-6.7-4.1-7.1-3.9s-0.4,4.4,2.5,7.9
				C422.2,373,424.6,374.4,427.3,374.5z"/>
			<path class="st1" d="M432.7,379.5c2.9,0.4,5.7-0.9,7.2-3.4c2.2-3.2,3-6.9,2.8-7.3s-4.8,0.4-7.7,3.2
				C431.8,375.3,432.7,378.4,432.7,379.5z"/>
			<path class="st3" d="M432.7,379.5c2.9,0.4,5.7-0.9,7.2-3.4c2.2-3.2,3-6.9,2.8-7.3s-4.8,0.4-7.7,3.2
				C431.8,375.3,432.7,378.4,432.7,379.5z"/>
			<path class="st1" d="M424.8,388.6c1.4-2.5,1.2-5.6-0.4-8c-2.1-3.2-5.7-5.4-6.1-5.3s-1.3,4.2,0.8,8.3
				C420,386.1,422.2,388,424.8,388.6z"/>
			<path class="st2" d="M424.8,388.6c1.4-2.5,1.2-5.6-0.4-8c-2.1-3.2-5.7-5.4-6.1-5.3s-1.3,4.2,0.8,8.3
				C420,386.1,422.2,388,424.8,388.6z"/>
			<path class="st1" d="M452,390.5c0.1,0,0-0.2-0.1-0.2c-3.9,0.2-7.9,1.7-11.5,3.2c-2.4,1-4.7,2.1-6.9,3.3c0.1-1.3,0.4-2.5,0.8-3.7
				c0.5-1.3,1-2.5,1.6-3.8c0.1-0.1,0.1-0.5,0-0.3c-1,1.1-1.8,2.5-2.4,3.9c-0.6,1.5-1.1,3-1.4,4.6c-2.7,1.6-5.3,3.3-7.8,5.2
				c-0.4,0.3-0.8,0.7-1.2,1c0.5-1,1-1.9,1.5-2.9c1.4-2.9,2.6-6,3.5-9.1c1-3.3,1.7-6.6,2.2-10c1.5-0.9,2.9-2,4.2-3.2
				c1.3-1.1,2.3-2.5,3.1-4c0.1-0.2-0.2,0-0.3,0.1c-1,1.1-2.1,2.2-3.2,3.2c-1.1,0.9-2.2,1.7-3.5,2.3c0.4-2.8,0.6-5.6,0.7-8.4
				c0.1-4.3,0-8.9-1.3-13c0-0.1-0.3-0.1-0.2,0c0.5,3.9,0.6,7.9,0.3,11.8c-0.1,2.4-0.2,4.8-0.5,7.3c-0.5-1.3-1.1-2.5-1.8-3.7
				c-0.5-1-1.1-1.9-1.8-2.8c-0.8-1.1-1.7-2-2.8-2.8c0,0-0.4-0.1-0.3,0c0.8,1,1.6,2,2.4,3.1c0.7,1,1.3,2,1.8,3.1
				c0.9,1.8,1.6,3.7,2.1,5.7c0,0.3-0.1,0.5-0.1,0.8c-0.7,3.7-1.6,7.4-2.9,10.9c-0.2-1.2-0.5-2.4-0.9-3.6c-0.3-1.1-0.7-2.1-1.2-3.1
				c-0.6-1.2-1.3-2.3-2.2-3.3c0,0-0.3-0.2-0.3-0.1c0.6,1.1,1.2,2.3,1.7,3.5c0.5,1.1,0.8,2.2,1.1,3.4c0.5,1.8,0.8,3.7,0.9,5.6
				c-0.5,1.3-1,2.6-1.6,4c-1.7,3.5-3.6,6.8-5.6,10.1c-0.1,0.1-0.2,0.2-0.3,0.3c-2.3,2.2-4.2,4.9-5.6,7.8c-0.1,0.3,0.1,0.7,0.4,0.7
				c0.2,0.1,0.4,0,0.6-0.2c2.1-2.9,4.5-5.7,6.9-8.4c1-1,1.9-1.8,2.8-2.7c1.7-0.5,3.3-0.9,5-1.1c1.1-0.1,2.2-0.2,3.2-0.2
				c1.2,0,2.4,0.1,3.5,0.3c0.1,0-0.1-0.2-0.2-0.2c-1.1-0.4-2.3-0.7-3.5-0.8c-1-0.1-2-0.1-3.1,0c-1.2,0.1-2.3,0.2-3.3,0.4
				c2.6-2.2,5.4-4.2,8.4-6l0.6-0.4c1.8-0.2,3.7-0.2,5.5,0c1.1,0.1,2.2,0.2,3.2,0.5c1.2,0.3,2.3,0.6,3.4,1c0.1,0-0.1-0.2-0.1-0.2
				c-1-0.7-2.1-1.2-3.3-1.5c-1-0.3-2-0.5-3-0.6c-1.2-0.2-2.5-0.3-3.7-0.3c2-1.1,4-2,6-2.9C445,392.6,448.5,391.4,452,390.5z"/>
			<path class="st4" d="M452,390.5c0.1,0,0-0.2-0.1-0.2c-3.9,0.2-7.9,1.7-11.5,3.2c-2.4,1-4.7,2.1-6.9,3.3c0.1-1.3,0.4-2.5,0.8-3.7
				c0.5-1.3,1-2.5,1.6-3.8c0.1-0.1,0.1-0.5,0-0.3c-1,1.1-1.8,2.5-2.4,3.9c-0.6,1.5-1.1,3-1.4,4.6c-2.7,1.6-5.3,3.3-7.8,5.2
				c-0.4,0.3-0.8,0.7-1.2,1c0.5-1,1-1.9,1.5-2.9c1.4-2.9,2.6-6,3.5-9.1c1-3.3,1.7-6.6,2.2-10c1.5-0.9,2.9-2,4.2-3.2
				c1.3-1.1,2.3-2.5,3.1-4c0.1-0.2-0.2,0-0.3,0.1c-1,1.1-2.1,2.2-3.2,3.2c-1.1,0.9-2.2,1.7-3.5,2.3c0.4-2.8,0.6-5.6,0.7-8.4
				c0.1-4.3,0-8.9-1.3-13c0-0.1-0.3-0.1-0.2,0c0.5,3.9,0.6,7.9,0.3,11.8c-0.1,2.4-0.2,4.8-0.5,7.3c-0.5-1.3-1.1-2.5-1.8-3.7
				c-0.5-1-1.1-1.9-1.8-2.8c-0.8-1.1-1.7-2-2.8-2.8c0,0-0.4-0.1-0.3,0c0.8,1,1.6,2,2.4,3.1c0.7,1,1.3,2,1.8,3.1
				c0.9,1.8,1.6,3.7,2.1,5.7c0,0.3-0.1,0.5-0.1,0.8c-0.7,3.7-1.6,7.4-2.9,10.9c-0.2-1.2-0.5-2.4-0.9-3.6c-0.3-1.1-0.7-2.1-1.2-3.1
				c-0.6-1.2-1.3-2.3-2.2-3.3c0,0-0.3-0.2-0.3-0.1c0.6,1.1,1.2,2.3,1.7,3.5c0.5,1.1,0.8,2.2,1.1,3.4c0.5,1.8,0.8,3.7,0.9,5.6
				c-0.5,1.3-1,2.6-1.6,4c-1.7,3.5-3.6,6.8-5.6,10.1c-0.1,0.1-0.2,0.2-0.3,0.3c-2.3,2.2-4.2,4.9-5.6,7.8c-0.1,0.3,0.1,0.7,0.4,0.7
				c0.2,0.1,0.4,0,0.6-0.2c2.1-2.9,4.5-5.7,6.9-8.4c1-1,1.9-1.8,2.8-2.7c1.7-0.5,3.3-0.9,5-1.1c1.1-0.1,2.2-0.2,3.2-0.2
				c1.2,0,2.4,0.1,3.5,0.3c0.1,0-0.1-0.2-0.2-0.2c-1.1-0.4-2.3-0.7-3.5-0.8c-1-0.1-2-0.1-3.1,0c-1.2,0.1-2.3,0.2-3.3,0.4
				c2.6-2.2,5.4-4.2,8.4-6l0.6-0.4c1.8-0.2,3.7-0.2,5.5,0c1.1,0.1,2.2,0.2,3.2,0.5c1.2,0.3,2.3,0.6,3.4,1c0.1,0-0.1-0.2-0.1-0.2
				c-1-0.7-2.1-1.2-3.3-1.5c-1-0.3-2-0.5-3-0.6c-1.2-0.2-2.5-0.3-3.7-0.3c2-1.1,4-2,6-2.9C445,392.6,448.5,391.4,452,390.5z"/>
		</g>
	</g>
	<g id="freepik--plants--inject-44_00000181798665249556582760000010510840271780362137_">
		<g id="freepik--plants--inject-44_00000149344740472372041000000011416069024755514764_">
			<path class="st1" d="M43.7,391.9c-1.1-2.4-3.4-3.9-6.1-4c-3.5-0.2-7,1.3-7.2,1.7s2.4,3.2,6.5,3.9C39.3,394,41.8,393.4,43.7,391.9
				z"/>
			<path class="st1" d="M50.2,397.8c-2.1-1.6-4.9-1.9-7.2-0.8c-3.2,1.5-5.7,4.4-5.6,4.8s3.6,1.7,7.5,0.5
				C47.3,401.7,49.2,400.1,50.2,397.8z"/>
			<path class="st2" d="M50.2,397.8c-2.1-1.6-4.9-1.9-7.2-0.8c-3.2,1.5-5.7,4.4-5.6,4.8s3.6,1.7,7.5,0.5
				C47.3,401.7,49.2,400.1,50.2,397.8z"/>
			<path class="st1" d="M56.3,394.9c1.2-2.3,1-5.1-0.5-7.2c-2-2.9-4.9-4.9-5.3-4.7s-1.2,4.2,0.2,7.6
				C52.3,394.3,55.3,394.5,56.3,394.9z"/>
			<path class="st1" d="M61.4,404.6c-1.7-2-4.4-2.9-6.9-2.2c-3.5,0.8-6.5,3.1-6.5,3.5s3.2,2.4,7.3,2.1
				C57.8,407.8,60,406.6,61.4,404.6z"/>
		</g>
		<g id="freepik--plants--inject-44_00000167384565037870594220000007898608318318722986_">
			<path class="st1" d="M58.8,365.5c-2-2.1-2.7-5.1-1.7-7.8c1.2-3.7,4.1-6.7,4.6-6.7s2.3,3.7,1.4,8.2
				C62.7,361.8,61.1,364.2,58.8,365.5z"/>
			<path class="st1" d="M62.3,374.5c-0.9-2.7,0-5.7,2.1-7.7c2.8-2.7,6.7-4.1,7.1-3.9s0.4,4.4-2.4,7.9C67.5,373,65,374.4,62.3,374.5z
				"/>
			<path class="st1" d="M56.9,379.5c-2.8,0.4-5.7-0.9-7.2-3.4c-2.2-3.2-3-6.9-2.8-7.3s4.8,0.4,7.7,3.2
				C57.8,375.3,56.9,378.4,56.9,379.5z"/>
			<path class="st3" d="M56.9,379.5c-2.8,0.4-5.7-0.9-7.2-3.4c-2.2-3.2-3-6.9-2.8-7.3s4.8,0.4,7.7,3.2
				C57.8,375.3,56.9,378.4,56.9,379.5z"/>
			<path class="st1" d="M64.8,388.6c-1.4-2.5-1.2-5.6,0.4-8c2.1-3.2,5.7-5.4,6.2-5.3s1.2,4.2-0.8,8.3
				C69.6,386.1,67.4,388,64.8,388.6z"/>
			<path class="st2" d="M64.8,388.6c-1.4-2.5-1.2-5.6,0.4-8c2.1-3.2,5.7-5.4,6.2-5.3s1.2,4.2-0.8,8.3
				C69.6,386.1,67.4,388,64.8,388.6z"/>
			<path class="st1" d="M47.8,394.2c2,0.9,4,1.8,6,2.9c-1.2,0-2.5,0.1-3.7,0.3c-1,0.1-2,0.3-3,0.6c-1.2,0.3-2.3,0.8-3.3,1.5
				c0,0-0.2,0.3-0.1,0.2c1.1-0.4,2.3-0.7,3.4-1c1.1-0.3,2.1-0.4,3.2-0.5c1.8-0.2,3.7-0.2,5.5,0c0.2,0.1,0.4,0.2,0.6,0.4
				c2.9,1.8,5.7,3.8,8.4,6c-1-0.2-2.1-0.3-3.3-0.4c-1-0.1-2-0.1-3.1,0c-1.2,0.1-2.4,0.3-3.6,0.8c0,0-0.2,0.2-0.2,0.2
				c1.2-0.2,2.4-0.2,3.5-0.3c1.1,0,2.2,0,3.2,0.2c1.7,0.2,3.4,0.6,5,1.1c0.9,0.9,1.9,1.7,2.8,2.7c2.5,2.6,4.8,5.4,7,8.3
				c0.2,0.2,0.6,0.2,0.8,0c0.2-0.2,0.2-0.4,0.2-0.6c-1.4-2.9-3.3-5.5-5.6-7.8l-0.2-0.3c-2.1-3.2-4-6.6-5.6-10.1
				c-0.6-1.3-1.1-2.6-1.6-4c0.1-1.9,0.4-3.8,0.9-5.6c0.3-1.2,0.6-2.3,1.1-3.4c0.5-1.2,1.1-2.4,1.7-3.5c0-0.1-0.2,0-0.3,0.1
				c-0.9,1-1.6,2.1-2.2,3.4c-0.5,1-0.9,2.1-1.2,3.1c-0.4,1.2-0.6,2.4-0.9,3.6c-1.2-3.6-2.2-7.2-2.8-10.9l-0.1-0.8
				c0.5-2,1.3-3.9,2.2-5.7c0.5-1.1,1.1-2.1,1.8-3.1c0.7-1.1,1.5-2.1,2.4-3.1c0.1-0.1-0.2,0-0.3,0c-1.1,0.8-2,1.7-2.8,2.8
				c-0.7,0.9-1.3,1.8-1.8,2.8c-0.7,1.2-1.2,2.4-1.7,3.7c-0.3-2.5-0.5-4.9-0.5-7.3c-0.3-3.9-0.2-7.9,0.3-11.8c0-0.1-0.2-0.1-0.2,0
				c-1.3,4.1-1.4,8.7-1.3,13c0.1,2.8,0.3,5.6,0.7,8.4c-1.3-0.6-2.4-1.4-3.5-2.3c-1.1-1-2.2-2-3.2-3.2c-0.1-0.1-0.4-0.3-0.3-0.1
				c0.8,1.5,1.8,2.9,3.1,4c1.3,1.2,2.7,2.3,4.2,3.2c0.5,3.4,1.3,6.7,2.2,10c0.9,3.1,2.1,6.2,3.5,9.1c0.5,1,1,1.9,1.5,2.9
				c-0.4-0.3-0.8-0.7-1.2-1c-2.5-1.9-5.1-3.6-7.8-5.2c-0.3-1.6-0.7-3.1-1.3-4.6c-0.5-1.5-1.3-2.8-2.4-3.9c-0.2-0.2-0.1,0.2,0,0.3
				c0.6,1.2,1.2,2.5,1.6,3.8c0.4,1.2,0.7,2.5,0.8,3.7c-2.2-1.2-4.5-2.3-6.9-3.3c-3.6-1.5-7.5-2.9-11.5-3.2c-0.1,0-0.1,0.2-0.1,0.2
				C41.2,391.4,44.6,392.6,47.8,394.2z"/>
			<path class="st4" d="M47.8,394.2c2,0.9,4,1.8,6,2.9c-1.2,0-2.5,0.1-3.7,0.3c-1,0.1-2,0.3-3,0.6c-1.2,0.3-2.3,0.8-3.3,1.5
				c0,0-0.2,0.3-0.1,0.2c1.1-0.4,2.3-0.7,3.4-1c1.1-0.3,2.1-0.4,3.2-0.5c1.8-0.2,3.7-0.2,5.5,0c0.2,0.1,0.4,0.2,0.6,0.4
				c2.9,1.8,5.7,3.8,8.4,6c-1-0.2-2.1-0.3-3.3-0.4c-1-0.1-2-0.1-3.1,0c-1.2,0.1-2.4,0.3-3.6,0.8c0,0-0.2,0.2-0.2,0.2
				c1.2-0.2,2.4-0.2,3.5-0.3c1.1,0,2.2,0,3.2,0.2c1.7,0.2,3.4,0.6,5,1.1c0.9,0.9,1.9,1.7,2.8,2.7c2.5,2.6,4.8,5.4,7,8.3
				c0.2,0.2,0.6,0.2,0.8,0c0.2-0.2,0.2-0.4,0.2-0.6c-1.4-2.9-3.3-5.5-5.6-7.8l-0.2-0.3c-2.1-3.2-4-6.6-5.6-10.1
				c-0.6-1.3-1.1-2.6-1.6-4c0.1-1.9,0.4-3.8,0.9-5.6c0.3-1.2,0.6-2.3,1.1-3.4c0.5-1.2,1.1-2.4,1.7-3.5c0-0.1-0.2,0-0.3,0.1
				c-0.9,1-1.6,2.1-2.2,3.4c-0.5,1-0.9,2.1-1.2,3.1c-0.4,1.2-0.6,2.4-0.9,3.6c-1.2-3.6-2.2-7.2-2.8-10.9l-0.1-0.8
				c0.5-2,1.3-3.9,2.2-5.7c0.5-1.1,1.1-2.1,1.8-3.1c0.7-1.1,1.5-2.1,2.4-3.1c0.1-0.1-0.2,0-0.3,0c-1.1,0.8-2,1.7-2.8,2.8
				c-0.7,0.9-1.3,1.8-1.8,2.8c-0.7,1.2-1.2,2.4-1.7,3.7c-0.3-2.5-0.5-4.9-0.5-7.3c-0.3-3.9-0.2-7.9,0.3-11.8c0-0.1-0.2-0.1-0.2,0
				c-1.3,4.1-1.4,8.7-1.3,13c0.1,2.8,0.3,5.6,0.7,8.4c-1.3-0.6-2.4-1.4-3.5-2.3c-1.1-1-2.2-2-3.2-3.2c-0.1-0.1-0.4-0.3-0.3-0.1
				c0.8,1.5,1.8,2.9,3.1,4c1.3,1.2,2.7,2.3,4.2,3.2c0.5,3.4,1.3,6.7,2.2,10c0.9,3.1,2.1,6.2,3.5,9.1c0.5,1,1,1.9,1.5,2.9
				c-0.4-0.3-0.8-0.7-1.2-1c-2.5-1.9-5.1-3.6-7.8-5.2c-0.3-1.6-0.7-3.1-1.3-4.6c-0.5-1.5-1.3-2.8-2.4-3.9c-0.2-0.2-0.1,0.2,0,0.3
				c0.6,1.2,1.2,2.5,1.6,3.8c0.4,1.2,0.7,2.5,0.8,3.7c-2.2-1.2-4.5-2.3-6.9-3.3c-3.6-1.5-7.5-2.9-11.5-3.2c-0.1,0-0.1,0.2-0.1,0.2
				C41.2,391.4,44.6,392.6,47.8,394.2z"/>
		</g>
	</g>
</g>
<g id="freepik--Shadows--inject-44">
	<ellipse id="freepik--Shadow--inject-44" class="st5" cx="363.8" cy="436" rx="71.9" ry="41.5"/>
	<ellipse id="freepik--shadow--inject-44" class="st5" cx="250" cy="436" rx="71.9" ry="41.5"/>
	
		<ellipse id="freepik--shadow--inject-44_00000181048123383198857000000017526162189609340562_" class="st5" cx="126.6" cy="432.4" rx="69.7" ry="40.3"/>
</g>
<g id="freepik--Confetti--inject-44">
	<g id="freepik--confetti--inject-44">
		<path class="st6" d="M471.8,146.8c-0.7,1.9-2.7,3.1-4.7,2.8c-1.9-0.5-3.5-1.8-4.2-3.7c-0.8-2.1-1-4.3-0.6-6.4
			c0.2-1.4,0.6-2.8,1.3-4.1c0.3,0.4,0.6,0.8,0.9,1.2c1.6,1.6,4,2.1,6,1.1c1.9-0.9,3.5-3.5,1.9-5.3s-4.5-1.7-6.5-0.8
			c-0.7,0.3-1.3,0.8-1.9,1.3c-0.1-0.7-0.2-1.4-0.1-2.1c0.5-4.6,4.4-8.1,8.7-9.2c0.3-0.1,0.1-0.6-0.2-0.6c-4.6,0.3-8.7,4.4-9.6,8.8
			c-0.3,1.4-0.2,2.8,0.2,4.2c-0.7,0.9-1.2,1.9-1.5,3c-0.8,2.5-1,5.2-0.4,7.8c0.5,2.7,2.5,5,5.1,5.9c2.6,0.7,5.7-0.7,6-3.6
			C472.2,146.8,471.9,146.5,471.8,146.8z M464.8,133.8c1.2-1.3,3.1-1.9,4.9-1.7c1,0.2,2.2,0.8,2.1,2c-0.1,0.9-0.5,1.7-1.3,2.2
			c-1.4,1-3.4,0.9-4.7-0.3c-0.6-0.5-1.1-1.1-1.4-1.9L464.8,133.8z"/>
		<path class="st6" d="M426.2,149c-2.8,0-5.1-2.3-5.1-5.1s2.3-5.1,5.1-5.1c2.8,0,5.1,2.3,5.1,5.1c0,0,0,0,0,0
			C431.3,146.7,429,149,426.2,149z M426.2,139.8c-2.3,0-4.1,1.8-4.1,4.1s1.8,4.1,4.1,4.1c2.3,0,4.1-1.8,4.1-4.1c0,0,0,0,0,0
			C430.3,141.6,428.5,139.8,426.2,139.8z"/>
		<path class="st6" d="M412.4,61.8c-2.8,0-5.1-2.3-5.1-5.1c0-2.8,2.3-5.1,5.1-5.1s5.1,2.3,5.1,5.1c0,0,0,0,0,0
			C417.5,59.6,415.2,61.8,412.4,61.8z M412.4,52.6c-2.3,0-4.1,1.8-4.1,4.1s1.8,4.1,4.1,4.1c2.3,0,4.1-1.8,4.1-4.1c0,0,0,0,0,0
			C416.5,54.5,414.6,52.6,412.4,52.6z"/>
		<path class="st7" d="M450.7,247.1c0.3,1.2,1.2,2.3,2.4,2.8c2.1,0.8,4.3,0.8,6.4-0.1c2.3-0.8,4-2.8,4.4-5.2c0.1-0.7-0.9-0.5-1,0
			c-0.7,3.3-4.3,4.8-7.4,4.5c-1.5,0-2.9-0.9-3.5-2.3c0.9-0.3,1.7-0.8,2.4-1.4c1.3-1.2,2.3-3.4,1.2-5c-0.4-0.7-1.2-1.1-2-1.2
			c-0.9,0-1.6,0.5-2,1.3c-0.8,1.6-1.2,3.3-1.2,5.1c-1.6,0.1-3.2-0.4-4.4-1.5c-2.8-2.6-2.6-7-0.8-10.1c0.2-0.3-0.4-0.4-0.6-0.2
			c-1.4,1.7-2.1,3.8-2.1,6c0.1,1.9,0.9,3.7,2.2,5.1C446.3,246.5,448.5,247.3,450.7,247.1z M453,241c0.4-0.3,1.1-0.2,1.4,0.2
			c0,0,0,0,0,0c0.8,1-0.3,2.6-1.1,3.2c-0.5,0.4-1,0.7-1.5,0.9c0-0.9,0.2-1.8,0.5-2.6C452.3,242.1,452.6,241.5,453,241z"/>
		<path class="st6" d="M29.5,71.8c0.4,2.9,3.4,4.2,6,3.6c2.6-0.9,4.6-3.1,5.1-5.8c0.6-2.6,0.4-5.3-0.4-7.8c-0.3-1.1-0.8-2.1-1.5-3
			c0.4-1.3,0.5-2.7,0.2-4.1c-1-4.4-5-8.6-9.6-8.8c-0.2,0-0.5,0.5-0.2,0.6c4.3,1.2,8.2,4.6,8.7,9.2c0.1,0.7,0.1,1.4-0.1,2.1
			c-0.6-0.5-1.2-1-1.9-1.3c-2-0.9-4.9-1-6.5,0.8s0,4.4,1.9,5.3c2,0.9,4.4,0.5,6-1.1c0.4-0.4,0.7-0.8,0.9-1.2
			c0.7,1.3,1.1,2.7,1.3,4.1c0.4,2.2,0.2,4.4-0.6,6.4c-0.7,1.8-2.3,3.2-4.2,3.7c-2,0.3-3.9-0.8-4.7-2.7
			C29.9,71.2,29.5,71.5,29.5,71.8z M37.4,58.9c-0.3,0.7-0.8,1.3-1.4,1.9c-1.3,1.2-3.2,1.3-4.7,0.3c-0.8-0.5-1.2-1.3-1.3-2.2
			c0-1.2,1.1-1.8,2.1-2c1.8-0.3,3.6,0.3,4.9,1.6L37.4,58.9z"/>
		<path class="st6" d="M35.9,139.1c0-2.8,2.3-5.1,5.1-5.1c2.8,0,5.1,2.3,5.1,5.1c0,2.8-2.3,5.1-5.1,5.1c0,0,0,0,0,0
			C38.2,144.1,35.9,141.9,35.9,139.1z M36.9,139.1c0,2.3,1.8,4.1,4.1,4.1c2.3,0,4.1-1.8,4.1-4.1c0-2.3-1.8-4.1-4.1-4.1c0,0,0,0,0,0
			C38.7,135,36.9,136.8,36.9,139.1z"/>
		<path class="st6" d="M111,59.7c0-2.8,2.3-5.1,5.1-5.1c2.8,0,5.1,2.3,5.1,5.1c0,2.8-2.3,5.1-5.1,5.1c0,0,0,0,0,0
			C113.3,64.8,111,62.6,111,59.7z M112,59.7c0,2.3,1.8,4.1,4.1,4.1c2.3,0,4.1-1.8,4.1-4.1c0-2.3-1.8-4.1-4.1-4.1S112,57.5,112,59.7
			L112,59.7z"/>
		<path class="st7" d="M53,244.8c0.6-1.8,0.4-3.8-0.3-5.6c-0.9-2-2.6-3.6-4.7-4.4c-0.2-0.1-0.7,0.2-0.4,0.4c3,2,5.2,5.8,3.9,9.4
			c-0.6,1.5-1.7,2.7-3.2,3.3c-0.7-1.6-1.9-3-3.3-4c-0.7-0.5-1.6-0.6-2.4-0.2c-0.7,0.4-1.2,1.1-1.2,1.9c-0.2,1.9,1.7,3.4,3.3,3.9
			c0.9,0.3,1.8,0.3,2.8,0.2c0.1,1.5-0.7,2.9-2,3.6c-2.6,1.7-6.5,2-8.6-0.6c-0.3-0.4-1.3-0.1-0.9,0.4c1.5,1.9,3.9,3,6.3,2.6
			c2.2-0.2,4.2-1.2,5.7-2.8c0.8-1,1.1-2.3,0.9-3.6C50.8,248.6,52.4,246.9,53,244.8z M45.4,246.2c0.6,0.6,1.2,1.3,1.6,2.1
			c-0.6,0.1-1.2,0.1-1.8-0.1c-1-0.2-2.7-1.1-2.4-2.4c0.1-0.5,0.6-0.9,1.1-0.9c0,0,0,0,0,0C44.5,245.3,45,245.7,45.4,246.2
			L45.4,246.2z"/>
	</g>
</g>
<g id="freepik--Symbols--inject-44">
	<g id="freepik--Alert--inject-44">
		<path class="st6" d="M436.6,193.6l-4-1.1c-0.7-0.2-1.2-0.8-1.1-1.6l4.8-23.6c0.2-0.6,0.8-1,1.5-0.9c0,0,0.1,0,0.1,0l7.6,2.1
			c0.6,0.1,1.1,0.7,1,1.3c0,0,0,0.1,0,0.1l-8.1,22.9C438,193.6,437.3,193.9,436.6,193.6z"/>
		<path class="st6" d="M431.5,204.3c-2.3-0.6-3.6-3-2.9-5.2s3-3.6,5.2-2.9c2.3,0.6,3.6,3,2.9,5.2c0,0,0,0,0,0
			C436.1,203.6,433.8,204.9,431.5,204.3C431.5,204.3,431.5,204.3,431.5,204.3z"/>
	</g>
	<g id="freepik--alert--inject-44">
		<path class="st7" d="M444.6,108l-2.9-3c-0.5-0.5-0.6-1.3-0.1-1.9l16.2-17.9c0.5-0.5,1.2-0.5,1.7,0c0,0,0.1,0.1,0.1,0.1l5.4,5.6
			c0.5,0.4,0.5,1.2,0.1,1.6c0,0,0,0-0.1,0.1l-18.6,15.6C445.9,108.6,445.1,108.5,444.6,108z"/>
		<path class="st7" d="M434.8,114.5c-1.6-1.7-1.6-4.4,0.1-6c1.7-1.6,4.4-1.6,6,0.1c1.6,1.7,1.6,4.4-0.1,6
			C439.1,116.3,436.4,116.2,434.8,114.5C434.8,114.5,434.8,114.5,434.8,114.5z"/>
	</g>
	<g id="freepik--alert--inject-44_00000178178957781838526030000015587200262167091862_">
		<path class="st6" d="M453.7,306.5l-3.4-2.4c-0.6-0.4-0.8-1.2-0.5-1.8l12.5-20.6c0.4-0.5,1.1-0.7,1.7-0.3c0,0,0.1,0,0.1,0.1
			l6.4,4.5c0.6,0.3,0.8,1,0.4,1.6c0,0,0,0.1-0.1,0.1l-15.3,18.8C455.1,306.9,454.3,307,453.7,306.5z"/>
		<path class="st6" d="M445.3,314.9c-1.9-1.4-2.4-4-1-5.9c1.4-1.9,4-2.4,5.9-1c1.9,1.4,2.4,4,1,5.9c0,0,0,0,0,0
			C449.9,315.8,447.3,316.2,445.3,314.9C445.4,314.9,445.3,314.9,445.3,314.9z"/>
	</g>
	<g id="freepik--alert--inject-44_00000065777630052073911440000016887189937670553729_">
		<path class="st7" d="M479.2,216.8l-3.1,0.6c-0.5,0.1-1.1-0.2-1.3-0.7l-5-17.6c-0.1-0.5,0.2-1,0.7-1.1c0,0,0.1,0,0.1,0l5.9-1.2
			c0.5-0.1,1,0.1,1.1,0.6c0,0,0,0.1,0,0.1l2.5,18.3C480.1,216.3,479.7,216.8,479.2,216.8z"/>
		<path class="st7" d="M479.4,225.8c-1.7,0.4-3.4-0.8-3.8-2.5s0.8-3.4,2.5-3.8c1.7-0.4,3.4,0.7,3.8,2.5
			C482.3,223.8,481.2,225.5,479.4,225.8C479.4,225.8,479.4,225.8,479.4,225.8z"/>
	</g>
	<g id="freepik--alert--inject-44_00000026128682023097243070000008279238237968805027_">
		<path class="st7" d="M347,69.3l-3.1,0.7c-0.5,0.1-1.1-0.2-1.3-0.7l-5-17.6c-0.1-0.5,0.2-1,0.7-1.1c0,0,0.1,0,0.1,0l5.9-1.2
			c0.5-0.2,1,0.1,1.1,0.6c0,0,0,0,0,0.1l2.5,18.3C347.9,68.8,347.5,69.3,347,69.3z"/>
		<path class="st7" d="M347.3,78.3c-1.7,0.4-3.4-0.7-3.8-2.5s0.7-3.4,2.5-3.8c1.7-0.4,3.4,0.7,3.8,2.5c0,0,0,0,0,0
			C350.1,76.2,349,77.9,347.3,78.3C347.3,78.3,347.3,78.3,347.3,78.3z"/>
	</g>
	<g id="freepik--alert--inject-44_00000173133053910895821290000002064689007899233450_">
		<path class="st6" d="M436.5,70.1l-3-1c-0.5-0.2-0.8-0.7-0.7-1.2l4.6-17.7c0.2-0.5,0.7-0.7,1.1-0.6c0,0,0.1,0,0.1,0l5.7,1.9
			c0.5,0.1,0.8,0.6,0.7,1.1c0,0,0,0.1,0,0.1l-7.1,17C437.5,70.1,437,70.3,436.5,70.1z"/>
		<path class="st6" d="M432.1,78c-1.7-0.6-2.6-2.4-2-4.1s2.4-2.6,4.1-2s2.6,2.4,2,4.1c0,0,0,0,0,0C435.6,77.7,433.8,78.6,432.1,78
			C432.1,78,432.1,78,432.1,78z"/>
	</g>
	<g id="freepik--alert--inject-44_00000044162283136852276260000001411156706455209865_">
		<path class="st6" d="M51.8,186.7l4,1.2c0.7,0.2,1.4-0.1,1.7-0.8l8.3-22.6c0.2-0.6-0.2-1.3-0.8-1.5c0,0-0.1,0-0.1,0l-7.6-2.2
			c-0.6-0.2-1.3,0-1.5,0.6c0,0,0,0.1,0,0.1l-5.1,23.7C50.6,185.9,51.1,186.5,51.8,186.7z"/>
		<path class="st6" d="M50.5,198.5c2.2,0.7,4.6-0.6,5.3-2.9s-0.6-4.6-2.9-5.3c-2.2-0.7-4.6,0.6-5.3,2.9
			C47,195.5,48.3,197.8,50.5,198.5C50.5,198.5,50.5,198.5,50.5,198.5z"/>
	</g>
	<g id="freepik--alert--inject-44_00000115512304452398219390000010769215032331285163_">
		<path class="st7" d="M72.4,118.8l2.9-3c0.5-0.5,0.6-1.3,0.1-1.9L59.2,96c-0.5-0.5-1.2-0.5-1.7,0c0,0-0.1,0.1-0.1,0.1l-5.4,5.7
			c-0.5,0.4-0.5,1.2-0.1,1.7c0,0,0,0,0.1,0.1L70.5,119C71.1,119.4,71.9,119.3,72.4,118.8z"/>
		<path class="st7" d="M82.2,125.3c1.6-1.7,1.6-4.4-0.1-6c-1.7-1.6-4.4-1.6-6,0.1c-1.6,1.7-1.6,4.4,0.1,6
			C77.9,127.1,80.5,127,82.2,125.3C82.2,125.4,82.2,125.4,82.2,125.3z"/>
	</g>
	<g id="freepik--alert--inject-44_00000137110607894593774750000003240610003084338870_">
		<path class="st6" d="M39,304.5l3.5-2.2c0.6-0.4,0.9-1.1,0.6-1.8L32,279.1c-0.3-0.6-1.1-0.8-1.6-0.4c0,0-0.1,0-0.1,0.1l-6.7,4.1
			c-0.6,0.3-0.8,1-0.5,1.6c0,0,0,0.1,0,0.1l14.1,19.7C37.7,304.8,38.5,304.9,39,304.5z"/>
		<path class="st6" d="M46.9,313.4c2-1.2,2.6-3.8,1.4-5.8c-1.2-2-3.8-2.6-5.8-1.4c-2,1.2-2.6,3.8-1.4,5.8c0,0,0,0,0,0
			C42.3,314,44.9,314.6,46.9,313.4C46.9,313.4,46.9,313.4,46.9,313.4z"/>
	</g>
	<g id="freepik--alert--inject-44_00000124869215038297949060000012703416704627285138_">
		<path class="st7" d="M32.2,202.5l3.1-0.8c0.5-0.1,0.9-0.6,0.8-1.2l-3.3-18c-0.1-0.5-0.6-0.8-1.1-0.7c0,0,0,0-0.1,0l-5.8,1.5
			c-0.5,0.1-0.8,0.5-0.7,1c0,0,0,0.1,0,0.1l5.8,17.5C31.2,202.4,31.7,202.6,32.2,202.5z"/>
		<path class="st7" d="M36,210.7c1.7-0.5,2.7-2.3,2.2-4s-2.3-2.7-4-2.2c-1.7,0.5-2.7,2.2-2.2,3.9c0.4,1.7,2.1,2.8,3.9,2.4
			C35.9,210.7,36,210.7,36,210.7z"/>
	</g>
	<g id="freepik--alert--inject-44_00000036231366236207381900000009652423593143482559_">
		<path class="st7" d="M159.2,70.1l2.7-1.7c0.5-0.3,0.7-0.9,0.4-1.4l-8.8-16.1c-0.3-0.4-0.8-0.6-1.3-0.3c0,0,0,0-0.1,0l-5,3.2
			c-0.4,0.2-0.6,0.8-0.4,1.2c0,0,0,0,0,0.1l11.1,14.8C158.2,70.3,158.8,70.4,159.2,70.1z"/>
		<path class="st7" d="M165.3,76.7c1.5-1,1.9-2.9,1-4.4c-1-1.5-2.9-1.9-4.4-1c-1.5,1-1.9,2.9-1,4.4
			C161.8,77.1,163.8,77.6,165.3,76.7C165.3,76.7,165.3,76.7,165.3,76.7z"/>
	</g>
	<g id="freepik--alert--inject-44_00000034065646100385239690000015429776864631798661_">
		<path class="st6" d="M81.9,84.5l3.1,0.4c0.5,0.1,1.1-0.2,1.2-0.8l3.7-18c0.1-0.5-0.3-0.9-0.8-1c0,0,0,0,0,0l-5.9-0.8
			c-0.5-0.1-1,0.2-1.1,0.7c0,0,0,0.1,0,0.1l-1.2,18.4C80.9,84,81.3,84.5,81.9,84.5z"/>
		<path class="st6" d="M82.3,93.5c1.8,0.2,3.4-1,3.6-2.8c0.2-1.8-1-3.4-2.8-3.6c-1.8-0.2-3.4,1-3.6,2.8
			C79.2,91.6,80.5,93.2,82.3,93.5C82.2,93.5,82.2,93.5,82.3,93.5z"/>
	</g>
</g>
<g id="freepik--Sunburst--inject-44">
	<g id="freepik--Sparkles--inject-44">
		<path class="st1" d="M249.4,240.9c-1.6-3.5-1.7-7-1.7-10.6l-0.1-10.6c-0.1-7-0.1-14.1-0.1-21.1c0.1-14.1,0.3-28.2,0.5-42.3
			s0.4-28.2,0.8-42.3l0.5-21.2c0.2-7.1,0.4-14.1,0.6-21.1h0.3c0.3,7,0.4,14.1,0.6,21.1l0.5,21.2c0.3,14.1,0.5,28.2,0.8,42.3
			s0.4,28.2,0.5,42.3c0,7.1,0,14.1-0.1,21.1l-0.1,10.6c0,3.5-0.1,7.1-1.7,10.6L249.4,240.9z"/>
		<path class="st1" d="M249.4,241c-2.2-3.2-2.9-6.6-3.5-10.1l-2-10.4c-1.3-6.9-2.5-13.9-3.7-20.8c-2.4-13.9-4.6-27.8-6.9-41.7
			s-4.5-27.8-6.6-41.8l-3.1-20.9c-1-7-2.1-14-3-20.9h0.3c1.5,6.9,2.9,13.8,4.3,20.7l4.2,20.7c2.8,13.8,5.4,27.7,8.1,41.5
			s5.3,27.7,7.8,41.6c1.2,6.9,2.5,13.9,3.6,20.8l1.7,10.4c0.6,3.5,1.1,7,0.2,10.7L249.4,241z"/>
		<path class="st1" d="M249.4,241.1c-2.7-2.8-4-6-5.2-9.4l-3.7-9.9c-2.5-6.6-4.9-13.2-7.3-19.8c-4.8-13.3-9.4-26.6-14-39.9
			s-9.2-26.6-13.8-40l-6.8-20c-2.2-6.7-4.5-13.4-6.6-20.1l0.3-0.1c2.7,6.5,5.2,13.1,7.8,19.7l7.7,19.7c5.1,13.1,10.1,26.3,15.2,39.5
			s10,26.4,14.9,39.6c2.4,6.6,4.9,13.2,7.2,19.9l3.5,10c1.2,3.3,2.3,6.7,2,10.5L249.4,241.1z"/>
		<path class="st1" d="M249.4,241.2c-3.1-2.3-5-5.2-6.8-8.3l-5.4-9.1c-3.6-6-7.1-12.2-10.6-18.3c-7-12.2-13.9-24.6-20.7-36.9
			s-13.7-24.6-20.5-37l-10.2-18.6c-3.3-6.2-6.7-12.4-10-18.6l0.3-0.2c3.8,6,7.4,12,11.1,18l11,18.1c7.3,12,14.5,24.2,21.8,36.2
			s14.5,24.2,21.6,36.4c3.5,6.1,7.1,12.2,10.5,18.4l5.2,9.2c1.8,3.1,3.4,6.2,3.8,10L249.4,241.2z"/>
		<path class="st1" d="M249.5,241.3c-3.5-1.7-5.8-4.3-8.1-7l-6.9-8c-4.6-5.3-9.1-10.8-13.6-16.1c-9-10.9-17.9-21.8-26.8-32.7
			s-17.8-21.9-26.6-32.9L154.2,128c-4.4-5.5-8.8-11.1-13.1-16.6l0.2-0.2c4.7,5.2,9.4,10.5,14.1,15.8l14,15.9
			c9.3,10.6,18.5,21.3,27.8,31.9s18.4,21.3,27.6,32.1c4.5,5.4,9.1,10.8,13.5,16.2l6.7,8.2c2.3,2.7,4.4,5.5,5.5,9.2L249.5,241.3z"/>
		<path class="st1" d="M249.6,241.4c-3.7-1.1-6.5-3.2-9.2-5.5l-8.2-6.7c-5.5-4.4-10.9-9-16.2-13.5c-10.8-9.1-21.4-18.3-32.1-27.6
			s-21.3-18.5-31.9-27.8l-15.9-14c-5.3-4.7-10.6-9.4-15.8-14.1l0.2-0.2c5.6,4.3,11.1,8.7,16.6,13.1l16.5,13.2
			c11,8.8,21.9,17.8,32.9,26.6s21.9,17.8,32.7,26.8c5.4,4.5,10.8,9,16.2,13.6l8,6.9c2.7,2.3,5.3,4.6,7,8.1L249.6,241.4z"/>
		<path class="st1" d="M249.7,241.4c-3.8-0.4-7-2.1-10-3.8l-9.2-5.2c-6.2-3.4-12.2-7-18.4-10.5c-12.2-7.1-24.3-14.3-36.4-21.6
			s-24.2-14.5-36.3-21.8l-18.1-11c-6-3.7-12-7.4-18-11.1l0.2-0.3c6.2,3.3,12.4,6.7,18.6,10l18.6,10.1c12.4,6.8,24.7,13.7,37,20.5
			s24.6,13.7,36.9,20.7c6.1,3.5,12.2,7,18.3,10.6l9.1,5.4c3.1,1.8,6.1,3.6,8.3,6.8L249.7,241.4z"/>
		<path class="st1" d="M249.8,241.5c-3.9,0.3-7.2-0.8-10.5-2l-10-3.5c-6.7-2.3-13.3-4.8-19.9-7.2c-13.2-4.9-26.4-9.9-39.6-14.9
			s-26.4-10-39.5-15.2l-19.7-7.7c-6.6-2.6-13.1-5.2-19.7-7.8l0.1-0.3c6.7,2.2,13.4,4.4,20.1,6.6l20,6.8c13.4,4.5,26.7,9.2,40,13.8
			s26.6,9.2,39.9,14c6.6,2.4,13.3,4.8,19.8,7.3l9.9,3.7c3.3,1.2,6.6,2.5,9.4,5.2L249.8,241.5z"/>
		<path class="st1" d="M249.9,241.5c-3.8,0.9-7.2,0.4-10.7-0.2l-10.4-1.7c-7-1.1-13.9-2.4-20.8-3.6c-13.9-2.5-27.7-5.2-41.6-7.8
			s-27.7-5.3-41.5-8.1l-20.7-4.1c-6.9-1.4-13.8-2.8-20.7-4.3l0.1-0.3c7,1,14,2,20.9,3l20.9,3.2c13.9,2.1,27.9,4.4,41.8,6.6
			s27.8,4.5,41.7,6.9c6.9,1.2,13.9,2.4,20.8,3.7l10.4,2c3.5,0.6,6.9,1.4,10.1,3.5L249.9,241.5z"/>
		<path class="st1" d="M250,241.5c-3.5,1.6-7.1,1.7-10.6,1.7l-10.6,0.1c-7,0.1-14.1,0.1-21.1,0.1c-14.1-0.1-28.2-0.3-42.3-0.5
			s-28.2-0.4-42.3-0.8l-21.1-0.5c-7-0.2-14.1-0.4-21.2-0.6v-0.3c7-0.3,14.1-0.4,21.2-0.6l21.2-0.5c14.1-0.3,28.2-0.5,42.3-0.7
			s28.2-0.4,42.3-0.5c7,0,14.1,0,21.1,0.1l10.6,0.1c3.5,0,7,0.1,10.6,1.7L250,241.5z"/>
		<path class="st1" d="M250.1,241.5c-3.2,2.2-6.6,2.9-10.1,3.5l-10.4,2c-6.9,1.3-13.9,2.5-20.8,3.7c-13.9,2.4-27.8,4.6-41.7,6.9
			s-27.8,4.5-41.8,6.6l-20.9,3.2c-7,1-14,2.1-20.9,3l-0.1-0.3c6.9-1.5,13.8-2.9,20.7-4.3l20.7-4.2c13.8-2.8,27.7-5.4,41.5-8.1
			s27.7-5.3,41.6-7.8c6.9-1.2,13.9-2.5,20.8-3.6l10.4-1.7c3.5-0.6,7-1.1,10.7-0.2L250.1,241.5z"/>
		<path class="st1" d="M250.2,241.5c-2.8,2.7-6,4-9.4,5.2l-9.9,3.7c-6.6,2.5-13.2,4.9-19.8,7.3c-13.3,4.8-26.6,9.4-39.9,14
			s-26.6,9.2-40,13.8l-20,6.8c-6.7,2.2-13.4,4.5-20.1,6.6l-0.1-0.3c6.5-2.7,13.1-5.2,19.7-7.8l19.7-7.7
			c13.1-5.1,26.3-10.1,39.5-15.2s26.4-10,39.6-14.9c6.6-2.4,13.2-4.9,19.9-7.2l10-3.5c3.3-1.2,6.7-2.3,10.5-2L250.2,241.5z"/>
		<path class="st1" d="M250.3,241.4c-2.3,3.1-5.2,5-8.3,6.8l-9.1,5.4c-6,3.6-12.2,7.1-18.3,10.6c-12.2,7-24.6,13.9-36.9,20.7
			s-24.6,13.7-37,20.5l-18.6,10.2c-6.2,3.3-12.4,6.7-18.6,10l-0.2-0.3c6-3.8,12-7.4,18-11.1l18.1-11c12.1-7.3,24.2-14.5,36.3-21.8
			s24.2-14.5,36.4-21.6c6.1-3.5,12.2-7.1,18.4-10.5l9.2-5.2c3.1-1.8,6.2-3.4,10-3.8L250.3,241.4z"/>
		<path class="st1" d="M250.4,241.4c-1.7,3.5-4.3,5.8-7,8.1l-8,6.9c-5.3,4.6-10.8,9.1-16.2,13.6c-10.8,9-21.8,17.9-32.7,26.8
			s-21.9,17.8-32.9,26.6l-16.5,13.2c-5.5,4.4-11,8.8-16.6,13.1l-0.2-0.2c5.2-4.7,10.5-9.4,15.8-14.1l15.9-14
			c10.6-9.3,21.3-18.5,31.9-27.8s21.3-18.4,32.1-27.6c5.4-4.5,10.8-9.1,16.2-13.5l8.2-6.7c2.7-2.3,5.5-4.4,9.2-5.5L250.4,241.4z"/>
		<path class="st1" d="M250.5,241.3c-1.1,3.7-3.2,6.5-5.5,9.2l-6.7,8.2c-4.4,5.5-9,10.9-13.5,16.2c-9.1,10.8-18.4,21.4-27.6,32.1
			s-18.4,21.3-27.8,31.9l-14,15.9c-4.7,5.3-9.4,10.5-14.1,15.8l-0.2-0.2c4.3-5.6,8.7-11.1,13.1-16.6l13.2-16.5
			c8.8-11,17.8-21.9,26.6-32.9s17.8-21.9,26.8-32.7c4.5-5.4,9-10.8,13.6-16.1l6.9-8c2.3-2.7,4.6-5.3,8.1-7L250.5,241.3z"/>
		<path class="st1" d="M250.6,241.2c-0.4,3.8-2.1,7-3.8,10l-5.2,9.2c-3.4,6.2-7,12.2-10.5,18.4c-7.1,12.2-14.4,24.3-21.6,36.4
			s-14.5,24.2-21.8,36.3l-11,18.1c-3.7,6-7.4,12-11.1,18l-0.3-0.2c3.3-6.2,6.7-12.4,10-18.6l10.1-18.6c6.8-12.4,13.7-24.7,20.5-37
			s13.7-24.6,20.7-36.9c3.5-6.1,7-12.2,10.6-18.3l5.4-9.1c1.8-3.1,3.6-6,6.8-8.3L250.6,241.2z"/>
		<path class="st1" d="M250.6,241.1c0.3,3.9-0.8,7.2-2,10.5l-3.5,10c-2.3,6.7-4.8,13.3-7.2,19.9c-4.9,13.2-9.9,26.4-14.9,39.5
			s-10,26.4-15.2,39.5l-7.7,19.7c-2.6,6.5-5.2,13.1-7.8,19.6l-0.3-0.1c2.2-6.7,4.4-13.4,6.6-20.1l6.8-20c4.5-13.4,9.2-26.7,13.8-40
			s9.2-26.6,14-39.9c2.4-6.6,4.8-13.3,7.3-19.8l3.7-9.9c1.2-3.3,2.5-6.6,5.2-9.4L250.6,241.1z"/>
		<path class="st1" d="M250.6,241c0.9,3.8,0.4,7.2-0.2,10.7l-1.7,10.4c-1.1,7-2.4,13.9-3.6,20.8c-2.5,13.9-5.2,27.7-7.8,41.6
			s-5.3,27.7-8.1,41.5l-4.2,20.7c-1.4,6.9-2.8,13.8-4.3,20.7l-0.3,0c1-7,2-14,3-20.9l3.2-20.9c2.1-13.9,4.4-27.9,6.6-41.8
			s4.5-27.8,6.9-41.7c1.2-6.9,2.4-13.9,3.7-20.8l2-10.4c0.6-3.5,1.3-6.9,3.5-10.1L250.6,241z"/>
		<path class="st1" d="M250.6,240.9c1.6,3.5,1.7,7.1,1.7,10.6l0.1,10.6c0.1,7,0.1,14.1,0.1,21.1c-0.1,14.1-0.3,28.2-0.5,42.3
			s-0.4,28.2-0.8,42.3l-0.5,21.1c-0.2,7-0.4,14.1-0.6,21.1h-0.3c-0.3-7-0.4-14.1-0.6-21.1l-0.5-21.1c-0.3-14.1-0.5-28.2-0.8-42.3
			s-0.4-28.2-0.5-42.3c0-7,0-14.1,0.1-21.1l0.1-10.6c0-3.5,0.1-7.1,1.7-10.6L250.6,240.9z"/>
		<path class="st1" d="M250.6,240.8c2.2,3.2,2.9,6.6,3.5,10.1l2,10.4c1.3,6.9,2.5,13.9,3.7,20.8c2.4,13.9,4.6,27.8,6.9,41.7
			s4.5,27.8,6.6,41.8l3.2,20.9c1,7,2.1,14,3,20.9l-0.3,0c-1.5-6.9-2.9-13.8-4.3-20.7l-4.2-20.7c-2.8-13.8-5.4-27.7-8.1-41.5
			s-5.3-27.7-7.8-41.6c-1.2-6.9-2.5-13.9-3.6-20.8l-1.7-10.4c-0.6-3.5-1.1-7-0.2-10.7L250.6,240.8z"/>
		<path class="st1" d="M250.6,240.7c2.7,2.8,4,6,5.2,9.4l3.7,9.9c2.5,6.6,4.9,13.2,7.3,19.8c4.8,13.3,9.4,26.6,14,39.9
			s9.2,26.6,13.8,40l6.8,20c2.2,6.7,4.5,13.4,6.6,20.1l-0.3,0.1c-2.7-6.5-5.2-13.1-7.8-19.6l-7.7-19.7
			c-5.1-13.1-10.1-26.3-15.2-39.5s-10-26.4-14.9-39.6c-2.4-6.6-4.9-13.2-7.2-19.9l-3.5-10c-1.2-3.3-2.3-6.7-2-10.5L250.6,240.7z"/>
		<path class="st1" d="M250.6,240.6c3.1,2.3,5,5.2,6.8,8.3l5.4,9.1c3.6,6,7.1,12.2,10.6,18.3c7,12.2,13.9,24.6,20.7,36.9
			s13.7,24.6,20.5,37l10.1,18.6c3.3,6.2,6.7,12.4,10,18.6l-0.3,0.2c-3.8-6-7.4-12-11.1-18l-11-18.1c-7.3-12-14.5-24.2-21.8-36.3
			S276.1,291,269,278.8c-3.5-6.1-7.1-12.2-10.5-18.4l-5.2-9.2c-1.8-3.1-3.4-6.2-3.8-10L250.6,240.6z"/>
		<path class="st1" d="M250.5,240.5c3.5,1.7,5.8,4.3,8.1,7l6.9,8c4.6,5.3,9.1,10.7,13.6,16.2c9,10.8,17.9,21.8,26.8,32.7
			s17.8,21.9,26.6,32.9l13.2,16.5c4.4,5.5,8.8,11,13.1,16.6l-0.2,0.2c-4.7-5.2-9.4-10.5-14.1-15.8l-14-15.9
			c-9.3-10.6-18.5-21.3-27.8-31.9s-18.5-21.3-27.6-32.1c-4.5-5.4-9.1-10.8-13.5-16.2l-6.7-8.2c-2.3-2.7-4.4-5.5-5.5-9.2L250.5,240.5
			z"/>
		<path class="st1" d="M250.4,240.4c3.7,1.1,6.5,3.2,9.2,5.5l8.2,6.7c5.5,4.4,10.9,9,16.2,13.5c10.8,9.1,21.4,18.4,32.1,27.6
			s21.3,18.5,31.9,27.8l15.9,14c5.3,4.7,10.5,9.4,15.8,14.1l-0.2,0.2c-5.6-4.3-11.1-8.7-16.6-13.1l-16.5-13.2
			c-11-8.8-21.9-17.8-32.9-26.6S291.6,279,280.8,270c-5.4-4.5-10.8-9-16.2-13.6l-8-6.9c-2.7-2.3-5.3-4.6-7-8.1L250.4,240.4z"/>
		<path class="st1" d="M250.3,240.3c3.8,0.4,7,2.1,10,3.8l9.2,5.2c6.2,3.4,12.2,7,18.4,10.5c12.2,7.1,24.3,14.4,36.4,21.6
			s24.2,14.5,36.3,21.8l18.1,11c6,3.7,12,7.4,18,11.1l-0.2,0.3c-6.2-3.3-12.4-6.7-18.6-10l-18.6-10.1c-12.4-6.8-24.7-13.7-37-20.5
			s-24.6-13.7-36.9-20.7c-6.1-3.5-12.2-7-18.3-10.6l-9.1-5.4c-3.1-1.8-6.1-3.6-8.3-6.8L250.3,240.3z"/>
		<path class="st1" d="M250.2,240.3c3.9-0.3,7.2,0.8,10.5,2l10,3.5c6.7,2.3,13.3,4.8,19.9,7.2c13.2,4.9,26.4,9.9,39.6,14.9
			s26.4,10,39.5,15.2l19.7,7.7c6.5,2.6,13.1,5.2,19.6,7.8l-0.1,0.3c-6.7-2.2-13.4-4.4-20.1-6.6l-20-6.8c-13.4-4.5-26.7-9.2-40-13.8
			s-26.6-9.2-39.9-14c-6.6-2.4-13.3-4.8-19.8-7.3l-9.9-3.7c-3.3-1.2-6.6-2.5-9.4-5.2L250.2,240.3z"/>
		<path class="st1" d="M250.1,240.2c3.8-0.9,7.2-0.4,10.7,0.2l10.4,1.7c7,1.1,13.9,2.4,20.8,3.6c13.9,2.5,27.7,5.2,41.6,7.8
			c13.8,2.6,27.7,5.3,41.5,8.1l20.7,4.2c6.9,1.4,13.8,2.8,20.7,4.3l0,0.3c-7-1-14-2-20.9-3l-20.9-3.2c-13.9-2.1-27.9-4.4-41.8-6.6
			s-27.8-4.5-41.7-6.9c-6.9-1.2-13.9-2.4-20.8-3.7l-10.4-2c-3.5-0.6-6.9-1.3-10.1-3.5L250.1,240.2z"/>
		<path class="st1" d="M250,240.2c3.5-1.6,7-1.7,10.6-1.7l10.6-0.1c7-0.1,14.1-0.1,21.1-0.1c14.1,0.1,28.2,0.3,42.3,0.5
			s28.2,0.4,42.3,0.7l21.1,0.5c7,0.2,14.1,0.4,21.1,0.6v0.3c-7,0.3-14.1,0.4-21.1,0.6l-21.1,0.5c-14.1,0.3-28.2,0.5-42.3,0.8
			s-28.2,0.4-42.3,0.5c-7,0-14.1,0-21.1-0.1l-10.6-0.1c-3.5,0-7-0.1-10.6-1.7L250,240.2z"/>
		<path class="st1" d="M249.9,240.2c3.2-2.1,6.6-2.9,10.1-3.5l10.4-2c6.9-1.3,13.9-2.5,20.8-3.7c13.9-2.4,27.8-4.6,41.7-6.9
			s27.8-4.5,41.8-6.6l20.9-3.2c7-1,14-2.1,20.9-3l0,0.3c-6.9,1.5-13.8,2.9-20.7,4.3l-20.7,4.2c-13.8,2.8-27.7,5.4-41.5,8.1
			s-27.7,5.3-41.6,7.8c-6.9,1.2-13.9,2.5-20.8,3.6l-10.4,1.7c-3.5,0.6-7,1.1-10.7,0.2L249.9,240.2z"/>
		<path class="st1" d="M249.8,240.3c2.8-2.7,6-4,9.4-5.2l9.9-3.7c6.6-2.5,13.2-4.9,19.8-7.3c13.3-4.8,26.6-9.4,39.9-14
			s26.6-9.2,40-13.8l20-6.8c6.7-2.2,13.4-4.5,20.1-6.6l0.1,0.3c-6.5,2.7-13.1,5.2-19.6,7.8l-19.7,7.7c-13.1,5.1-26.3,10.1-39.5,15.2
			s-26.4,10-39.6,14.9c-6.6,2.4-13.2,4.9-19.9,7.2l-10,3.5c-3.3,1.2-6.7,2.3-10.5,2L249.8,240.3z"/>
		<path class="st1" d="M249.7,240.3c2.3-3.1,5.2-5,8.3-6.8l9.1-5.4c6-3.6,12.2-7.1,18.3-10.6c12.2-7,24.6-13.9,36.9-20.7
			s24.6-13.7,37-20.5l18.6-10.1c6.2-3.3,12.4-6.7,18.6-10l0.2,0.3c-6,3.8-12,7.4-18,11.1l-18.1,11c-12,7.3-24.2,14.5-36.3,21.8
			s-24.2,14.5-36.4,21.6c-6.1,3.5-12.2,7.1-18.4,10.5l-9.2,5.2c-3.1,1.8-6.2,3.4-10,3.8L249.7,240.3z"/>
		<path class="st1" d="M249.6,240.4c1.7-3.5,4.3-5.8,7-8.1l8-6.9c5.3-4.6,10.8-9.1,16.2-13.6c10.8-9,21.8-17.9,32.7-26.8
			s21.9-17.8,32.9-26.6l16.5-13.2c5.5-4.4,11-8.8,16.6-13.1l0.2,0.2c-5.2,4.7-10.5,9.4-15.8,14.1l-15.9,14
			c-10.6,9.3-21.3,18.5-31.9,27.8s-21.3,18.4-32.1,27.5c-5.4,4.5-10.8,9.1-16.2,13.5l-8.2,6.7c-2.7,2.3-5.5,4.4-9.2,5.5L249.6,240.4
			z"/>
		<path class="st1" d="M249.5,240.5c1.1-3.7,3.2-6.5,5.5-9.2l6.7-8.2c4.4-5.5,9-10.9,13.5-16.2c9.1-10.8,18.3-21.4,27.6-32.1
			s18.5-21.3,27.8-31.9l14-15.9c4.7-5.3,9.4-10.6,14.1-15.8l0.2,0.2c-4.3,5.6-8.7,11.1-13.1,16.6l-13.2,16.5
			c-8.8,11-17.8,21.9-26.6,32.9s-17.8,21.9-26.8,32.7c-4.5,5.4-9,10.8-13.6,16.1l-6.9,8c-2.3,2.7-4.6,5.3-8.1,7L249.5,240.5z"/>
		<path class="st1" d="M249.4,240.6c0.4-3.8,2.1-6.9,3.8-10l5.2-9.2c3.4-6.2,7-12.2,10.5-18.4c7.1-12.2,14.4-24.3,21.6-36.4
			s14.5-24.2,21.8-36.2l11-18.1c3.7-6,7.4-12,11.1-18l0.3,0.2c-3.3,6.2-6.7,12.4-10,18.6l-10.1,18.6c-6.8,12.4-13.7,24.7-20.5,37
			s-13.7,24.6-20.7,36.9c-3.5,6.1-7,12.2-10.6,18.3l-5.4,9.1c-1.8,3.1-3.6,6-6.8,8.3L249.4,240.6z"/>
		<path class="st1" d="M249.4,240.7c-0.3-3.9,0.8-7.2,2-10.5l3.5-10c2.3-6.7,4.8-13.3,7.2-19.9c5-13.2,10-26.4,15-39.5
			s10-26.4,15.2-39.5l7.7-19.7c2.6-6.6,5.2-13.1,7.8-19.7L308,82c-2.2,6.7-4.4,13.4-6.6,20.1l-6.8,20c-4.5,13.4-9.2,26.7-13.8,40
			s-9.2,26.6-14,39.9c-2.4,6.6-4.8,13.3-7.3,19.8l-3.7,9.9c-1.2,3.3-2.5,6.6-5.2,9.4L249.4,240.7z"/>
		<path class="st1" d="M249.4,240.8c-0.9-3.8-0.4-7.2,0.2-10.7l1.7-10.4c1.1-7,2.4-13.9,3.6-20.8c2.5-13.9,5.2-27.7,7.8-41.6
			s5.3-27.7,8.1-41.5l4.2-20.7c1.4-6.9,2.8-13.8,4.3-20.7h0.3c-1,7-2,14-3,20.9l-3.2,20.9c-2.2,14-4.4,27.9-6.6,41.9
			s-4.5,27.8-6.9,41.7c-1.2,6.9-2.4,13.9-3.7,20.8l-2,10.4c-0.6,3.5-1.3,6.9-3.5,10.1L249.4,240.8z"/>
		<g class="st8">
			<path class="st9" d="M249.4,240.9c-1.6-3.5-1.7-7-1.7-10.6l-0.1-10.6c-0.1-7-0.1-14.1-0.1-21.1c0.1-14.1,0.3-28.2,0.5-42.3
				s0.4-28.2,0.8-42.3l0.5-21.2c0.2-7.1,0.4-14.1,0.6-21.1h0.3c0.3,7,0.4,14.1,0.6,21.1l0.5,21.2c0.3,14.1,0.5,28.2,0.8,42.3
				s0.4,28.2,0.5,42.3c0,7.1,0,14.1-0.1,21.1l-0.1,10.6c0,3.5-0.1,7.1-1.7,10.6L249.4,240.9z"/>
			<path class="st9" d="M249.4,241c-2.2-3.2-2.9-6.6-3.5-10.1l-2-10.4c-1.3-6.9-2.5-13.9-3.7-20.8c-2.4-13.9-4.6-27.8-6.9-41.7
				s-4.5-27.8-6.6-41.8l-3.1-20.9c-1-7-2.1-14-3-20.9h0.3c1.5,6.9,2.9,13.8,4.3,20.7l4.2,20.7c2.8,13.8,5.4,27.7,8.1,41.5
				s5.3,27.7,7.8,41.6c1.2,6.9,2.5,13.9,3.6,20.8l1.7,10.4c0.6,3.5,1.1,7,0.2,10.7L249.4,241z"/>
			<path class="st9" d="M249.4,241.1c-2.7-2.8-4-6-5.2-9.4l-3.7-9.9c-2.5-6.6-4.9-13.2-7.3-19.8c-4.8-13.3-9.4-26.6-14-39.9
				s-9.2-26.6-13.8-40l-6.8-20c-2.2-6.7-4.5-13.4-6.6-20.1l0.3-0.1c2.7,6.5,5.2,13.1,7.8,19.7l7.7,19.7
				c5.1,13.1,10.1,26.3,15.2,39.5s10,26.4,14.9,39.6c2.4,6.6,4.9,13.2,7.2,19.9l3.5,10c1.2,3.3,2.3,6.7,2,10.5L249.4,241.1z"/>
			<path class="st9" d="M249.4,241.2c-3.1-2.3-5-5.2-6.8-8.3l-5.4-9.1c-3.6-6-7.1-12.2-10.6-18.3c-7-12.2-13.9-24.6-20.7-36.9
				s-13.7-24.6-20.5-37l-10.2-18.6c-3.3-6.2-6.7-12.4-10-18.6l0.3-0.2c3.8,6,7.4,12,11.1,18l11,18.1c7.3,12,14.5,24.2,21.8,36.2
				s14.5,24.2,21.6,36.4c3.5,6.1,7.1,12.2,10.5,18.4l5.2,9.2c1.8,3.1,3.4,6.2,3.8,10L249.4,241.2z"/>
			<path class="st9" d="M249.5,241.3c-3.5-1.7-5.8-4.3-8.1-7l-6.9-8c-4.6-5.3-9.1-10.8-13.6-16.1c-9-10.9-17.9-21.8-26.8-32.7
				s-17.8-21.9-26.6-32.9L154.2,128c-4.4-5.5-8.8-11.1-13.1-16.6l0.2-0.2c4.7,5.2,9.4,10.5,14.1,15.8l14,15.9
				c9.3,10.6,18.5,21.3,27.8,31.9s18.4,21.3,27.6,32.1c4.5,5.4,9.1,10.8,13.5,16.2l6.7,8.2c2.3,2.7,4.4,5.5,5.5,9.2L249.5,241.3z"/>
			<path class="st9" d="M249.6,241.4c-3.7-1.1-6.5-3.2-9.2-5.5l-8.2-6.7c-5.5-4.4-10.9-9-16.2-13.5c-10.8-9.1-21.4-18.3-32.1-27.6
				s-21.3-18.5-31.9-27.8l-15.9-14c-5.3-4.7-10.6-9.4-15.8-14.1l0.2-0.2c5.6,4.3,11.1,8.7,16.6,13.1l16.5,13.2
				c11,8.8,21.9,17.8,32.9,26.6s21.9,17.8,32.7,26.8c5.4,4.5,10.8,9,16.2,13.6l8,6.9c2.7,2.3,5.3,4.6,7,8.1L249.6,241.4z"/>
			<path class="st9" d="M249.7,241.4c-3.8-0.4-7-2.1-10-3.8l-9.2-5.2c-6.2-3.4-12.2-7-18.4-10.5c-12.2-7.1-24.3-14.3-36.4-21.6
				s-24.2-14.5-36.3-21.8l-18.1-11c-6-3.7-12-7.4-18-11.1l0.2-0.3c6.2,3.3,12.4,6.7,18.6,10l18.6,10.1c12.4,6.8,24.7,13.7,37,20.5
				s24.6,13.7,36.9,20.7c6.1,3.5,12.2,7,18.3,10.6l9.1,5.4c3.1,1.8,6.1,3.6,8.3,6.8L249.7,241.4z"/>
			<path class="st9" d="M249.8,241.5c-3.9,0.3-7.2-0.8-10.5-2l-10-3.5c-6.7-2.3-13.3-4.8-19.9-7.2c-13.2-4.9-26.4-9.9-39.6-14.9
				s-26.4-10-39.5-15.2l-19.7-7.7c-6.6-2.6-13.1-5.2-19.7-7.8l0.1-0.3c6.7,2.2,13.4,4.4,20.1,6.6l20,6.8c13.4,4.5,26.7,9.2,40,13.8
				s26.6,9.2,39.9,14c6.6,2.4,13.3,4.8,19.8,7.3l9.9,3.7c3.3,1.2,6.6,2.5,9.4,5.2L249.8,241.5z"/>
			<path class="st9" d="M249.9,241.5c-3.8,0.9-7.2,0.4-10.7-0.2l-10.4-1.7c-7-1.1-13.9-2.4-20.8-3.6c-13.9-2.5-27.7-5.2-41.6-7.8
				s-27.7-5.3-41.5-8.1l-20.7-4.1c-6.9-1.4-13.8-2.8-20.7-4.3l0.1-0.3c7,1,14,2,20.9,3l20.9,3.2c13.9,2.1,27.9,4.4,41.8,6.6
				s27.8,4.5,41.7,6.9c6.9,1.2,13.9,2.4,20.8,3.7l10.4,2c3.5,0.6,6.9,1.4,10.1,3.5L249.9,241.5z"/>
			<path class="st9" d="M250,241.5c-3.5,1.6-7.1,1.7-10.6,1.7l-10.6,0.1c-7,0.1-14.1,0.1-21.1,0.1c-14.1-0.1-28.2-0.3-42.3-0.5
				s-28.2-0.4-42.3-0.8l-21.1-0.5c-7-0.2-14.1-0.4-21.2-0.6v-0.3c7-0.3,14.1-0.4,21.2-0.6l21.2-0.5c14.1-0.3,28.2-0.5,42.3-0.7
				s28.2-0.4,42.3-0.5c7,0,14.1,0,21.1,0.1l10.6,0.1c3.5,0,7,0.1,10.6,1.7L250,241.5z"/>
			<path class="st9" d="M250.1,241.5c-3.2,2.2-6.6,2.9-10.1,3.5l-10.4,2c-6.9,1.3-13.9,2.5-20.8,3.7c-13.9,2.4-27.8,4.6-41.7,6.9
				s-27.8,4.5-41.8,6.6l-20.9,3.2c-7,1-14,2.1-20.9,3l-0.1-0.3c6.9-1.5,13.8-2.9,20.7-4.3l20.7-4.2c13.8-2.8,27.7-5.4,41.5-8.1
				s27.7-5.3,41.6-7.8c6.9-1.2,13.9-2.5,20.8-3.6l10.4-1.7c3.5-0.6,7-1.1,10.7-0.2L250.1,241.5z"/>
			<path class="st9" d="M250.2,241.5c-2.8,2.7-6,4-9.4,5.2l-9.9,3.7c-6.6,2.5-13.2,4.9-19.8,7.3c-13.3,4.8-26.6,9.4-39.9,14
				s-26.6,9.2-40,13.8l-20,6.8c-6.7,2.2-13.4,4.5-20.1,6.6l-0.1-0.3c6.5-2.7,13.1-5.2,19.7-7.8l19.7-7.7
				c13.1-5.1,26.3-10.1,39.5-15.2s26.4-10,39.6-14.9c6.6-2.4,13.2-4.9,19.9-7.2l10-3.5c3.3-1.2,6.7-2.3,10.5-2L250.2,241.5z"/>
			<path class="st9" d="M250.3,241.4c-2.3,3.1-5.2,5-8.3,6.8l-9.1,5.4c-6,3.6-12.2,7.1-18.3,10.6c-12.2,7-24.6,13.9-36.9,20.7
				s-24.6,13.7-37,20.5l-18.6,10.2c-6.2,3.3-12.4,6.7-18.6,10l-0.2-0.3c6-3.8,12-7.4,18-11.1l18.1-11c12.1-7.3,24.2-14.5,36.3-21.8
				s24.2-14.5,36.4-21.6c6.1-3.5,12.2-7.1,18.4-10.5l9.2-5.2c3.1-1.8,6.2-3.4,10-3.8L250.3,241.4z"/>
			<path class="st9" d="M250.4,241.4c-1.7,3.5-4.3,5.8-7,8.1l-8,6.9c-5.3,4.6-10.8,9.1-16.2,13.6c-10.8,9-21.8,17.9-32.7,26.8
				s-21.9,17.8-32.9,26.6l-16.5,13.2c-5.5,4.4-11,8.8-16.6,13.1l-0.2-0.2c5.2-4.7,10.5-9.4,15.8-14.1l15.9-14
				c10.6-9.3,21.3-18.5,31.9-27.8s21.3-18.4,32.1-27.6c5.4-4.5,10.8-9.1,16.2-13.5l8.2-6.7c2.7-2.3,5.5-4.4,9.2-5.5L250.4,241.4z"/>
			<path class="st9" d="M250.5,241.3c-1.1,3.7-3.2,6.5-5.5,9.2l-6.7,8.2c-4.4,5.5-9,10.9-13.5,16.2c-9.1,10.8-18.4,21.4-27.6,32.1
				s-18.4,21.3-27.8,31.9l-14,15.9c-4.7,5.3-9.4,10.5-14.1,15.8l-0.2-0.2c4.3-5.6,8.7-11.1,13.1-16.6l13.2-16.5
				c8.8-11,17.8-21.9,26.6-32.9s17.8-21.9,26.8-32.7c4.5-5.4,9-10.8,13.6-16.1l6.9-8c2.3-2.7,4.6-5.3,8.1-7L250.5,241.3z"/>
			<path class="st9" d="M250.6,241.2c-0.4,3.8-2.1,7-3.8,10l-5.2,9.2c-3.4,6.2-7,12.2-10.5,18.4c-7.1,12.2-14.4,24.3-21.6,36.4
				s-14.5,24.2-21.8,36.3l-11,18.1c-3.7,6-7.4,12-11.1,18l-0.3-0.2c3.3-6.2,6.7-12.4,10-18.6l10.1-18.6c6.8-12.4,13.7-24.7,20.5-37
				s13.7-24.6,20.7-36.9c3.5-6.1,7-12.2,10.6-18.3l5.4-9.1c1.8-3.1,3.6-6,6.8-8.3L250.6,241.2z"/>
			<path class="st9" d="M250.6,241.1c0.3,3.9-0.8,7.2-2,10.5l-3.5,10c-2.3,6.7-4.8,13.3-7.2,19.9c-4.9,13.2-9.9,26.4-14.9,39.5
				s-10,26.4-15.2,39.5l-7.7,19.7c-2.6,6.5-5.2,13.1-7.8,19.6l-0.3-0.1c2.2-6.7,4.4-13.4,6.6-20.1l6.8-20c4.5-13.4,9.2-26.7,13.8-40
				s9.2-26.6,14-39.9c2.4-6.6,4.8-13.3,7.3-19.8l3.7-9.9c1.2-3.3,2.5-6.6,5.2-9.4L250.6,241.1z"/>
			<path class="st9" d="M250.6,241c0.9,3.8,0.4,7.2-0.2,10.7l-1.7,10.4c-1.1,7-2.4,13.9-3.6,20.8c-2.5,13.9-5.2,27.7-7.8,41.6
				s-5.3,27.7-8.1,41.5l-4.2,20.7c-1.4,6.9-2.8,13.8-4.3,20.7l-0.3,0c1-7,2-14,3-20.9l3.2-20.9c2.1-13.9,4.4-27.9,6.6-41.8
				s4.5-27.8,6.9-41.7c1.2-6.9,2.4-13.9,3.7-20.8l2-10.4c0.6-3.5,1.3-6.9,3.5-10.1L250.6,241z"/>
			<path class="st9" d="M250.6,240.9c1.6,3.5,1.7,7.1,1.7,10.6l0.1,10.6c0.1,7,0.1,14.1,0.1,21.1c-0.1,14.1-0.3,28.2-0.5,42.3
				s-0.4,28.2-0.8,42.3l-0.5,21.1c-0.2,7-0.4,14.1-0.6,21.1h-0.3c-0.3-7-0.4-14.1-0.6-21.1l-0.5-21.1c-0.3-14.1-0.5-28.2-0.8-42.3
				s-0.4-28.2-0.5-42.3c0-7,0-14.1,0.1-21.1l0.1-10.6c0-3.5,0.1-7.1,1.7-10.6L250.6,240.9z"/>
			<path class="st9" d="M250.6,240.8c2.2,3.2,2.9,6.6,3.5,10.1l2,10.4c1.3,6.9,2.5,13.9,3.7,20.8c2.4,13.9,4.6,27.8,6.9,41.7
				s4.5,27.8,6.6,41.8l3.2,20.9c1,7,2.1,14,3,20.9l-0.3,0c-1.5-6.9-2.9-13.8-4.3-20.7l-4.2-20.7c-2.8-13.8-5.4-27.7-8.1-41.5
				s-5.3-27.7-7.8-41.6c-1.2-6.9-2.5-13.9-3.6-20.8l-1.7-10.4c-0.6-3.5-1.1-7-0.2-10.7L250.6,240.8z"/>
			<path class="st9" d="M250.6,240.7c2.7,2.8,4,6,5.2,9.4l3.7,9.9c2.5,6.6,4.9,13.2,7.3,19.8c4.8,13.3,9.4,26.6,14,39.9
				s9.2,26.6,13.8,40l6.8,20c2.2,6.7,4.5,13.4,6.6,20.1l-0.3,0.1c-2.7-6.5-5.2-13.1-7.8-19.6l-7.7-19.7
				c-5.1-13.1-10.1-26.3-15.2-39.5s-10-26.4-14.9-39.6c-2.4-6.6-4.9-13.2-7.2-19.9l-3.5-10c-1.2-3.3-2.3-6.7-2-10.5L250.6,240.7z"/>
			<path class="st9" d="M250.6,240.6c3.1,2.3,5,5.2,6.8,8.3l5.4,9.1c3.6,6,7.1,12.2,10.6,18.3c7,12.2,13.9,24.6,20.7,36.9
				s13.7,24.6,20.5,37l10.1,18.6c3.3,6.2,6.7,12.4,10,18.6l-0.3,0.2c-3.8-6-7.4-12-11.1-18l-11-18.1c-7.3-12-14.5-24.2-21.8-36.3
				S276.1,291,269,278.8c-3.5-6.1-7.1-12.2-10.5-18.4l-5.2-9.2c-1.8-3.1-3.4-6.2-3.8-10L250.6,240.6z"/>
			<path class="st9" d="M250.5,240.5c3.5,1.7,5.8,4.3,8.1,7l6.9,8c4.6,5.3,9.1,10.7,13.6,16.2c9,10.8,17.9,21.8,26.8,32.7
				s17.8,21.9,26.6,32.9l13.2,16.5c4.4,5.5,8.8,11,13.1,16.6l-0.2,0.2c-4.7-5.2-9.4-10.5-14.1-15.8l-14-15.9
				c-9.3-10.6-18.5-21.3-27.8-31.9s-18.5-21.3-27.6-32.1c-4.5-5.4-9.1-10.8-13.5-16.2l-6.7-8.2c-2.3-2.7-4.4-5.5-5.5-9.2
				L250.5,240.5z"/>
			<path class="st9" d="M250.4,240.4c3.7,1.1,6.5,3.2,9.2,5.5l8.2,6.7c5.5,4.4,10.9,9,16.2,13.5c10.8,9.1,21.4,18.4,32.1,27.6
				s21.3,18.5,31.9,27.8l15.9,14c5.3,4.7,10.5,9.4,15.8,14.1l-0.2,0.2c-5.6-4.3-11.1-8.7-16.6-13.1l-16.5-13.2
				c-11-8.8-21.9-17.8-32.9-26.6S291.6,279,280.8,270c-5.4-4.5-10.8-9-16.2-13.6l-8-6.9c-2.7-2.3-5.3-4.6-7-8.1L250.4,240.4z"/>
			<path class="st9" d="M250.3,240.3c3.8,0.4,7,2.1,10,3.8l9.2,5.2c6.2,3.4,12.2,7,18.4,10.5c12.2,7.1,24.3,14.4,36.4,21.6
				s24.2,14.5,36.3,21.8l18.1,11c6,3.7,12,7.4,18,11.1l-0.2,0.3c-6.2-3.3-12.4-6.7-18.6-10l-18.6-10.1c-12.4-6.8-24.7-13.7-37-20.5
				s-24.6-13.7-36.9-20.7c-6.1-3.5-12.2-7-18.3-10.6l-9.1-5.4c-3.1-1.8-6.1-3.6-8.3-6.8L250.3,240.3z"/>
			<path class="st9" d="M250.2,240.3c3.9-0.3,7.2,0.8,10.5,2l10,3.5c6.7,2.3,13.3,4.8,19.9,7.2c13.2,4.9,26.4,9.9,39.6,14.9
				s26.4,10,39.5,15.2l19.7,7.7c6.5,2.6,13.1,5.2,19.6,7.8l-0.1,0.3c-6.7-2.2-13.4-4.4-20.1-6.6l-20-6.8c-13.4-4.5-26.7-9.2-40-13.8
				s-26.6-9.2-39.9-14c-6.6-2.4-13.3-4.8-19.8-7.3l-9.9-3.7c-3.3-1.2-6.6-2.5-9.4-5.2L250.2,240.3z"/>
			<path class="st9" d="M250.1,240.2c3.8-0.9,7.2-0.4,10.7,0.2l10.4,1.7c7,1.1,13.9,2.4,20.8,3.6c13.9,2.5,27.7,5.2,41.6,7.8
				c13.8,2.6,27.7,5.3,41.5,8.1l20.7,4.2c6.9,1.4,13.8,2.8,20.7,4.3l0,0.3c-7-1-14-2-20.9-3l-20.9-3.2c-13.9-2.1-27.9-4.4-41.8-6.6
				s-27.8-4.5-41.7-6.9c-6.9-1.2-13.9-2.4-20.8-3.7l-10.4-2c-3.5-0.6-6.9-1.3-10.1-3.5L250.1,240.2z"/>
			<path class="st9" d="M250,240.2c3.5-1.6,7-1.7,10.6-1.7l10.6-0.1c7-0.1,14.1-0.1,21.1-0.1c14.1,0.1,28.2,0.3,42.3,0.5
				s28.2,0.4,42.3,0.7l21.1,0.5c7,0.2,14.1,0.4,21.1,0.6v0.3c-7,0.3-14.1,0.4-21.1,0.6l-21.1,0.5c-14.1,0.3-28.2,0.5-42.3,0.8
				s-28.2,0.4-42.3,0.5c-7,0-14.1,0-21.1-0.1l-10.6-0.1c-3.5,0-7-0.1-10.6-1.7L250,240.2z"/>
			<path class="st9" d="M249.9,240.2c3.2-2.1,6.6-2.9,10.1-3.5l10.4-2c6.9-1.3,13.9-2.5,20.8-3.7c13.9-2.4,27.8-4.6,41.7-6.9
				s27.8-4.5,41.8-6.6l20.9-3.2c7-1,14-2.1,20.9-3l0,0.3c-6.9,1.5-13.8,2.9-20.7,4.3l-20.7,4.2c-13.8,2.8-27.7,5.4-41.5,8.1
				s-27.7,5.3-41.6,7.8c-6.9,1.2-13.9,2.5-20.8,3.6l-10.4,1.7c-3.5,0.6-7,1.1-10.7,0.2L249.9,240.2z"/>
			<path class="st9" d="M249.8,240.3c2.8-2.7,6-4,9.4-5.2l9.9-3.7c6.6-2.5,13.2-4.9,19.8-7.3c13.3-4.8,26.6-9.4,39.9-14
				s26.6-9.2,40-13.8l20-6.8c6.7-2.2,13.4-4.5,20.1-6.6l0.1,0.3c-6.5,2.7-13.1,5.2-19.6,7.8l-19.7,7.7
				c-13.1,5.1-26.3,10.1-39.5,15.2s-26.4,10-39.6,14.9c-6.6,2.4-13.2,4.9-19.9,7.2l-10,3.5c-3.3,1.2-6.7,2.3-10.5,2L249.8,240.3z"/>
			<path class="st9" d="M249.7,240.3c2.3-3.1,5.2-5,8.3-6.8l9.1-5.4c6-3.6,12.2-7.1,18.3-10.6c12.2-7,24.6-13.9,36.9-20.7
				s24.6-13.7,37-20.5l18.6-10.1c6.2-3.3,12.4-6.7,18.6-10l0.2,0.3c-6,3.8-12,7.4-18,11.1l-18.1,11c-12,7.3-24.2,14.5-36.3,21.8
				s-24.2,14.5-36.4,21.6c-6.1,3.5-12.2,7.1-18.4,10.5l-9.2,5.2c-3.1,1.8-6.2,3.4-10,3.8L249.7,240.3z"/>
			<path class="st9" d="M249.6,240.4c1.7-3.5,4.3-5.8,7-8.1l8-6.9c5.3-4.6,10.8-9.1,16.2-13.6c10.8-9,21.8-17.9,32.7-26.8
				s21.9-17.8,32.9-26.6l16.5-13.2c5.5-4.4,11-8.8,16.6-13.1l0.2,0.2c-5.2,4.7-10.5,9.4-15.8,14.1l-15.9,14
				c-10.6,9.3-21.3,18.5-31.9,27.8s-21.3,18.4-32.1,27.5c-5.4,4.5-10.8,9.1-16.2,13.5l-8.2,6.7c-2.7,2.3-5.5,4.4-9.2,5.5
				L249.6,240.4z"/>
			<path class="st9" d="M249.5,240.5c1.1-3.7,3.2-6.5,5.5-9.2l6.7-8.2c4.4-5.5,9-10.9,13.5-16.2c9.1-10.8,18.3-21.4,27.6-32.1
				s18.5-21.3,27.8-31.9l14-15.9c4.7-5.3,9.4-10.6,14.1-15.8l0.2,0.2c-4.3,5.6-8.7,11.1-13.1,16.6l-13.2,16.5
				c-8.8,11-17.8,21.9-26.6,32.9s-17.8,21.9-26.8,32.7c-4.5,5.4-9,10.8-13.6,16.1l-6.9,8c-2.3,2.7-4.6,5.3-8.1,7L249.5,240.5z"/>
			<path class="st9" d="M249.4,240.6c0.4-3.8,2.1-6.9,3.8-10l5.2-9.2c3.4-6.2,7-12.2,10.5-18.4c7.1-12.2,14.4-24.3,21.6-36.4
				s14.5-24.2,21.8-36.2l11-18.1c3.7-6,7.4-12,11.1-18l0.3,0.2c-3.3,6.2-6.7,12.4-10,18.6l-10.1,18.6c-6.8,12.4-13.7,24.7-20.5,37
				s-13.7,24.6-20.7,36.9c-3.5,6.1-7,12.2-10.6,18.3l-5.4,9.1c-1.8,3.1-3.6,6-6.8,8.3L249.4,240.6z"/>
			<path class="st9" d="M249.4,240.7c-0.3-3.9,0.8-7.2,2-10.5l3.5-10c2.3-6.7,4.8-13.3,7.2-19.9c5-13.2,10-26.4,15-39.5
				s10-26.4,15.2-39.5l7.7-19.7c2.6-6.6,5.2-13.1,7.8-19.7L308,82c-2.2,6.7-4.4,13.4-6.6,20.1l-6.8,20c-4.5,13.4-9.2,26.7-13.8,40
				s-9.2,26.6-14,39.9c-2.4,6.6-4.8,13.3-7.3,19.8l-3.7,9.9c-1.2,3.3-2.5,6.6-5.2,9.4L249.4,240.7z"/>
			<path class="st9" d="M249.4,240.8c-0.9-3.8-0.4-7.2,0.2-10.7l1.7-10.4c1.1-7,2.4-13.9,3.6-20.8c2.5-13.9,5.2-27.7,7.8-41.6
				s5.3-27.7,8.1-41.5l4.2-20.7c1.4-6.9,2.8-13.8,4.3-20.7h0.3c-1,7-2,14-3,20.9l-3.2,20.9c-2.2,14-4.4,27.9-6.6,41.9
				s-4.5,27.8-6.9,41.7c-1.2,6.9-2.4,13.9-3.7,20.8l-2,10.4c-0.6,3.5-1.3,6.9-3.5,10.1L249.4,240.8z"/>
		</g>
	</g>
</g>
<g id="freepik--character-3--inject-44">
	<g id="freepik--Character--inject-44">
		<g id="freepik--Bottom--inject-44">
			<path class="st10" d="M396.9,447.6c0.5,4.8,1.4,8,3.3,10.7s5.2,3.4,8.5,2.4c3.8-1.1,6.8-3.9,8.2-7.5c1.2-3.4,1.2-7,0.2-11.4
				L396.9,447.6z"/>
			<path class="st11" d="M410.2,415.9c0.8,3.1,1.2,5.3,2.3,9.6c1.7,6.7,3.5,9.5,4.5,15.1c1.2,6.4,0.6,9.5-1.9,13.3
				s-10.2,8.2-14.6,2.9c-3.5-4.4-3.9-9.4-4-15.8c-0.1-5.4-0.5-10.9-1.3-16.2v-0.1c-0.2-1.7-0.5-5.1-0.8-6.8c-0.6-3.8,2-4.2,3-4.8
				c1.4-0.8,2.9-1.4,4.5-1.7c1.6-0.2,3.2-0.2,4.8,0.2C408.6,411.9,409.4,412.9,410.2,415.9z"/>
			<path class="st10" d="M303.9,428.6c-0.3,0-0.6,3.2,1,4.5c1.9,1.5,7.5,3.8,14.8,2.6s11.1-3.5,13.9-6s6.8-5.9,10-6.8
				c3-0.8,7-2.5,7.9-3.4s0.6-5,0.6-5L303.9,428.6z"/>
			<path class="st11" d="M348.6,401.5c0.3,0,0.7,0.1,1,0.2c0.7,0.6,1.1,1.5,1.1,2.4c0,0.8,0.2,1.6,0.4,2.4c1,2.5,1.6,6.8,1,9.4
				c-0.5,2.1-5.9,4-9.1,5.3c-3.7,1.7-7.1,4-10.1,6.7c-3.3,2.9-10.4,5.9-15.1,6.1c-7.2,0.4-12-1.3-13.5-3.8c-1.9-3-0.6-4.9,7.6-8.9
				c1.5-0.8,7-4.1,8.8-5.4c1.9-1.3,3.8-2.7,5.5-4.3c0.9-0.8,1.7-1.6,2.5-2.5c1.2-1.3,2.6-2.5,4-3.5c1-0.9,2-1.6,3.1-2.3
				c1.8-1,3.8-1.6,5.9-1.7c2.1-0.2,4.1,0.2,6.2,0C348.1,401.5,348.3,401.5,348.6,401.5z"/>
			<path class="st12" d="M409.3,414.2c-1.8-13.9-0.8-29.2-3.1-50.9l0,0c-0.4-5.6-0.9-11.5-1.6-16.8c-2.2-17.8-5.4-23.7-5.8-27.1
				c0,0-0.5-35-3.7-73.9c-1.5-18.3-7.3-23.6-12.2-33.1l-54.5,2.7c-4.6,24.3-3,79.1-1.5,103.8c0.7,12.6,4.5,57.9,4.9,78.5
				c0.1,6-1.1,8.2-3.2,10.6c-4.4,5.1-10.2,8.7-15.6,12.7c-1.5,3.3,6.2,5.1,12.6,1.6c4.6-2.5,9.1-5.2,13.4-8.2
				c4.6-3.7,9.7-6.2,10.6-11.4c0.4-2.1,9.7-50.4,9.8-61c0.1-9-1.8-24.3-1.8-24.3l4.1-38.5c0,0,6.3,29.2,10,44.7s7.9,33.8,12.1,49
				l0,0c4.2,17.6,9.8,34.7,11.1,43.5c0.4,2.1,3.9,22.9,5.2,27.6s12.1,4.3,12.4-4C412.5,434.4,409.7,416.8,409.3,414.2z"/>
			<path class="st11" d="M384.5,212.7c6.8,10.6,11.8,19.3,14.1,51.7s2.3,52.1,2.6,56s2.4,6.8,5.5,25.9s1.9,42.5,1.9,42.5
				s-1.8,3.6-9.4,4.6c-7,1-10.6-1.4-10.6-1.4s-9.9-35.5-13.2-48.6c-2.9-11.6-13.2-56.4-13.2-56.4l-3,31.2c0,0,3,11.3,0.9,28.4
				s-5.7,33.8-5.7,33.8s-3.5,1.2-10.9,1.5c-6,0.2-12.7-2.2-12.7-2.2s-4.1-49-5.1-68.1s-3-72.4,2.8-95.6L384.5,212.7z"/>
			<path class="st10" d="M400.2,330.2c-0.3-1.1-0.6-2.1-0.9-3.1c-2.4-8.9-2.6-26-3.3-40.8c-0.2-4.5-0.4-9.1-0.7-14
				c-1.2-19.3-3.8-40.9-14.6-54.3l-0.8,0.6c7.3,9,10.8,21.9,12.7,35.2c-10.1-0.8-12.8-10.2-16.5-23.3c-0.5-1.8-1-3.6-1.6-5.5l-1,0.3
				c0.5,1.9,1.1,3.7,1.6,5.5c3.7,13,6.6,23.3,17.6,24c0.8,5.9,1.3,11.8,1.6,17.6c0.3,4.9,0.5,9.5,0.7,14c0.7,14.9,0.9,32,3.4,41
				c0.3,1,0.6,2,0.9,3.1c3.2,11.5,7,30.6,6.6,60.9c0.3-0.2,0.7-0.4,1-0.7C407.1,360.6,403.4,341.6,400.2,330.2z M332.9,243.2
				c1.7,6.3,12.5,11.1,17.4,12l1.5,6.4c-0.1,3.5-0.1,7.1-0.2,10.8c-0.4,20.7-0.6,42,0.5,46.8c2.2,9.3,1.7,18.3,0.6,30.5
				c-1,11-2.7,24.7-3.8,31.6l1-0.1c1.1-6.9,2.6-19.1,4-31.5s1.8-21-0.8-30.8c-1.2-4.6-0.9-26.9-0.5-46.5c0-2.4,0.1-4.7,0.1-7
				l5.4,22.6l0.9,30.1l3-31.2l-8.1-36.5C354,250.5,340.6,250.3,332.9,243.2L332.9,243.2z"/>
		</g>
		<g id="freepik--Top--inject-44">
			<g id="freepik--Arm--inject-44">
				<path class="st12" d="M235.4,187.3c0.8-0.8,1.9-1.3,3-1.4c1.8-0.2,3.6-0.2,5.4-0.1c2.7-0.1,7.2-0.2,9.5-1.7
					c0.5-0.3,1.4-1.1,0.3-1.3c-1.4-0.2-2.7-0.6-4-1c-1.3-0.5-2.4-1.4-2.9-2.7c-0.2-0.4-0.2-0.8-0.1-1.2c0.2-0.5,0.6-0.5,1.1-0.4
					c0.5,0,1,0,1.5,0h3c5.9,0,12,0.4,17.2,3.4c0.8,0.4,6.3,4.2,9.5,5.6s23.1,9.7,23.1,9.7s9.5-15.9,13.8-22.8
					c6.6-10.6,9.2-15.9,18.8-18l-0.9,33.4c0,0-11,15.2-14.7,20.2c-6.3,8.5-9.7,11.7-16.3,8.7c-6.9-3-13.5-6.8-19.6-11.3
					c-8.6-6.3-10.2-7.9-13.1-8.7c-2.4-0.7-5-0.7-7.4,0c-2.4,0.6-4.9,0.9-7.4,0.9c-2.2,0.1-4.3-0.2-6.5-0.7c-1.1-0.1-2.1-0.5-3-1.1
					c-0.6-0.6-1-1.4-1.7-2s-1.9-0.8-2.7-1.5c-0.5-0.6-1-1.3-1.4-2c-0.7-0.9-1.8-1.5-2.9-1.6c-0.6-0.1-1.2-0.3-1.6-0.6
					C234.6,188.5,234.9,187.9,235.4,187.3z"/>
				<path class="st13" d="M256.8,184.7c2.7,2.1,5.9,3.3,9.3,3.6c-1.6,0.7-3.5,0.8-5.2,0.3C259,187.9,257.5,186.5,256.8,184.7z"/>
			</g>
			<path class="st0" d="M355.6,148.8c0,0,8.5,2.3,12.4-3s22.5,13,19.8,29.4c-0.9,5.4-2.6,16.7-3.6,24.3c-0.8,5.8,5.4,13.8,8.9,30
				c0,0-16.9,13-45.3,11.7c-21.7-0.9-22.8-6.2-22.8-6.2c-0.2-18.1,0.5-27.1-0.1-34.8c0,0-7.5-3.3-8-11.3c-0.5-7.1,1.8-10.9,7.7-19.4
				c5.6-8.1,10-14.3,10-14.3L355.6,148.8z"/>
			<path class="st5" d="M370,145.9c1.8,0,5.3,2,9.1,6.4c4.7,5.5,9.2,14.4,7.8,22.7c-0.9,5.7-2.6,17.1-3.6,24.4
				c-0.4,3.2,1,6.8,3,11.7c2.5,5.8,4.4,11.8,5.8,18c-2.8,1.9-17.4,11.2-40.2,11.2c-1.3,0-2.7,0-4-0.1c-18.7-0.9-21.6-4.9-21.9-5.5
				c-0.1-8.1,0-14.4,0.1-19.5c0.1-6.3,0.1-10.9-0.2-15.1v-0.6l-0.5-0.2c-0.3-0.1-6.9-3.2-7.4-10.4c-0.4-6.6,1.5-10,7.5-18.8
				c4.9-7.1,8.9-12.8,9.8-14l20.5-6.3c1.4,0.3,2.8,0.5,4.2,0.5c4,0,7.1-1.3,8.9-3.9C369.2,146,369.6,145.8,370,145.9 M370.1,144.9
				c-0.8-0.1-1.5,0.3-2,0.9c-2.1,2.8-5.5,3.5-8.2,3.5c-1.4,0-2.8-0.2-4.2-0.5l-21.1,6.5c0,0-4.4,6.2-10,14.3
				c-5.9,8.5-8.1,12.2-7.7,19.4c0.5,8,8,11.3,8,11.3c0.5,7.6-0.1,16.7,0.1,34.8c0,0,1.2,5.2,22.9,6.2c1.4,0.1,2.7,0.1,4,0.1
				c26,0,41.3-11.8,41.3-11.8c-3.5-16.3-9.7-24.2-8.9-30c1-7.6,2.8-18.9,3.6-24.3C390.2,160.7,376,144.9,370.1,144.9L370.1,144.9z"
				/>
			<g id="freepik--Head--inject-44">
				<g id="freepik--Hair--inject-44">
					<path class="st11" d="M339.9,133.5c-1.1-1.7-2.1-3.7-3.7-5s-3.6-1.9-5.4-2.8s-3.8-2-5.8-3c-6.9-3.1-10.2-11.9-8.5-16.4
						c3.8-10.4,16-14.9,22.7-15.8c12.7-1.7,19.2,1.2,21,7.7c3.9-0.3,6.4,1.4,8.6,4c1.9,2.1,2.5,4,3.3,11.1c0.1,1.3,0.5,2.7,1,3.9
						c0.5,1.4,1.4,2,2.3,3.1c4.1,5.5,3.7,13.2-0.9,18.2c-0.7,0.8-1.4,1.4-2.3,1.9c-2.2,1.3-4.9,1.3-7.5,1.1c-0.6,1.1-1.5,2-2.7,2.5
						c-1.2,0.5-2.4,0.7-3.6,0.7c-1.1,0-3.1-0.2-3.6-1.5c-0.4-1,0.5-2.1-0.1-3.2c-0.9-1.6-4-1.6-5.5-2.1
						C346.6,137.2,341.6,136.1,339.9,133.5z"/>
					<path class="st10" d="M337.5,106.9c-1.5-6-9.2-11.1-16.6-6.1c-3.6,2.5-5.6,6.7-5.3,11c0.1,1.9,0.6,3.8,1.3,5.6
						c1,2.2,2.7,3.4,1.6,6c-0.6,1.4-1.7,2.6-2.4,4c-1.9,4.1-0.3,8.9,3.6,11c-1.3-2.5-0.7-5.5,1.3-7.4c-1,2.6,0.2,6.1,0.7,7.9
						c2,6.9,7.9,10,13.7,10.5c4.9,0.5,13.8-2.4,14-6.4c0.1-1.8-3.7-4.9-4.1-6.7c-0.5-2.1-1.1-4.3-1.6-6.4c-1.8-7-3.7-13.9-5.7-20.8
						C338,108.3,337.8,107.6,337.5,106.9z"/>
				</g>
				<path class="st12" d="M360.7,146.5c-0.3-2.1-1.2-12.6-1.2-12.6c0.2,0.8,4.2,2.5,7.2-2s1.8-10.3-1-12.3c-4.3-3.1-9.5,0.8-9.4,6
					c-2.7,2-4.3-1.5-2.9-6c-0.7-3.3-4.3-3.3-5-10.7c-0.9-3.6-6.8-5.4-10.8-2.1c-3.3-3-10.4-2.4-12.6,3.7c-1.4,4.5-2,4.7-0.7,10
					c0.4,1.9-0.8,4.4-0.6,6.9c0.8,11.2,4.4,17.2,8.2,18.7c2.5,1,6.6,0.8,8.9,0.2l0.4,2.9l0,0c0.1,1.8,0.5,3.3-1.1,4.1
					c-0.6,1.2-2.2,11.6,0.3,25.3c9.3-13,20.9-27.4,21.4-29.2C361.1,148.8,361,148.6,360.7,146.5z"/>
				<path class="st13" d="M344,131.4l-5.5,2.2c0.5,1.5,2.2,2.3,3.7,1.8c0,0,0.1,0,0.1,0C343.8,134.8,344.6,133,344,131.4z"/>
				<path class="st12" d="M343.7,132.8c-1.6,0.1-2.9,1.3-3.1,2.8c0.6,0.1,1.1,0.1,1.6-0.1c1.1-0.5,1.8-1.5,1.9-2.6
					C344,132.8,343.9,132.8,343.7,132.8z"/>
				<path class="st10" d="M326.1,117.5l4.3-2c-0.5-1.2-1.8-1.7-3-1.3c0,0-0.1,0-0.1,0C326.1,114.9,325.6,116.3,326.1,117.5z"/>
				<path class="st10" d="M346,116l-4.7-1.2c0.3-1.3,1.5-2,2.8-1.8c0,0,0.1,0,0.1,0C345.5,113.4,346.3,114.7,346,116z"/>
				<path class="st10" d="M331.1,121.6c0.3,1.1-0.4,2.2-1.4,2.4c0,0,0,0,0,0c-1,0.3-2.1-0.3-2.4-1.3c0,0,0,0,0-0.1
					c-0.3-1.1,0.4-2.2,1.4-2.4C329.7,120,330.7,120.5,331.1,121.6C331,121.6,331.1,121.6,331.1,121.6z"/>
				<path class="st10" d="M344.9,120.3c0.3,1.1-0.4,2.2-1.4,2.4c0,0,0,0,0,0c-1,0.3-2.1-0.3-2.4-1.3c0,0,0-0.1,0-0.1
					c-0.3-1.1,0.4-2.2,1.4-2.4C343.5,118.6,344.6,119.2,344.9,120.3C344.9,120.2,344.9,120.3,344.9,120.3z"/>
				<path class="st13" d="M331.6,129.2l6.4,1l-0.6-11.3C334.9,119.4,333.2,123.9,331.6,129.2z"/>
				<path class="st13" d="M340.7,146.4c4.3-0.6,8.4-2.3,11.7-5.1c1.7-1.5,3-3.3,3.8-5.4c0,0-0.5,4.3-3,6.8
					c-4.5,4.8-12.3,5.7-12.3,5.7L340.7,146.4z"/>
			</g>
			<path class="st5" d="M340.2,178.6c-3.4-5.7-4-8.1-3.6-11.3s1.5-13.4,4.5-17.7l0.4,4.8C340,162.4,339.6,170.6,340.2,178.6z"/>
			<path class="st5" d="M340.2,178.6c0.9-2.2,1.5-4.4,1.9-6.7c0.4-3,1.1-4.8,5.9-9.5s11.7-14.8,12.5-17.1l-0.1-1.5c0,0,1,0,1.4,2.6
				c0.3,1.8,0.5,2.9,0.5,2.9C359.7,156.2,349.7,167.6,340.2,178.6z"/>
			<path class="st12" d="M404.4,104.4c-4-19.5-6-27.3-6.1-27.3c-0.6-2.8-1.2-5.3-1.6-7.5c-0.5-2.4-1.1-5.1-1.3-6.2
				c-1.6-7.6-5.1-12.2-5.5-13.8c-0.6-2.1-1.7-2.4-1.7-2.4c-0.2-1-1.1-1.7-2.1-1.7c-0.7-1.7-1.8-1.4-5.4-1.4s-7.9-0.2-8.9,0.7
				s-1.3,2.3-0.7,4.6c-1.2-0.1-2.4,0.5-3.2,1.5c-1.1,1.2-1.5,2.1-0.1,4.2s3.5,3.2,4.2,5.3c0.9,2.4,2.7,4.3,4.9,5.4
				c1.4,0.5,2.5,0.8,3.3,1.8s1,1.9,1.4,4.9c0.1,0.4,0.1,1.3,0.2,2.5l3,33.5c0,0-5.9,17.2-8.5,23.3c-1.6,3.7-5.1,6.8-8.4,14.1
				c0.1,3.6,2.2,18.8,9.2,27.5c6.3,7.9,9.6,6.5,10.4,3c1.8-9,3.4-14.6,5.4-22.6c3-11.9,6.1-20.7,7.8-27.3
				C404.1,113.8,405.5,109.9,404.4,104.4z"/>
			<path class="st13" d="M382.7,44.8c-1.5,0-3,0.2-4.5,0.2l-2.4,0.1c-0.7,0-1.4,0.2-2.1,0.5c-0.9,0.7-1.4,1.7-1.4,2.8
				c-0.1,1.4-0.1,2.8,0.1,4.2c0,0.7,0.2,1.4,0.7,1.9c0.4,0.4,1,0.5,1.5,0.3c0.3-0.1-0.1-0.5-0.3-0.3c-0.7,0.3-1.2-0.5-1.3-1.1
				c-0.1-0.6-0.2-1.3-0.2-1.9c-0.1-1.1-0.1-2.2,0.1-3.3c0.1-1,0.6-1.9,1.5-2.4c0.6-0.2,1.3-0.4,2-0.3l1.9-0.2
				c1.4-0.1,2.9-0.2,4.3-0.4C382.8,45,382.8,44.8,382.7,44.8z"/>
			<path class="st13" d="M382.7,46.2c-1.5,0-3,0.1-4.4,0.2c-0.7,0-1.4,0.1-2.1,0.3c-0.5,0.1-1,0.4-1.4,0.8c-0.6,1.1-0.8,2.3-0.7,3.5
				c0,0.7,0.1,1.5,0.2,2.2c0,0.7,0.1,1.4,0.3,2.1c0.5,1.3,2.1,1.5,3.3,1.2c0.3-0.1,0-0.5-0.2-0.4c-0.6,0.2-1.3,0.2-1.9,0
				c-0.6-0.3-0.8-1-0.9-1.6c-0.2-1.2-0.3-2.5-0.3-3.8c-0.1-1.1,0.2-2.1,0.7-3c0.4-0.4,0.9-0.7,1.5-0.7c0.6-0.1,1.2-0.2,1.8-0.3
				c1.4-0.2,2.8-0.3,4.2-0.3C382.9,46.3,382.8,46.2,382.7,46.2z"/>
			<path class="st13" d="M379.6,48.7c-0.6,0.1-1.1,0.3-1.6,0.6c-0.4,0.3-0.7,0.8-0.8,1.2c-0.2,1.3-0.2,2.6,0.1,3.9
				c0.1,0.7,0.2,1.3,0.4,2c0.1,0.5,0.5,0.9,1,1.1c1.4,0.5,2.8,0.5,4.2,0.2c0.3-0.1,0-0.4-0.2-0.4c-0.8,0.2-1.5,0.2-2.3,0.2
				c-0.6,0-1.6-0.1-2.1-0.6c-0.2-0.3-0.4-0.7-0.4-1.1c-0.1-0.4-0.2-0.7-0.2-1.1c-0.1-0.7-0.2-1.5-0.3-2.2c-0.1-0.7,0-1.4,0.2-2.1
				c0.3-0.7,0.9-1.1,1.6-1.3c1.5-0.5,3.1-0.6,4.7-1l0,0C382.5,48.1,381,48.3,379.6,48.7z"/>
			<path class="st13" d="M383.4,54.7c-0.2-0.2-0.4-0.3-0.6-0.4c0-0.1,0-0.2,0-0.2l-0.1-0.3c-0.1-0.2-0.1-0.3-0.2-0.5
				c-0.2-0.3-0.4-0.6-0.6-0.8c0,0-0.1,0.1,0,0.1c0.2,0.2,0.4,0.5,0.5,0.8c0,0.1,0.1,0.3,0.1,0.4s0,0.1,0,0.2s0,0,0,0.1l0,0
				c-0.3-0.2-0.7-0.3-1.1-0.3c-0.1,0,0,0.2,0,0.2c0.3,0.1,0.6,0.2,0.8,0.3c0.3,0.1,0.6,0.3,0.8,0.6c0.2,0.2,0.4,0.4,0.5,0.7
				c0.2,0.3,0.3,0.6,0.3,1c0,0.2,0.5,0.4,0.5,0.1c0-0.4-0.1-0.7-0.3-1C384,55.3,383.7,55,383.4,54.7z"/>
			<path class="st13" d="M386,55.8c-0.2,0-0.5,0.1-0.7,0.1c-0.2,0.1-0.5,0.1-0.7,0.2c-0.5,0.2-0.9,0.5-1.4,0.8
				c-0.8,0.6-1.4,1.3-1.8,2.2c-0.9,1.8-0.8,4,0.3,5.7c0,0.1,0.1,0,0.1,0c-0.7-1.7-0.7-3.6,0.1-5.3c0.4-0.8,0.9-1.5,1.6-2.1
				c0.4-0.3,0.8-0.6,1.2-0.8c0.2-0.1,0.4-0.2,0.5-0.3c0.2-0.1,0.5-0.2,0.8-0.3C386.1,55.9,386.1,55.8,386,55.8z"/>
			<path class="st13" d="M373,54.3c-0.5,0.3-1.2,0.4-1.8,0.3c-0.6-0.1-1.2-0.3-1.9-0.5c0,0,0,0.1,0,0.1c1.1,0.7,2.7,1.2,4,0.4
				C373.6,54.5,373.2,54.2,373,54.3z"/>
			<path class="st13" d="M372.6,50.6c-0.2-0.3-0.4-0.6-0.7-0.8c-0.1-0.1-0.2,0-0.1,0.1c0.1,0.1,0.2,0.3,0.2,0.4
				c0.2,0.4,0.4,0.9,0.5,1.3c0,0,0.1,0,0.1,0s0-0.1,0.1-0.1s0.1-0.2,0.1-0.2c0-0.1,0-0.2,0-0.2C372.7,50.8,372.6,50.7,372.6,50.6z"
				/>
			<path class="st13" d="M374.3,54.7c-0.1-0.1-0.2-0.1-0.3,0c-0.7,0.6-1.2,1.4-1.4,2.3c0,0.1,0,0.3,0,0.4c0,0.2,0,0.4,0.1,0.6
				c0,0.1,0.1,0.1,0.1,0c0-0.2,0.1-0.3,0.1-0.5c0-0.2,0-0.3,0.1-0.4c0.1-0.3,0.2-0.6,0.3-0.8c0.3-0.5,0.6-1,1.1-1.3
				C374.5,55,374.4,54.8,374.3,54.7z"/>
		</g>
	</g>
</g>
<g id="freepik--character-2--inject-44">
	<g id="freepik--character--inject-44">
		<g id="freepik--bottom--inject-44">
			<path class="st14" d="M142,402.1l-1.9-17.5l20.5,1.3c0,0-0.3,9.5-0.6,14.9c-0.2,3.2,4.2,9.1,4.2,9.1s-9.6,5-14.8,3.3
				s-7.9-8-7.8-9.4S142,402.1,142,402.1z"/>
			<path class="st10" d="M188,427.5c0.3,0,0.8,3-0.8,4.4c-1.9,1.5-7.4,4.1-14.7,3.3s-11.4-2.8-14.3-5s-7.1-5.2-10.4-5.9
				c-3.1-0.6-6.4-1.8-7.4-2.6s-0.9-4.7-0.9-4.7L188,427.5z"/>
			<path class="st15" d="M142,402c-0.5,0-1,0.4-1.1,0.9c-0.2,1.1-0.4,4.2-0.9,5.9c-0.7,3.1-0.9,6.3-0.6,9.4c0.4,2,5.5,3.3,8.7,4.3
				c3.8,1.4,7.3,3.4,10.5,5.8c3.5,2.5,10.8,5.1,15.6,5c5.6-0.1,12-1.9,13.4-4.3c1.8-3,3-6.5-5.4-9.9c-1.6-0.6-7.2-3.6-9.1-4.6
				c-5.2-2.9-8.9-5.5-11.3-10.7c-0.2-0.7-0.7-1.2-1.2-1.6c-0.5-0.2-1.1-0.2-1.6-0.1c-1.4,0.2-6.9,1-8.2,1.6
				c-1.1,0.5-2.7,1.1-2.6,2.4c0,0.5,0.1,0.9,0.3,1.3c0.1,0.3,0.2,0.6-0.1,0.8s-0.6,0-0.8-0.2c-0.8-0.8-1.6-1.6-2.3-2.5
				c-0.4-0.5-0.8-0.9-1.3-1.2c-0.5-0.2-1-0.5-1.4-0.8C141.9,403.2,142,402.6,142,402z"/>
			<path class="st11" d="M158.7,428.5c-1.5-1.1-3.1-2.1-4.6-3l0,0c0,0,9.9,5.3,13.9,2.8c2.5-1.6,1.3-3.6,1.2-4.2s8.9-5.2,11.4-5.5
				l0,0c0.7,0.3,1.3,0.6,1.7,0.8c8.4,3.4,7.2,6.9,5.4,9.9c-1.4,2.4-6,4.4-13.3,4.5C169.6,433.7,162.2,431,158.7,428.5z"/>
			<path class="st11" d="M168.4,422.2c5.2,1.8,3,2.7,1.6,3s-10.3-4.3-15.7-8.1c-5.6-4-9.2-8.3-11.3-9.8c-0.8-0.5-1.6-1.2-2.4-1.8
				c0.1-1.1,0.2-2,0.3-2.5c0.1-0.5,0.6-0.9,1.1-1c0,0.6-0.1,1.2,0.4,1.6c0.5,0.3,1,0.6,1.4,0.8c0.5,0.3,0.9,0.8,1.3,1.2
				c0.7,0.9,1.5,1.7,2.3,2.5C152.2,413.4,163.2,420.4,168.4,422.2z"/>
			<path class="st10" d="M169.6,424.4c-0.1,0-0.2,0-0.3-0.1c-0.2-0.1-0.3-0.4-0.1-0.6c0,0,0,0,0,0c1.4-1.7,8.4-5.7,12.2-5.4
				c0.3,0,0.5,0.2,0.5,0.5c0,0,0,0,0,0c0,0.3-0.3,0.5-0.6,0.4c-3.6-0.3-10.1,3.7-11.3,5C169.9,424.4,169.8,424.4,169.6,424.4z"/>
			<path class="st10" d="M165.1,422c-0.1,0-0.2,0-0.3-0.1c-0.2-0.1-0.3-0.4-0.1-0.6c0,0,0,0,0,0c1.4-1.7,8.4-5.7,12.2-5.4
				c0.3,0,0.4,0.3,0.4,0.5c0,0.3-0.3,0.4-0.5,0.4c-3.6-0.3-10.1,3.7-11.3,5C165.4,421.9,165.2,422,165.1,422z"/>
			<path class="st10" d="M160.5,419.6c-0.1,0-0.2,0-0.3-0.1c-0.2-0.1-0.3-0.4-0.1-0.6c0,0,0,0,0,0c1.4-1.7,8.4-5.7,12.2-5.4
				c0.3,0,0.4,0.3,0.4,0.5c0,0.3-0.3,0.4-0.5,0.4c-3.6-0.3-10.1,3.7-11.3,5C160.8,419.5,160.6,419.6,160.5,419.6z"/>
			<path class="st10" d="M156.2,416.9c-0.1,0-0.2,0-0.3-0.1c-0.2-0.1-0.3-0.4-0.1-0.6c0,0,0,0,0,0c1.4-1.7,8.4-5.7,12.2-5.4
				c0.3,0,0.5,0.2,0.5,0.5c0,0,0,0,0,0c0,0.3-0.3,0.5-0.6,0.4c-3.6-0.3-10.1,3.7-11.3,5C156.5,416.8,156.4,416.9,156.2,416.9z"/>
			<path class="st10" d="M152,414.2c-0.1,0-0.2,0-0.3-0.1c-0.2-0.1-0.3-0.4-0.1-0.6c0,0,0,0,0,0c2-2.4,9.2-5.8,13.1-5.4
				c0.3,0,0.5,0.2,0.5,0.5c0,0,0,0,0,0c0,0.3-0.3,0.5-0.6,0.4c-3.5-0.3-10.4,3-12.2,5.1C152.3,414.1,152.2,414.2,152,414.2z"/>
			<path class="st14" d="M98.3,407.9l4.5-15L82.9,390L82,404.5c0,0-2.1,5.2-0.9,7.1s14.4,4.1,15.7,2.8S98.3,407.9,98.3,407.9z"/>
			<path class="st10" d="M96.2,440.6c-0.7,4.6-1.8,7.6-3.9,10.1s-6.1,2.9-9.9,1.6s-8.6-4.1-9.4-8.3s-0.4-6.9,0.8-11.2L96.2,440.6z"
				/>
			<path class="st15" d="M82,404.5c-1.6-0.1-1.3,6.3-2.6,12.5c-1.4,6.6-4.1,9.1-5.3,14.6c-1.4,6.2-1.2,9.1,1.2,13.3
				s11.7,9.1,16.7,4.2c4.1-4,4.6-8.9,4.7-15.3c-0.1-5.4,0.2-10.8,0.7-16.1c0.6-4.7,2.2-8.9,0.8-9.6c-0.2,0.7-0.3,1.5-0.5,2.2
				s-0.4,3.1-1.3,3c0-0.6,0-1.2,0.1-1.8c0.1-0.6,0-1.1-0.3-1.6c-0.8-0.6-1.6-1-2.6-1.2c-1.6-0.5-4.3-1-5.9-1.4
				c-0.8-0.2-1.6-0.3-2.4-0.4c-0.7-0.1-1.3-0.1-2,0c-0.4,0-0.7,0.2-0.9,0.5c-0.1,0.2-0.1,0.5-0.1,0.7c-0.1,0.4-0.2,0.8-0.3,1.2
				c-0.1,0.2-0.2,0.4-0.5,0.3c-0.2-0.1-0.3-0.2-0.2-0.4c0-0.8,0.2-1.3,0.3-2.2c0-0.4,0.2-1,0.2-1.4S81.9,404.9,82,404.5z"/>
			<path class="st11" d="M74.5,429.8c-0.2,0.9-1.6,6.8,0.4,8.2c2.1,1.5,3.6-3.1,3.6-3.1s5.2-0.6,12.4,3c-0.4,0.9,0.5,4.3,2.5,3.9
				s3.3-7.3,3.3-7.4c-0.1,6.1-0.7,10.9-4.7,14.8c-5.1,4.9-14.3-0.1-16.8-4.2s-2.7-7.1-1.2-13.3C74.2,431,74.3,430.4,74.5,429.8z"/>
			<path class="st11" d="M79,435.3c-0.2,2.3-2.9,1.2-2.8-2.1s2.8-10.7,3.1-16.2c0.6-7.6,1-12.6,2.6-12.5c0,0.1,0,0.1,0,0.2l-0.4,3.2
				c-0.1,0.4-0.1,0.9-0.2,1.4c-0.4,4.7-0.6,13.7-1.4,18C79.5,429.9,79.2,432.6,79,435.3z"/>
			<path class="st11" d="M90,437.6c0.8-2.6,1.5-5.2,2-7.8c0.8-4.2,3.7-12.5,5-17c0.4-0.8,0.6-1.7,0.7-2.5c0.1-0.6,0.3-1.4,0.4-2.1
				c0,0,0-0.1,0-0.1c1,0.5,0.6,4.1,0,6s-1.2,3.9-1.9,6.5c-1.7,5.3-2,13.2-3.1,16.3S89.3,439.8,90,437.6z"/>
			<path class="st10" d="M91,438c-0.1,0-0.1,0-0.2-0.1c-3.7-2-8-2.9-12.2-2.6c-0.3,0-0.6-0.1-0.7-0.4c0-0.3,0.1-0.5,0.4-0.5
				c0,0,0.1,0,0.1,0c4.5-0.3,9,0.7,13,2.8c0.2,0.1,0.4,0.4,0.2,0.6c0,0,0,0.1,0,0.1C91.4,438,91.2,438,91,438z"/>
			<path class="st10" d="M92.6,433.2l-0.2-0.1c-4.2-2.1-8.9-3.1-13.6-2.9c-0.3,0-0.6-0.2-0.7-0.5c0-0.3,0.1-0.5,0.4-0.5
				c0,0,0,0,0.1,0c5-0.2,9.9,0.9,14.4,3.1c0.2,0.1,0.4,0.4,0.3,0.6c0,0,0,0,0,0.1C93.1,433.2,92.8,433.3,92.6,433.2z"/>
			<path class="st10" d="M79.5,425.6c-0.2,0-0.4-0.2-0.5-0.4c-0.1-0.2,0.1-0.5,0.3-0.6c0,0,0.1,0,0.1,0c7.3-1.1,14.1,2.8,14.4,3
				c0.2,0.1,0.3,0.4,0.2,0.6c0,0,0,0.1,0,0.1c-0.2,0.2-0.5,0.3-0.8,0.1c-0.1,0-6.7-3.8-13.5-2.8C79.7,425.6,79.6,425.6,79.5,425.6z"
				/>
			<path class="st10" d="M80.2,421.1c-0.2,0-0.4-0.2-0.5-0.4c-0.1-0.2,0-0.5,0.3-0.5c0,0,0.1,0,0.1,0c5.1-0.7,10.3,0.3,14.7,3
				c0.2,0.1,0.3,0.4,0.2,0.6c0,0,0,0.1-0.1,0.1c-0.2,0.2-0.6,0.2-0.8,0.1c-4.1-2.4-8.9-3.4-13.7-2.8
				C80.4,421.2,80.3,421.2,80.2,421.1z"/>
			<path class="st10" d="M81,416.2c-0.2,0-0.4-0.2-0.5-0.4c-0.1-0.2,0-0.5,0.3-0.6c0,0,0.1,0,0.1,0c7.5-1.3,14.5,2.9,14.8,3.1
				c0.2,0.1,0.3,0.4,0.2,0.6c0,0,0,0.1,0,0.1c-0.2,0.2-0.6,0.2-0.8,0.1c-0.1,0-6.8-4.2-13.8-2.9C81.2,416.2,81.1,416.2,81,416.2z"/>
			<path class="st11" d="M96.3,227.4c-4.1,42.6-6.7,96.8-6.7,96.8c-0.4,3.2-3.3,10.5-4.9,28.2c-1.5,16.9-2.8,41.5-2.8,41.5
				s11.2,6.5,20.7,3.5c0,0,9.5-37.3,14.8-57c5-18.7,11.9-47.2,11.9-47.2l5.2,28.4c0,0-0.9,12.1-0.7,20.6c0.2,9.9,5.9,47.9,5.9,47.9
				s11.3,7.4,21.3,0c0,0,3.7-55.5,4.2-67.4c1-23.3-0.6-68.6-0.9-98.8L96.3,227.4z"/>
			<path class="st10" d="M129.3,293.2l5.4-30.3c0,0,11.6-1.5,17.6-6.7c0,0-3.9,7-14.9,9.5l-5.4,27.5l2.4,28.2L129.3,293.2z"/>
			<path class="st15" d="M81.6,394.5c2.3,3.2,12.6,6.6,21.2,3.8l1.6-6.5c-6.5,1.9-17.3,0-22.5-4.2L81.6,394.5z"/>
			<path class="st15" d="M139.6,391.1c2.9,2.8,13.5,4.3,21.5,0.1l0.4-6.7c-6,3-17,3-22.9-0.3L139.6,391.1z"/>
		</g>
		<g id="freepik--top--inject-44">
			<g id="freepik--arm--inject-44">
				<path class="st14" d="M237.1,199.9l-1.3-0.4c-2.1-0.6-4.2-1.1-6.4-0.5c-1.9,0.5-5.4,2.4-7.5,3.5c-23.4,11.6-28.9,12-33.2,11.2
					c-3-0.6-4.4-3.1-10.2-11c-8.1-10.9-15.9-21.9-15.9-21.9l-2.9-35.7c11.6,3,13.6,10.4,21.8,22.6c5.6,8.4,15.5,23.3,15.5,23.3
					s25.9-5.4,29.1-6.6c1.2-0.6,2.3-1.2,3.4-2c5.2-3.4,11.6-4.3,17.7-4.7l3.1-0.2c0.5,0,1,0,1.5-0.1c0.5-0.1,0.9-0.1,1.1,0.4
					c0.2,0.4,0.2,0.9,0,1.3c-0.5,1.4-1.5,2.4-2.9,3c-1.3,0.5-2.7,1-4.1,1.3c-1.1,0.3-0.1,1.1,0.4,1.3c2.5,1.4,7.2,1.2,10,1.2
					c1.1-0.2,2.2-0.2,3.3-0.1c0.9,0.3,1.6,0.9,2.1,1.6c0.1,0.1,0.2,0.2,0.3,0.3c0.1,0.1,0.3,0.1,0.4,0.1c0.7,0,1.5,0.1,2.1,0.4
					c0.7,0.2,1.3,0.7,1.6,1.4c0.2,0.4,0.3,0.8,0.4,1.3c0,0.2,0.1,0.4,0.1,0.6c0.5,1.4-0.1,2.9-1.4,3.6c-5.9,4.8-13.5,7.1-21.1,6.4
					C241.9,201,239.5,200.6,237.1,199.9z"/>
				<path class="st16" d="M242.4,185.6c-2.7,2.3-6,3.8-9.5,4.4c1.9,0.3,3.8,0,5.6-0.7C241.2,188.1,241.9,186.9,242.4,185.6z"/>
				<path class="st1" d="M159.8,144.4c4.3,1.2,9.4,2.7,13.2,9.1s24.4,37,24.4,37l9.3-1.7c0,0-2.3,7.2-1.1,12.2s6.3,6.4,6.3,6.4
					c-4.1,2.2-8.5,4.1-12.9,5.6c-7.4,2.5-10.1,1.9-11.8,0.8s-5-4.5-14.8-17.7c-8.6-11.6-11.3-15.1-11.3-15.1L159.8,144.4z"/>
				<path class="st2" d="M159.8,144.4c4.3,1.2,9.4,2.7,13.2,9.1s24.4,37,24.4,37l9.3-1.7c0,0-2.3,7.2-1.1,12.2s6.3,6.4,6.3,6.4
					c-4.1,2.2-8.5,4.1-12.9,5.6c-7.4,2.5-10.1,1.9-11.8,0.8s-5-4.5-14.8-17.7c-8.6-11.6-11.3-15.1-11.3-15.1L159.8,144.4z"/>
				<path class="st1" d="M197.3,190.3c-6.8,2.4-9.6,11.5-9.6,11.5s-0.9-9.7,8.2-13.6L197.3,190.3z"/>
			</g>
			<path class="st1" d="M106.7,153.7c-3.2,5.5-3.6,23.9-6.7,41.9c-2.2,13.1-4.1,31.3-5.2,44.5c7.7,10.5,53.9,12.5,70-2.2
				c0,0,0-8.2,0-16.1c0.2-21,5-32.3,5.2-46.5c0.2-18.1-6.6-27.1-10.3-30.9c-4.7-0.8-9.3-1.8-12.5-2c-8-0.7-16.1,0.2-23.7,2.7
				C114.6,147.8,109.8,148.5,106.7,153.7z"/>
			<path class="st10" d="M149.3,84.9c-15.2-3.5-25.8,5.6-28.7,14.8c-4.5,14.3,6.5,26.4,8.5,34.5l37.9-28.2
				C167.6,100.1,164.5,88.4,149.3,84.9z"/>
			<g id="freepik--head--inject-44">
				<path class="st14" d="M164.5,133.4c-2,4.1-6,6.9-10.6,7.2c-1.4-0.1-2.8-0.3-4.2-0.5l-0.4,5.7c1.5,3.6,2.2,10.7,1.1,16.9
					c-9.1-4-17.1-10.1-23.4-17.7l1.8-19.3c0,0-2.8,2.7-6.8-0.4c-2.7-2.2-4.8-7.5-1.8-11.5s7.3-1.8,8.5-0.4c1.2,1.4,1.6,3.9,2.7,3.6
					c1.3-0.3,2.3-1.2,2.8-2.4c1.2-2.6,1.9-5.5,2.1-8.4c1.3-0.6,2.3-1.6,3-2.8c2.1-3.4,3.9-5.7,3.9-5.7c9.2-2,17.9-2.6,22.9,3.5
					c1.8,4,1.1,12.8,1,17.9C167.1,124.6,166.5,129.2,164.5,133.4z"/>
				<path class="st16" d="M149.7,140c-4.6-0.7-13.6-3.7-15.9-6.4s-2.8-8.1-2.8-8.1s-0.2,6.7,1.4,9.8s6.3,4.8,9.2,5.8
					c2.6,0.8,5.2,1.4,7.9,1.9L149.7,140z"/>
				<polygon class="st16" points="153.1,111.3 153.4,124.2 159.9,122.3 				"/>
				<path class="st17" d="M146.4,125.3l6.3,3.1c-0.8,1.7-2.8,2.5-4.5,1.8c0,0-0.1,0-0.1-0.1C146.3,129.3,145.6,127.1,146.4,125.3z"
					/>
				<path class="st13" d="M148.1,130.2c0.1,0.1,0.3,0.1,0.4,0.1c0.4-1.7-0.7-3.4-2.4-3.8C145.9,128,146.7,129.5,148.1,130.2z"/>
				<path class="st10" d="M163.4,115.3c0.3,1-0.5,1.3-1.5,1.6s-1.9,0.4-2.1-0.7c-0.3-1,0.2-2,1.2-2.4c1-0.3,2,0.2,2.4,1.2
					C163.3,115.2,163.3,115.3,163.4,115.3z"/>
				<path class="st10" d="M160.1,114.2c0.5-0.2,0.9-0.3,1.4-0.4c0.5-0.1,1-0.1,1.4,0.1c0.5,0.1,1,0.3,1.4,0.6c0,0,0.1,0.1,0,0.1
					c-0.4-0.1-0.7-0.2-1.3-0.2c-0.5-0.1-1.1-0.1-1.6,0c-0.7,0.1-1.3,0.3-1.9,0.5c-0.2,0.1-0.6,0.2-0.6,0.3s-0.1-0.1-0.1-0.2
					C159.3,114.6,159.7,114.4,160.1,114.2z"/>
				<path class="st10" d="M160.3,108.4l4,2.1c0.6-1.2,0.1-2.6-1-3.2C162.2,106.9,160.9,107.3,160.3,108.4
					C160.3,108.4,160.3,108.4,160.3,108.4z"/>
				<path class="st10" d="M144,114.2c-0.4,1,0.2,1.4,1.2,1.8s1.8,0.7,2.2-0.3c0.5-0.9,0.1-2-0.8-2.5c-0.9-0.5-2-0.1-2.5,0.8
					C144,114.1,144,114.1,144,114.2L144,114.2z"/>
				<path class="st10" d="M147.4,113.6c-0.4-0.3-0.9-0.5-1.4-0.6c-0.5-0.2-0.9-0.2-1.4-0.2c-0.5,0-1,0.1-1.5,0.3c0,0-0.1,0.1,0,0.1
					c0.4,0,0.8,0,1.3,0c0.5,0.1,1.1,0.2,1.6,0.3c0.6,0.2,1.2,0.5,1.8,0.8l0.6,0.4c0.1,0.1,0.1-0.1,0.1-0.1
					C148.2,114.2,147.9,113.9,147.4,113.6z"/>
				<path class="st10" d="M147.1,108l-4.3,1.4c-0.4-1.2,0.3-2.5,1.5-2.9c1.2-0.4,2.4,0.3,2.8,1.4C147,107.9,147,108,147.1,108z"/>
			</g>
			<path class="st11" d="M166.2,104c-2.1-5.2-7.7-9.4-11.3-1.8c-4.6-6.7-12.9-6-14.8,2.3c-1.1,4.7-1,9.5,0.2,14.2
				c-3.5-2.1-5.5-5.9-5.3-9.9c0,0-0.9,5.2-0.3,7.3c0,0-12.1-0.5-15.9-6.1c0,0-1.3-14.1,6.3-17.3c0.9-6.2,10.8-13.8,27.3-9.4
				s18.8,13,18.8,13c-1.6-1.1-3.3-2-5.1-2.7c3.1,3,4.9,7,5.1,11.3c0.2,4.2-1.6,8.3-4.8,11.1C166.3,116,168.2,109.2,166.2,104z"/>
			<path class="st11" d="M124.7,93.7l-5.2-3.9c1.2-1.4,3.3-1.6,4.7-0.5c1.3,1,1.6,2.9,0.7,4.2C124.9,93.5,124.8,93.6,124.7,93.7z"/>
			<path class="st11" d="M125.4,93.4l-6.2,2.1c-0.6-1.7,0.4-3.6,2.1-4.1C123,90.8,124.9,91.7,125.4,93.4
				C125.4,93.4,125.4,93.4,125.4,93.4z"/>
			<path class="st10" d="M152.4,97.1c0.1,0,0.1,0,0.2,0c0.1-0.1,0.1-0.3,0-0.3c-5.5-7-20.5-8-26.5-4.7c-0.1,0.1-0.2,0.2-0.1,0.3
				c0,0,0,0,0,0c0.1,0.1,0.2,0.2,0.3,0.1c5.7-3.2,20.5-2.1,25.8,4.5C152.2,97.1,152.3,97.1,152.4,97.1z"/>
			<path class="st14" d="M95.9,269.8c-0.3-0.5-0.6-1-0.9-1.5c-0.5-1.1-1-2.2-1.4-3.3c-1-2.9-1.4-5.9-3-8.5c-0.7-1-1.4-2.1-2-3.3
				c-0.5-1-0.6-2.1-0.4-3.2c0.1-0.7,5.1-37.6,5.1-37.6s10.2-15.2,16.3-25.2c8.7-12.3,6.3-34,1.4-37.7c-3.8,0.9-7.4,2.6-10.6,4.9
				c-3.7,2.4-6.1,8.4-9.6,15.1c-6.5,12.3-12.7,25.7-15.7,30.9c-2.1,3.6-3.8,7.3-3.7,15.7c0.1,8.8,0.7,32,0.6,33.6
				c-0.3,4.9-2,11.9-1.4,14.8s1.4,6.6,2,8.9c0.4,1.4,1.4,2.6,2.8,3.2c0.8,2.2,1.8,4.4,3,6.5c0.8,1.3,2.2,2,3.7,1.8
				c0.2,0.3,0.4,0.6,0.6,1c0.2,0.5,0.4,1,0.6,1.5c0.4,0.9,0.8,1.9,1.3,2.8c0.3,0.6,0.7,1.3,1.3,1.4c0.9,0.2,1.4-0.5,1.6-1.2
				c0.1-0.3,0.1-0.7,0.1-1c0-0.5-0.1-1-0.2-1.5c-0.5-2.2-1.1-4.3-1.9-6.4c-0.2-0.8-0.4-1.6-0.5-2.4c0-0.4-0.1-0.9-0.2-1.3
				c1.6,3.3,2.7,6.8,4.7,9.9c0.2,0.4,0.5,0.7,0.8,1c0.3,0.3,0.8,0.4,1.2,0.3c0.5-0.2,0.8-0.5,0.9-1c0.1-0.5,0.1-1,0-1.5
				c-0.9-6.6-5-12.5-3.8-19.4c0-0.1,0-0.2,0.1-0.2c0.1-0.1,0.4,0,0.5,0.1c0.3,0.4,0.6,0.8,0.9,1.3c1,1.6,2.2,3.6,3.9,4.5
				c0.6,0.3,1.3,0.4,2,0.3c0.3-0.1,0.6-0.2,0.8-0.5C97.2,271.9,96.3,270.5,95.9,269.8z"/>
			<path class="st16" d="M81.9,285c-1.2-2-2.1-4.1-2.7-6.3c-0.7-2.2-1.1-4.5-1.2-6.8c0.5,2.2,1,4.5,1.6,6.6
				C80.2,280.8,81,282.9,81.9,285z"/>
			<path class="st16" d="M75.3,276.7c-0.6-1-1-2.1-1.3-3.2c-0.3-1.1-0.4-2.3-0.5-3.4c0.4,1.1,0.6,2.2,0.9,3.3L75.3,276.7z"/>
			<path class="st16" d="M84.5,277.9c-0.8-1.8-1.5-3.7-2-5.6c-0.1,2.7,0.7,5.4,2.3,7.6L84.5,277.9z"/>
			<path class="st1" d="M112.9,148.5c-5.4,1.5-12,2-16.5,9.1s-16.2,31.2-19.4,37.8c-5.6,11.4-6.1,11.7-6,20.6
				c0,4.8,0.2,9.7,0.6,14.5c0,0,2.3,2.9,9.8,2.9s9.6-1.8,9.6-1.8l2.7-19.4l18.5-27.8C112.2,184.4,120.5,164.6,112.9,148.5z"/>
			<path class="st2" d="M112.9,148.5c-5.4,1.5-12,2-16.5,9.1s-16.2,31.2-19.4,37.8c-5.6,11.4-6.1,11.7-6,20.6
				c0,4.8,0.2,9.7,0.6,14.5c0,0,2.3,2.9,9.8,2.9s9.6-1.8,9.6-1.8l2.7-19.4l18.5-27.8C112.2,184.4,120.5,164.6,112.9,148.5z"/>
		</g>
	</g>
</g>
<g id="freepik--character-1--inject-44">
	<g id="freepik--Chair--inject-44">
		<path class="st10" d="M213.2,435.4l-3.9-2.3c-1.4-0.7-3-0.7-4.3-0.1c-0.5,0.2-0.8,0.7-0.8,1.2v1.7c0.1,0.6,0.5,1.1,1,1.3l3.9,2.3
			c1.4,0.7,3,0.7,4.3,0.1c0.5-0.2,0.8-0.7,0.8-1.2c0-0.3,0-1.4,0-1.8C214.1,436.1,213.7,435.6,213.2,435.4z"/>
		<path class="st15" d="M205.1,435.5l3.9,2.3c1.4,0.7,3,0.7,4.3,0.1c1.2-0.7,1.1-1.8-0.1-2.5l-3.9-2.3c-1.4-0.7-3-0.7-4.3-0.1
			C203.8,433.7,203.8,434.8,205.1,435.5z"/>
		<path class="st10" d="M240.9,451.4l-3.9-2.3c-1.4-0.7-3-0.7-4.3-0.1c-0.5,0.2-0.8,0.7-0.8,1.2v1.7c0.1,0.6,0.5,1.1,1,1.3l3.9,2.3
			c1.4,0.7,3,0.7,4.3,0.1c0.5-0.2,0.8-0.7,0.8-1.2v-1.8C241.8,452.1,241.5,451.6,240.9,451.4z"/>
		<path class="st15" d="M232.8,451.5l3.9,2.3c1.4,0.7,3,0.7,4.3,0.1c1.2-0.7,1.1-1.8-0.1-2.5l-3.9-2.3c-1.4-0.7-3-0.7-4.3-0.1
			C231.5,449.7,231.6,450.8,232.8,451.5z"/>
		<path class="st10" d="M253.2,412.4l-3.9-2.3c-1.3-0.7-2.9-0.7-4.3-0.1c-0.5,0.2-0.8,0.7-0.8,1.2c0,0.3,0,1.4,0,1.7
			c0.1,0.6,0.5,1.1,1,1.3l3.9,2.3c1.4,0.7,3,0.8,4.4,0.1c0.5-0.2,0.8-0.7,0.8-1.2c0-0.3,0-1.4,0-1.7
			C254.2,413.1,253.8,412.6,253.2,412.4z"/>
		<path class="st15" d="M245.1,412.5l3.9,2.3c1.4,0.7,3,0.7,4.4,0.1c1.2-0.7,1.1-1.8-0.1-2.5l-3.9-2.3c-1.3-0.7-2.9-0.7-4.3-0.1
			C243.8,410.7,243.9,411.8,245.1,412.5z"/>
		<path class="st10" d="M281,428.3l-3.9-2.3c-1.4-0.7-3-0.7-4.4-0.1c-0.5,0.2-0.8,0.7-0.8,1.2c0,0.3,0,1.4,0,1.7
			c0.1,0.6,0.5,1.1,1,1.3l3.9,2.3c1.4,0.7,3,0.8,4.4,0.1c0.5-0.2,0.8-0.7,0.8-1.2c0-0.3,0-1.4,0-1.7
			C281.9,429.1,281.5,428.6,281,428.3z"/>
		<path class="st15" d="M272.8,428.5l3.9,2.3c1.4,0.7,3,0.7,4.4,0.1c1.2-0.7,1.1-1.8-0.1-2.5l-3.9-2.3c-1.4-0.7-3-0.7-4.4-0.1
			C271.5,426.7,271.6,427.8,272.8,428.5z"/>
		<path class="st10" d="M289.8,436c0.6,0,1.1-0.2,1.6-0.5c1.1-0.7,1.6-2.1,1.5-3.9l-12.2-140.9l-2.1,0.2l12.2,140.9
			c0.1,1-0.1,1.7-0.5,1.9s-1.1,0.1-2-0.3l-43.7-25.2c-2.3-1.5-3.7-4.1-3.8-6.8l4.1-131.2l-2.1-0.1l-4.1,131.2
			c0.1,3.5,1.9,6.8,4.9,8.7l43.7,25.2C288,435.7,288.9,436,289.8,436z"/>
		<rect x="248.1" y="399.1" transform="matrix(0.866 -0.5 0.5 0.866 -163.9565 188.4446)" class="st10" width="43.1" height="2.1"/>
		<rect x="200.6" y="372.6" transform="matrix(0.866 -0.5 0.5 0.866 -157.0712 161.1512)" class="st10" width="43.2" height="2.1"/>
		<path class="st11" d="M249.8,459.1c0.6,0,1.2-0.1,1.7-0.5c1.2-0.9,1.9-2.3,1.7-3.8l-4.1-145.7l-2.1,0l4.1,145.8
			c0.3,0.9-0.1,1.8-1,2.1c-0.6,0.2-1.4,0.1-1.8-0.5l-43.7-25.2c-2.3-1.5-3.6-4-3.5-6.8l12.2-136l-2.1-0.2l-12.2,136
			c-0.1,3.5,1.6,6.8,4.6,8.7l43.7,25.2C248,458.8,248.9,459.1,249.8,459.1z"/>
		<g id="freepik--chair--inject-44">
			<path class="st10" d="M275.7,275.4c-16.4-9.5-43.1-9.5-59.5,0c-8.2,4.7-12.3,11-12.3,17.2v7.6c0,6.2,4.1,12.4,12.3,17.2
				c16.4,9.5,43.1,9.5,59.5,0c8.2-4.8,12.3-11,12.3-17.2v-7.6C288,286.3,283.9,280.1,275.7,275.4z"/>
			<path class="st1" d="M275.7,271.7c-16.4-9.5-43.1-9.5-59.5,0c-8.2,4.7-12.3,11-12.3,17.2v7.6c0,6.2,4.1,12.4,12.3,17.2
				c16.4,9.5,43.1,9.5,59.5,0c8.2-4.8,12.3-11,12.3-17.2v-7.6C288,282.6,283.9,276.4,275.7,271.7z"/>
			<path class="st18" d="M275.7,271.7c-16.4-9.5-43.1-9.5-59.5,0c-8.2,4.7-12.3,11-12.3,17.2v7.6c0,6.2,4.1,12.4,12.3,17.2
				c16.4,9.5,43.1,9.5,59.5,0c8.2-4.8,12.3-11,12.3-17.2v-7.6C288,282.6,283.9,276.4,275.7,271.7z"/>
			<ellipse class="st1" cx="245.9" cy="288.9" rx="42.1" ry="24.3"/>
			<ellipse class="st19" cx="245.9" cy="288.9" rx="42.1" ry="24.3"/>
		</g>
	</g>
	<g id="freepik--character--inject-44_00000062904228932962170500000012365190811903524246_">
		<g id="freepik--bottom--inject-44_00000154398442930922514160000006497578663922796160_">
			<path class="st12" d="M286.2,353.2c0,0-9.6,15.7-11,22.3c-1.5,6.9-3.5,8.9-3.6,16.6c0,1.7,0.3,5.1,0.3,6.5
				c0.1,1.1-0.7,2.1-1.8,2.2c-0.1,0-0.2,0-0.4,0c-3.1,0.1-7.2-6.3-8.5-12.8c-1.3-7.5-2.1-15-2.4-22.6c0.2-1.7,0.8-3.3,1.7-4.7
				c0.5-0.8,1.1-1.6,1.8-2.3c1.5-2.9,2.9-8.5,4.4-12.3L286.2,353.2z"/>
			<path class="st10" d="M251.9,370.6c-0.5,0.6-0.9,1.4-1.2,2.1c-0.3,1.4,2.1,6.4,3,8.3c1.4,2.5,1.7,5.5,1,8.2
				c-0.9,4.4,0.4,9,2.6,13c3.1,5.4,7.8,9.7,13.5,12.3c6.9,3.4,10.1,0.2,10.1,0.2s2.8-3.1,1.7-4.8S251.9,370.6,251.9,370.6z"/>
			<path class="st15" d="M262.3,358.3c-0.2,0-0.6-0.2-1.3,0.4c-0.3,0.2-2.1,3.3-3.5,4.8s-4.8,4.3-5.6,7.1c0.8,5.7,5.3,10.2,5.2,15.5
				s-1,11.1,5.9,18.7s14.8,9.5,17.9,8.3s3.4-4.3,0.3-10.9c-3.3-7-3.9-21-3.9-21c-0.1-2,0-3.9,0.2-5.9c0.1-1.9,1-3.8,1.5-5.6
				c0.3-0.8,0.3-1.8,0.1-2.6c-0.4-0.8-1.1-1.4-1.9-1.8c-1.2-0.8-2.5-1.5-3.8-2c-1.4-0.5-2.8-0.6-4.2-0.2c-1,0.3-1.9,1-2.9,1.2
				c-1.4,0.3-2.8-0.2-3.7-1.3c-0.9-1-1.1-2.5-0.5-3.7L262.3,358.3z"/>
			<path class="st0" d="M259.2,399c0,0,4-5.7,12.4-4.3s10.5,6.1,11.4,8.8c1,3.2,1.7,8.8-2,9.8c-4,1.1-8.2-0.1-14.4-4.6
				S259.2,399,259.2,399z"/>
			<path class="st0" d="M264.8,374.2c0.2,0.2,0.5,0.2,0.8,0.1c1.4-0.4,8.4-0.8,11.8,3.6c0.6-0.3,0.6-1.1,0.1-2.3
				c-4.2-3.7-10.8-3.4-12.5-2.9c-0.4,0.1-0.7,0.6-0.5,1c0,0,0,0,0,0C264.5,374,264.6,374.1,264.8,374.2z"/>
			<path class="st0" d="M277.4,382.9c0.3-0.8,0.3-1.6-0.1-2.4c-4.2-3.2-10.3-3-12-2.4c-0.4,0.1-0.7,0.6-0.5,1c0,0,0,0,0,0
				c0.1,0.2,0.2,0.3,0.3,0.4c0.2,0.2,0.5,0.2,0.8,0.1C267.2,379.2,273.9,379,277.4,382.9z"/>
			<path class="st0" d="M279,394.7c0.2-1.1,0-2.2-0.6-3.2c-4.2-3.5-10.6-3.3-12.3-2.7c-0.4,0.1-0.7,0.6-0.5,1c0,0,0,0,0,0.1
				c0.1,0.2,0.2,0.3,0.3,0.4c0.2,0.2,0.5,0.2,0.8,0.1C268.1,389.9,275.9,389.5,279,394.7z"/>
			<path class="st0" d="M265.5,384.9c0.2,0.2,0.5,0.2,0.8,0.1c1.4-0.4,8.3-0.7,11.7,3.4c0.3-0.9,0.2-1.8-0.3-2.6
				c-4.2-3.2-10.3-3-12-2.4c-0.4,0.1-0.7,0.6-0.5,1c0,0,0,0,0,0C265.2,384.6,265.4,384.8,265.5,384.9z"/>
			<path class="st12" d="M289.9,375.1c0,0-0.3,21.9,2.2,30.5s4.5,11.9,8.7,18.8c0.9,1.5,3.1,4.4,3.9,5.6c0.7,0.9,0.6,2.2-0.3,2.9
				c-0.1,0.1-0.2,0.2-0.4,0.2c-2.7,1.8-12.6,0.8-17.4-4.2s-8.4-14.6-11.2-18.5c-1-1.4-2-2.9-2.9-4.4s-0.4-2.7-0.2-4.1
				c0.1-0.7,0.5-2.6,0.5-2.6c-0.2-3.6-1.4-9.3-1.9-12.9L289.9,375.1z"/>
			<path class="st10" d="M268.7,411.6c-0.2,0.7-0.2,1.4-0.1,2.1c0.3,1.2,4.4,4.3,6,5.5c2.1,1.4,3.6,3.7,4.2,6.2c1,3.8,3.9,7,7.5,9.4
				c5,3.1,10.7,4.8,16.6,4.8c7.3,0.1,8.7-3.6,8.7-3.6s1.1-3.6-0.5-4.5S268.7,411.6,268.7,411.6z"/>
			<path class="st15" d="M272.6,397.9c-0.2,0-0.5,0.1-0.9,0.8c-0.1,0.3-0.5,3.4-1,5.2s-2.4,5.3-2,7.8c3,4.2,8.7,6.2,10.7,10.4
				s3.7,9.2,12.6,12.7s16.5,2,18.8-0.1s1.2-4.7-4.1-8.8c-5.6-4.3-11.9-15.3-11.9-15.3c-0.8-1.5-1.6-3.1-2.2-4.8
				c-0.5-1.6-0.8-3.3-1-5c-0.1-0.8-0.4-1.5-1-2.1c-0.7-0.5-1.5-0.7-2.4-0.8c-1.4-0.2-2.7-0.3-4.1-0.2c-1.4,0.1-2.7,0.6-3.7,1.5
				c-0.6,0.7-1.3,1.4-2,2.1c-1.1,0.8-2.5,0.9-3.7,0.4c-1.2-0.4-2-1.5-1.9-2.8L272.6,397.9z"/>
			<path class="st0" d="M286.5,431.5c0,0,1.2-6,8.9-8.1s11.5,0.9,13.3,2.7c2.2,2.2,5.1,6.4,2.3,8.6c-3,2.3-7.1,3-14.2,1.7
				S286.5,431.5,286.5,431.5z"/>
			<path class="st0" d="M280.7,409.1c0.3,0.1,0.5,0,0.7-0.2c1-1,7.1-4.2,11.9-1.8c0.4-0.5,0.1-1.2-0.8-2c-5.2-1.5-11,1.5-12.2,2.6
				c-0.3,0.3-0.3,0.8,0,1.1c0,0,0,0,0,0C280.4,409,280.5,409.1,280.7,409.1z"/>
			<path class="st0" d="M295.4,411.5c0-0.8-0.4-1.5-1.1-2c-5-1.1-10.4,1.7-11.5,2.8c-0.3,0.3-0.3,0.8,0,1.1c0,0,0,0,0,0
				c0.3,0.3,0.9,0.3,1.2,0C285,412.5,290.7,409.4,295.4,411.5z"/>
			<path class="st0" d="M301.9,420.8c-0.3-1-0.9-1.9-1.8-2.6c-5.1-1.4-10.8,1.6-12,2.7c-0.3,0.3-0.3,0.8,0,1.1c0,0,0,0,0,0
				c0.1,0.1,0.3,0.2,0.5,0.2c0.3,0,0.5,0,0.7-0.2C290.3,421.1,297,417.6,301.9,420.8z"/>
			<path class="st0" d="M286,418.1c0.3,0,0.5,0,0.7-0.2c1-1,7-4.1,11.7-1.9c-0.1-0.9-0.6-1.7-1.3-2.1c-5-1.1-10.4,1.7-11.6,2.8
				c-0.3,0.3-0.3,0.8,0,1.1c0,0,0,0,0,0C285.7,418,285.8,418.1,286,418.1z"/>
			<path class="st11" d="M266.6,250.4c7.3,6.2,33,26.6,43.1,39.6c2.9,3.7,1.6,11.2-0.7,20.2c-3.2,12.2-19.8,52.9-19.8,52.9
				c-1.7,2.2-3.4-2.7-3.4-2.7l-36.8-66.5L266.6,250.4z"/>
			<path class="st10" d="M289.4,349.5c-9.3-10.7-31.8-67.7-31.8-67.7l1.5-0.1c6.4-1.6,11.5-6.4,13.7-12.6c-0.7,7.5-4.5,11.2-7.2,14
				c2.4,2.8,10.3,12.8,19.7,23c2.3,2.6,4.7,5.6,4.8,10.6C290.4,328.6,290.1,347.2,289.4,349.5z"/>
			<path class="st11" d="M263.9,250.9L263.9,250.9l-56.9,1.2c-1.5,16.2-0.1,26,2,32.2c2.8,7.8,7.8,14.6,14.3,19.6
				c19.6,14.7,32.1,20,35.5,22.3c2.5,1.8,1.8,4.6,0.8,13.9c-0.9,7.7,0,15.9,3.9,27.8c5.3,16.4,7.7,21.3,7.7,21.3s11,3,19.6-2.4
				c0,0-1.6-54.4-2.2-64.3c-0.4-5.5,0.1-8.3-5.6-15.2c-4.8-5.9-23.6-25.8-23.6-25.8S268,266.5,263.9,250.9z"/>
		</g>
		<g id="freepik--top--inject-44_00000032638950646647647300000017207208476652333221_">
			<path class="st12" d="M266.2,192.1c9.5,2.6,12.6,5.2,16.6,15.2c3.6,8.9,12.9,38.3,12.9,38.3l-18,6.8l-13.4-34.5L266.2,192.1z"/>
			<path class="st11" d="M231,208.2c2.4-1.1,4.8-2.4,7.6-2.4c2.7,0,5.6,0.3,7.9-1c3.4-2,4.3-6.7,3.7-10.6s-2-7.8-1.7-11.8
				c0.4-4.5,3-8.6,2.6-13.1c-0.7-7.4-9.1-12-10.1-19.4c-0.3-2.1,0.1-4.3-0.2-6.4c-1.6-9.8-16.6-12.6-22.6-4.1
				c-1.2,1.7-2.1,3.6-3.1,5.4c-0.9,1.8-2.3,3.2-4,4.3c-2.1,1.3-4.5,1.5-6.7,2.5c-2.1,0.9-3.9,2.5-5.1,4.6c-1.3,2.3-1.7,4.9-1.1,7.4
				c0.6,2.4,2.6,4.2,3.3,6.6c0.6,2-0.9,4.4-2.2,5.8c-1.4,1.3-2.6,2.7-3.7,4.3c-2.2,3.9-1.3,8.7,2.2,11.5c2,1.5,4.7,2.2,5.9,4.4
				c0.9,1.7,0.6,3.7,1,5.6c0.6,2.4,2,4.5,4.1,5.8c2,1.3,4.3,2.2,6.8,2.6c4,0.7,8.2,0.4,12.1-0.7C228.9,209.2,229.9,208.8,231,208.2z
				"/>
			<path class="st1" d="M239.6,187.8c-5.3,0.7-10.5,1.8-15.7,3.2c-6.4,1.8-13.6,19.6-15.9,43.2c-1.1,11.7-2.9,23.6-1.5,39.4
				c28.6,5.2,57.9-0.2,67-17.7c-0.4-4.8-2.1-9.4-4.9-13.4c1.5-2.7,2-5.9,1.3-8.9c0,0,8.4-3.4,8.8-12.8c0.4-8.3-4-18.3-12.2-28.7
				l-9.7-2.8L239.6,187.8z"/>
			<path class="st20" d="M239.6,187.8c-5.3,0.7-10.5,1.8-15.7,3.2c-6.4,1.8-13.6,19.6-15.9,43.2c-1.1,11.7-2.9,23.6-1.5,39.4
				c28.6,5.2,57.9-0.2,67-17.7c-0.4-4.8-2.1-9.4-4.9-13.4c1.5-2.7,2-5.9,1.3-8.9c0,0,8.4-3.4,8.8-12.8c0.4-8.3-4-18.3-12.2-28.7
				l-9.7-2.8L239.6,187.8z"/>
			<path class="st21" d="M256.4,233.7c-7.5,3.8-22.9,3.7-28.2-6.9C228.9,237.2,247,244.2,256.4,233.7z"/>
			<path class="st15" d="M271.6,132.6c-4.2-4-10.7-6.4-20.4-5.2c-20,2.5-24.3,17.4-22,27c3.1,13.3,8.9,17.1,11.8,25.8l33.7-28.4
				c2.2,2.5,4,4.2,4,4.2l0.2,0.3c3.6,0.1,5.5-4.5,3.1-6.6C285.1,145.5,286.8,133.2,271.6,132.6z"/>
			<path class="st12" d="M280.1,163.4c0,12.1-4.4,15.9-6.9,17.1c-3.3,1.6-7.1,2.1-10.7,1.4l-3.1,9.1c7.8,18.8-16,15.6-20.6-2.2
				l4.6-18.3c0,0-3.1,2.2-7.7-0.8c-4-2.4-5.2-7.6-2.8-11.6c0.1-0.2,0.3-0.4,0.4-0.6c2-2.4,7.1-2.6,8.6,0.5c0.4,1.1,0.6,2.3,0.6,3.4
				c-0.1,0.6,0.1,1.1,0.4,1.6c0.5,0.5,1.2,0.6,1.9,0.3c3.3-1,2.1-4.5,2.2-7c5.1-2.1,5.1-7.1,5.6-11.7c3.5-4.1,19.4-5.3,22.3-4.3
				c0.9,0.6,2.3,3.2,3,6.3C279.1,152.2,279.8,157.8,280.1,163.4z"/>
			<path class="st13" d="M239.8,166.9c1.2-0.2,2.4,0.1,3.3,1c0,0,1.4-1,2.3-0.2c0.6,0.5,1,1.2,1.2,2c0,0,1.4-1.1,2.5,0
				c0.7,0.7,1.2,1.5,1.5,2.4c0,0,1.3-0.6,2.5,1.1c1.1,1.6,2.7,2.9,4.5,3.7c1.8,0.6,1,1.8-0.9,2.4s-17.6-11.6-17.6-11.6L239.8,166.9z
				"/>
			<path class="st13" d="M262.5,181.9c-4-0.9-8.4-2.2-11.5-4.4c-2.1-1.5-3.7-3.6-4.6-5.9c0,0,0.6,5.9,3.7,8.5s11.3,5.3,11.3,5.3
				L262.5,181.9z"/>
			<path class="st10" d="M260.9,157.8c0.1,1.1-0.8,2.1-1.9,2.1c-1.1,0.1-2.1-0.8-2.1-1.9c-0.1-1.1,0.7-2,1.8-2.1
				C259.7,155.8,260.7,156.6,260.9,157.8C260.8,157.7,260.8,157.8,260.9,157.8z"/>
			<path class="st10" d="M276.2,155.9c0.1,1.1-0.6,2.1-1.7,2.2c-1,0.2-2-0.5-2.1-1.6c0-0.1,0-0.2,0-0.2c-0.1-1.1,0.7-2,1.7-2.1
				C275.1,154,276.1,154.8,276.2,155.9z"/>
			<polygon class="st13" points="265.8,153.1 267.2,167.6 273.8,165 			"/>
			<path class="st17" d="M263.9,172.3C263.9,172.2,263.9,172.2,263.9,172.3L263.9,172.3L263.9,172.3L263.9,172.3l-0.2-0.1l-0.3-0.2
				c0,0-0.1,0-0.1,0c0,0-0.1,0.1-0.1,0.1c0,0.1,0,0.2,0.1,0.3l0.3,0.2l0.2,0.1h0.1c0,0,0.1,0,0.1,0c0,0,0.1,0,0.1-0.1
				c0-0.1,0-0.1,0-0.2C264,172.3,264,172.3,263.9,172.3z M267.3,172.8c0-0.2-0.1-0.4-0.2-0.6c-0.1-0.2-0.3-0.4-0.4-0.5
				c-0.3-0.4-0.7-0.8-1.2-1c-0.4-0.2-0.9-0.4-1.3-0.5c-0.5-0.2-1.1-0.2-1.6-0.2c-0.5,0-0.5,0.7,0,0.8s0.9,0.1,1.4,0.3
				c0.4,0.1,0.8,0.2,1.2,0.4c0.3,0.1,0.6,0.3,0.9,0.5c0.2,0.1,0.4,0.3,0.6,0.5c0.2,0.2,0.4,0.4,0.6,0.6S267.3,172.8,267.3,172.8z"/>
			<path class="st10" d="M254.8,153.1l3.7-3.8c1,1.1,1.1,2.8,0.1,3.9C257.5,154.1,255.9,154.1,254.8,153.1
				C254.8,153.1,254.8,153.1,254.8,153.1z"/>
			<path class="st10" d="M272.8,147.6l4.4,3c-0.7,1.2-2.3,1.6-3.5,0.8c0,0-0.1,0-0.1-0.1C272.3,150.5,272,148.9,272.8,147.6z"/>
			<path class="st12" d="M223.9,191c-8.9,2.3-12.2,9.1-12.2,14.6s3.8,14.7,11.8,30.2c6.6,12.7,11.9,11.1,11.9,11.1l6.9-15.1
				l-9.9-29.8C232.4,202.1,229,191.3,223.9,191z"/>
			<path class="st13" d="M234.4,208.2c-4,4.1-8.7,13.9-7.6,22l9-17.9L234.4,208.2z"/>
			<path class="st12" d="M256.9,192.3c1-3.6,1.7-6.7,1.1-8.6c-0.8-2.5-2.1-2.9-2.1-2.9c0.5-0.1,0.9-0.3,1.3-0.6
				c0.4-0.3,0.6-0.8,0.6-1.3c0-0.7-1.5-1-2.1-1.3c-1.6-0.9-3-2.1-4.2-3.6c-0.4-0.5-1-0.8-1.7-0.9c-0.5-1.2-1.1-2.3-2-2.7
				c-0.6-0.2-1.3-0.2-1.9,0.1c-0.3-0.9-0.9-1.6-1.8-2c-0.7-0.2-1.4-0.1-2,0.2c-0.5-0.5-1-1-1.6-1.5c-1.1-0.6-2.5-0.4-3.4,0.4
				c-1.2,1-1.6,2.5-2.1,3.9c-0.4,1.3-0.8,2.6-1,4c-0.2,1.3-0.4,2.5-0.4,3.8c-0.1,0.7,0,1.5,0.3,2.2c0.7,1.5,9.7,9.4,9.7,9.4
				c-0.3,5.1-14.2,27.9-16.3,34.8c-2.1,7.2,1.5,18.9,5,20.4s8,1.6,12.9-7.2C250.8,229.3,254.5,201.3,256.9,192.3z"/>
			<path class="st17" d="M256.1,180.6c-0.8,0.2-1.6,0.3-2.4,0.2c-1.1,0-2.2-0.5-2.9-1.4c0,0-0.4-3.3-0.7-3s0,2.9,0,2.9
				c-0.5-0.2-1-0.6-1.4-0.9c-0.7,0.5,0.4,1.2,1.4,1.7c0.6,0.4,1.2,0.7,1.9,0.9c1,0.3,2.1,0.4,3.2,0.3c0.7-0.1,1.4,0.1,1.9,0.5
				C256.6,181.4,256.1,180.6,256.1,180.6z"/>
			<path class="st17" d="M250.5,173.2c-0.1,0-0.2,0.1-0.4,0.1c-1.4,0-2.7,0.6-3.7,1.5c-1.2,1.1-2.3,2.4-3.1,3.9c0.3-1.4,1-2.6,2-3.6
				C247.3,173.1,249.3,172.5,250.5,173.2z"/>
			<path class="st17" d="M246.1,170.3v0.4c-2.8,1.3-5.1,3.5-6.4,6.3c0,0,0-1.7,2.5-4.3C243.2,171.5,244.6,170.7,246.1,170.3z"/>
			<path class="st17" d="M241.8,168.1c-1,0.6-1.9,1.5-2.5,2.5c-1.1,1.4-1.9,3-2.4,4.6c0.6-1.2,2.8-5.2,5.7-6.5
				C242.3,168.7,241.9,168.4,241.8,168.1z"/>
			<path class="st17" d="M240.7,188c2.2,1.8,5,2.7,7.9,2.8c-1.6,0.4-3.2,0.4-4.8,0.1L240.7,188z"/>
			<path class="st17" d="M251.1,220.8c1.5-6.8,2.6-13.6,3.9-20.4c0.6-3.4,1.3-6.8,2.2-10.1c0.5-1.7,0.7-3.4,0.8-5.1
				c0-0.9-0.2-1.7-0.6-2.4c-0.3-0.8-0.9-1.4-1.6-1.8l0,0c-0.1,0-0.1-0.1-0.1-0.2c0,0,0-0.1,0.1-0.1c0.5-0.1,1-0.4,1.4-0.7
				c0.2-0.2,0.3-0.4,0.4-0.6c0.1-0.2,0.1-0.5,0-0.7c-0.4-0.4-0.8-0.6-1.3-0.7c-0.5-0.2-1-0.5-1.5-0.8c-0.9-0.6-1.8-1.3-2.5-2.1
				c-0.4-0.4-0.8-0.8-1.1-1.2c-0.4-0.4-0.8-0.6-1.3-0.6c-0.1,0-0.1,0-0.2-0.1c-0.3-0.8-0.7-1.6-1.3-2.2c-0.3-0.3-0.7-0.5-1.1-0.5
				c-0.4,0-0.8,0-1.2,0.2c-0.1,0-0.2,0-0.2-0.1c0,0,0,0,0,0l0,0c-0.3-0.7-0.8-1.3-1.4-1.7c-0.7-0.3-1.4-0.3-2.1,0
				c-0.1,0-0.1,0-0.2,0c-0.5-0.7-1.1-1.2-1.9-1.6c-0.8-0.3-1.6-0.2-2.3,0.2c-0.7,0.4-1.3,1-1.7,1.8c-0.4,0.8-0.7,1.5-0.9,2.4
				c-0.6,1.6-0.9,3.3-1.1,5L234,179c0,0.4,0,0.8,0,1.3c0,0.4,0.1,0.8,0.2,1.2l0,0c0.7,0.9,1.4,1.7,2.2,2.5c0.8,0.8,1.6,1.6,2.4,2.3
				c1.6,1.5,3.3,3.1,5,4.5c0,0,0,0.1,0,0.1c-0.1,0.9-0.3,1.8-0.7,2.6c-0.3,0.8-0.6,1.6-1,2.4c-0.7,1.6-1.5,3.2-2.3,4.8
				c-1.6,3.1-3.2,6.2-4.9,9.3c1.6-3.1,3.2-6.2,4.8-9.4c0.8-1.6,1.5-3.2,2.2-4.8c0.3-0.8,0.7-1.6,1-2.4c0.3-0.8,0.5-1.7,0.6-2.5v0.1
				c-1.7-1.5-3.4-3-5-4.5c-0.8-0.8-1.6-1.5-2.4-2.3c-0.8-0.8-1.6-1.6-2.3-2.6l0,0c-0.2-0.4-0.3-0.9-0.3-1.3c0-0.4,0-0.9,0-1.3
				l0.3-2.6c0.2-1.7,0.6-3.4,1.1-5c0.2-0.8,0.5-1.6,0.9-2.4c0.4-0.8,1-1.5,1.8-1.9c0.8-0.4,1.7-0.5,2.6-0.2c0.8,0.4,1.5,1,2,1.7
				h-0.2c0.4-0.2,0.8-0.3,1.2-0.3c0.4,0,0.8,0.1,1.2,0.3c0.7,0.5,1.2,1.1,1.5,1.9l-0.2-0.1c0.4-0.2,0.9-0.3,1.4-0.2
				c0.5,0.1,0.9,0.3,1.3,0.6c0.6,0.7,1.1,1.5,1.4,2.4l-0.2-0.1c0.6,0,1.2,0.3,1.6,0.7c0.4,0.4,0.8,0.8,1.1,1.2
				c0.7,0.8,1.5,1.5,2.4,2.1c0.4,0.3,0.9,0.6,1.4,0.8c0.6,0.2,1.1,0.4,1.5,0.9c0.2,0.6,0,1.2-0.4,1.6c-0.4,0.4-0.9,0.6-1.5,0.8v-0.3
				c0.8,0.4,1.5,1.1,1.8,2c0.4,0.8,0.6,1.7,0.6,2.6c-0.1,1.7-0.4,3.5-0.9,5.1c-0.9,3.3-1.6,6.7-2.3,10.1
				C254,207.3,252.7,214.1,251.1,220.8z"/>
			<path class="st12" d="M278.1,239.5c-1.9,3.7-1.6,11.9,0.1,19c1.2,5,1.4,9.7,2.2,14.8c0.4,2.8,0.8,5.5,1,8.3
				c0.1,1.2,0.2,2.4,0.3,3.6c0,1.8-0.4,3.6-1.1,5.2c-2,5.1-2.9,10.5-3.8,15.8c-0.1,0.2-0.1,0.4,0,0.5c0.1,0.2,0.5,0.2,0.8,0.2
				c1.6-0.5,3-1.6,3.7-3.1c0.7-1.5,1.5-3,2.3-4.4c0.7,2.7,0,5.5-0.8,8.1s-1.6,5-2.6,7.4c-0.5,1.2-0.9,2.5,0.3,3.5
				c0.6,0.5,1.4,0.6,2.1,0.4c0.3,0.7,0.1,1.6,0.6,2.2c0.4,0.5,1,0.6,1.6,0.5c0.6-0.2,1.1-0.5,1.5-0.9c0.6-0.5,1.2-1.1,1.8-1.8
				c0.2-0.2,0.4-0.4,0.6-0.5c0.3-0.1,0.6-0.1,0.9-0.1c1-0.1,1.5-1.1,1.9-2c0.4-1,0.8-1.9,1.1-3c0-0.1,0.1-0.3,0.2-0.4
				c0.1-0.1,0.2-0.2,0.4-0.2c1.9-0.8,2.2-4.1,2.6-5.8c0.4-1.5,0.8-3,1.1-4.5c0.4-2.1,0.5-4.2,0.3-6.3c-0.1-6-1.5-9.5-1.4-15.6
				c0.2-7.4,1.5-28.6,0-35c-0.9-3.9-2.4-7.6-4.7-14.2C289.9,228,280,235.7,278.1,239.5z"/>
		</g>
	</g>
</g>
</svg>
