<svg id="Layer_1" data-name="Layer 1" xmlns="http://www.w3.org/2000/svg" viewBox="0 0 2011.56 39.7"><defs><style>.cls-1{fill:#0d5eaf;}</style></defs><polygon class="cls-1" points="72.34 39.7 53.62 39.7 53.62 24.21 46.45 24.21 46.45 39.7 0 39.7 0 0 34.31 0 34.31 28.01 11.24 28.01 11.24 11.1 22.72 11.1 22.72 17.1 17.24 17.1 17.24 22.01 28.31 22.01 28.31 6 6 6 6 33.7 40.45 33.7 40.45 18.21 59.62 18.21 59.62 33.7 72.34 33.7 72.34 39.7"/><polygon class="cls-1" points="137.85 39.7 119.13 39.7 119.13 24.21 111.96 24.21 111.96 39.7 65.51 39.7 65.51 0 99.82 0 99.82 28.01 76.75 28.01 76.75 11.1 88.23 11.1 88.23 17.1 82.75 17.1 82.75 22.01 93.82 22.01 93.82 6 71.51 6 71.51 33.7 105.96 33.7 105.96 18.21 125.13 18.21 125.13 33.7 137.85 33.7 137.85 39.7"/><polygon class="cls-1" points="203.36 39.7 184.64 39.7 184.64 24.21 177.47 24.21 177.47 39.7 131.02 39.7 131.02 0 165.33 0 165.33 28.01 142.26 28.01 142.26 11.1 153.74 11.1 153.74 17.1 148.26 17.1 148.26 22.01 159.33 22.01 159.33 6 137.02 6 137.02 33.7 171.47 33.7 171.47 18.21 190.64 18.21 190.64 33.7 203.36 33.7 203.36 39.7"/><polygon class="cls-1" points="268.87 39.7 250.15 39.7 250.15 24.21 242.98 24.21 242.98 39.7 196.53 39.7 196.53 0 230.84 0 230.84 28.01 207.77 28.01 207.77 11.1 219.25 11.1 219.25 17.1 213.77 17.1 213.77 22.01 224.84 22.01 224.84 6 202.53 6 202.53 33.7 236.98 33.7 236.98 18.21 256.15 18.21 256.15 33.7 268.87 33.7 268.87 39.7"/><polygon class="cls-1" points="334.38 39.7 315.66 39.7 315.66 24.21 308.49 24.21 308.49 39.7 262.04 39.7 262.04 0 296.35 0 296.35 28.01 273.28 28.01 273.28 11.1 284.76 11.1 284.76 17.1 279.28 17.1 279.28 22.01 290.35 22.01 290.35 6 268.04 6 268.04 33.7 302.49 33.7 302.49 18.21 321.66 18.21 321.66 33.7 334.38 33.7 334.38 39.7"/><polygon class="cls-1" points="399.89 39.7 381.17 39.7 381.17 24.21 374 24.21 374 39.7 327.55 39.7 327.55 0 361.86 0 361.86 28.01 338.79 28.01 338.79 11.1 350.27 11.1 350.27 17.1 344.79 17.1 344.79 22.01 355.86 22.01 355.86 6 333.55 6 333.55 33.7 368 33.7 368 18.21 387.17 18.21 387.17 33.7 399.89 33.7 399.89 39.7"/><polygon class="cls-1" points="465.4 39.7 446.68 39.7 446.68 24.21 439.51 24.21 439.51 39.7 393.06 39.7 393.06 0 427.37 0 427.37 28.01 404.3 28.01 404.3 11.1 415.78 11.1 415.78 17.1 410.3 17.1 410.3 22.01 421.37 22.01 421.37 6 399.06 6 399.06 33.7 433.51 33.7 433.51 18.21 452.68 18.21 452.68 33.7 465.4 33.7 465.4 39.7"/><polygon class="cls-1" points="530.91 39.7 512.19 39.7 512.19 24.21 505.02 24.21 505.02 39.7 458.57 39.7 458.57 0 492.88 0 492.88 28.01 469.81 28.01 469.81 11.1 481.29 11.1 481.29 17.1 475.81 17.1 475.81 22.01 486.88 22.01 486.88 6 464.57 6 464.57 33.7 499.02 33.7 499.02 18.21 518.19 18.21 518.19 33.7 530.91 33.7 530.91 39.7"/><polygon class="cls-1" points="596.42 39.7 577.71 39.7 577.71 24.21 570.53 24.21 570.53 39.7 524.08 39.7 524.08 0 558.39 0 558.39 28.01 535.32 28.01 535.32 11.1 546.8 11.1 546.8 17.1 541.32 17.1 541.32 22.01 552.39 22.01 552.39 6 530.08 6 530.08 33.7 564.53 33.7 564.53 18.21 583.71 18.21 583.71 33.7 596.42 33.7 596.42 39.7"/><polygon class="cls-1" points="661.93 39.7 643.22 39.7 643.22 24.21 636.05 24.21 636.05 39.7 589.6 39.7 589.6 0 623.9 0 623.9 28.01 600.83 28.01 600.83 11.1 612.31 11.1 612.31 17.1 606.83 17.1 606.83 22.01 617.9 22.01 617.9 6 595.6 6 595.6 33.7 630.05 33.7 630.05 18.21 649.22 18.21 649.22 33.7 661.93 33.7 661.93 39.7"/><polygon class="cls-1" points="727.34 39.7 708.62 39.7 708.62 24.21 701.45 24.21 701.45 39.7 655 39.7 655 0 689.31 0 689.31 28.01 666.24 28.01 666.24 11.1 677.72 11.1 677.72 17.1 672.24 17.1 672.24 22.01 683.31 22.01 683.31 6 661 6 661 33.7 695.45 33.7 695.45 18.21 714.62 18.21 714.62 33.7 727.34 33.7 727.34 39.7"/><polygon class="cls-1" points="792.85 39.7 774.13 39.7 774.13 24.21 766.96 24.21 766.96 39.7 720.51 39.7 720.51 0 754.82 0 754.82 28.01 731.75 28.01 731.75 11.1 743.23 11.1 743.23 17.1 737.75 17.1 737.75 22.01 748.82 22.01 748.82 6 726.51 6 726.51 33.7 760.96 33.7 760.96 18.21 780.13 18.21 780.13 33.7 792.85 33.7 792.85 39.7"/><polygon class="cls-1" points="858.36 39.7 839.64 39.7 839.64 24.21 832.47 24.21 832.47 39.7 786.02 39.7 786.02 0 820.33 0 820.33 28.01 797.26 28.01 797.26 11.1 808.74 11.1 808.74 17.1 803.26 17.1 803.26 22.01 814.33 22.01 814.33 6 792.02 6 792.02 33.7 826.47 33.7 826.47 18.21 845.64 18.21 845.64 33.7 858.36 33.7 858.36 39.7"/><polygon class="cls-1" points="923.87 39.7 905.15 39.7 905.15 24.21 897.98 24.21 897.98 39.7 851.53 39.7 851.53 0 885.84 0 885.84 28.01 862.77 28.01 862.77 11.1 874.25 11.1 874.25 17.1 868.77 17.1 868.77 22.01 879.84 22.01 879.84 6 857.53 6 857.53 33.7 891.98 33.7 891.98 18.21 911.15 18.21 911.15 33.7 923.87 33.7 923.87 39.7"/><polygon class="cls-1" points="989.38 39.7 970.66 39.7 970.66 24.21 963.49 24.21 963.49 39.7 917.04 39.7 917.04 0 951.35 0 951.35 28.01 928.28 28.01 928.28 11.1 939.76 11.1 939.76 17.1 934.28 17.1 934.28 22.01 945.35 22.01 945.35 6 923.04 6 923.04 33.7 957.49 33.7 957.49 18.21 976.66 18.21 976.66 33.7 989.38 33.7 989.38 39.7"/><polygon class="cls-1" points="1054.89 39.7 1036.17 39.7 1036.17 24.21 1029 24.21 1029 39.7 982.55 39.7 982.55 0 1016.86 0 1016.86 28.01 993.79 28.01 993.79 11.1 1005.27 11.1 1005.27 17.1 999.79 17.1 999.79 22.01 1010.86 22.01 1010.86 6 988.55 6 988.55 33.7 1023 33.7 1023 18.21 1042.17 18.21 1042.17 33.7 1054.89 33.7 1054.89 39.7"/><polygon class="cls-1" points="1120.4 39.7 1101.68 39.7 1101.68 24.21 1094.51 24.21 1094.51 39.7 1048.06 39.7 1048.06 0 1082.37 0 1082.37 28.01 1059.3 28.01 1059.3 11.1 1070.78 11.1 1070.78 17.1 1065.3 17.1 1065.3 22.01 1076.37 22.01 1076.37 6 1054.06 6 1054.06 33.7 1088.51 33.7 1088.51 18.21 1107.68 18.21 1107.68 33.7 1120.4 33.7 1120.4 39.7"/><polygon class="cls-1" points="1185.91 39.7 1167.19 39.7 1167.19 24.21 1160.02 24.21 1160.02 39.7 1113.57 39.7 1113.57 0 1147.88 0 1147.88 28.01 1124.81 28.01 1124.81 11.1 1136.29 11.1 1136.29 17.1 1130.81 17.1 1130.81 22.01 1141.88 22.01 1141.88 6 1119.57 6 1119.57 33.7 1154.02 33.7 1154.02 18.21 1173.19 18.21 1173.19 33.7 1185.91 33.7 1185.91 39.7"/><polygon class="cls-1" points="1251.42 39.7 1232.7 39.7 1232.7 24.21 1225.54 24.21 1225.54 39.7 1179.08 39.7 1179.08 0 1213.39 0 1213.39 28.01 1190.32 28.01 1190.32 11.1 1201.8 11.1 1201.8 17.1 1196.32 17.1 1196.32 22.01 1207.39 22.01 1207.39 6 1185.08 6 1185.08 33.7 1219.54 33.7 1219.54 18.21 1238.7 18.21 1238.7 33.7 1251.42 33.7 1251.42 39.7"/><polygon class="cls-1" points="1316.93 39.7 1298.21 39.7 1298.21 24.21 1291.05 24.21 1291.05 39.7 1244.6 39.7 1244.6 0 1278.9 0 1278.9 28.01 1255.83 28.01 1255.83 11.1 1267.31 11.1 1267.31 17.1 1261.83 17.1 1261.83 22.01 1272.9 22.01 1272.9 6 1250.6 6 1250.6 33.7 1285.05 33.7 1285.05 18.21 1304.21 18.21 1304.21 33.7 1316.93 33.7 1316.93 39.7"/><polygon class="cls-1" points="1382.34 39.7 1363.62 39.7 1363.62 24.21 1356.45 24.21 1356.45 39.7 1310 39.7 1310 0 1344.31 0 1344.31 28.01 1321.24 28.01 1321.24 11.1 1332.72 11.1 1332.72 17.1 1327.24 17.1 1327.24 22.01 1338.31 22.01 1338.31 6 1316 6 1316 33.7 1350.45 33.7 1350.45 18.21 1369.62 18.21 1369.62 33.7 1382.34 33.7 1382.34 39.7"/><polygon class="cls-1" points="1447.85 39.7 1429.13 39.7 1429.13 24.21 1421.96 24.21 1421.96 39.7 1375.51 39.7 1375.51 0 1409.82 0 1409.82 28.01 1386.75 28.01 1386.75 11.1 1398.23 11.1 1398.23 17.1 1392.75 17.1 1392.75 22.01 1403.82 22.01 1403.82 6 1381.51 6 1381.51 33.7 1415.96 33.7 1415.96 18.21 1435.13 18.21 1435.13 33.7 1447.85 33.7 1447.85 39.7"/><polygon class="cls-1" points="1513.36 39.7 1494.64 39.7 1494.64 24.21 1487.47 24.21 1487.47 39.7 1441.02 39.7 1441.02 0 1475.33 0 1475.33 28.01 1452.26 28.01 1452.26 11.1 1463.74 11.1 1463.74 17.1 1458.26 17.1 1458.26 22.01 1469.33 22.01 1469.33 6 1447.02 6 1447.02 33.7 1481.47 33.7 1481.47 18.21 1500.64 18.21 1500.64 33.7 1513.36 33.7 1513.36 39.7"/><polygon class="cls-1" points="1578.87 39.7 1560.15 39.7 1560.15 24.21 1552.98 24.21 1552.98 39.7 1506.53 39.7 1506.53 0 1540.84 0 1540.84 28.01 1517.77 28.01 1517.77 11.1 1529.25 11.1 1529.25 17.1 1523.77 17.1 1523.77 22.01 1534.84 22.01 1534.84 6 1512.53 6 1512.53 33.7 1546.98 33.7 1546.98 18.21 1566.15 18.21 1566.15 33.7 1578.87 33.7 1578.87 39.7"/><polygon class="cls-1" points="1644.38 39.7 1625.66 39.7 1625.66 24.21 1618.49 24.21 1618.49 39.7 1572.04 39.7 1572.04 0 1606.35 0 1606.35 28.01 1583.28 28.01 1583.28 11.1 1594.76 11.1 1594.76 17.1 1589.28 17.1 1589.28 22.01 1600.35 22.01 1600.35 6 1578.04 6 1578.04 33.7 1612.49 33.7 1612.49 18.21 1631.66 18.21 1631.66 33.7 1644.38 33.7 1644.38 39.7"/><polygon class="cls-1" points="1709.89 39.7 1691.17 39.7 1691.17 24.21 1684 24.21 1684 39.7 1637.55 39.7 1637.55 0 1671.86 0 1671.86 28.01 1648.79 28.01 1648.79 11.1 1660.27 11.1 1660.27 17.1 1654.79 17.1 1654.79 22.01 1665.86 22.01 1665.86 6 1643.55 6 1643.55 33.7 1678 33.7 1678 18.21 1697.17 18.21 1697.17 33.7 1709.89 33.7 1709.89 39.7"/><polygon class="cls-1" points="1775.4 39.7 1756.68 39.7 1756.68 24.21 1749.51 24.21 1749.51 39.7 1703.06 39.7 1703.06 0 1737.37 0 1737.37 28.01 1714.3 28.01 1714.3 11.1 1725.78 11.1 1725.78 17.1 1720.3 17.1 1720.3 22.01 1731.37 22.01 1731.37 6 1709.06 6 1709.06 33.7 1743.51 33.7 1743.51 18.21 1762.68 18.21 1762.68 33.7 1775.4 33.7 1775.4 39.7"/><polygon class="cls-1" points="1840.91 39.7 1822.19 39.7 1822.19 24.21 1815.02 24.21 1815.02 39.7 1768.57 39.7 1768.57 0 1802.88 0 1802.88 28.01 1779.81 28.01 1779.81 11.1 1791.29 11.1 1791.29 17.1 1785.81 17.1 1785.81 22.01 1796.88 22.01 1796.88 6 1774.57 6 1774.57 33.7 1809.02 33.7 1809.02 18.21 1828.19 18.21 1828.19 33.7 1840.91 33.7 1840.91 39.7"/><polygon class="cls-1" points="1906.42 39.7 1887.7 39.7 1887.7 24.21 1880.54 24.21 1880.54 39.7 1834.08 39.7 1834.08 0 1868.39 0 1868.39 28.01 1845.32 28.01 1845.32 11.1 1856.8 11.1 1856.8 17.1 1851.32 17.1 1851.32 22.01 1862.39 22.01 1862.39 6 1840.08 6 1840.08 33.7 1874.54 33.7 1874.54 18.21 1893.7 18.21 1893.7 33.7 1906.42 33.7 1906.42 39.7"/><polygon class="cls-1" points="1971.93 39.7 1953.21 39.7 1953.21 24.21 1946.05 24.21 1946.05 39.7 1899.6 39.7 1899.6 0 1933.9 0 1933.9 28.01 1910.83 28.01 1910.83 11.1 1922.31 11.1 1922.31 17.1 1916.83 17.1 1916.83 22.01 1927.9 22.01 1927.9 6 1905.6 6 1905.6 33.7 1940.05 33.7 1940.05 18.21 1959.21 18.21 1959.21 33.7 1971.93 33.7 1971.93 39.7"/><polygon class="cls-1" points="2011.56 39.7 1965.11 39.7 1965.11 0 1999.42 0 1999.42 28.01 1976.34 28.01 1976.34 11.1 1987.82 11.1 1987.82 17.1 1982.34 17.1 1982.34 22.01 1993.42 22.01 1993.42 6 1971.11 6 1971.11 33.7 2005.56 33.7 2005.56 3 2011.56 3 2011.56 39.7"/></svg>