<svg id="Layer_1" data-name="Layer 1" xmlns="http://www.w3.org/2000/svg" xmlns:xlink="http://www.w3.org/1999/xlink" viewBox="0 0 1200 675"><defs><style>.cls-1{fill:url(#linear-gradient);}.cls-2,.cls-3{font-size:27.19px;}.cls-2,.cls-3,.cls-4,.cls-6{fill:#fff;}.cls-2{font-family:OpenSans-Light, Open Sans;font-weight:300;}.cls-3{font-family:OpenSans-Bold, Open Sans;font-weight:700;}.cls-4{font-size:60px;font-family:OpenSans-ExtraBold, Open Sans;font-weight:800;}.cls-5,.cls-7{fill:none;}.cls-5{stroke:#fff;stroke-miterlimit:10;stroke-width:1.27px;}</style><linearGradient id="linear-gradient" x1="131.25" y1="-131.25" x2="1068.75" y2="806.25" gradientUnits="userSpaceOnUse"><stop offset="0" stop-color="#3b82f6"/><stop offset="0.53" stop-color="#1d4ed8"/><stop offset="1" stop-color="#1e40af"/></linearGradient></defs><rect class="cls-1" width="1200" height="675"/><text class="cls-2" transform="translate(898.02 632.89)">Greeks of former USSR</text><text class="cls-3" transform="translate(45.44 259.95)">Open Letter</text><text class="cls-4" transform="translate(35.67 358.39)">Help stop discrimination of Greek <tspan x="0" y="72">expatriates from former USSR</tspan></text><rect class="cls-5" x="35.67" y="224.21" width="193.11" height="52.51" rx="9.61"/><rect class="cls-6" x="1003.72" y="23.48" width="175" height="175"/><rect x="1062.05" y="34.08" width="5.3" height="5.3"/><rect x="1083.26" y="34.08" width="5.3" height="5.3"/><rect x="1099.17" y="34.08" width="5.3" height="5.3"/><rect x="1115.08" y="34.08" width="5.3" height="5.3"/><rect x="1067.35" y="39.39" width="5.3" height="5.3"/><rect x="1072.66" y="39.39" width="5.3" height="5.3"/><rect x="1077.96" y="39.39" width="5.3" height="5.3"/><rect x="1083.26" y="39.39" width="5.3" height="5.3"/><rect x="1088.57" y="39.39" width="5.3" height="5.3"/><rect x="1093.87" y="39.39" width="5.3" height="5.3"/><rect x="1104.47" y="39.39" width="5.3" height="5.3"/><rect x="1109.78" y="39.39" width="5.3" height="5.3"/><rect x="1120.38" y="39.39" width="5.3" height="5.3"/><rect x="1072.66" y="44.69" width="5.3" height="5.3"/><rect x="1083.26" y="44.69" width="5.3" height="5.3"/><rect x="1099.17" y="44.69" width="5.3" height="5.3"/><rect x="1104.47" y="44.69" width="5.3" height="5.3"/><rect x="1109.78" y="44.69" width="5.3" height="5.3"/><rect x="1120.38" y="44.69" width="5.3" height="5.3"/><rect x="1062.05" y="49.99" width="5.3" height="5.3"/><rect x="1067.35" y="49.99" width="5.3" height="5.3"/><rect x="1072.66" y="49.99" width="5.3" height="5.3"/><rect x="1077.96" y="49.99" width="5.3" height="5.3"/><rect x="1083.26" y="49.99" width="5.3" height="5.3"/><rect x="1088.57" y="49.99" width="5.3" height="5.3"/><rect x="1093.87" y="49.99" width="5.3" height="5.3"/><rect x="1109.78" y="49.99" width="5.3" height="5.3"/><rect x="1115.08" y="49.99" width="5.3" height="5.3"/><rect x="1062.05" y="55.3" width="5.3" height="5.3"/><rect x="1077.96" y="55.3" width="5.3" height="5.3"/><rect x="1083.26" y="55.3" width="5.3" height="5.3"/><rect x="1088.57" y="55.3" width="5.3" height="5.3"/><rect x="1099.17" y="55.3" width="5.3" height="5.3"/><rect x="1104.47" y="55.3" width="5.3" height="5.3"/><rect x="1109.78" y="55.3" width="5.3" height="5.3"/><rect x="1056.75" y="60.6" width="5.3" height="5.3"/><rect x="1062.05" y="60.6" width="5.3" height="5.3"/><rect x="1083.26" y="60.6" width="5.3" height="5.3"/><rect x="1088.57" y="60.6" width="5.3" height="5.3"/><rect x="1115.08" y="60.6" width="5.3" height="5.3"/><rect x="1120.38" y="60.6" width="5.3" height="5.3"/><rect x="1056.75" y="65.9" width="5.3" height="5.3"/><rect x="1067.35" y="65.9" width="5.3" height="5.3"/><rect x="1077.96" y="65.9" width="5.3" height="5.3"/><rect x="1088.57" y="65.9" width="5.3" height="5.3"/><rect x="1099.17" y="65.9" width="5.3" height="5.3"/><rect x="1109.78" y="65.9" width="5.3" height="5.3"/><rect x="1120.38" y="65.9" width="5.3" height="5.3"/><rect x="1067.35" y="71.21" width="5.3" height="5.3"/><rect x="1077.96" y="71.21" width="5.3" height="5.3"/><rect x="1088.57" y="71.21" width="5.3" height="5.3"/><rect x="1104.47" y="71.21" width="5.3" height="5.3"/><rect x="1109.78" y="71.21" width="5.3" height="5.3"/><rect x="1014.32" y="76.51" width="5.3" height="5.3"/><rect x="1030.23" y="76.51" width="5.3" height="5.3"/><rect x="1040.84" y="76.51" width="5.3" height="5.3"/><rect x="1046.14" y="76.51" width="5.3" height="5.3"/><rect x="1056.75" y="76.51" width="5.3" height="5.3"/><rect x="1067.35" y="76.51" width="5.3" height="5.3"/><rect x="1093.87" y="76.51" width="5.3" height="5.3"/><rect x="1120.38" y="76.51" width="5.3" height="5.3"/><rect x="1125.69" y="76.51" width="5.3" height="5.3"/><rect x="1136.29" y="76.51" width="5.3" height="5.3"/><rect x="1019.63" y="81.81" width="5.3" height="5.3"/><rect x="1024.93" y="81.81" width="5.3" height="5.3"/><rect x="1035.54" y="81.81" width="5.3" height="5.3"/><rect x="1051.44" y="81.81" width="5.3" height="5.3"/><rect x="1056.75" y="81.81" width="5.3" height="5.3"/><rect x="1067.35" y="81.81" width="5.3" height="5.3"/><rect x="1088.57" y="81.81" width="5.3" height="5.3"/><rect x="1093.87" y="81.81" width="5.3" height="5.3"/><rect x="1104.47" y="81.81" width="5.3" height="5.3"/><rect x="1109.78" y="81.81" width="5.3" height="5.3"/><rect x="1120.38" y="81.81" width="5.3" height="5.3"/><rect x="1125.69" y="81.81" width="5.3" height="5.3"/><rect x="1130.99" y="81.81" width="5.3" height="5.3"/><rect x="1146.9" y="81.81" width="5.3" height="5.3"/><rect x="1162.81" y="81.81" width="5.3" height="5.3"/><rect x="1030.23" y="87.11" width="5.3" height="5.3"/><rect x="1040.84" y="87.11" width="5.3" height="5.3"/><rect x="1046.14" y="87.11" width="5.3" height="5.3"/><rect x="1051.44" y="87.11" width="5.3" height="5.3"/><rect x="1056.75" y="87.11" width="5.3" height="5.3"/><rect x="1062.05" y="87.11" width="5.3" height="5.3"/><rect x="1072.66" y="87.11" width="5.3" height="5.3"/><rect x="1077.96" y="87.11" width="5.3" height="5.3"/><rect x="1099.17" y="87.11" width="5.3" height="5.3"/><rect x="1115.08" y="87.11" width="5.3" height="5.3"/><rect x="1125.69" y="87.11" width="5.3" height="5.3"/><rect x="1136.29" y="87.11" width="5.3" height="5.3"/><rect x="1146.9" y="87.11" width="5.3" height="5.3"/><rect x="1152.2" y="87.11" width="5.3" height="5.3"/><rect x="1157.51" y="87.11" width="5.3" height="5.3"/><rect x="1014.32" y="92.42" width="5.3" height="5.3"/><rect x="1019.63" y="92.42" width="5.3" height="5.3"/><rect x="1024.93" y="92.42" width="5.3" height="5.3"/><rect x="1030.23" y="92.42" width="5.3" height="5.3"/><rect x="1040.84" y="92.42" width="5.3" height="5.3"/><rect x="1051.44" y="92.42" width="5.3" height="5.3"/><rect x="1056.75" y="92.42" width="5.3" height="5.3"/><rect x="1072.66" y="92.42" width="5.3" height="5.3"/><rect x="1077.96" y="92.42" width="5.3" height="5.3"/><rect x="1088.57" y="92.42" width="5.3" height="5.3"/><rect x="1093.87" y="92.42" width="5.3" height="5.3"/><rect x="1136.29" y="92.42" width="5.3" height="5.3"/><rect x="1152.2" y="92.42" width="5.3" height="5.3"/><rect x="1157.51" y="92.42" width="5.3" height="5.3"/><rect x="1024.93" y="97.72" width="5.3" height="5.3"/><rect x="1035.54" y="97.72" width="5.3" height="5.3"/><rect x="1046.14" y="97.72" width="5.3" height="5.3"/><rect x="1062.05" y="97.72" width="5.3" height="5.3"/><rect x="1099.17" y="97.72" width="5.3" height="5.3"/><rect x="1104.47" y="97.72" width="5.3" height="5.3"/><rect x="1115.08" y="97.72" width="5.3" height="5.3"/><rect x="1120.38" y="97.72" width="5.3" height="5.3"/><rect x="1125.69" y="97.72" width="5.3" height="5.3"/><rect x="1130.99" y="97.72" width="5.3" height="5.3"/><rect x="1146.9" y="97.72" width="5.3" height="5.3"/><rect x="1157.51" y="97.72" width="5.3" height="5.3"/><rect x="1162.81" y="97.72" width="5.3" height="5.3"/><rect x="1014.32" y="103.02" width="5.3" height="5.3"/><rect x="1019.63" y="103.02" width="5.3" height="5.3"/><rect x="1030.23" y="103.02" width="5.3" height="5.3"/><rect x="1072.66" y="103.02" width="5.3" height="5.3"/><rect x="1077.96" y="103.02" width="5.3" height="5.3"/><rect x="1093.87" y="103.02" width="5.3" height="5.3"/><rect x="1115.08" y="103.02" width="5.3" height="5.3"/><rect x="1125.69" y="103.02" width="5.3" height="5.3"/><rect x="1014.32" y="108.33" width="5.3" height="5.3"/><rect x="1019.63" y="108.33" width="5.3" height="5.3"/><rect x="1024.93" y="108.33" width="5.3" height="5.3"/><rect x="1035.54" y="108.33" width="5.3" height="5.3"/><rect x="1046.14" y="108.33" width="5.3" height="5.3"/><rect x="1062.05" y="108.33" width="5.3" height="5.3"/><rect x="1067.35" y="108.33" width="5.3" height="5.3"/><rect x="1093.87" y="108.33" width="5.3" height="5.3"/><rect x="1099.17" y="108.33" width="5.3" height="5.3"/><rect x="1104.47" y="108.33" width="5.3" height="5.3"/><rect x="1109.78" y="108.33" width="5.3" height="5.3"/><rect x="1120.38" y="108.33" width="5.3" height="5.3"/><rect x="1125.69" y="108.33" width="5.3" height="5.3"/><rect x="1146.9" y="108.33" width="5.3" height="5.3"/><rect x="1152.2" y="108.33" width="5.3" height="5.3"/><rect x="1157.51" y="108.33" width="5.3" height="5.3"/><rect x="1162.81" y="108.33" width="5.3" height="5.3"/><rect x="1014.32" y="113.63" width="5.3" height="5.3"/><rect x="1040.84" y="113.63" width="5.3" height="5.3"/><rect x="1051.44" y="113.63" width="5.3" height="5.3"/><rect x="1056.75" y="113.63" width="5.3" height="5.3"/><rect x="1062.05" y="113.63" width="5.3" height="5.3"/><rect x="1072.66" y="113.63" width="5.3" height="5.3"/><rect x="1083.26" y="113.63" width="5.3" height="5.3"/><rect x="1088.57" y="113.63" width="5.3" height="5.3"/><rect x="1099.17" y="113.63" width="5.3" height="5.3"/><rect x="1104.47" y="113.63" width="5.3" height="5.3"/><rect x="1109.78" y="113.63" width="5.3" height="5.3"/><rect x="1115.08" y="113.63" width="5.3" height="5.3"/><rect x="1120.38" y="113.63" width="5.3" height="5.3"/><rect x="1125.69" y="113.63" width="5.3" height="5.3"/><rect x="1130.99" y="113.63" width="5.3" height="5.3"/><rect x="1141.6" y="113.63" width="5.3" height="5.3"/><rect x="1146.9" y="113.63" width="5.3" height="5.3"/><rect x="1157.51" y="113.63" width="5.3" height="5.3"/><rect x="1014.32" y="118.93" width="5.3" height="5.3"/><rect x="1024.93" y="118.93" width="5.3" height="5.3"/><rect x="1046.14" y="118.93" width="5.3" height="5.3"/><rect x="1051.44" y="118.93" width="5.3" height="5.3"/><rect x="1056.75" y="118.93" width="5.3" height="5.3"/><rect x="1062.05" y="118.93" width="5.3" height="5.3"/><rect x="1067.35" y="118.93" width="5.3" height="5.3"/><rect x="1077.96" y="118.93" width="5.3" height="5.3"/><rect x="1083.26" y="118.93" width="5.3" height="5.3"/><rect x="1088.57" y="118.93" width="5.3" height="5.3"/><rect x="1093.87" y="118.93" width="5.3" height="5.3"/><rect x="1104.47" y="118.93" width="5.3" height="5.3"/><rect x="1115.08" y="118.93" width="5.3" height="5.3"/><rect x="1125.69" y="118.93" width="5.3" height="5.3"/><rect x="1157.51" y="118.93" width="5.3" height="5.3"/><rect x="1019.63" y="124.24" width="5.3" height="5.3"/><rect x="1035.54" y="124.24" width="5.3" height="5.3"/><rect x="1067.35" y="124.24" width="5.3" height="5.3"/><rect x="1072.66" y="124.24" width="5.3" height="5.3"/><rect x="1077.96" y="124.24" width="5.3" height="5.3"/><rect x="1093.87" y="124.24" width="5.3" height="5.3"/><rect x="1104.47" y="124.24" width="5.3" height="5.3"/><rect x="1125.69" y="124.24" width="5.3" height="5.3"/><rect x="1130.99" y="124.24" width="5.3" height="5.3"/><rect x="1136.29" y="124.24" width="5.3" height="5.3"/><rect x="1146.9" y="124.24" width="5.3" height="5.3"/><rect x="1162.81" y="124.24" width="5.3" height="5.3"/><rect x="1014.32" y="129.54" width="5.3" height="5.3"/><rect x="1030.23" y="129.54" width="5.3" height="5.3"/><rect x="1035.54" y="129.54" width="5.3" height="5.3"/><rect x="1040.84" y="129.54" width="5.3" height="5.3"/><rect x="1046.14" y="129.54" width="5.3" height="5.3"/><rect x="1056.75" y="129.54" width="5.3" height="5.3"/><rect x="1062.05" y="129.54" width="5.3" height="5.3"/><rect x="1067.35" y="129.54" width="5.3" height="5.3"/><rect x="1083.26" y="129.54" width="5.3" height="5.3"/><rect x="1104.47" y="129.54" width="5.3" height="5.3"/><rect x="1120.38" y="129.54" width="5.3" height="5.3"/><rect x="1136.29" y="129.54" width="5.3" height="5.3"/><rect x="1141.6" y="129.54" width="5.3" height="5.3"/><rect x="1157.51" y="129.54" width="5.3" height="5.3"/><rect x="1162.81" y="129.54" width="5.3" height="5.3"/><rect x="1024.93" y="134.84" width="5.3" height="5.3"/><rect x="1030.23" y="134.84" width="5.3" height="5.3"/><rect x="1035.54" y="134.84" width="5.3" height="5.3"/><rect x="1040.84" y="134.84" width="5.3" height="5.3"/><rect x="1051.44" y="134.84" width="5.3" height="5.3"/><rect x="1056.75" y="134.84" width="5.3" height="5.3"/><rect x="1062.05" y="134.84" width="5.3" height="5.3"/><rect x="1067.35" y="134.84" width="5.3" height="5.3"/><rect x="1072.66" y="134.84" width="5.3" height="5.3"/><rect x="1077.96" y="134.84" width="5.3" height="5.3"/><rect x="1083.26" y="134.84" width="5.3" height="5.3"/><rect x="1104.47" y="134.84" width="5.3" height="5.3"/><rect x="1109.78" y="134.84" width="5.3" height="5.3"/><rect x="1115.08" y="134.84" width="5.3" height="5.3"/><rect x="1130.99" y="134.84" width="5.3" height="5.3"/><rect x="1141.6" y="134.84" width="5.3" height="5.3"/><rect x="1157.51" y="134.84" width="5.3" height="5.3"/><rect x="1162.81" y="134.84" width="5.3" height="5.3"/><rect x="1014.32" y="140.14" width="5.3" height="5.3"/><rect x="1024.93" y="140.14" width="5.3" height="5.3"/><rect x="1046.14" y="140.14" width="5.3" height="5.3"/><rect x="1051.44" y="140.14" width="5.3" height="5.3"/><rect x="1056.75" y="140.14" width="5.3" height="5.3"/><rect x="1072.66" y="140.14" width="5.3" height="5.3"/><rect x="1088.57" y="140.14" width="5.3" height="5.3"/><rect x="1093.87" y="140.14" width="5.3" height="5.3"/><rect x="1099.17" y="140.14" width="5.3" height="5.3"/><rect x="1120.38" y="140.14" width="5.3" height="5.3"/><rect x="1125.69" y="140.14" width="5.3" height="5.3"/><rect x="1130.99" y="140.14" width="5.3" height="5.3"/><rect x="1136.29" y="140.14" width="5.3" height="5.3"/><rect x="1141.6" y="140.14" width="5.3" height="5.3"/><rect x="1152.2" y="140.14" width="5.3" height="5.3"/><rect x="1056.75" y="145.45" width="5.3" height="5.3"/><rect x="1062.05" y="145.45" width="5.3" height="5.3"/><rect x="1072.66" y="145.45" width="5.3" height="5.3"/><rect x="1077.96" y="145.45" width="5.3" height="5.3"/><rect x="1083.26" y="145.45" width="5.3" height="5.3"/><rect x="1120.38" y="145.45" width="5.3" height="5.3"/><rect x="1141.6" y="145.45" width="5.3" height="5.3"/><rect x="1152.2" y="145.45" width="5.3" height="5.3"/><rect x="1157.51" y="145.45" width="5.3" height="5.3"/><rect x="1162.81" y="145.45" width="5.3" height="5.3"/><rect x="1077.96" y="150.75" width="5.3" height="5.3"/><rect x="1083.26" y="150.75" width="5.3" height="5.3"/><rect x="1088.57" y="150.75" width="5.3" height="5.3"/><rect x="1104.47" y="150.75" width="5.3" height="5.3"/><rect x="1120.38" y="150.75" width="5.3" height="5.3"/><rect x="1130.99" y="150.75" width="5.3" height="5.3"/><rect x="1141.6" y="150.75" width="5.3" height="5.3"/><rect x="1157.51" y="150.75" width="5.3" height="5.3"/><rect x="1056.75" y="156.05" width="5.3" height="5.3"/><rect x="1062.05" y="156.05" width="5.3" height="5.3"/><rect x="1083.26" y="156.05" width="5.3" height="5.3"/><rect x="1120.38" y="156.05" width="5.3" height="5.3"/><rect x="1141.6" y="156.05" width="5.3" height="5.3"/><rect x="1146.9" y="156.05" width="5.3" height="5.3"/><rect x="1152.2" y="156.05" width="5.3" height="5.3"/><rect x="1157.51" y="156.05" width="5.3" height="5.3"/><rect x="1088.57" y="161.36" width="5.3" height="5.3"/><rect x="1104.47" y="161.36" width="5.3" height="5.3"/><rect x="1109.78" y="161.36" width="5.3" height="5.3"/><rect x="1120.38" y="161.36" width="5.3" height="5.3"/><rect x="1125.69" y="161.36" width="5.3" height="5.3"/><rect x="1130.99" y="161.36" width="5.3" height="5.3"/><rect x="1136.29" y="161.36" width="5.3" height="5.3"/><rect x="1141.6" y="161.36" width="5.3" height="5.3"/><rect x="1162.81" y="161.36" width="5.3" height="5.3"/><rect x="1056.75" y="166.66" width="5.3" height="5.3"/><rect x="1067.35" y="166.66" width="5.3" height="5.3"/><rect x="1077.96" y="166.66" width="5.3" height="5.3"/><rect x="1088.57" y="166.66" width="5.3" height="5.3"/><rect x="1120.38" y="166.66" width="5.3" height="5.3"/><rect x="1130.99" y="166.66" width="5.3" height="5.3"/><rect x="1136.29" y="166.66" width="5.3" height="5.3"/><rect x="1141.6" y="166.66" width="5.3" height="5.3"/><rect x="1146.9" y="166.66" width="5.3" height="5.3"/><rect x="1152.2" y="166.66" width="5.3" height="5.3"/><rect x="1157.51" y="166.66" width="5.3" height="5.3"/><rect x="1083.26" y="171.96" width="5.3" height="5.3"/><rect x="1104.47" y="171.96" width="5.3" height="5.3"/><rect x="1115.08" y="171.96" width="5.3" height="5.3"/><rect x="1120.38" y="171.96" width="5.3" height="5.3"/><rect x="1125.69" y="171.96" width="5.3" height="5.3"/><rect x="1141.6" y="171.96" width="5.3" height="5.3"/><rect x="1146.9" y="171.96" width="5.3" height="5.3"/><rect x="1152.2" y="171.96" width="5.3" height="5.3"/><rect x="1162.81" y="171.96" width="5.3" height="5.3"/><rect x="1072.66" y="177.27" width="5.3" height="5.3"/><rect x="1083.26" y="177.27" width="5.3" height="5.3"/><rect x="1088.57" y="177.27" width="5.3" height="5.3"/><rect x="1099.17" y="177.27" width="5.3" height="5.3"/><rect x="1104.47" y="177.27" width="5.3" height="5.3"/><rect x="1109.78" y="177.27" width="5.3" height="5.3"/><rect x="1115.08" y="177.27" width="5.3" height="5.3"/><rect x="1120.38" y="177.27" width="5.3" height="5.3"/><rect x="1125.69" y="177.27" width="5.3" height="5.3"/><rect x="1141.6" y="177.27" width="5.3" height="5.3"/><rect x="1157.51" y="177.27" width="5.3" height="5.3"/><rect x="1056.75" y="182.57" width="5.3" height="5.3"/><rect x="1072.66" y="182.57" width="5.3" height="5.3"/><rect x="1088.57" y="182.57" width="5.3" height="5.3"/><rect x="1104.47" y="182.57" width="5.3" height="5.3"/><rect x="1115.08" y="182.57" width="5.3" height="5.3"/><rect x="1120.38" y="182.57" width="5.3" height="5.3"/><rect x="1125.69" y="182.57" width="5.3" height="5.3"/><rect x="1130.99" y="182.57" width="5.3" height="5.3"/><rect x="1136.29" y="182.57" width="5.3" height="5.3"/><rect x="1146.9" y="182.57" width="5.3" height="5.3"/><rect x="1157.51" y="182.57" width="5.3" height="5.3"/><rect class="cls-7" x="1019.89" y="39.65" width="25.98" height="25.98"/><path d="M1045.88,34.08h-31.56V71.21h37.12V34.08Zm0,31.56h-26v-26h26Z"/><rect class="cls-7" x="1136.56" y="39.65" width="25.98" height="25.98"/><path d="M1162.54,34.08H1131V71.21h37.12V34.08Zm0,31.56h-26v-26h26Z"/><rect class="cls-7" x="1019.89" y="156.32" width="25.98" height="25.98"/><path d="M1045.88,150.75h-31.56v37.12h37.12V150.75Zm0,31.55h-26v-26h26Z"/><rect x="1024.93" y="44.69" width="15.91" height="15.91"/><rect x="1141.6" y="44.69" width="15.91" height="15.91"/><rect x="1024.93" y="161.36" width="15.91" height="15.91"/></svg>