<?xml version="1.0" encoding="utf-8"?>
<!-- Generator: Adobe Illustrator 27.8.1, SVG Export Plug-In . SVG Version: 6.00 Build 0)  -->
<svg version="1.1" id="flag-icon-css-gr" xmlns="http://www.w3.org/2000/svg" xmlns:xlink="http://www.w3.org/1999/xlink" x="0px"
	 y="0px" viewBox="0 0 435 480" style="enable-background:new 0 0 435 480;" xml:space="preserve">
<style type="text/css">
	.st0{fill:#0D5EAF;}
	.st1{fill:none;stroke:#FFFFFF;stroke-width:17.9654;stroke-linecap:round;stroke-miterlimit:88.8798;}
</style>
<g>
	<g>
		<path class="st0" d="M110.2,49.1c118.5-51.4,193.6,79.7,307.3,18c-2.4,75.8-3.7,113.4-4.5,188c-95.8,26.8-138-6.8-227.9-48.1
			C104.3,169.6,115.7,140.7,110.2,49.1z"/>
		<path class="st1" d="M168,35c0.8,63,1.2,94.5,1.9,157.5 M114,112.6c43.7-11.6,66.5-10.4,111.3,1.2 M226.1,84.3
			c76.8,21.7,113.9,44.1,190.4,14.2 M224.5,143.2c75.7,17.8,114.4,28.5,190.7-2.6 M118.3,188.9c121.4,13.9,175.9,27.1,295.6-6.2
			 M149.3,199.9c72.6,43.3,185.5,62.6,264,24"/>
	</g>
	<path d="M418.6,260.3c-1.3,2.9-4.5,1.9-6.9,2.9c-23.4,6.6-47.2,11.3-71.3,14.5c-14.9,1.7-29.9,3.1-44.9,1.6
		c-20.5-1.4-40.5-7.8-58.3-18c-11.7-6.8-21.8-15.8-31.6-25.1c-6.6-6.3-13.5-12.4-21.4-17c-9.6-5.5-20.2-9.5-31.3-10.7
		c-13-1.6-26.1,1.1-38.4,5.2c-2.2,0.8-4.4,1.5-6.5,2.6c-0.2,2.4,0.3,4.8,0.3,7.1c8.4-1.3,17.1-2.6,25.4-0.3c4.1,1,8.3,3.1,10.5,6.8
		c2.4,3.6,3.1,8,2.4,12.2c3.8-2.3,8.7-3.1,12.8-1.1c7.2,3.5,12.5,11,12.9,19c1.4,0,2.9,0,4.1,0.9c3.7,2.2,6.4,5.8,8.8,9.4
		c3,4.5,5,10.1,3.7,15.5c-0.5,2.5-2.2,4.6-2.8,7c2,1.6,3.3,3.8,4.7,5.8c2.8,4.5,5.3,9.3,6.4,14.5c1.3,6-1.4,12.1-4.9,16.9
		c-5.1,7.3-12.8,12.5-21,15.6c-3.5,9.3-5.9,18.9-10.4,27.8c-4.9,9.5-10.8,18.6-18.6,26c-6.2,5.7-14.6,9-23,8.5
		c1.3,21.3,2.5,42.7,3.9,64c0.4,2.2-2.1,4.2-4.1,3.3c-1.3-0.7-1.9-2.2-1.9-3.7c-1.3-21.4-2.5-42.8-3.8-64.1
		c-1.6-0.4-3.3-0.8-4.9-1.2c-4,13.7-9.2,26.9-14.7,40c-12.6,29.7-29.3,57.7-48.9,83.3c-9.8,12.7-20.4,24.9-32.2,35.8
		c-20.5,19-44.5,33.6-68.6,47.2c-1.9,1.3-5,0-4.8-2.5c0-2.3,2.4-3.3,4.3-4c22.1-12.6,44-26,63.1-43.1c18.8-17,34.6-37.1,48.7-58.1
		c12-18.1,22.7-37.2,31.3-57.2c5.7-13.1,10.9-26.5,15.7-40c1.2-2.1-0.6-5.5,2.2-6.5c2.7-1.6,5.7-0.5,8.4,0c-1-12.5-1.5-25-2.3-37.5
		c-3.1,5.2-6.3,10.4-9.5,15.5c-1.1,1.7-3.2,3.4-5.3,2.4c-1.7-0.6-2.3-3.2-0.9-4.4c2.2-2.2,3.4-4.9,5.1-7.5c3.7-6,7.5-11.9,9.8-18.7
		c-0.6-15.8-1.9-31.6-2.7-47.4c0-1,0-2-0.4-2.8c-1.9-3.7-4.8-6.7-8-9.3c-1.7-1.2-2.1-3.8-0.4-5.1c3.1-7,5.7-14.2,7.2-21.6
		c0.4-1.9,0-4.1,1.3-5.7c0.7-0.6,1.7-0.9,2.6-1c3.9-0.6,7.6-1.4,11.5-2c5.2-0.9,11-1.3,15-5c3.6-3.7,5.5-9.2,4.7-14.3
		c-0.4-3-2.4-5.7-5.2-7c-5.3-2.3-11.2-2.6-17-2c-10.2,0.5-20.2,4-28.2,10.3c-6.4,5.2-11.2,12-15.1,19.3c-4.9,9.8-7.6,20.5-10.9,30.9
		c-2.8,9.5-6,19-9.7,28.2c-6.5,15.4-14.4,30.2-22.9,44.5c-11.7,19.5-25.5,37.6-41.1,54.2c-10.9,11.3-22.5,22-35.2,31.2
		c-20,14.4-43.7,23.4-68.3,26c-1.5,0-3.2,0.4-4.4-0.8c-1.6-1.3-1.2-4.2,0.9-4.6c6.5,0,12.8-1.7,19.1-3.1
		c18.2-4.4,35.7-12.3,50.8-23.4c16.3-12.1,30.9-26.4,43.9-41.9c14.9-17.5,27.6-36.8,38.4-57c7.1-13.2,13.7-26.9,18.2-41.2
		c5.6-15.1,8.4-31.2,15.6-45.5c5.2-9.9,12.4-19,22-24.9c3.2-2.1,6.8-3.5,10.4-4.9C98.3,155.5,94.2,85.9,90,16.2c0-1.5-1.5-2.4-2-3.8
		c-0.7-2.3-0.2-5,1.5-6.8c1.3-1.1,3.2-0.9,4.9-0.7c3.7,0.9,5.4,5.8,3.3,8.9c-0.6,0.9-2,1.5-1.7,2.8c0.5,9.1,1.2,18.1,1.5,27.1
		c2.5-1,4.9-2.5,7.5-3.5c8.9-4.1,18.3-6.7,27.8-9.3c22.1-6,45.3-9.3,68.1-6.3c14.6,1.7,28.9,6,42.1,12.5
		c11.7,5.7,22.7,12.8,33.2,20.5C288,66,301,73.2,315.4,75.7c11.9,2,24,1.5,35.8,0c12.9-2.1,25.9-5,38.2-9.6
		c10.3-3.6,20.5-7.7,30.7-11.6c2.4-0.9,4.9,1.7,4.4,4.1c-1.7,54.9-3.4,109.8-5,164.7C419.2,235.7,418.5,248,418.6,260.3L418.6,260.3
		z M353.4,269.7c19.9-3.1,39.7-7.4,59.1-13c2.1-65,4-130.1,6.1-195c-11.3,4.3-22.6,8.7-34.1,12.6c-11,3.5-22.3,5.9-33.7,7.6
		c-14.2,1.7-28.7,2.1-42.7-1.5c-12.8-3.2-24.3-10.1-35-17.6c-13.2-9.7-27.2-18.4-42.5-24.3c-14-5.7-29.1-8.3-44.1-8.7
		c-20.9-0.4-41.8,3.8-61.7,9.9c-8.4,2.5-16.7,5.4-24.6,9.4c-0.8,0.4-1.5,1.1-2.2,1.7c3.3,52.9,6.4,105.9,9.5,158.8
		c-0.3,1.3,1.2,0.6,1.8,0.4c9.1-3.8,18.7-6.4,28.5-7.4c12.5-1.1,25.3,0.7,36.9,5.7c11.6,4.3,21.8,11.6,30.8,19.9
		c10.6,10,21.4,20.1,33.9,27.7c9.3,5.5,19.3,9.7,29.7,12.8c13.7,4.1,28.1,5.6,42.4,5.5c14.1-0.4,28.1-1.9,42-4.1L353.4,269.7z
		 M187.9,326.1c2.7-3.8,4.7-8.5,3.2-13.2c-1.7-5.7-4.4-11-8-15.6c-3.6,5.1-7.8,9.7-12.2,14c-7.4,6.9-15.5,13.7-25.3,16.7
		c-2.3,4.6-0.6,10.9,4,13.5c3.7,2.2,8.2,1.4,12.2,0.7C172,340.3,182,335,187.9,326.1L187.9,326.1z M182.6,286.2
		c2.4-5.7-1.3-11.6-4.7-16.1c-1.4-1.6-2.9-4.2-5.2-4.1c-1.3,0.2-1.6,1.4-2.2,2.4c-1.4,3.2-3.5,6.1-5.7,8.9
		c-7.4,9.3-16.1,17.7-26.5,23.4c-4.2,1.5-6,6.2-6.8,10.3c-1.1,6.6,5.9,13,12.4,11.2c7.7-2.2,14.1-7.5,20.1-12.7
		C171.3,302.8,178.3,295.3,182.6,286.2L182.6,286.2z M161.7,355.7c1.3-2.7,1.7-5.7,3.4-8.3c-3.8,1.1-7.7,1.6-11.7,1.4
		c-5.2-0.3-10.2-3.3-12.8-7.9c-2.2-3.8-2.9-8.4-1.6-12.7c-6.7-1.2-12.4-6.9-13.4-13.7c-0.8-3.9,0.8-7.6,2-11.3
		c-4.9-0.7-9.1-4.4-10.6-9.1c-2.1-5.5-0.9-11.6,1.8-16.6c2.6-6.1,6.5-11.7,10.8-16.7c-5.9,1.3-12.1,1.6-18.1,3.3
		c0,1.9-0.6,3.7-0.5,5.6c0.5,9.7,1.2,19.3,1.7,29c0,2.1,1.3,3.9,2,5.7c2.2,5.7,3.7,11.8,4.6,17.8c1.3,8.6,0.3,17.4-2.1,25.7
		c-0.4,1.7-1.3,3.4-1.3,5.3c1,16.3,1.9,32.5,3,48.8c7.5,0.7,15.1-2.6,20.4-7.9C149.9,383.5,157,369.9,161.7,355.7L161.7,355.7z
		 M161.3,272.1c2.3-3.1,4.7-6.6,5-10.6c0.3-5.1-2.7-9.8-6.4-13.1c-1.9-1.6-4.3-3.1-6.9-2.8c-3.2,0.4-5.9,2.7-8.1,4.9
		c-3.1,6-8.4,10.5-12.3,16c-3.6,4.1-6.4,8.9-8.5,13.9c-1.8,3.3-2.8,7.3-1.8,11c0.8,2.5,2.4,5.1,5.1,5.7c3.2,1.1,6.5-0.8,9.3-2.3
		C146.4,289.2,154.4,281.1,161.3,272.1L161.3,272.1z M104.1,289.2c0.7,0.6,1.4,1.2,2.2,1.8c-0.1-2.4-0.3-4.9-0.4-7.2
		C105.2,285.6,104.7,287.4,104.1,289.2z"/>
	<path d="M126.7,404c0.8,2.8-3.2,5.1-5,2.6c-7-9.1-14.4-18-22.5-26.1c-1.5-1.3-1.1-4,0.8-4.7c2-0.4,3.3,1.3,4.6,2.4
		c6.1,6.2,12,12.6,17.5,19.3C123.6,399.7,125.6,401.5,126.7,404L126.7,404z"/>
</g>
</svg>
