<svg xmlns="http://www.w3.org/2000/svg" viewBox="0 0 500 500"><!--Community--><g id="freepik--background-simple--inject-11--inject-39"><path d="M410.16,131s-23-52.26-73.83-60S250,101,212.64,120.4c-19.58,10.13-41.95,6.2-62.74,11.1-66.47,15.69-91.51,114-63.82,169.89,24,48.4,66.16,73.56,130.4,79.37s109.3,12.58,166.83-34.84S437,199.76,410.16,131Z" style="fill:#407BFF"></path><path d="M410.16,131s-23-52.26-73.83-60S250,101,212.64,120.4c-19.58,10.13-41.95,6.2-62.74,11.1-66.47,15.69-91.51,114-63.82,169.89,24,48.4,66.16,73.56,130.4,79.37s109.3,12.58,166.83-34.84S437,199.76,410.16,131Z" style="fill:#fff;opacity:0.7000000000000001"></path></g><g id="freepik--Ground--inject-11--inject-39"><ellipse cx="256.63" cy="415.59" rx="166.73" ry="11.16" style="fill:#407BFF"></ellipse><ellipse cx="256.63" cy="415.59" rx="166.73" ry="11.16" style="fill:#fff;opacity:0.5"></ellipse></g><g id="freepik--Plants--inject-11--inject-39"><path d="M135,299c-3.87,5.73-9.25,13.18-12.12,19.15,1.1-3.94,2.16-7.66,3.14-11,1.47-2.88,5.4-10.18,9.94-15,5.77-6.17,8.24-10.14,5.13-10.49-2.15-.23-8.45,8.16-12.4,16.49.86-2.85,1.54-5,2-6.3.19-.57.37-1.21.55-1.88A165.38,165.38,0,0,0,142.28,272c5.83-10.89,7.71-21.17,3.82-16.75-3.58,4.07-9.81,24.3-14.75,33.83.41-1.64.81-3.46,1.16-5.24.7-1.74,1.62-3.5,2.14-5.09.81-2.46,1.52-5,2.09-7.47a50.78,50.78,0,0,0,1.42-12,24.29,24.29,0,0,0-3.72-13.44c-.67-1-4.76-7.13-6-4a3.21,3.21,0,0,0-.09,1.6c.59,5.21,2.48,10,3.65,15.07,1.75,7.59.59,20.34,0,25.76-.23.85-.51,1.92-.84,3.15.82-9.44-3.28-20.63-7.07-22.59-4.69-2.42-.09,7.08,3.53,15.37a24.69,24.69,0,0,1,2.35,11.64c-.74,2.73-1.59,5.79-2.47,8.89-.17.43-.34.85-.49,1.27a27,27,0,0,0,.49-6.14c-.35-5.42-6.49-16.28-10.56-14.74s2.82,7.25,6.51,13.91A20.08,20.08,0,0,1,125.53,307c0,.24-.08.48-.11.72-.42,1.41-.84,2.78-1.25,4.07-1,3-1.85,5.88-2.7,8.66a43.67,43.67,0,0,0,1.37-12.35c-.52-7.95-5.17-15.45-9-16.47s3.49,11.93,6,19.21A26.09,26.09,0,0,1,120.4,324c-1.18,3.94-2.31,7.82-3.46,11.94a99.4,99.4,0,0,0-.34-16.15c-.75-8.84-6-14.49-9.63-14.25s.16,5.25,5.39,16a36,36,0,0,1,3.55,18.17c-.47,1.74-1,3.52-1.44,5.38-.55,2.12-1,4.42-1.39,6.79-.53-2.11-1.31-5.19-2.22-8.59a76.25,76.25,0,0,1-2.3-11.48c-.49-4.5-1.67-10.13-6.09-12.47a2.5,2.5,0,0,0-3.71,1,4.91,4.91,0,0,0-.27,3.06,33.61,33.61,0,0,0,3,8.82,10.28,10.28,0,0,0-1.15,5.41c0,.71.07,1.41.11,2.1-.39-.71-.76-1.37-1.11-2A12.65,12.65,0,0,0,97,334.89a35.37,35.37,0,0,0,.34-5c0-2.2-2.57-7.78-4.89-3.64-.92,1.65-.74,4.91-.83,7.07-.64.59-.83,1.81-.3,3.74a48.13,48.13,0,0,0,.78,15l-.79-1.4a109.83,109.83,0,0,1-2-17.54c-.29-9.72,1.27-17.71-1.39-20.7s-4.12,7.55-3,19a48,48,0,0,0,4.14,15.17c-2.6-4.67-5.17-9.43-7.6-14-1-2.46-3.48-9.08-2.87-15.8.77-8.48,1.33-15.41-1.89-20.18s-3.89-1.68-2.31,8.27c1.08,6.82,2.24,15.94,4.22,22.27-1.89-3.63-3.66-7.08-5.24-10.21-.89-3.11-3-11.12-3-17.78,0-8.45-.91-13-3.41-11.17-1.74,1.3-.62,11.73,2.19,20.52-1.32-2.67-2.31-4.72-2.88-5.93-.25-.55-.55-1.14-.88-1.76a167,167,0,0,0-4-20.65c-3.18-11.95-8.82-20.74-8.65-14.86.17,5.42,9.42,24.46,12.31,34.8-.82-1.48-1.77-3.08-2.73-4.63-.67-1.74-1.2-3.65-1.91-5.18-1.08-2.34-2.26-4.65-3.56-6.88a51.64,51.64,0,0,0-7.17-9.76,24.29,24.29,0,0,0-11.9-7.28c-1.18-.28-8.34-2-7.12,1.2a3.27,3.27,0,0,0,1,1.24c4,3.4,8.64,5.61,13,8.52,6.46,4.35,14.31,14.46,17.55,18.85.42.77.94,1.75,1.54,2.87-5.85-7.46-16.47-12.85-20.58-11.69-5.08,1.44,4.77,5.24,13.07,8.83a24.61,24.61,0,0,1,9.66,6.91c1.32,2.49,2.79,5.31,4.26,8.18l.51,1.26a26.76,26.76,0,0,0-3.84-4.82C62.85,303.94,51,300.2,49,304.1s7,3.38,14.26,5.72A20.12,20.12,0,0,1,73,317.1l.41.61c.66,1.32,1.29,2.61,1.87,3.83,1.37,2.86,2.66,5.56,3.94,8.17a43.27,43.27,0,0,0-7.44-10C66,314.29,57.45,312,53.93,313.88s10.69,6.34,17.46,10A26.06,26.06,0,0,1,80.83,333c1.82,3.69,3.65,7.29,5.62,11.09a98.72,98.72,0,0,0-11.27-11.57c-6.58-6-14.28-6.49-16.76-3.86s3.69,3.74,14.83,8a36,36,0,0,1,15,10.86c.84,1.59,1.71,3.22,2.62,4.91,1,1.93,2.27,3.93,3.61,5.92-1.82-1.18-4.49-2.9-7.48-4.77a76.21,76.21,0,0,1-9.51-6.82c-3.44-3-8.14-6.26-13-5a2.5,2.5,0,0,0-2,3.27,4.9,4.9,0,0,0,1.89,2.41c4.56,3.54,10.69,5.24,16,7.33a120.65,120.65,0,0,0,14.93,4.76c1.26,1.81,2.58,3.6,3.89,5.3l-2.38.07c-2.82.08-15.54-5.68-22-7.54s-12.5,1.66-5.73,5.3,25.18,2.83,25.18,2.83l5.32-.16c1.24,1.6,2.47,3.12,3.62,4.5H78v7h5l4,24.89h33.54l4-24.89h5v-7H112.86a62.52,62.52,0,0,1,.25-9.06,21,21,0,0,1,3.68-3c7.34-5.07,19.79-5.49,23.09-15.25.8-2.36-.1-5.37-2.92-5.24-2,.09-4.17,1.86-5.43,3.32-4.2,4.85-7.36,9.88-12.82,13.55-.24.17-3.69,2.91-5.39,4.61.18-1.59.42-3.29.73-5.11a48.77,48.77,0,0,1,4.51-6.67c4.46-5.55,11.26-8.8,16.09-14.09,1.48-1.62,3.43-7.44-1.09-6-2,.64-4.38,3.68-6,5.08-4.44,4-9,8.26-11.9,13.52.13-.52.25-1,.38-1.56a109.15,109.15,0,0,1,10.5-14.19c6.42-7.31,13-12.08,13.11-16.08s-8.17,2.7-15.2,11.86a47.92,47.92,0,0,0-7.32,13.91c1.29-5.19,2.66-10.42,4-15.44.92-2.5,3.65-9,8.69-13.51,6.34-5.67,11.48-10.35,12.39-16S140.58,290.65,135,299ZM99.43,363.32c-1-1.29-1.94-2.7-3-4.24a48.9,48.9,0,0,1-1.26-7.95,32.9,32.9,0,0,1,.31-6.87,80.69,80.69,0,0,0,5.43,6.07,29.48,29.48,0,0,1-.73,5.94C100.16,356.56,99.52,360.91,99.43,363.32Zm5.44,6.58c-1.29-1.37-2.7-3-4.23-5a21.2,21.2,0,0,1,.66-4.69,32.36,32.36,0,0,1,2.62-7C106.28,355.47,108,357,108,357l4,3.51c-.32,3.49-.5,6.76-.61,9.42Zm7.21-10-1.79-1.58c-1-.9-2.81-4.38-4.77-8.38a49.9,49.9,0,0,0,2.23-5.2c2.11,3.93,4,7,5.1,8.63C112.53,355.5,112.28,357.7,112.08,359.85Z" style="fill:#407BFF"></path><path d="M135,299c-3.87,5.73-9.25,13.18-12.12,19.15,1.1-3.94,2.16-7.66,3.14-11,1.47-2.88,5.4-10.18,9.94-15,5.77-6.17,8.24-10.14,5.13-10.49-2.15-.23-8.45,8.16-12.4,16.49.86-2.85,1.54-5,2-6.3.19-.57.37-1.21.55-1.88A165.38,165.38,0,0,0,142.28,272c5.83-10.89,7.71-21.17,3.82-16.75-3.58,4.07-9.81,24.3-14.75,33.83.41-1.64.81-3.46,1.16-5.24.7-1.74,1.62-3.5,2.14-5.09.81-2.46,1.52-5,2.09-7.47a50.78,50.78,0,0,0,1.42-12,24.29,24.29,0,0,0-3.72-13.44c-.67-1-4.76-7.13-6-4a3.21,3.21,0,0,0-.09,1.6c.59,5.21,2.48,10,3.65,15.07,1.75,7.59.59,20.34,0,25.76-.23.85-.51,1.92-.84,3.15.82-9.44-3.28-20.63-7.07-22.59-4.69-2.42-.09,7.08,3.53,15.37a24.69,24.69,0,0,1,2.35,11.64c-.74,2.73-1.59,5.79-2.47,8.89-.17.43-.34.85-.49,1.27a27,27,0,0,0,.49-6.14c-.35-5.42-6.49-16.28-10.56-14.74s2.82,7.25,6.51,13.91A20.08,20.08,0,0,1,125.53,307c0,.24-.08.48-.11.72-.42,1.41-.84,2.78-1.25,4.07-1,3-1.85,5.88-2.7,8.66a43.67,43.67,0,0,0,1.37-12.35c-.52-7.95-5.17-15.45-9-16.47s3.49,11.93,6,19.21A26.09,26.09,0,0,1,120.4,324c-1.18,3.94-2.31,7.82-3.46,11.94a99.4,99.4,0,0,0-.34-16.15c-.75-8.84-6-14.49-9.63-14.25s.16,5.25,5.39,16a36,36,0,0,1,3.55,18.17c-.47,1.74-1,3.52-1.44,5.38-.55,2.12-1,4.42-1.39,6.79-.53-2.11-1.31-5.19-2.22-8.59a76.25,76.25,0,0,1-2.3-11.48c-.49-4.5-1.67-10.13-6.09-12.47a2.5,2.5,0,0,0-3.71,1,4.91,4.91,0,0,0-.27,3.06,33.61,33.61,0,0,0,3,8.82,10.28,10.28,0,0,0-1.15,5.41c0,.71.07,1.41.11,2.1-.39-.71-.76-1.37-1.11-2A12.65,12.65,0,0,0,97,334.89a35.37,35.37,0,0,0,.34-5c0-2.2-2.57-7.78-4.89-3.64-.92,1.65-.74,4.91-.83,7.07-.64.59-.83,1.81-.3,3.74a48.13,48.13,0,0,0,.78,15l-.79-1.4a109.83,109.83,0,0,1-2-17.54c-.29-9.72,1.27-17.71-1.39-20.7s-4.12,7.55-3,19a48,48,0,0,0,4.14,15.17c-2.6-4.67-5.17-9.43-7.6-14-1-2.46-3.48-9.08-2.87-15.8.77-8.48,1.33-15.41-1.89-20.18s-3.89-1.68-2.31,8.27c1.08,6.82,2.24,15.94,4.22,22.27-1.89-3.63-3.66-7.08-5.24-10.21-.89-3.11-3-11.12-3-17.78,0-8.45-.91-13-3.41-11.17-1.74,1.3-.62,11.73,2.19,20.52-1.32-2.67-2.31-4.72-2.88-5.93-.25-.55-.55-1.14-.88-1.76a167,167,0,0,0-4-20.65c-3.18-11.95-8.82-20.74-8.65-14.86.17,5.42,9.42,24.46,12.31,34.8-.82-1.48-1.77-3.08-2.73-4.63-.67-1.74-1.2-3.65-1.91-5.18-1.08-2.34-2.26-4.65-3.56-6.88a51.64,51.64,0,0,0-7.17-9.76,24.29,24.29,0,0,0-11.9-7.28c-1.18-.28-8.34-2-7.12,1.2a3.27,3.27,0,0,0,1,1.24c4,3.4,8.64,5.61,13,8.52,6.46,4.35,14.31,14.46,17.55,18.85.42.77.94,1.75,1.54,2.87-5.85-7.46-16.47-12.85-20.58-11.69-5.08,1.44,4.77,5.24,13.07,8.83a24.61,24.61,0,0,1,9.66,6.91c1.32,2.49,2.79,5.31,4.26,8.18l.51,1.26a26.76,26.76,0,0,0-3.84-4.82C62.85,303.94,51,300.2,49,304.1s7,3.38,14.26,5.72A20.12,20.12,0,0,1,73,317.1l.41.61c.66,1.32,1.29,2.61,1.87,3.83,1.37,2.86,2.66,5.56,3.94,8.17a43.27,43.27,0,0,0-7.44-10C66,314.29,57.45,312,53.93,313.88s10.69,6.34,17.46,10A26.06,26.06,0,0,1,80.83,333c1.82,3.69,3.65,7.29,5.62,11.09a98.72,98.72,0,0,0-11.27-11.57c-6.58-6-14.28-6.49-16.76-3.86s3.69,3.74,14.83,8a36,36,0,0,1,15,10.86c.84,1.59,1.71,3.22,2.62,4.91,1,1.93,2.27,3.93,3.61,5.92-1.82-1.18-4.49-2.9-7.48-4.77a76.21,76.21,0,0,1-9.51-6.82c-3.44-3-8.14-6.26-13-5a2.5,2.5,0,0,0-2,3.27,4.9,4.9,0,0,0,1.89,2.41c4.56,3.54,10.69,5.24,16,7.33a120.65,120.65,0,0,0,14.93,4.76c1.26,1.81,2.58,3.6,3.89,5.3l-2.38.07c-2.82.08-15.54-5.68-22-7.54s-12.5,1.66-5.73,5.3,25.18,2.83,25.18,2.83l5.32-.16c1.24,1.6,2.47,3.12,3.62,4.5H78v7h5l4,24.89h33.54l4-24.89h5v-7H112.86a62.52,62.52,0,0,1,.25-9.06,21,21,0,0,1,3.68-3c7.34-5.07,19.79-5.49,23.09-15.25.8-2.36-.1-5.37-2.92-5.24-2,.09-4.17,1.86-5.43,3.32-4.2,4.85-7.36,9.88-12.82,13.55-.24.17-3.69,2.91-5.39,4.61.18-1.59.42-3.29.73-5.11a48.77,48.77,0,0,1,4.51-6.67c4.46-5.55,11.26-8.8,16.09-14.09,1.48-1.62,3.43-7.44-1.09-6-2,.64-4.38,3.68-6,5.08-4.44,4-9,8.26-11.9,13.52.13-.52.25-1,.38-1.56a109.15,109.15,0,0,1,10.5-14.19c6.42-7.31,13-12.08,13.11-16.08s-8.17,2.7-15.2,11.86a47.92,47.92,0,0,0-7.32,13.91c1.29-5.19,2.66-10.42,4-15.44.92-2.5,3.65-9,8.69-13.51,6.34-5.67,11.48-10.35,12.39-16S140.58,290.65,135,299ZM99.43,363.32c-1-1.29-1.94-2.7-3-4.24a48.9,48.9,0,0,1-1.26-7.95,32.9,32.9,0,0,1,.31-6.87,80.69,80.69,0,0,0,5.43,6.07,29.48,29.48,0,0,1-.73,5.94C100.16,356.56,99.52,360.91,99.43,363.32Zm5.44,6.58c-1.29-1.37-2.7-3-4.23-5a21.2,21.2,0,0,1,.66-4.69,32.36,32.36,0,0,1,2.62-7C106.28,355.47,108,357,108,357l4,3.51c-.32,3.49-.5,6.76-.61,9.42Zm7.21-10-1.79-1.58c-1-.9-2.81-4.38-4.77-8.38a49.9,49.9,0,0,0,2.23-5.2c2.11,3.93,4,7,5.1,8.63C112.53,355.5,112.28,357.7,112.08,359.85Z" style="fill:#fff;opacity:0.5"></path><path d="M352.7,299c3.87,5.73,9.25,13.18,12.12,19.15-1.1-3.94-2.16-7.66-3.14-11-1.47-2.88-5.4-10.18-9.95-15-5.77-6.17-8.23-10.14-5.13-10.49,2.16-.23,8.46,8.16,12.4,16.49-.86-2.85-1.53-5-1.94-6.3-.19-.57-.37-1.21-.56-1.88A167.39,167.39,0,0,1,345.37,272c-5.83-10.89-7.71-21.17-3.82-16.75,3.57,4.07,9.8,24.3,14.75,33.83-.42-1.64-.81-3.46-1.17-5.24-.7-1.74-1.61-3.5-2.14-5.09-.8-2.46-1.52-5-2.09-7.47a51.84,51.84,0,0,1-1.42-12,24.3,24.3,0,0,1,3.73-13.44c.67-1,4.76-7.13,6-4a3.33,3.33,0,0,1,.09,1.6c-.59,5.21-2.49,10-3.65,15.07-1.75,7.59-.59,20.34,0,25.76.23.85.51,1.92.84,3.15-.82-9.44,3.27-20.63,7.06-22.59,4.69-2.42.09,7.08-3.52,15.37a24.69,24.69,0,0,0-2.35,11.64c.74,2.73,1.58,5.79,2.47,8.89.17.43.33.85.49,1.27a26.45,26.45,0,0,1-.49-6.14c.35-5.42,6.49-16.28,10.56-14.74s-2.82,7.25-6.52,13.91A20.06,20.06,0,0,0,362.12,307c0,.24.07.48.11.72.42,1.41.84,2.78,1.25,4.07.95,3,1.84,5.88,2.7,8.66a43,43,0,0,1-1.37-12.35c.51-7.95,5.17-15.45,9-16.47s-3.49,11.93-6,19.21a26,26,0,0,0-.65,13.14c1.18,3.94,2.31,7.82,3.45,11.94a100.64,100.64,0,0,1,.35-16.15c.75-8.84,6-14.49,9.62-14.25s-.15,5.25-5.38,16a36,36,0,0,0-3.56,18.17c.48,1.74.95,3.52,1.44,5.38.56,2.12,1,4.42,1.4,6.79.52-2.11,1.31-5.19,2.22-8.59a76.23,76.23,0,0,0,2.29-11.48c.5-4.5,1.68-10.13,6.1-12.47a2.5,2.5,0,0,1,3.71,1,4.84,4.84,0,0,1,.26,3.06,33.22,33.22,0,0,1-3,8.82,10.28,10.28,0,0,1,1.15,5.41c0,.71-.07,1.41-.11,2.1.38-.71.75-1.37,1.11-2a12.65,12.65,0,0,1,2.32-2.86,35.37,35.37,0,0,1-.34-5c0-2.2,2.57-7.78,4.88-3.64.93,1.65.75,4.91.84,7.07.64.59.83,1.81.29,3.74a47.53,47.53,0,0,1-.78,15c.27-.46.53-.93.8-1.4a109.06,109.06,0,0,0,2-17.54c.3-9.72-1.26-17.71,1.39-20.7s4.13,7.55,3,19a48,48,0,0,1-4.14,15.17c2.59-4.67,5.16-9.43,7.59-14,1-2.46,3.49-9.08,2.88-15.8-.77-8.48-1.33-15.41,1.88-20.18s3.9-1.68,2.32,8.27c-1.09,6.82-2.24,15.94-4.22,22.27,1.89-3.63,3.65-7.08,5.24-10.21.89-3.11,3-11.12,3-17.78,0-8.45.9-13,3.41-11.17,1.73,1.3.61,11.73-2.19,20.52,1.32-2.67,2.3-4.72,2.87-5.93.26-.55.56-1.14.88-1.76a167.61,167.61,0,0,1,4-20.65c3.18-11.95,8.82-20.74,8.64-14.86-.16,5.42-9.41,24.46-12.3,34.8.81-1.48,1.76-3.08,2.73-4.63.67-1.74,1.2-3.65,1.9-5.18,1.09-2.34,2.27-4.65,3.57-6.88A51.64,51.64,0,0,1,438,273.6a24.26,24.26,0,0,1,11.89-7.28c1.18-.28,8.35-2,7.12,1.2a3.24,3.24,0,0,1-1,1.24c-4,3.4-8.64,5.61-13,8.52-6.46,4.35-14.31,14.46-17.55,18.85L423.92,299c5.85-7.46,16.48-12.85,20.59-11.69,5.08,1.44-4.77,5.24-13.07,8.83a24.52,24.52,0,0,0-9.66,6.91c-1.32,2.49-2.8,5.31-4.27,8.18-.16.43-.33.85-.5,1.26a26.33,26.33,0,0,1,3.84-4.82c3.95-3.73,15.84-7.47,17.77-3.57s-7,3.38-14.25,5.72a20.12,20.12,0,0,0-9.71,7.28l-.42.61c-.65,1.32-1.28,2.61-1.86,3.83-1.37,2.86-2.66,5.56-3.94,8.17a43.21,43.21,0,0,1,7.43-10c5.8-5.46,14.32-7.77,17.85-5.87s-10.69,6.34-17.46,10a26.06,26.06,0,0,0-9.44,9.16c-1.83,3.69-3.65,7.29-5.63,11.09a98.87,98.87,0,0,1,11.28-11.57c6.58-6,14.28-6.49,16.76-3.86s-3.7,3.74-14.84,8a36,36,0,0,0-15,10.86c-.84,1.59-1.71,3.22-2.62,4.91-1,1.93-2.28,3.93-3.61,5.92,1.82-1.18,4.49-2.9,7.48-4.77a77,77,0,0,0,9.51-6.82c3.44-3,8.14-6.26,13-5a2.51,2.51,0,0,1,2,3.27,4.92,4.92,0,0,1-1.9,2.41c-4.56,3.54-10.68,5.24-16,7.33a120.11,120.11,0,0,1-14.94,4.76c-1.25,1.81-2.57,3.6-3.88,5.3l2.38.07c2.81.08,15.54-5.68,22-7.54s12.5,1.66,5.73,5.3-25.19,2.83-25.19,2.83l-5.31-.16c-1.24,1.6-2.47,3.12-3.62,4.5h25.22v7h-5l-4.05,24.89H367.09l-4-24.89h-5v-7h16.73a64,64,0,0,0-.25-9.06,21.44,21.44,0,0,0-3.68-3c-7.34-5.07-19.79-5.49-23.09-15.25-.8-2.36.1-5.37,2.92-5.24,2,.09,4.17,1.86,5.43,3.32,4.19,4.85,7.36,9.88,12.81,13.55.25.17,3.69,2.91,5.4,4.61-.18-1.59-.42-3.29-.73-5.11a48.77,48.77,0,0,0-4.51-6.67c-4.46-5.55-11.26-8.8-16.1-14.09-1.48-1.62-3.43-7.44,1.09-6,2,.64,4.39,3.68,5.95,5.08,4.45,4,9,8.26,11.9,13.52-.12-.52-.24-1-.37-1.56a109.15,109.15,0,0,0-10.5-14.19c-6.43-7.31-13-12.08-13.12-16.08s8.17,2.7,15.2,11.86a47.67,47.67,0,0,1,7.32,13.91c-1.28-5.19-2.65-10.42-4-15.44-.92-2.5-3.66-9-8.69-13.51-6.35-5.67-11.49-10.35-12.39-16S347.07,290.65,352.7,299Zm35.52,64.32q1.42-1.94,2.95-4.24a50,50,0,0,0,1.26-7.95,32.91,32.91,0,0,0-.32-6.87,76.54,76.54,0,0,1-5.43,6.07,30.25,30.25,0,0,0,.74,5.94C387.48,356.56,388.13,360.91,388.22,363.32Zm-5.44,6.58c1.28-1.37,2.7-3,4.23-5a21.89,21.89,0,0,0-.66-4.69,33.44,33.44,0,0,0-2.62-7c-2.36,2.24-4.11,3.74-4.11,3.74l-4,3.51c.32,3.49.5,6.76.6,9.42Zm-7.21-10,1.79-1.58c1-.9,2.81-4.38,4.76-8.38a52,52,0,0,1-2.22-5.2c-2.11,3.93-4,7-5.1,8.63C375.11,355.5,375.37,357.7,375.57,359.85Z" style="fill:#407BFF"></path><path d="M352.7,299c3.87,5.73,9.25,13.18,12.12,19.15-1.1-3.94-2.16-7.66-3.14-11-1.47-2.88-5.4-10.18-9.95-15-5.77-6.17-8.23-10.14-5.13-10.49,2.16-.23,8.46,8.16,12.4,16.49-.86-2.85-1.53-5-1.94-6.3-.19-.57-.37-1.21-.56-1.88A167.39,167.39,0,0,1,345.37,272c-5.83-10.89-7.71-21.17-3.82-16.75,3.57,4.07,9.8,24.3,14.75,33.83-.42-1.64-.81-3.46-1.17-5.24-.7-1.74-1.61-3.5-2.14-5.09-.8-2.46-1.52-5-2.09-7.47a51.84,51.84,0,0,1-1.42-12,24.3,24.3,0,0,1,3.73-13.44c.67-1,4.76-7.13,6-4a3.33,3.33,0,0,1,.09,1.6c-.59,5.21-2.49,10-3.65,15.07-1.75,7.59-.59,20.34,0,25.76.23.85.51,1.92.84,3.15-.82-9.44,3.27-20.63,7.06-22.59,4.69-2.42.09,7.08-3.52,15.37a24.69,24.69,0,0,0-2.35,11.64c.74,2.73,1.58,5.79,2.47,8.89.17.43.33.85.49,1.27a26.45,26.45,0,0,1-.49-6.14c.35-5.42,6.49-16.28,10.56-14.74s-2.82,7.25-6.52,13.91A20.06,20.06,0,0,0,362.12,307c0,.24.07.48.11.72.42,1.41.84,2.78,1.25,4.07.95,3,1.84,5.88,2.7,8.66a43,43,0,0,1-1.37-12.35c.51-7.95,5.17-15.45,9-16.47s-3.49,11.93-6,19.21a26,26,0,0,0-.65,13.14c1.18,3.94,2.31,7.82,3.45,11.94a100.64,100.64,0,0,1,.35-16.15c.75-8.84,6-14.49,9.62-14.25s-.15,5.25-5.38,16a36,36,0,0,0-3.56,18.17c.48,1.74.95,3.52,1.44,5.38.56,2.12,1,4.42,1.4,6.79.52-2.11,1.31-5.19,2.22-8.59a76.23,76.23,0,0,0,2.29-11.48c.5-4.5,1.68-10.13,6.1-12.47a2.5,2.5,0,0,1,3.71,1,4.84,4.84,0,0,1,.26,3.06,33.22,33.22,0,0,1-3,8.82,10.28,10.28,0,0,1,1.15,5.41c0,.71-.07,1.41-.11,2.1.38-.71.75-1.37,1.11-2a12.65,12.65,0,0,1,2.32-2.86,35.37,35.37,0,0,1-.34-5c0-2.2,2.57-7.78,4.88-3.64.93,1.65.75,4.91.84,7.07.64.59.83,1.81.29,3.74a47.53,47.53,0,0,1-.78,15c.27-.46.53-.93.8-1.4a109.06,109.06,0,0,0,2-17.54c.3-9.72-1.26-17.71,1.39-20.7s4.13,7.55,3,19a48,48,0,0,1-4.14,15.17c2.59-4.67,5.16-9.43,7.59-14,1-2.46,3.49-9.08,2.88-15.8-.77-8.48-1.33-15.41,1.88-20.18s3.9-1.68,2.32,8.27c-1.09,6.82-2.24,15.94-4.22,22.27,1.89-3.63,3.65-7.08,5.24-10.21.89-3.11,3-11.12,3-17.78,0-8.45.9-13,3.41-11.17,1.73,1.3.61,11.73-2.19,20.52,1.32-2.67,2.3-4.72,2.87-5.93.26-.55.56-1.14.88-1.76a167.61,167.61,0,0,1,4-20.65c3.18-11.95,8.82-20.74,8.64-14.86-.16,5.42-9.41,24.46-12.3,34.8.81-1.48,1.76-3.08,2.73-4.63.67-1.74,1.2-3.65,1.9-5.18,1.09-2.34,2.27-4.65,3.57-6.88A51.64,51.64,0,0,1,438,273.6a24.26,24.26,0,0,1,11.89-7.28c1.18-.28,8.35-2,7.12,1.2a3.24,3.24,0,0,1-1,1.24c-4,3.4-8.64,5.61-13,8.52-6.46,4.35-14.31,14.46-17.55,18.85L423.92,299c5.85-7.46,16.48-12.85,20.59-11.69,5.08,1.44-4.77,5.24-13.07,8.83a24.52,24.52,0,0,0-9.66,6.91c-1.32,2.49-2.8,5.31-4.27,8.18-.16.43-.33.85-.5,1.26a26.33,26.33,0,0,1,3.84-4.82c3.95-3.73,15.84-7.47,17.77-3.57s-7,3.38-14.25,5.72a20.12,20.12,0,0,0-9.71,7.28l-.42.61c-.65,1.32-1.28,2.61-1.86,3.83-1.37,2.86-2.66,5.56-3.94,8.17a43.21,43.21,0,0,1,7.43-10c5.8-5.46,14.32-7.77,17.85-5.87s-10.69,6.34-17.46,10a26.06,26.06,0,0,0-9.44,9.16c-1.83,3.69-3.65,7.29-5.63,11.09a98.87,98.87,0,0,1,11.28-11.57c6.58-6,14.28-6.49,16.76-3.86s-3.7,3.74-14.84,8a36,36,0,0,0-15,10.86c-.84,1.59-1.71,3.22-2.62,4.91-1,1.93-2.28,3.93-3.61,5.92,1.82-1.18,4.49-2.9,7.48-4.77a77,77,0,0,0,9.51-6.82c3.44-3,8.14-6.26,13-5a2.51,2.51,0,0,1,2,3.27,4.92,4.92,0,0,1-1.9,2.41c-4.56,3.54-10.68,5.24-16,7.33a120.11,120.11,0,0,1-14.94,4.76c-1.25,1.81-2.57,3.6-3.88,5.3l2.38.07c2.81.08,15.54-5.68,22-7.54s12.5,1.66,5.73,5.3-25.19,2.83-25.19,2.83l-5.31-.16c-1.24,1.6-2.47,3.12-3.62,4.5h25.22v7h-5l-4.05,24.89H367.09l-4-24.89h-5v-7h16.73a64,64,0,0,0-.25-9.06,21.44,21.44,0,0,0-3.68-3c-7.34-5.07-19.79-5.49-23.09-15.25-.8-2.36.1-5.37,2.92-5.24,2,.09,4.17,1.86,5.43,3.32,4.19,4.85,7.36,9.88,12.81,13.55.25.17,3.69,2.91,5.4,4.61-.18-1.59-.42-3.29-.73-5.11a48.77,48.77,0,0,0-4.51-6.67c-4.46-5.55-11.26-8.8-16.1-14.09-1.48-1.62-3.43-7.44,1.09-6,2,.64,4.39,3.68,5.95,5.08,4.45,4,9,8.26,11.9,13.52-.12-.52-.24-1-.37-1.56a109.15,109.15,0,0,0-10.5-14.19c-6.43-7.31-13-12.08-13.12-16.08s8.17,2.7,15.2,11.86a47.67,47.67,0,0,1,7.32,13.91c-1.28-5.19-2.65-10.42-4-15.44-.92-2.5-3.66-9-8.69-13.51-6.35-5.67-11.49-10.35-12.39-16S347.07,290.65,352.7,299Zm35.52,64.32q1.42-1.94,2.95-4.24a50,50,0,0,0,1.26-7.95,32.91,32.91,0,0,0-.32-6.87,76.54,76.54,0,0,1-5.43,6.07,30.25,30.25,0,0,0,.74,5.94C387.48,356.56,388.13,360.91,388.22,363.32Zm-5.44,6.58c1.28-1.37,2.7-3,4.23-5a21.89,21.89,0,0,0-.66-4.69,33.44,33.44,0,0,0-2.62-7c-2.36,2.24-4.11,3.74-4.11,3.74l-4,3.51c.32,3.49.5,6.76.6,9.42Zm-7.21-10,1.79-1.58c1-.9,2.81-4.38,4.76-8.38a52,52,0,0,1-2.22-5.2c-2.11,3.93-4,7-5.1,8.63C375.11,355.5,375.37,357.7,375.57,359.85Z" style="fill:#fff;opacity:0.5"></path></g><g id="freepik--character-4--inject-11--inject-39"><path d="M358.69,402.31a51.18,51.18,0,0,0,5.28,4.47c1.94,1.25,3.52,1.43,3.34,2.5s-1.4,1.43-4.22,1.61-5.1-.54-6.51-2-2.64-1.25-4.05-1.61-1.76-5-.52-5.89S358.69,402.31,358.69,402.31Z" style="fill:#263238;stroke:#263238;stroke-linecap:round;stroke-linejoin:round"></path><path d="M352.71,403.2s3.87,5.9,4.93,7.15,2.64,2.5,1.76,2.68a13.52,13.52,0,0,1-6.51.36c-3-.72-5.64-5.36-6.16-6.25s-1.94.53-1.41-2.15a11.46,11.46,0,0,1,1.93-4.46S349.54,403.38,352.71,403.2Z" style="fill:#263238;stroke:#263238;stroke-linecap:round;stroke-linejoin:round"></path><path d="M371,357.65l-12.32,44.66-1.58.18a8,8,0,0,1-3.35-.54l7.4-44.48S366.61,359.79,371,357.65Z" style="fill:#407BFF;stroke:#263238;stroke-linecap:round;stroke-linejoin:round"></path><path d="M376.27,249.39l.37,12.57,4.62,32.66-3.7.75-5.91-19.71s-5.37-15.2-5.18-19.52,4.07-15,7.21-15.76S376.27,249.39,376.27,249.39Z" style="fill:#fff;stroke:#263238;stroke-linecap:round;stroke-linejoin:round"></path><path d="M381.26,294.62s.58,4.65.16,6.75-2.27,6.72-3.1,7.14-2.06-7.14-2.06-9.66a4.29,4.29,0,0,1,1.3-3.48Z" style="fill:#fff;stroke:#263238;stroke-linecap:round;stroke-linejoin:round"></path><path d="M341.62,274.22a44.93,44.93,0,0,0-3.34,16.62c-.18,9.82,7.39,23.94,10.73,30.19s14.43,22.69,14.43,22.69-8.09,17.15-8.44,22.33-7.75,34.48-7.75,34.48a4.31,4.31,0,0,0,2.64,2.32,16.05,16.05,0,0,0,2.82.35s22-50.19,22.7-54.48,1.76-6.08,1-8.76a37.06,37.06,0,0,1-.88-6.25s2.47-11.61,2.82-29.83-.35-26.26-1.76-30.55C376.64,273.33,358.16,279.94,341.62,274.22Z" style="fill:#407BFF;stroke:#263238;stroke-linecap:round;stroke-linejoin:round"></path><path d="M372.74,188.24s5.38,2.72,4.34,7.34-4.55,6.3-6.41,10.08,1.24,11.33.21,16.79S366.13,232.52,363,229s-3.3-17.64-.82-26S368,186.35,372.74,188.24Z" style="fill:#263238;stroke:#263238;stroke-linecap:round;stroke-linejoin:round"></path><path d="M358.52,213.84A64.17,64.17,0,0,1,348,216.7c-4.75.71-9.68,1.61-9.68,5.9s10.38,31.79,10.38,31.79l-8.09,21.08s4.75,3,16.36,4.29a38.77,38.77,0,0,0,20.94-3.93s-4.22-13.4-4.22-18.93,5.81-8.22,5.28-15.9-2.64-14.3-5.81-18.58-10-8-11.44-8.4A10.65,10.65,0,0,0,358.52,213.84Z" style="fill:#fff;stroke:#263238;stroke-linecap:round;stroke-linejoin:round"></path><path d="M371.36,246.27s-10.23,7.2-14.4,9.09" style="fill:none;stroke:#263238;stroke-linecap:round;stroke-linejoin:round"></path><path d="M346,244.76s5.3-5.68,6.06-9.85" style="fill:none;stroke:#263238;stroke-linecap:round;stroke-linejoin:round"></path><line x1="372.49" y1="225.44" x2="377.8" y2="234.15" style="fill:none;stroke:#263238;stroke-linecap:round;stroke-linejoin:round"></line><path d="M357.28,199.37s.36,5.54.36,9.11-1.24,5.18-.18,8.76,4.75,10.71,6.51,8,2.64-15.72,2.64-15.72-3.52-5.18-5.28-7.68S357.64,197.76,357.28,199.37Z" style="fill:#fff;stroke:#263238;stroke-linecap:round;stroke-linejoin:round"></path><path d="M370.83,190.26a22.28,22.28,0,0,1,2.82,9.65c.35,5.71-.53,10-3.52,12.68s-4.4,3.22-7,2.32-5.45-11.43-5.45-11.43-3.35-.18-6.51-5.36,1.58-13.22,8.44-14.11S370.83,190.26,370.83,190.26Z" style="fill:#fff;stroke:#263238;stroke-linecap:round;stroke-linejoin:round"></path><path d="M360.45,202.94s-2.46-5.18-4.05-3-.52,5.89.71,6.43,2.11-1.07,2.11-1.07" style="fill:#fff;stroke:#263238;stroke-linecap:round;stroke-linejoin:round"></path><path d="M341.7,218.23s-5.74.37-5.37,6.94-2.58,38.86-2.77,42.61,11.65,32.47,11.65,32.47l4.25-.56-6.84-33.6L347.24,240a7.35,7.35,0,0,0-.74-6.38" style="fill:#fff;stroke:#263238;stroke-linecap:round;stroke-linejoin:round"></path><path d="M357.86,201.46l1.27-.56,4.93-2.17c6.2-2.73,7.23-6.09,8.68-10.49s.21-3.78-7.65-6.51-13-1.26-17.16,3.78-3.51,18.47-5,23.09-3.1,7.55,0,12.17,14.68,12.38,15.92,5.88S356,207.55,357.86,201.46Z" style="fill:#263238;stroke:#263238;stroke-linecap:round;stroke-linejoin:round"></path><path d="M349.46,299.69a19.92,19.92,0,0,1,3.85,2.94c1,1.26,2.27,4,2.06,4.83s-1.86-2.1-2.68-2.52,1.65,4.62,1.86,5.67,0,1.46-2.07.63-3.31-1.89-5.38-4.2-1.89-6.79-1.89-6.79Z" style="fill:#fff;stroke:#263238;stroke-linecap:round;stroke-linejoin:round"></path><path d="M362.4,286.47s11.38,30.22,12.62,44.92" style="fill:none;stroke:#263238;stroke-linecap:round;stroke-linejoin:round"></path><path d="M370.67,285.84s-2.68,5.87-4.75,8.18" style="fill:none;stroke:#263238;stroke-linecap:round;stroke-linejoin:round"></path></g><g id="freepik--character-3--inject-11--inject-39"><path d="M309.92,271.09s-4.6-28.25-4.6-39.75,3.18-21.78,8.49-17.13l8.59,63.46L326,297.75c1.35,5.43,1.16,10.67.32,13.43s-2.44,2.38-1.95.11-.73-5.57-1.3-5,.77,3.21-.34,4.43-1.49-1.06-2-4,.89-7.6.89-7.6Z" style="fill:#fff;stroke:#263238;stroke-linecap:round;stroke-linejoin:round"></path><path d="M312.85,212.83a12.09,12.09,0,0,1,4,7c.66,4.41,7.05,36.35,7.05,36.35s-2,1.77-7.27,3.75a33.1,33.1,0,0,1-10.36,2l-.66-45.38" style="fill:#407BFF;stroke:#263238;stroke-linecap:round;stroke-linejoin:round"></path><polyline points="312.05 256.11 316.64 256.11 318.73 252.77 322.91 252.77" style="fill:none;stroke:#263238;stroke-linecap:round;stroke-linejoin:round"></polyline><path d="M249.84,250.28l0,0c2.87-10.29,8.73-27.6,9.86-31.31,1.54-5.07,4.19-6.39,4.19-6.39l4,24.68-1.54,3.3s-4.28,11.91-7.53,17.79l8.85,18.78,3.09,6.61-4,5.73s-18.06-28-19-30S249.84,250.28,249.84,250.28Z" style="fill:#fff;stroke:#263238;stroke-linecap:round;stroke-linejoin:round"></path><path d="M265,212.17a9.2,9.2,0,0,0-5.29,4.18c-2.2,3.53-13,39-13,39a18,18,0,0,0,7.71,3.31,23.12,23.12,0,0,0,6.83.22l6.39-16.75" style="fill:#407BFF;stroke:#263238;stroke-linecap:round;stroke-linejoin:round"></path><polyline points="248.52 249.84 252.7 253.19 258.14 251.1 261.48 254.44" style="fill:none;stroke:#263238;stroke-linecap:round;stroke-linejoin:round"></polyline><path d="M316.73,402.84s0,.9,5.59,5.6,6.72,6,5.15,7.61-9.18-1.34-11.64-2.91-1.34-1.57-4.25-2.91-1.57-6.05-1.12-7.17S316.73,402.84,316.73,402.84Z" style="fill:#fff;stroke:#263238;stroke-linecap:round;stroke-linejoin:round"></path><path d="M262.59,401.83s0,.89-5.6,5.59-6.72,6.05-5.15,7.61,9.18-1.34,11.64-2.91,1.35-1.56,4.26-2.91,1.56-6,1.12-7.16S262.59,401.83,262.59,401.83Z" style="fill:#fff;stroke:#263238;stroke-linecap:round;stroke-linejoin:round"></path><path d="M266,318c-.71-7.53.34-27.4.34-29.19s3.38-9.07,4.36-11.12l.1-2.35s34.82-1.32,39.42-3c0,0,5.92,24,6.58,41.73s3.61,39.43,2.95,51.91c-.52,10-1,29.93-1.43,36.62a3.56,3.56,0,0,1-2.76,3.24l-.81.18a3.55,3.55,0,0,1-4.31-3c-1.62-13-7.59-56.6-10.07-64.61-3-9.53-9-35.32-9-35.32s-14,63.58-15.61,72.12-6.9,27.93-6.9,27.93a16,16,0,0,1-4.27,1,13.4,13.4,0,0,1-3.59-.66Z" style="fill:#263238;stroke:#263238;stroke-linecap:round;stroke-linejoin:round"></path><path d="M290,206.13s8.49,1.7,14.23,3.4,9.56,2.76,9.56,4.68-2.55,59-2.55,59-.21,2.34-5.31,3-32.07,1.48-33.77,1.06-2.34-2.13-2.55-4.68-6.8-56.71-6.37-59.25,21.24-6.38,21.87-6.59A9.2,9.2,0,0,1,290,206.13Z" style="fill:#407BFF;stroke:#263238;stroke-linecap:round;stroke-linejoin:round"></path><path d="M312.05,239s-8.78,19.64-20.48,29.67" style="fill:none;stroke:#263238;stroke-linecap:round;stroke-linejoin:round"></path><path d="M294.49,256.11s-12.11,16.3-18.8,19.23" style="fill:none;stroke:#263238;stroke-linecap:round;stroke-linejoin:round"></path><polyline points="265.24 233.55 273.18 228.53 279.45 234.38 288.23 228.95 295.33 235.22 303.69 227.7 310.38 234.38 312.88 228.53" style="fill:none;stroke:#263238;stroke-linecap:round;stroke-linejoin:round"></polyline><path d="M295.2,191.71s1.84-4.6,2.76-.92-2.3,8.27-4.14,6.89" style="fill:#fff;stroke:#263238;stroke-linecap:round;stroke-linejoin:round"></path><path d="M276.37,192.85s-3.91-2.52-3.68.92,3.68,7.35,4.82,5.29" style="fill:#fff;stroke:#263238;stroke-linecap:round;stroke-linejoin:round"></path><path d="M293.82,197.68l-.23,14.24a6.05,6.05,0,0,1-6.43,5.74c-6.2,0-6-7.12-6-7.12l-1.38-11.48S289.69,200.2,293.82,197.68Z" style="fill:#fff;stroke:#263238;stroke-linecap:round;stroke-linejoin:round"></path><path d="M274.71,189.57S272,181.07,279.3,176s15.16,1.38,16.08,7.81.23,14.93-3.21,19.75-5.59,5.17-9.42,2.3S274.94,195.08,274.71,189.57Z" style="fill:#fff;stroke:#263238;stroke-linecap:round;stroke-linejoin:round"></path><path d="M276.5,186.18s.88,2.86.66,4,1.1,4.18-.88,4-2.86-7.92-2.86-7.92Z" style="fill:#263238;stroke:#263238;stroke-linecap:round;stroke-linejoin:round"></path><path d="M295.42,190.58s-1.76,1.54-1.76-.22,1.32-2.64.22-4-3.3-2.2-3.3-4.4v-3.74a49.1,49.1,0,0,1-8.58,6.82c-4,2.2-7.92,3.52-11,2.42s1.1-5.06,1.1-5.06-4.62,2.42-4.62-1.76,7.69-9.68,14.73-9.68,9.46,4.62,9.46,4.62,4.18,0,4.84,3.74S295.42,190.58,295.42,190.58Z" style="fill:#263238;stroke:#263238;stroke-linecap:round;stroke-linejoin:round"></path></g><g id="freepik--character-2--inject-11--inject-39"><path d="M207.3,403.8s-5.65,5.41-7.45,9.82,2.78,3.93,7,.82,5-11.55,5-11.55S209.18,403.45,207.3,403.8Z" style="fill:#407BFF;stroke:#263238;stroke-linecap:round;stroke-linejoin:round"></path><path d="M223,402.66s.58,7.69,2.05,11.94,5.55,5.73,6.86,2.29-4.14-14.46-4.14-14.46S224.69,403.47,223,402.66Z" style="fill:#407BFF;stroke:#263238;stroke-linecap:round;stroke-linejoin:round"></path><path d="M188.43,277.44s-4.09,9.77-2,25.22,8,28.64,9.09,36.36.23,22.73,4.09,34.32,7.73,30.46,7.73,30.46a4.19,4.19,0,0,0,4.54-.91s.91-30.46,1.14-45.23-1.82-37.5-1.59-41.82,2-33.18,2-33.18S194.34,280.84,188.43,277.44Z" style="fill:#263238;stroke:#263238;stroke-linecap:round;stroke-linejoin:round"></path><path d="M210.48,282.89s-2.27,25.68-.68,46.13,6.36,43,8.86,53S223,402.66,223,402.66s3,2.27,4.77-.23c0,0,1.59-23.63,1.82-36.36s-2-20.46-2-28.41,6.82-30.68,7.73-40.91,1.14-11.82-.68-17.27-20.68-2-22.73-.45A3.72,3.72,0,0,0,210.48,282.89Z" style="fill:#263238;stroke:#263238;stroke-linecap:round;stroke-linejoin:round"></path><path d="M213,357.66s-4.25-20.13-3.35-33.75c.45-6.76,2.42-28.71,2.42-28.71" style="fill:none;stroke:#fff;stroke-linecap:round;stroke-linejoin:round"></path><line x1="206.73" y1="292.05" x2="211.71" y2="299" style="fill:none;stroke:#fff;stroke-linecap:round;stroke-linejoin:round"></line><path d="M212.18,175.6s-2.08-3.11-8.66.35-5.88,18-5.19,21.12-3.46,4.5-6.92,10.74,3.81,19.39,3.46,23.89-8.31,11.77-8,19.73,19.39,17,34.27,15.24,18.7-7.27,19-15.93-4.16-13.16-4.16-18.35,5.89-9.7,2.77-18.35-7.62-10-7.62-13.85,5.89-6.58,3.81-13.5S222.22,168.68,212.18,175.6Z" style="fill:#263238;stroke:#263238;stroke-linecap:round;stroke-linejoin:round"></path><path d="M210.71,210.85s-8.19,2.27-12.73,3-9.09,1.59-8.87,5.23,7.28,33.86,7.73,35.68S188,278.34,188,278.34s2,1.82,15.91,5,31.59-3.18,31.59-3.18-7.73-21.82-7.73-25,11.36-35.45,9.09-38.86S217.07,211.07,210.71,210.85Z" style="fill:#fff;stroke:#263238;stroke-linecap:round;stroke-linejoin:round"></path><line x1="228.05" y1="244.41" x2="206.32" y2="258.62" style="fill:none;stroke:#263238;stroke-linecap:round;stroke-linejoin:round"></line><line x1="213.84" y1="251.1" x2="199.63" y2="259.04" style="fill:none;stroke:#263238;stroke-linecap:round;stroke-linejoin:round"></line><line x1="210.91" y1="225.61" x2="211.75" y2="282.02" style="fill:none;stroke:#263238;stroke-linecap:round;stroke-linejoin:round"></line><path d="M236.61,215.39s1.82,2.73,2.28,14.09,11.59,61.82,11.59,61.82l-4.78.68s-6.36-15.68-10.22-24.32a112.08,112.08,0,0,1-6.12-19.06l2.58-17.48" style="fill:#fff;stroke:#263238;stroke-linecap:round;stroke-linejoin:round"></path><path d="M240.17,246.92a84.66,84.66,0,0,1-5.44,9.19" style="fill:none;stroke:#263238;stroke-linecap:round;stroke-linejoin:round"></path><path d="M210.71,210.85s-5.14-1.23-6.58,1.63-2.86,13.76-2.86,13.76,8.88-3.44,10.89-3.44S223.63,228,223.63,228s-1.15-12.9-3.44-16.34S210.71,210.85,210.71,210.85Z" style="fill:#fff;stroke:#263238;stroke-linecap:round;stroke-linejoin:round"></path><path d="M207.3,206.76s.91,8.86,1.36,11.81,2.35,16.27,5.68,0a93.92,93.92,0,0,0,1.36-12.72S210.48,207.89,207.3,206.76Z" style="fill:#fff;stroke:#263238;stroke-linecap:round;stroke-linejoin:round"></path><path d="M211.84,181.3,203,194.71s-.46,13.86,6.59,15.68,12-11.82,12-11.82S209.8,187.21,211.84,181.3Z" style="fill:#fff;stroke:#263238;stroke-linecap:round;stroke-linejoin:round"></path><path d="M192.3,234l-12.05,10.91,9.51,27-2.92,2.54s-19.88-26.74-19.77-30,23-28.41,23-28.41a2.83,2.83,0,0,1,2.28-.22" style="fill:#fff;stroke:#263238;stroke-linecap:round;stroke-linejoin:round"></path><path d="M180.25,244.94s-5.28-3.87-7.37-3.87" style="fill:none;stroke:#263238;stroke-linecap:round;stroke-linejoin:round"></path><path d="M245.7,292s-2.27,4.55-2.27,7.73,0,5.61,1.37,4.54.45-4.09,1.13-4.54,1.37,3.18.46,5.45.68,3,2,.23,2.5-8.18,2-14.09Z" style="fill:#fff;stroke:#263238;stroke-linecap:round;stroke-linejoin:round"></path><path d="M189.76,271.94s2.4-4.23,3.76-3.77,5.14,4,5.14,4.95-5.14-2.22-5.14-2.22,5.14,2.9,3.78,3.81-5.38-2.13-5.38-2.13,4.47,4.17,3.1,3.95-4.31-2.28-4.31-2.28,3.4,3.19,1.81,3a5.78,5.78,0,0,1-3-1.82s-1.5,2.4-2.73-.91Z" style="fill:#fff;stroke:#263238;stroke-linecap:round;stroke-linejoin:round"></path></g><g id="freepik--character-1--inject-11--inject-39"><path d="M153.55,176.26l-3,2.16a3.86,3.86,0,0,0-4.81-1.18c-3,1.37-9.91,8.44-12,14.91s4.71,13.84,3.43,16.59-4.9,3.53-4.61,8.14,16.68,10.79,24.53,7.16.3-12.07,2.06-14.81,6.87-2,6.87-10.11-1.56-12.27-4.51-17.27C159,177.53,156.4,175.28,153.55,176.26Z" style="fill:#263238;stroke:#263238;stroke-linecap:round;stroke-linejoin:round"></path><path d="M162.46,399.85a57.46,57.46,0,0,1-2,7.61c-1,2.43-4.69,3.4-2.91,4.86s5.5,1.3,7.77-1,1.94-5.51,3.72-7.12,1.62-3.4.49-5.35a4.5,4.5,0,0,0-2.43-2.26S166.5,399.37,162.46,399.85Z" style="fill:#fff;stroke:#263238;stroke-linecap:round;stroke-linejoin:round"></path><path d="M128.73,260s-2.83,13.35-1.82,23.68a171.42,171.42,0,0,0,3.64,23.27c1,3.64,8.5,38.05,9.11,38.45s13,29.15,15.58,36.23,7.09,18,7.09,18,2.76,1.33,4.58-.29,1.16-2.06,1.16-2.06-4.12-35.69-7.36-45.81-8.3-21.46-8.3-21.46,9.72-37.64,7.49-52.42S154.84,261,154.84,261,138.24,267,128.73,260Z" style="fill:#263238;stroke:#263238;stroke-linecap:round;stroke-linejoin:round"></path><path d="M156.12,263a60.12,60.12,0,0,1,11.27,28.36c1.82,16.59-7.9,27.52-9.92,38.05s2.63,19.42-.4,30.35S151,381.38,149,387.45s-4.37,13.89-4.37,13.89a5.65,5.65,0,0,1-3.84,1.18c-2.63,0-3,0-3,0s4.49-44.77,4.69-54.89,1.42-21.05,1.42-21.05-1.42-37.44,1.62-44.52,5.06-9.11,5.06-9.11" style="fill:#263238;stroke:#263238;stroke-linecap:round;stroke-linejoin:round"></path><path d="M142.48,340.5c0-5.95.07-14.48.31-20.86.42-10.87,1.26-36.78,7.11-43.88" style="fill:none;stroke:#fff;stroke-linecap:round;stroke-linejoin:round"></path><path d="M142.49,347.58s0-1.12,0-3" style="fill:none;stroke:#fff;stroke-linecap:round;stroke-linejoin:round"></path><path d="M133.18,277.43s4.36,11.3,11.42,14.05" style="fill:none;stroke:#fff;stroke-linecap:round;stroke-linejoin:round"></path><path d="M130.55,215.22a6.77,6.77,0,0,0-7.08,4.05c-2.23,4.85-11.67,24-11.67,26.39s2.65,9.06,7,5.38c2.57-2.16,9.92-17.61,9.92-17.61" style="fill:#407BFF;stroke:#263238;stroke-linecap:round;stroke-linejoin:round"></path><path d="M164.15,220.71c-1.87-5.79-13.25-6.09-14.13-6.28,0,0-.39.59-.39-.69s.68-6.08.68-6.08-7.75,0-9-2.75c0,0-.2,6.67-1.08,9.22A7.54,7.54,0,0,1,136,215c-2.94,0-7.8-1.18-9.27,2.84a6.49,6.49,0,0,0-.23.84c-.72,2.67-2.91,11-3.17,14.6-.17,2.41,1.19,7.12,2.43,10.82.09,2.67.22,4.94.37,6.42.69,6.57.29,15.06,2.45,16.44s18.38,3.7,23.48,1.54,4.79-8.17,4.79-11S166,226.5,164.15,220.71Z" style="fill:#407BFF;stroke:#263238;stroke-linecap:round;stroke-linejoin:round"></path><path d="M136.11,234.38s1.25,5.44,7.94,8.36" style="fill:none;stroke:#263238;stroke-linecap:round;stroke-linejoin:round"></path><path d="M156.76,215.48a47.5,47.5,0,0,0-6.74-1s-.39.59-.39-.69.68-6.08.68-6.08-7.75,0-9-2.75c0,0-.2,6.67-1.08,9.22,0,0-2.85.56-5.55.87.47,2.79,2.23,8.64,8.79,9.35C149.18,225,154.09,219.35,156.76,215.48Z" style="fill:#fff;stroke:#263238;stroke-linecap:round;stroke-linejoin:round"></path><path d="M151.29,184.3s-4.9,5-10.69,5.6c0,0-2.36,8.73-.3,14.62s5.7,6.77,8.54,6c4.84-1.33,8.64-11.18,9.71-14.91C158.55,195.59,153,189.8,151.29,184.3Z" style="fill:#fff;stroke:#263238;stroke-linecap:round;stroke-linejoin:round"></path><path d="M137.8,402.47s-3.4,8.1-4.53,10.52-5.18,3.57-3.56,5,8.58-.48,11.49-2.75,4.21-2.91,4.7-5.18-1.3-8.74-1.3-8.74A16.7,16.7,0,0,1,137.8,402.47Z" style="fill:#fff;stroke:#263238;stroke-linecap:round;stroke-linejoin:round"></path><path d="M132.11,245.13s-5.08-5.82-5.4-6.37-8.47-3.17-8.47-3.17a2.35,2.35,0,0,0,0,1.57c.32.55,5.55,1.93,5.55,1.93l.47.69-7.2-1s-1.27.22-.93,1.05,8,1.93,8,1.93l-7.83.35a2,2,0,0,0,1.67,1.46c1.28.06,4.41-.13,4.41-.13s-3.68.51-2.9,1.46,4.7-.15,4.7-.15l3.12,1.94,3.14,2.23Z" style="fill:#fff;stroke:#263238;stroke-linecap:round;stroke-linejoin:round"></path><path d="M158,227.21l-5.24,21.71s-13.85-1.62-16.84-2.5a19.78,19.78,0,0,1-3.37-1.12L130.36,249s9.64,5.83,17.38,8.45,10.47,4.74,12.47,1.37,5.49-23.82,6.49-30.68-.13-9.11-2.37-10a30.91,30.91,0,0,0-5.12-1.37" style="fill:#407BFF;stroke:#263238;stroke-linecap:round;stroke-linejoin:round"></path><path d="M115.34,242.76l29.38,4-1,3.79a139.93,139.93,0,0,1-21.91,3.3c-12.69.56-11-8-8.79-11.84" style="fill:#407BFF;stroke:#263238;stroke-linecap:round;stroke-linejoin:round"></path><path d="M144.72,246.79s7.6-1.75,8.19-2,8.63,2.73,8.63,2.73-.34,1-.94,1.26-5.55-1.89-5.55-1.89l-.8.25,6.27,3.67s.86,1,.08,1.4-7.46-3.4-7.46-3.4l6,5.11a2,2,0,0,1-2.22.12c-1.05-.74-3.39-2.82-3.39-2.82s2.58,2.67,1.38,2.94-3.6-3-3.6-3l-3.66-.39-3.84-.18Z" style="fill:#fff;stroke:#263238;stroke-linecap:round;stroke-linejoin:round"></path></g></svg>