<svg xmlns="http://www.w3.org/2000/svg" viewBox="0 0 500 500"><g id="freepik--Floor--inject-44"><path id="freepik--floor--inject-44" d="M82.46,257.5c-92.53,53.42-92.53,140,0,193.46S325,504.38,417.54,451s92.53-140,0-193.46S175,204.08,82.46,257.5Z" style="fill:#fafafa"></path></g><g id="freepik--Plants--inject-44"><g id="freepik--plants--inject-44"><g id="freepik--plants--inject-44"><path d="M445.88,391.9a6.79,6.79,0,0,1,6.07-4c3.53-.18,7,1.29,7.18,1.68s-2.4,3.18-6.48,3.9A8,8,0,0,1,445.88,391.9Z" style="fill:#407BFF"></path><path d="M439.4,397.84a6.79,6.79,0,0,1,7.21-.77c3.23,1.45,5.67,4.36,5.63,4.78s-3.59,1.73-7.55.5A7.93,7.93,0,0,1,439.4,397.84Z" style="fill:#407BFF"></path><path d="M439.4,397.84a6.79,6.79,0,0,1,7.21-.77c3.23,1.45,5.67,4.36,5.63,4.78s-3.59,1.73-7.55.5A7.93,7.93,0,0,1,439.4,397.84Z" style="fill:#fff;opacity:0.4"></path><path d="M433.32,394.89a6.8,6.8,0,0,1,.5-7.23c2-2.93,4.88-4.85,5.28-4.73s1.23,4.23-.23,7.65C437.28,394.31,434.29,394.55,433.32,394.89Z" style="fill:#407BFF"></path><path d="M428.18,404.62a6.81,6.81,0,0,1,6.9-2.25c3.46.75,6.45,3.08,6.49,3.5s-3.14,2.44-7.27,2.07A7.94,7.94,0,0,1,428.18,404.62Z" style="fill:#407BFF"></path></g><g id="freepik--plants--inject-44"><path d="M430.83,365.5a7.44,7.44,0,0,0,1.68-7.78C431.3,354,428.42,351,428,351s-2.3,3.7-1.43,8.17A8.73,8.73,0,0,0,430.83,365.5Z" style="fill:#407BFF"></path><path d="M427.31,374.47a7.47,7.47,0,0,0-2.06-7.69c-2.76-2.73-6.7-4.08-7.11-3.87s-.36,4.35,2.46,7.93A8.71,8.71,0,0,0,427.31,374.47Z" style="fill:#407BFF"></path><path d="M432.72,379.54a7.47,7.47,0,0,0,7.22-3.36c2.21-3.2,3-6.91,2.75-7.28s-4.81.41-7.74,3.25C431.76,375.26,432.69,378.41,432.72,379.54Z" style="fill:#407BFF"></path><path d="M432.72,379.54a7.47,7.47,0,0,0,7.22-3.36c2.21-3.2,3-6.91,2.75-7.28s-4.81.41-7.74,3.25C431.76,375.26,432.69,378.41,432.72,379.54Z" style="fill:#fff;opacity:0.2"></path><path d="M424.78,388.64a7.45,7.45,0,0,0-.41-7.95c-2.13-3.25-5.69-5.39-6.14-5.27s-1.26,4.18.75,8.26A8.7,8.7,0,0,0,424.78,388.64Z" style="fill:#407BFF"></path><path d="M424.78,388.64a7.45,7.45,0,0,0-.41-7.95c-2.13-3.25-5.69-5.39-6.14-5.27s-1.26,4.18.75,8.26A8.7,8.7,0,0,0,424.78,388.64Z" style="fill:#fff;opacity:0.4"></path><path d="M452,390.55c.09,0,0-.22-.06-.21-3.93.24-7.85,1.67-11.47,3.16a66.23,66.23,0,0,0-6.91,3.3,15,15,0,0,1,.82-3.74A35.91,35.91,0,0,1,436,389.3c.07-.12.1-.45-.05-.29a12.07,12.07,0,0,0-2.37,3.92,21.68,21.68,0,0,0-1.35,4.6,70.5,70.5,0,0,0-7.77,5.19c-.42.32-.83.66-1.24,1,.53-1,1-1.93,1.49-2.9a58.19,58.19,0,0,0,3.52-9.08,75.63,75.63,0,0,0,2.25-10,23.58,23.58,0,0,0,4.18-3.19,13.27,13.27,0,0,0,3.08-4c.1-.21-.22-.05-.32.07a38.3,38.3,0,0,1-3.21,3.16,16.5,16.5,0,0,1-3.5,2.32,73.89,73.89,0,0,0,.66-8.38c.09-4.29,0-8.87-1.29-13,0-.09-.26-.07-.25,0a60.18,60.18,0,0,1,.32,11.84c-.09,2.38-.23,4.79-.54,7.28a33,33,0,0,0-1.75-3.67,21.55,21.55,0,0,0-1.81-2.83,13.12,13.12,0,0,0-2.82-2.82s-.36-.1-.3,0a35.57,35.57,0,0,1,2.38,3.1,21.31,21.31,0,0,1,1.77,3.07,31.73,31.73,0,0,1,2.15,5.68c0,.26-.07.51-.12.77a74.77,74.77,0,0,1-2.85,10.92,31.39,31.39,0,0,0-.88-3.58,21,21,0,0,0-1.18-3.15A13.47,13.47,0,0,0,422,382s-.34-.17-.29-.08a37.06,37.06,0,0,1,1.67,3.52,19.88,19.88,0,0,1,1.09,3.38,31.9,31.9,0,0,1,.9,5.59c-.5,1.31-1,2.61-1.64,3.95a97.57,97.57,0,0,1-5.63,10.09,3.19,3.19,0,0,0-.26.26,28,28,0,0,0-5.56,7.75.6.6,0,0,0,1,.59,93.82,93.82,0,0,1,6.93-8.35c1-.95,1.88-1.83,2.82-2.69a30.92,30.92,0,0,1,5.05-1.07,19.16,19.16,0,0,1,3.23-.17,30.81,30.81,0,0,1,3.55.27c.09,0-.13-.2-.17-.22a11.77,11.77,0,0,0-3.55-.75,19.67,19.67,0,0,0-3.07,0c-1.25.11-2.33.23-3.33.42a67.94,67.94,0,0,1,8.35-6l.62-.36a29.66,29.66,0,0,1,5.52,0,18.44,18.44,0,0,1,3.2.5,34.25,34.25,0,0,1,3.41,1c.09,0-.08-.21-.11-.24a12,12,0,0,0-3.32-1.47,20.34,20.34,0,0,0-3-.62,30.25,30.25,0,0,0-3.69-.28c2-1.08,4-2,6-2.85A56,56,0,0,1,452,390.55Z" style="fill:#407BFF"></path><path d="M452,390.55c.09,0,0-.22-.06-.21-3.93.24-7.85,1.67-11.47,3.16a66.23,66.23,0,0,0-6.91,3.3,15,15,0,0,1,.82-3.74A35.91,35.91,0,0,1,436,389.3c.07-.12.1-.45-.05-.29a12.07,12.07,0,0,0-2.37,3.92,21.68,21.68,0,0,0-1.35,4.6,70.5,70.5,0,0,0-7.77,5.19c-.42.32-.83.66-1.24,1,.53-1,1-1.93,1.49-2.9a58.19,58.19,0,0,0,3.52-9.08,75.63,75.63,0,0,0,2.25-10,23.58,23.58,0,0,0,4.18-3.19,13.27,13.27,0,0,0,3.08-4c.1-.21-.22-.05-.32.07a38.3,38.3,0,0,1-3.21,3.16,16.5,16.5,0,0,1-3.5,2.32,73.89,73.89,0,0,0,.66-8.38c.09-4.29,0-8.87-1.29-13,0-.09-.26-.07-.25,0a60.18,60.18,0,0,1,.32,11.84c-.09,2.38-.23,4.79-.54,7.28a33,33,0,0,0-1.75-3.67,21.55,21.55,0,0,0-1.81-2.83,13.12,13.12,0,0,0-2.82-2.82s-.36-.1-.3,0a35.57,35.57,0,0,1,2.38,3.1,21.31,21.31,0,0,1,1.77,3.07,31.73,31.73,0,0,1,2.15,5.68c0,.26-.07.51-.12.77a74.77,74.77,0,0,1-2.85,10.92,31.39,31.39,0,0,0-.88-3.58,21,21,0,0,0-1.18-3.15A13.47,13.47,0,0,0,422,382s-.34-.17-.29-.08a37.06,37.06,0,0,1,1.67,3.52,19.88,19.88,0,0,1,1.09,3.38,31.9,31.9,0,0,1,.9,5.59c-.5,1.31-1,2.61-1.64,3.95a97.57,97.57,0,0,1-5.63,10.09,3.19,3.19,0,0,0-.26.26,28,28,0,0,0-5.56,7.75.6.6,0,0,0,1,.59,93.82,93.82,0,0,1,6.93-8.35c1-.95,1.88-1.83,2.82-2.69a30.92,30.92,0,0,1,5.05-1.07,19.16,19.16,0,0,1,3.23-.17,30.81,30.81,0,0,1,3.55.27c.09,0-.13-.2-.17-.22a11.77,11.77,0,0,0-3.55-.75,19.67,19.67,0,0,0-3.07,0c-1.25.11-2.33.23-3.33.42a67.94,67.94,0,0,1,8.35-6l.62-.36a29.66,29.66,0,0,1,5.52,0,18.44,18.44,0,0,1,3.2.5,34.25,34.25,0,0,1,3.41,1c.09,0-.08-.21-.11-.24a12,12,0,0,0-3.32-1.47,20.34,20.34,0,0,0-3-.62,30.25,30.25,0,0,0-3.69-.28c2-1.08,4-2,6-2.85A56,56,0,0,1,452,390.55Z" style="fill:#fff;opacity:0.6000000000000001"></path></g></g><g id="freepik--plants--inject-44"><g id="freepik--plants--inject-44"><path d="M43.73,391.9a6.79,6.79,0,0,0-6.06-4c-3.54-.18-7,1.29-7.19,1.68s2.4,3.18,6.48,3.9A8,8,0,0,0,43.73,391.9Z" style="fill:#407BFF"></path><path d="M50.21,397.84a6.79,6.79,0,0,0-7.21-.77c-3.23,1.45-5.67,4.36-5.62,4.78s3.58,1.73,7.54.5A7.91,7.91,0,0,0,50.21,397.84Z" style="fill:#407BFF"></path><path d="M50.21,397.84a6.79,6.79,0,0,0-7.21-.77c-3.23,1.45-5.67,4.36-5.62,4.78s3.58,1.73,7.54.5A7.91,7.91,0,0,0,50.21,397.84Z" style="fill:#fff;opacity:0.4"></path><path d="M56.29,394.89a6.78,6.78,0,0,0-.5-7.23c-2-2.93-4.87-4.85-5.28-4.73s-1.23,4.23.23,7.65C52.34,394.31,55.33,394.55,56.29,394.89Z" style="fill:#407BFF"></path><path d="M61.43,404.62a6.79,6.79,0,0,0-6.89-2.25c-3.46.75-6.45,3.08-6.5,3.5s3.15,2.44,7.27,2.07A7.94,7.94,0,0,0,61.43,404.62Z" style="fill:#407BFF"></path></g><g id="freepik--plants--inject-44"><path d="M58.78,365.5a7.46,7.46,0,0,1-1.68-7.78C58.31,354,61.2,351,61.66,351s2.31,3.7,1.43,8.17A8.71,8.71,0,0,1,58.78,365.5Z" style="fill:#407BFF"></path><path d="M62.3,374.47a7.47,7.47,0,0,1,2.06-7.69c2.77-2.73,6.7-4.08,7.11-3.87s.36,4.35-2.45,7.93A8.73,8.73,0,0,1,62.3,374.47Z" style="fill:#407BFF"></path><path d="M56.89,379.54a7.46,7.46,0,0,1-7.21-3.36c-2.22-3.2-3-6.91-2.76-7.28s4.81.41,7.74,3.25C57.85,375.26,56.92,378.41,56.89,379.54Z" style="fill:#407BFF"></path><path d="M56.89,379.54a7.46,7.46,0,0,1-7.21-3.36c-2.22-3.2-3-6.91-2.76-7.28s4.81.41,7.74,3.25C57.85,375.26,56.92,378.41,56.89,379.54Z" style="fill:#fff;opacity:0.2"></path><path d="M64.83,388.64a7.45,7.45,0,0,1,.41-7.95c2.13-3.25,5.7-5.39,6.15-5.27s1.25,4.18-.75,8.26A8.72,8.72,0,0,1,64.83,388.64Z" style="fill:#407BFF"></path><path d="M64.83,388.64a7.45,7.45,0,0,1,.41-7.95c2.13-3.25,5.7-5.39,6.15-5.27s1.25,4.18-.75,8.26A8.72,8.72,0,0,1,64.83,388.64Z" style="fill:#fff;opacity:0.4"></path><path d="M47.83,394.16c2,.86,4,1.77,6,2.85a30.25,30.25,0,0,0-3.69.28,20.88,20.88,0,0,0-3,.62,12,12,0,0,0-3.31,1.47s-.21.28-.12.24a34.25,34.25,0,0,1,3.41-1,18.58,18.58,0,0,1,3.2-.5,29.78,29.78,0,0,1,5.53,0c.2.12.41.23.61.36a68.08,68.08,0,0,1,8.36,6c-1-.19-2.09-.31-3.34-.42a19.54,19.54,0,0,0-3.06,0,11.92,11.92,0,0,0-3.56.75s-.25.23-.16.22a30.63,30.63,0,0,1,3.54-.27,19.28,19.28,0,0,1,3.24.17,30.79,30.79,0,0,1,5,1.07c.94.86,1.88,1.74,2.82,2.69A92.13,92.13,0,0,1,76.27,417a.6.6,0,0,0,1-.59,27.75,27.75,0,0,0-5.56-7.75l-.25-.26a95.82,95.82,0,0,1-5.64-10.09c-.59-1.34-1.13-2.64-1.64-3.95a33.9,33.9,0,0,1,.9-5.59,20.82,20.82,0,0,1,1.09-3.38,34.79,34.79,0,0,1,1.68-3.52c0-.09-.25.05-.29.08a13.2,13.2,0,0,0-2.17,3.35,22.1,22.1,0,0,0-1.18,3.15,36.27,36.27,0,0,0-.88,3.58,74.77,74.77,0,0,1-2.85-10.92l-.12-.77a32.51,32.51,0,0,1,2.15-5.68,20.52,20.52,0,0,1,1.78-3.07,35.51,35.51,0,0,1,2.37-3.1c.07-.08-.25,0-.3,0a13.33,13.33,0,0,0-2.81,2.82,21.62,21.62,0,0,0-1.82,2.83A32.79,32.79,0,0,0,60,377.86c-.31-2.49-.46-4.9-.55-7.28a60.18,60.18,0,0,1,.32-11.84c0-.1-.22-.12-.25,0-1.3,4.13-1.38,8.71-1.29,13a76.27,76.27,0,0,0,.66,8.38,16.5,16.5,0,0,1-3.5-2.32,38.3,38.3,0,0,1-3.21-3.16c-.1-.12-.42-.28-.32-.07a13.27,13.27,0,0,0,3.08,4,23.58,23.58,0,0,0,4.18,3.19,77.25,77.25,0,0,0,2.25,10,59.2,59.2,0,0,0,3.52,9.08c.47,1,1,1.94,1.5,2.9-.41-.33-.82-.67-1.24-1a70.63,70.63,0,0,0-7.78-5.19,21.66,21.66,0,0,0-1.34-4.6A12.09,12.09,0,0,0,53.68,389c-.15-.16-.11.17,0,.29a35.91,35.91,0,0,1,1.64,3.76,15,15,0,0,1,.82,3.74,67.06,67.06,0,0,0-6.9-3.3c-3.63-1.49-7.54-2.92-11.48-3.16-.08,0-.14.19-.06.21A55.67,55.67,0,0,1,47.83,394.16Z" style="fill:#407BFF"></path><path d="M47.83,394.16c2,.86,4,1.77,6,2.85a30.25,30.25,0,0,0-3.69.28,20.88,20.88,0,0,0-3,.62,12,12,0,0,0-3.31,1.47s-.21.28-.12.24a34.25,34.25,0,0,1,3.41-1,18.58,18.58,0,0,1,3.2-.5,29.78,29.78,0,0,1,5.53,0c.2.12.41.23.61.36a68.08,68.08,0,0,1,8.36,6c-1-.19-2.09-.31-3.34-.42a19.54,19.54,0,0,0-3.06,0,11.92,11.92,0,0,0-3.56.75s-.25.23-.16.22a30.63,30.63,0,0,1,3.54-.27,19.28,19.28,0,0,1,3.24.17,30.79,30.79,0,0,1,5,1.07c.94.86,1.88,1.74,2.82,2.69A92.13,92.13,0,0,1,76.27,417a.6.6,0,0,0,1-.59,27.75,27.75,0,0,0-5.56-7.75l-.25-.26a95.82,95.82,0,0,1-5.64-10.09c-.59-1.34-1.13-2.64-1.64-3.95a33.9,33.9,0,0,1,.9-5.59,20.82,20.82,0,0,1,1.09-3.38,34.79,34.79,0,0,1,1.68-3.52c0-.09-.25.05-.29.08a13.2,13.2,0,0,0-2.17,3.35,22.1,22.1,0,0,0-1.18,3.15,36.27,36.27,0,0,0-.88,3.58,74.77,74.77,0,0,1-2.85-10.92l-.12-.77a32.51,32.51,0,0,1,2.15-5.68,20.52,20.52,0,0,1,1.78-3.07,35.51,35.51,0,0,1,2.37-3.1c.07-.08-.25,0-.3,0a13.33,13.33,0,0,0-2.81,2.82,21.62,21.62,0,0,0-1.82,2.83A32.79,32.79,0,0,0,60,377.86c-.31-2.49-.46-4.9-.55-7.28a60.18,60.18,0,0,1,.32-11.84c0-.1-.22-.12-.25,0-1.3,4.13-1.38,8.71-1.29,13a76.27,76.27,0,0,0,.66,8.38,16.5,16.5,0,0,1-3.5-2.32,38.3,38.3,0,0,1-3.21-3.16c-.1-.12-.42-.28-.32-.07a13.27,13.27,0,0,0,3.08,4,23.58,23.58,0,0,0,4.18,3.19,77.25,77.25,0,0,0,2.25,10,59.2,59.2,0,0,0,3.52,9.08c.47,1,1,1.94,1.5,2.9-.41-.33-.82-.67-1.24-1a70.63,70.63,0,0,0-7.78-5.19,21.66,21.66,0,0,0-1.34-4.6A12.09,12.09,0,0,0,53.68,389c-.15-.16-.11.17,0,.29a35.91,35.91,0,0,1,1.64,3.76,15,15,0,0,1,.82,3.74,67.06,67.06,0,0,0-6.9-3.3c-3.63-1.49-7.54-2.92-11.48-3.16-.08,0-.14.19-.06.21A55.67,55.67,0,0,1,47.83,394.16Z" style="fill:#fff;opacity:0.6000000000000001"></path></g></g></g><g id="freepik--Shadows--inject-44"><ellipse id="freepik--Shadow--inject-44" cx="363.77" cy="436" rx="71.91" ry="41.52" style="fill:#e0e0e0"></ellipse><ellipse id="freepik--shadow--inject-44" cx="250" cy="436" rx="71.91" ry="41.52" style="fill:#e0e0e0"></ellipse><ellipse id="freepik--shadow--inject-44" cx="126.57" cy="432.4" rx="69.74" ry="40.26" style="fill:#e0e0e0"></ellipse></g><g id="freepik--Confetti--inject-44"><g id="freepik--confetti--inject-44"><path d="M471.75,146.78a4.33,4.33,0,0,1-4.67,2.78,6,6,0,0,1-4.22-3.67,12.1,12.1,0,0,1-.57-6.45,11.86,11.86,0,0,1,1.32-4.11,6.41,6.41,0,0,0,.91,1.18,5.28,5.28,0,0,0,6,1.13c1.85-.85,3.53-3.46,1.89-5.29s-4.5-1.71-6.53-.81a7,7,0,0,0-1.91,1.29,6.77,6.77,0,0,1-.08-2.06c.51-4.61,4.39-8.05,8.68-9.21.29-.08.06-.58-.18-.56-4.64.27-8.67,4.45-9.62,8.84A7.85,7.85,0,0,0,463,134a10.7,10.7,0,0,0-1.5,3,15,15,0,0,0-.41,7.81,7.65,7.65,0,0,0,5.12,5.85c2.62.7,5.67-.68,6-3.55C472.23,146.83,471.85,146.48,471.75,146.78Zm-7-13a5.51,5.51,0,0,1,4.87-1.66c1,.21,2.17.82,2.13,2a2.9,2.9,0,0,1-1.29,2.18,3.81,3.81,0,0,1-4.67-.28,5.35,5.35,0,0,1-1.39-1.86Z" style="fill:#ebebeb"></path><path d="M426.18,149a5.12,5.12,0,1,1,5.12-5.12A5.12,5.12,0,0,1,426.18,149Zm0-9.24a4.12,4.12,0,1,0,4.12,4.12A4.12,4.12,0,0,0,426.18,139.76Z" style="fill:#ebebeb"></path><path d="M412.38,61.85a5.12,5.12,0,1,1,5.11-5.12A5.12,5.12,0,0,1,412.38,61.85Zm0-9.23a4.12,4.12,0,1,0,4.11,4.11A4.12,4.12,0,0,0,412.38,52.62Z" style="fill:#ebebeb"></path><path d="M450.68,247.05a4.4,4.4,0,0,0,2.4,2.81,8.46,8.46,0,0,0,6.37-.07,6.88,6.88,0,0,0,4.4-5.23c.1-.67-.85-.51-1,0-.73,3.33-4.28,4.82-7.42,4.47a3.87,3.87,0,0,1-3.47-2.29,6.57,6.57,0,0,0,2.39-1.41c1.27-1.18,2.27-3.35,1.21-5a2.53,2.53,0,0,0-2-1.16,2.31,2.31,0,0,0-2,1.3,10.08,10.08,0,0,0-1.17,5.08,5.76,5.76,0,0,1-4.36-1.51c-2.82-2.65-2.63-7-.84-10.14.17-.32-.39-.39-.56-.18a8.77,8.77,0,0,0-2.06,6,8,8,0,0,0,2.21,5.11A7.06,7.06,0,0,0,450.68,247.05ZM453,241a1,1,0,0,1,1.42.26c.8,1-.29,2.55-1.09,3.23a5,5,0,0,1-1.55.88,9,9,0,0,1,.45-2.59A4,4,0,0,1,453,241Z" style="fill:#f5f5f5"></path><path d="M29.55,71.75c.36,2.87,3.41,4.25,6,3.55a7.63,7.63,0,0,0,5.12-5.85,15,15,0,0,0-.41-7.81,10.7,10.7,0,0,0-1.5-3,7.84,7.84,0,0,0,.2-4.11c-1-4.39-5-8.57-9.62-8.84-.24,0-.47.48-.18.56,4.29,1.16,8.17,4.6,8.68,9.21a6.77,6.77,0,0,1-.08,2.06,7.06,7.06,0,0,0-1.91-1.29c-2-.9-4.92-1-6.52.81s0,4.44,1.88,5.29a5.28,5.28,0,0,0,6-1.13A6.41,6.41,0,0,0,38.14,60a11.93,11.93,0,0,1,1.32,4.11,12.1,12.1,0,0,1-.57,6.45,6,6,0,0,1-4.22,3.67A4.33,4.33,0,0,1,30,71.49C29.9,71.19,29.52,71.54,29.55,71.75Zm7.81-12.84A5.35,5.35,0,0,1,36,60.77a3.81,3.81,0,0,1-4.67.28A2.9,2.9,0,0,1,30,58.87c0-1.2,1.09-1.81,2.13-2A5.53,5.53,0,0,1,37,58.51Z" style="fill:#ebebeb"></path><path d="M35.92,139.05A5.12,5.12,0,1,1,41,144.16,5.12,5.12,0,0,1,35.92,139.05Zm1,0A4.12,4.12,0,1,0,41,134.93,4.12,4.12,0,0,0,36.92,139.05Z" style="fill:#ebebeb"></path><path d="M111,59.74a5.12,5.12,0,1,1,5.12,5.11A5.13,5.13,0,0,1,111,59.74Zm1,0a4.12,4.12,0,1,0,4.12-4.12A4.12,4.12,0,0,0,112,59.74Z" style="fill:#ebebeb"></path><path d="M53,244.79a8,8,0,0,0-.35-5.56A8.8,8.8,0,0,0,48,234.8c-.24-.1-.72.21-.41.41,3,2,5.17,5.78,3.86,9.42a5.77,5.77,0,0,1-3.2,3.33,10.12,10.12,0,0,0-3.35-4,2.28,2.28,0,0,0-2.38-.24,2.5,2.5,0,0,0-1.24,1.93c-.21,1.92,1.67,3.4,3.34,3.87a6.39,6.39,0,0,0,2.77.17,3.89,3.89,0,0,1-2.05,3.62c-2.63,1.74-6.47,2-8.64-.61-.35-.42-1.27-.14-.88.42a6.86,6.86,0,0,0,6.3,2.65,8.43,8.43,0,0,0,5.7-2.83,4.41,4.41,0,0,0,.87-3.59A7,7,0,0,0,53,244.79Zm-7.58,1.41A9.7,9.7,0,0,1,47,248.31a5.16,5.16,0,0,1-1.79-.08c-1-.23-2.67-1.09-2.43-2.38a1,1,0,0,1,1.14-.88A4.24,4.24,0,0,1,45.38,246.2Z" style="fill:#f5f5f5"></path></g></g><g id="freepik--Symbols--inject-44"><g id="freepik--Alert--inject-44"><path d="M436.6,193.63l-4-1.11a1.42,1.42,0,0,1-1.07-1.57l4.84-23.64a1.2,1.2,0,0,1,1.56-.83l7.58,2.12a1.16,1.16,0,0,1,.93,1.45l-8.14,22.87A1.37,1.37,0,0,1,436.6,193.63Z" style="fill:#ebebeb"></path><path d="M431.47,204.3a4.24,4.24,0,1,1,5.22-2.94A4.2,4.2,0,0,1,431.47,204.3Z" style="fill:#ebebeb"></path></g><g id="freepik--alert--inject-44"><path d="M444.6,108l-2.88-3a1.42,1.42,0,0,1-.13-1.89l16.2-17.9a1.19,1.19,0,0,1,1.76.08L465,90.92a1.17,1.17,0,0,1,.06,1.72L446.43,108.2A1.4,1.4,0,0,1,444.6,108Z" style="fill:#f5f5f5"></path><path d="M434.75,114.52a4.24,4.24,0,1,1,6,.12A4.22,4.22,0,0,1,434.75,114.52Z" style="fill:#f5f5f5"></path></g><g id="freepik--alert--inject-44"><path d="M453.73,306.54l-3.4-2.4a1.41,1.41,0,0,1-.49-1.83l12.49-20.65a1.2,1.2,0,0,1,1.75-.26l6.43,4.53a1.17,1.17,0,0,1,.39,1.68l-15.33,18.83A1.39,1.39,0,0,1,453.73,306.54Z" style="fill:#ebebeb"></path><path d="M445.32,314.87a4.24,4.24,0,1,1,5.91-1A4.21,4.21,0,0,1,445.32,314.87Z" style="fill:#ebebeb"></path></g><g id="freepik--alert--inject-44"><path d="M479.16,216.84l-3.09.65a1.06,1.06,0,0,1-1.27-.68l-5-17.64a.9.9,0,0,1,.76-1.1l5.86-1.23a.88.88,0,0,1,1.13.65l2.52,18.28A1,1,0,0,1,479.16,216.84Z" style="fill:#f5f5f5"></path><path d="M479.43,225.84a3.22,3.22,0,1,1,2.49-3.82A3.22,3.22,0,0,1,479.43,225.84Z" style="fill:#f5f5f5"></path></g><g id="freepik--alert--inject-44"><path d="M347,69.31,343.9,70a1.08,1.08,0,0,1-1.27-.68l-5-17.64a.9.9,0,0,1,.76-1.1l5.85-1.23a.89.89,0,0,1,1.14.65l2.52,18.27A1,1,0,0,1,347,69.31Z" style="fill:#f5f5f5"></path><path d="M347.27,78.3a3.22,3.22,0,1,1,2.49-3.81A3.2,3.2,0,0,1,347.27,78.3Z" style="fill:#f5f5f5"></path></g><g id="freepik--alert--inject-44"><path d="M436.46,70.11l-3-1a1.07,1.07,0,0,1-.74-1.23l4.65-17.74a.91.91,0,0,1,1.22-.56l5.66,1.92a.89.89,0,0,1,.65,1.14l-7.12,17A1.05,1.05,0,0,1,436.46,70.11Z" style="fill:#ebebeb"></path><path d="M432.12,78a3.23,3.23,0,1,1,4.09-2A3.21,3.21,0,0,1,432.12,78Z" style="fill:#ebebeb"></path></g><g id="freepik--alert--inject-44"><path d="M51.77,186.69l4,1.16a1.41,1.41,0,0,0,1.73-.77l8.32-22.65a1.2,1.2,0,0,0-.9-1.53l-7.56-2.19a1.16,1.16,0,0,0-1.55.75L50.7,185.19A1.39,1.39,0,0,0,51.77,186.69Z" style="fill:#ebebeb"></path><path d="M50.53,198.47a4.24,4.24,0,1,0-2.89-5.26A4.23,4.23,0,0,0,50.53,198.47Z" style="fill:#ebebeb"></path></g><g id="freepik--alert--inject-44"><path d="M72.37,118.76l2.88-3a1.41,1.41,0,0,0,.13-1.89L59.18,96a1.18,1.18,0,0,0-1.76.08L52,101.73a1.18,1.18,0,0,0-.07,1.72L70.54,119A1.37,1.37,0,0,0,72.37,118.76Z" style="fill:#f5f5f5"></path><path d="M82.22,125.33a4.24,4.24,0,1,0-6,.12A4.2,4.2,0,0,0,82.22,125.33Z" style="fill:#f5f5f5"></path></g><g id="freepik--alert--inject-44"><path d="M39.05,304.52l3.54-2.18a1.41,1.41,0,0,0,.59-1.8L32,279.15a1.19,1.19,0,0,0-1.72-.36l-6.71,4.12a1.17,1.17,0,0,0-.49,1.65L37.21,304.3A1.38,1.38,0,0,0,39.05,304.52Z" style="fill:#ebebeb"></path><path d="M46.92,313.36A4.24,4.24,0,1,0,41.09,312,4.21,4.21,0,0,0,46.92,313.36Z" style="fill:#ebebeb"></path></g><g id="freepik--alert--inject-44"><path d="M32.21,202.48l3.06-.79a1.07,1.07,0,0,0,.84-1.17l-3.31-18a.91.91,0,0,0-1.17-.65l-5.79,1.49a.88.88,0,0,0-.73,1.08l5.82,17.51A1.06,1.06,0,0,0,32.21,202.48Z" style="fill:#f5f5f5"></path><path d="M36,210.66A3.22,3.22,0,1,0,32,208.34,3.2,3.2,0,0,0,36,210.66Z" style="fill:#f5f5f5"></path></g><g id="freepik--alert--inject-44"><path d="M159.2,70.07l2.66-1.71a1.08,1.08,0,0,0,.42-1.38l-8.84-16.07a.91.91,0,0,0-1.32-.25l-5,3.24a.9.9,0,0,0-.35,1.27l11.06,14.76A1,1,0,0,0,159.2,70.07Z" style="fill:#f5f5f5"></path><path d="M165.33,76.65a3.22,3.22,0,1,0-4.45-1A3.19,3.19,0,0,0,165.33,76.65Z" style="fill:#f5f5f5"></path></g><g id="freepik--alert--inject-44"><path d="M81.87,84.51l3.13.42a1.06,1.06,0,0,0,1.21-.77l3.7-18a.91.91,0,0,0-.84-1l-5.92-.79a.89.89,0,0,0-1.09.73L80.89,83.5A1,1,0,0,0,81.87,84.51Z" style="fill:#ebebeb"></path><path d="M82.26,93.5a3.22,3.22,0,1,0-2.77-3.62A3.2,3.2,0,0,0,82.26,93.5Z" style="fill:#ebebeb"></path></g></g><g id="freepik--Sunburst--inject-44"><g id="freepik--Sparkles--inject-44"><path d="M249.35,240.89c-1.57-3.52-1.69-7-1.69-10.57l-.12-10.58c-.12-7-.08-14.09-.08-21.14.07-14.1.29-28.19.49-42.29s.43-28.2.75-42.29l.5-21.15c.21-7.05.38-14.1.64-21.14h.32c.26,7,.43,14.09.64,21.14l.5,21.15c.32,14.09.49,28.19.75,42.29s.42,28.19.49,42.29c0,7.05,0,14.1-.08,21.14l-.12,10.58c0,3.52-.12,7.05-1.69,10.57Z" style="fill:#407BFF"></path><path d="M249.36,241c-2.16-3.19-2.89-6.64-3.5-10.12l-2-10.39c-1.34-6.92-2.52-13.87-3.74-20.81-2.38-13.89-4.61-27.81-6.86-41.73s-4.48-27.84-6.61-41.78L223.5,95.26c-1-7-2.06-14-3-20.94l.31,0c1.48,6.89,2.87,13.81,4.31,20.71l4.16,20.74c2.76,13.83,5.38,27.68,8.08,41.52s5.31,27.69,7.83,41.56c1.22,6.94,2.49,13.88,3.59,20.84l1.72,10.43c.61,3.47,1.1,7,.17,10.71Z" style="fill:#407BFF"></path><path d="M249.39,241.11c-2.68-2.77-4-6-5.21-9.35l-3.73-9.9c-2.52-6.58-4.89-13.22-7.3-19.84-4.76-13.27-9.37-26.6-14-39.91s-9.24-26.64-13.76-40l-6.77-20C196.41,95.38,194.16,88.69,192,82l.3-.11c2.66,6.54,5.23,13.1,7.84,19.65l7.7,19.7c5.12,13.14,10.1,26.33,15.16,39.49s10,26.35,14.93,39.57c2.41,6.63,4.87,13.23,7.16,19.9l3.5,10c1.21,3.32,2.3,6.67,2,10.52Z" style="fill:#407BFF"></path><path d="M249.44,241.21c-3.12-2.26-5-5.25-6.75-8.31l-5.4-9.09c-3.63-6-7.11-12.17-10.63-18.28-7-12.24-13.85-24.56-20.72-36.87s-13.73-24.63-20.5-37L175.29,113.1c-3.33-6.21-6.71-12.4-10-18.63l.27-.16c3.75,6,7.42,12,11.14,18l11,18.07c7.32,12,14.52,24.17,21.79,36.25s14.46,24.2,21.57,36.38c3.53,6.1,7.09,12.18,10.51,18.35l5.18,9.21c1.76,3.06,3.42,6.17,3.82,10Z" style="fill:#407BFF"></path><path d="M249.51,241.31c-3.47-1.69-5.83-4.31-8.1-7l-6.89-8c-4.62-5.33-9.12-10.76-13.65-16.15-9-10.85-17.9-21.79-26.81-32.72s-17.79-21.87-26.61-32.88L154.24,128c-4.37-5.54-8.77-11.05-13.1-16.62l.24-.2c4.73,5.23,9.39,10.52,14.09,15.78l14,15.88c9.31,10.6,18.5,21.29,27.76,31.92s18.45,21.33,27.56,32.08c4.53,5.4,9.1,10.77,13.54,16.25l6.7,8.18c2.26,2.7,4.43,5.48,5.49,9.19Z" style="fill:#407BFF"></path><path d="M249.58,241.39c-3.71-1.07-6.48-3.24-9.18-5.5l-8.18-6.7c-5.48-4.44-10.85-9-16.25-13.54-10.75-9.11-21.41-18.34-32.08-27.56S162.57,169.64,152,160.33l-15.88-14c-5.26-4.7-10.55-9.35-15.78-14.09l.2-.24c5.57,4.33,11.08,8.73,16.62,13.1l16.51,13.21c11,8.82,21.92,17.75,32.88,26.62s21.87,17.79,32.71,26.8c5.4,4.53,10.83,9,16.16,13.65l8,6.89c2.7,2.27,5.32,4.63,7,8.1Z" style="fill:#407BFF"></path><path d="M249.68,241.45c-3.84-.4-7-2.06-10-3.82l-9.21-5.18c-6.17-3.42-12.25-7-18.35-10.51-12.18-7.11-24.28-14.34-36.38-21.57s-24.21-14.46-36.26-21.79l-18.06-11c-6-3.71-12-7.38-18-11.14l.16-.27c6.23,3.3,12.42,6.68,18.63,10l18.56,10.15c12.37,6.77,24.67,13.67,37,20.5s24.63,13.73,36.87,20.72c6.11,3.52,12.24,7,18.28,10.63l9.09,5.4c3.06,1.76,6.05,3.63,8.31,6.75Z" style="fill:#407BFF"></path><path d="M249.78,241.5c-3.85.27-7.2-.82-10.52-2l-10-3.5c-6.67-2.29-13.28-4.75-19.9-7.16-13.22-4.89-26.39-9.91-39.57-14.93s-26.35-10-39.49-15.16l-19.7-7.7c-6.55-2.61-13.11-5.18-19.65-7.84l.11-.29c6.71,2.16,13.39,4.41,20.09,6.62l20,6.77c13.36,4.52,26.66,9.18,40,13.76s26.64,9.24,39.91,14c6.62,2.41,13.26,4.78,19.84,7.3l9.9,3.74c3.31,1.2,6.58,2.52,9.35,5.2Z" style="fill:#407BFF"></path><path d="M249.89,241.53c-3.75.93-7.24.44-10.71-.17l-10.43-1.71c-7-1.11-13.9-2.38-20.84-3.6-13.87-2.52-27.72-5.18-41.56-7.83s-27.7-5.32-41.52-8.08L104.09,216c-6.9-1.44-13.82-2.83-20.71-4.31l.05-.31c7,1,14,2,20.94,3l20.91,3.19c13.94,2.13,27.85,4.41,41.78,6.61s27.84,4.48,41.73,6.86c6.94,1.22,13.89,2.4,20.81,3.74l10.39,2c3.48.61,6.92,1.35,10.12,3.5Z" style="fill:#407BFF"></path><path d="M250,241.54c-3.52,1.57-7.05,1.69-10.57,1.69l-10.58.12c-7,.13-14.09.08-21.14.08-14.1-.07-28.2-.29-42.29-.49s-28.2-.43-42.29-.75L102,241.7c-7-.22-14.1-.39-21.15-.65v-.32c7-.26,14.1-.43,21.15-.64l21.15-.5c14.09-.32,28.19-.49,42.29-.74s28.19-.43,42.29-.5c7,0,14.1,0,21.14.08l10.58.12c3.52,0,7,.12,10.57,1.69Z" style="fill:#407BFF"></path><path d="M250.11,241.53c-3.2,2.16-6.64,2.89-10.12,3.5l-10.39,2c-6.92,1.34-13.87,2.52-20.81,3.74-13.89,2.38-27.81,4.61-41.73,6.86s-27.84,4.48-41.78,6.61l-20.91,3.19c-7,1-14,2.06-20.94,3l-.05-.31c6.89-1.48,13.81-2.87,20.71-4.31l20.74-4.16c13.82-2.76,27.68-5.38,41.52-8.08s27.69-5.31,41.56-7.83c6.94-1.22,13.88-2.49,20.84-3.59l10.43-1.72c3.47-.61,7-1.1,10.71-.17Z" style="fill:#407BFF"></path><path d="M250.22,241.5c-2.77,2.68-6,4-9.35,5.21l-9.9,3.73c-6.58,2.52-13.22,4.89-19.84,7.3-13.27,4.76-26.6,9.37-39.91,14s-26.64,9.24-40,13.76l-20,6.77c-6.7,2.21-13.38,4.46-20.09,6.63l-.11-.3c6.54-2.66,13.1-5.22,19.65-7.84l19.7-7.7c13.14-5.12,26.33-10.1,39.49-15.16s26.35-10,39.57-14.93c6.62-2.41,13.23-4.87,19.9-7.16l10-3.5c3.32-1.21,6.67-2.3,10.52-2Z" style="fill:#407BFF"></path><path d="M250.32,241.45c-2.26,3.12-5.25,5-8.31,6.75l-9.09,5.4c-6,3.63-12.17,7.11-18.28,10.63-12.24,7-24.56,13.85-36.87,20.72s-24.63,13.73-37,20.5L122.21,315.6c-6.21,3.33-12.4,6.71-18.63,10l-.16-.27c6-3.75,12-7.42,18-11.14l18.06-11c12.05-7.32,24.18-14.52,36.26-21.79s24.2-14.46,36.38-21.57c6.1-3.53,12.18-7.09,18.35-10.51l9.21-5.18c3.06-1.76,6.17-3.42,10-3.82Z" style="fill:#407BFF"></path><path d="M250.41,241.39c-1.68,3.46-4.3,5.82-7,8.09l-8,6.89c-5.33,4.62-10.76,9.12-16.16,13.65-10.84,9-21.78,17.9-32.71,26.81s-21.87,17.79-32.88,26.61l-16.51,13.21c-5.54,4.37-11,8.77-16.62,13.1l-.2-.24c5.23-4.73,10.52-9.39,15.78-14.09l15.88-14c10.6-9.31,21.29-18.5,31.92-27.76s21.33-18.44,32.08-27.56c5.4-4.53,10.77-9.1,16.25-13.53l8.18-6.71c2.7-2.26,5.47-4.43,9.18-5.49Z" style="fill:#407BFF"></path><path d="M250.49,241.31c-1.06,3.71-3.23,6.49-5.49,9.18l-6.7,8.18c-4.44,5.48-9,10.85-13.54,16.25-9.11,10.75-18.35,21.41-27.56,32.08s-18.45,21.32-27.76,31.92l-14,15.88c-4.7,5.26-9.36,10.55-14.09,15.78l-.24-.2c4.33-5.57,8.73-11.08,13.1-16.62l13.21-16.51c8.82-11,17.75-21.92,26.61-32.88s17.8-21.87,26.81-32.71c4.53-5.4,9-10.83,13.65-16.15l6.89-8c2.27-2.7,4.63-5.32,8.1-7Z" style="fill:#407BFF"></path><path d="M250.56,241.21c-.4,3.84-2.06,7-3.82,10l-5.18,9.22c-3.42,6.16-7,12.24-10.51,18.35-7.11,12.17-14.35,24.27-21.57,36.37S195,339.37,187.69,351.42l-11,18.06c-3.72,6-7.39,12-11.14,18l-.27-.16c3.3-6.23,6.68-12.42,10-18.63l10.15-18.56c6.77-12.37,13.67-24.67,20.5-37s13.73-24.63,20.72-36.87c3.52-6.11,7-12.23,10.63-18.28l5.4-9.09c1.76-3.06,3.63-6,6.75-8.31Z" style="fill:#407BFF"></path><path d="M250.61,241.11c.27,3.85-.82,7.2-2,10.52l-3.5,10c-2.29,6.67-4.75,13.28-7.16,19.9C233,294.72,228,307.89,223,321.07s-10,26.35-15.16,39.49l-7.7,19.7c-2.61,6.55-5.18,13.11-7.84,19.65l-.3-.11c2.17-6.71,4.42-13.39,6.63-20.09l6.77-20c4.52-13.36,9.18-26.66,13.76-40s9.24-26.64,14-39.91c2.41-6.62,4.78-13.26,7.3-19.84l3.73-9.89c1.21-3.32,2.53-6.59,5.21-9.36Z" style="fill:#407BFF"></path><path d="M250.64,241c.93,3.75.44,7.24-.17,10.71l-1.72,10.43c-1.1,7-2.37,13.9-3.59,20.84-2.52,13.87-5.19,27.72-7.83,41.56s-5.32,27.7-8.08,41.52l-4.16,20.74c-1.44,6.91-2.83,13.82-4.31,20.71l-.31-.05c1-7,2-14,3-20.94l3.19-20.91c2.13-13.94,4.41-27.85,6.61-41.78s4.48-27.84,6.86-41.73c1.22-6.94,2.4-13.89,3.74-20.81l2-10.39c.61-3.47,1.34-6.92,3.5-10.12Z" style="fill:#407BFF"></path><path d="M250.65,240.89c1.57,3.52,1.69,7.05,1.69,10.57l.12,10.58c.12,7,.08,14.09.08,21.14-.07,14.1-.29,28.2-.49,42.29s-.43,28.2-.75,42.29l-.5,21.15c-.21,7-.38,14.1-.64,21.15h-.32c-.26-7.05-.43-14.1-.64-21.15l-.5-21.15c-.32-14.09-.49-28.19-.75-42.29s-.42-28.19-.49-42.29c0-7.05,0-14.1.08-21.14l.12-10.58c0-3.52.12-7.05,1.69-10.57Z" style="fill:#407BFF"></path><path d="M250.64,240.78c2.16,3.2,2.89,6.65,3.5,10.12l2,10.39c1.34,6.92,2.52,13.87,3.74,20.81,2.38,13.89,4.61,27.81,6.86,41.73s4.48,27.84,6.61,41.78l3.19,20.91c1,7,2.06,14,3,20.94l-.31.05c-1.48-6.89-2.87-13.8-4.31-20.71l-4.16-20.74c-2.76-13.82-5.38-27.68-8.08-41.52s-5.31-27.69-7.83-41.56c-1.22-6.94-2.49-13.87-3.59-20.84l-1.72-10.43c-.61-3.47-1.1-7-.17-10.71Z" style="fill:#407BFF"></path><path d="M250.61,240.67c2.68,2.77,4,6,5.21,9.36l3.73,9.89c2.52,6.58,4.89,13.22,7.3,19.84,4.76,13.27,9.37,26.6,14,39.91s9.24,26.64,13.76,40l6.77,20c2.21,6.7,4.46,13.38,6.63,20.09l-.3.11c-2.66-6.54-5.23-13.1-7.84-19.65l-7.7-19.7c-5.12-13.14-10.1-26.33-15.16-39.49s-10-26.35-14.93-39.57c-2.41-6.62-4.87-13.23-7.16-19.9l-3.5-10c-1.21-3.32-2.3-6.67-2-10.52Z" style="fill:#407BFF"></path><path d="M250.56,240.57c3.12,2.26,5,5.25,6.75,8.31l5.4,9.09c3.63,6,7.11,12.17,10.63,18.28,7,12.24,13.85,24.56,20.72,36.87s13.73,24.63,20.5,37l10.15,18.56c3.33,6.21,6.71,12.4,10,18.63l-.27.16c-3.75-6-7.42-12-11.14-18l-11-18.06c-7.32-12.05-14.52-24.17-21.79-36.26S276.06,291,269,278.79c-3.53-6.11-7.09-12.19-10.51-18.35l-5.18-9.22c-1.76-3.05-3.42-6.17-3.82-10Z" style="fill:#407BFF"></path><path d="M250.49,240.48c3.47,1.69,5.83,4.31,8.1,7l6.89,8c4.62,5.32,9.12,10.75,13.65,16.15,9,10.84,17.9,21.78,26.81,32.71s17.79,21.87,26.61,32.88l13.21,16.51c4.37,5.54,8.77,11.05,13.1,16.62l-.24.2c-4.73-5.23-9.39-10.52-14.09-15.78l-14-15.88c-9.31-10.6-18.5-21.28-27.76-31.92s-18.45-21.33-27.56-32.08c-4.53-5.4-9.1-10.77-13.54-16.25l-6.7-8.18c-2.26-2.69-4.43-5.47-5.49-9.18Z" style="fill:#407BFF"></path><path d="M250.41,240.4c3.72,1.06,6.49,3.23,9.19,5.49l8.18,6.71c5.48,4.43,10.85,9,16.25,13.53,10.75,9.12,21.41,18.35,32.08,27.56s21.32,18.45,31.92,27.76l15.88,14c5.26,4.7,10.55,9.36,15.78,14.09l-.2.24c-5.57-4.33-11.08-8.73-16.62-13.1l-16.51-13.21c-11-8.82-21.92-17.75-32.88-26.61S291.61,279,280.77,270c-5.4-4.53-10.83-9-16.16-13.65l-8-6.89c-2.7-2.27-5.32-4.63-7-8.09Z" style="fill:#407BFF"></path><path d="M250.32,240.33c3.84.4,6.95,2.06,10,3.82l9.21,5.18c6.17,3.42,12.25,7,18.35,10.51,12.18,7.11,24.28,14.35,36.38,21.57s24.21,14.47,36.26,21.79l18.06,11c6,3.72,12,7.39,18,11.14l-.16.27c-6.23-3.3-12.42-6.68-18.63-10l-18.56-10.15c-12.37-6.77-24.67-13.67-37-20.5s-24.63-13.73-36.87-20.72c-6.11-3.52-12.24-7-18.28-10.63L258,248.2c-3.06-1.76-6.05-3.63-8.31-6.75Z" style="fill:#407BFF"></path><path d="M250.22,240.28c3.85-.27,7.2.82,10.52,2l10,3.5c6.67,2.29,13.28,4.75,19.9,7.16,13.22,4.89,26.39,9.92,39.57,14.93s26.35,10,39.49,15.16l19.7,7.7c6.55,2.62,13.11,5.18,19.65,7.84l-.11.3c-6.71-2.17-13.39-4.42-20.09-6.63l-20-6.77c-13.36-4.52-26.66-9.18-40-13.76s-26.64-9.24-39.91-14c-6.62-2.41-13.26-4.78-19.84-7.3l-9.9-3.73c-3.31-1.21-6.58-2.53-9.35-5.21Z" style="fill:#407BFF"></path><path d="M250.11,240.25c3.75-.93,7.24-.44,10.71.17l10.43,1.72c7,1.1,13.9,2.37,20.84,3.59,13.87,2.52,27.72,5.19,41.56,7.83s27.69,5.32,41.52,8.08l20.74,4.16c6.9,1.44,13.82,2.83,20.71,4.31l-.05.31c-7-1-14-2-20.94-3l-20.91-3.19c-13.94-2.13-27.85-4.41-41.78-6.61s-27.84-4.48-41.73-6.86c-6.94-1.22-13.89-2.4-20.81-3.74L260,245c-3.48-.61-6.92-1.34-10.12-3.5Z" style="fill:#407BFF"></path><path d="M250,240.24c3.52-1.57,7.05-1.69,10.57-1.69l10.58-.12c7-.12,14.09-.08,21.14-.08,14.1.07,28.2.29,42.29.5s28.2.42,42.29.74l21.15.5c7.05.21,14.1.38,21.15.64v.32c-7.05.26-14.1.43-21.15.65l-21.15.49c-14.09.32-28.19.49-42.29.75s-28.19.42-42.29.49c-7.05,0-14.1,0-21.14-.08l-10.58-.12c-3.52,0-7-.12-10.57-1.69Z" style="fill:#407BFF"></path><path d="M249.89,240.25c3.2-2.15,6.64-2.89,10.12-3.5l10.39-2c6.92-1.34,13.87-2.52,20.81-3.74,13.89-2.38,27.81-4.61,41.73-6.86s27.84-4.48,41.78-6.61l20.91-3.19c7-1,13.95-2.06,20.94-3l.05.31c-6.89,1.48-13.81,2.87-20.71,4.31l-20.74,4.16c-13.83,2.76-27.68,5.38-41.52,8.08s-27.69,5.31-41.56,7.83c-6.94,1.22-13.88,2.49-20.84,3.6l-10.43,1.71c-3.47.61-7,1.1-10.71.17Z" style="fill:#407BFF"></path><path d="M249.78,240.28c2.77-2.68,6-4,9.35-5.2l9.9-3.74c6.58-2.52,13.22-4.89,19.84-7.3,13.27-4.76,26.6-9.37,39.91-14s26.64-9.24,40-13.76l20-6.77c6.7-2.21,13.38-4.46,20.09-6.62l.11.29c-6.54,2.66-13.1,5.23-19.65,7.84l-19.7,7.7c-13.14,5.12-26.33,10.1-39.49,15.16s-26.35,10-39.57,14.93c-6.62,2.41-13.23,4.87-19.9,7.16l-10,3.5c-3.32,1.21-6.67,2.3-10.52,2Z" style="fill:#407BFF"></path><path d="M249.68,240.33c2.26-3.12,5.25-5,8.31-6.75l9.09-5.4c6-3.62,12.17-7.11,18.28-10.63,12.24-7,24.56-13.85,36.87-20.72s24.63-13.73,37-20.5l18.56-10.15c6.21-3.33,12.4-6.71,18.63-10l.16.27c-6,3.76-12,7.43-18,11.14l-18.06,11c-12,7.33-24.18,14.52-36.26,21.79s-24.2,14.46-36.38,21.57c-6.1,3.53-12.18,7.09-18.35,10.51l-9.21,5.18c-3.06,1.76-6.17,3.42-10,3.82Z" style="fill:#407BFF"></path><path d="M249.58,240.4c1.69-3.47,4.31-5.83,7-8.1l8-6.89c5.33-4.62,10.76-9.12,16.16-13.65,10.84-9,21.78-17.9,32.71-26.8s21.87-17.8,32.88-26.62l16.51-13.21c5.54-4.37,11.05-8.77,16.62-13.1l.2.24c-5.23,4.74-10.52,9.39-15.78,14.09l-15.88,14c-10.6,9.31-21.29,18.5-31.92,27.76S294.78,206.54,284,215.65c-5.4,4.53-10.77,9.1-16.25,13.54l-8.18,6.7c-2.7,2.26-5.47,4.43-9.19,5.5Z" style="fill:#407BFF"></path><path d="M249.51,240.48c1.06-3.71,3.23-6.49,5.49-9.19l6.7-8.18c4.44-5.48,9-10.85,13.54-16.25,9.11-10.75,18.34-21.41,27.56-32.08s18.45-21.32,27.76-31.92l14-15.88c4.7-5.26,9.36-10.55,14.09-15.78l.24.2c-4.33,5.57-8.73,11.08-13.1,16.62l-13.21,16.51c-8.82,11-17.75,21.92-26.61,32.88s-17.8,21.87-26.81,32.72c-4.53,5.39-9,10.82-13.65,16.15l-6.89,8c-2.27,2.7-4.63,5.32-8.1,7Z" style="fill:#407BFF"></path><path d="M249.44,240.57c.4-3.84,2.06-6.95,3.82-10l5.18-9.21c3.42-6.17,7-12.25,10.51-18.35,7.11-12.18,14.35-24.28,21.57-36.38s14.47-24.21,21.79-36.25l11-18.07c3.72-6,7.39-12,11.14-18l.27.16c-3.3,6.23-6.68,12.42-10,18.63l-10.15,18.56c-6.77,12.37-13.67,24.67-20.5,37s-13.73,24.63-20.72,36.87c-3.52,6.11-7,12.24-10.63,18.28l-5.4,9.09c-1.76,3.06-3.63,6-6.75,8.31Z" style="fill:#407BFF"></path><path d="M249.39,240.67c-.27-3.85.82-7.2,2-10.52l3.5-10c2.29-6.67,4.75-13.27,7.16-19.9C267,187.06,272,173.89,277,160.71s10-26.35,15.16-39.49l7.7-19.7c2.61-6.55,5.18-13.11,7.84-19.65l.3.11c-2.17,6.71-4.42,13.4-6.63,20.09l-6.77,20c-4.52,13.36-9.18,26.66-13.76,40s-9.24,26.64-14,39.91c-2.41,6.62-4.78,13.26-7.3,19.84l-3.73,9.9c-1.21,3.31-2.53,6.58-5.21,9.35Z" style="fill:#407BFF"></path><path d="M249.36,240.78c-.93-3.75-.44-7.24.17-10.71l1.72-10.43c1.1-7,2.37-13.9,3.59-20.84,2.52-13.87,5.19-27.71,7.83-41.56s5.32-27.69,8.08-41.52L274.91,95c1.44-6.9,2.83-13.82,4.31-20.71l.31,0c-1,7-2,14-3,20.94l-3.19,20.91C271.18,130.11,268.9,144,266.7,158s-4.48,27.84-6.86,41.73c-1.22,6.94-2.4,13.89-3.74,20.81l-2,10.39c-.61,3.48-1.34,6.93-3.5,10.12Z" style="fill:#407BFF"></path><g style="opacity:0.85"><path d="M249.35,240.89c-1.57-3.52-1.69-7-1.69-10.57l-.12-10.58c-.12-7-.08-14.09-.08-21.14.07-14.1.29-28.19.49-42.29s.43-28.2.75-42.29l.5-21.15c.21-7.05.38-14.1.64-21.14h.32c.26,7,.43,14.09.64,21.14l.5,21.15c.32,14.09.49,28.19.75,42.29s.42,28.19.49,42.29c0,7.05,0,14.1-.08,21.14l-.12,10.58c0,3.52-.12,7.05-1.69,10.57Z" style="fill:#fff"></path><path d="M249.36,241c-2.16-3.19-2.89-6.64-3.5-10.12l-2-10.39c-1.34-6.92-2.52-13.87-3.74-20.81-2.38-13.89-4.61-27.81-6.86-41.73s-4.48-27.84-6.61-41.78L223.5,95.26c-1-7-2.06-14-3-20.94l.31,0c1.48,6.89,2.87,13.81,4.31,20.71l4.16,20.74c2.76,13.83,5.38,27.68,8.08,41.52s5.31,27.69,7.83,41.56c1.22,6.94,2.49,13.88,3.59,20.84l1.72,10.43c.61,3.47,1.1,7,.17,10.71Z" style="fill:#fff"></path><path d="M249.39,241.11c-2.68-2.77-4-6-5.21-9.35l-3.73-9.9c-2.52-6.58-4.89-13.22-7.3-19.84-4.76-13.27-9.37-26.6-14-39.91s-9.24-26.64-13.76-40l-6.77-20C196.41,95.38,194.16,88.69,192,82l.3-.11c2.66,6.54,5.23,13.1,7.84,19.65l7.7,19.7c5.12,13.14,10.1,26.33,15.16,39.49s10,26.35,14.93,39.57c2.41,6.63,4.87,13.23,7.16,19.9l3.5,10c1.21,3.32,2.3,6.67,2,10.52Z" style="fill:#fff"></path><path d="M249.44,241.21c-3.12-2.26-5-5.25-6.75-8.31l-5.4-9.09c-3.63-6-7.11-12.17-10.63-18.28-7-12.24-13.85-24.56-20.72-36.87s-13.73-24.63-20.5-37L175.29,113.1c-3.33-6.21-6.71-12.4-10-18.63l.27-.16c3.75,6,7.42,12,11.14,18l11,18.07c7.32,12,14.52,24.17,21.79,36.25s14.46,24.2,21.57,36.38c3.53,6.1,7.09,12.18,10.51,18.35l5.18,9.21c1.76,3.06,3.42,6.17,3.82,10Z" style="fill:#fff"></path><path d="M249.51,241.31c-3.47-1.69-5.83-4.31-8.1-7l-6.89-8c-4.62-5.33-9.12-10.76-13.65-16.15-9-10.85-17.9-21.79-26.81-32.72s-17.79-21.87-26.61-32.88L154.24,128c-4.37-5.54-8.77-11.05-13.1-16.62l.24-.2c4.73,5.23,9.39,10.52,14.09,15.78l14,15.88c9.31,10.6,18.5,21.29,27.76,31.92s18.45,21.33,27.56,32.08c4.53,5.4,9.1,10.77,13.54,16.25l6.7,8.18c2.26,2.7,4.43,5.48,5.49,9.19Z" style="fill:#fff"></path><path d="M249.58,241.39c-3.71-1.07-6.48-3.24-9.18-5.5l-8.18-6.7c-5.48-4.44-10.85-9-16.25-13.54-10.75-9.11-21.41-18.34-32.08-27.56S162.57,169.64,152,160.33l-15.88-14c-5.26-4.7-10.55-9.35-15.78-14.09l.2-.24c5.57,4.33,11.08,8.73,16.62,13.1l16.51,13.21c11,8.82,21.92,17.75,32.88,26.62s21.87,17.79,32.71,26.8c5.4,4.53,10.83,9,16.16,13.65l8,6.89c2.7,2.27,5.32,4.63,7,8.1Z" style="fill:#fff"></path><path d="M249.68,241.45c-3.84-.4-7-2.06-10-3.82l-9.21-5.18c-6.17-3.42-12.25-7-18.35-10.51-12.18-7.11-24.28-14.34-36.38-21.57s-24.21-14.46-36.26-21.79l-18.06-11c-6-3.71-12-7.38-18-11.14l.16-.27c6.23,3.3,12.42,6.68,18.63,10l18.56,10.15c12.37,6.77,24.67,13.67,37,20.5s24.63,13.73,36.87,20.72c6.11,3.52,12.24,7,18.28,10.63l9.09,5.4c3.06,1.76,6.05,3.63,8.31,6.75Z" style="fill:#fff"></path><path d="M249.78,241.5c-3.85.27-7.2-.82-10.52-2l-10-3.5c-6.67-2.29-13.28-4.75-19.9-7.16-13.22-4.89-26.39-9.91-39.57-14.93s-26.35-10-39.49-15.16l-19.7-7.7c-6.55-2.61-13.11-5.18-19.65-7.84l.11-.29c6.71,2.16,13.39,4.41,20.09,6.62l20,6.77c13.36,4.52,26.66,9.18,40,13.76s26.64,9.24,39.91,14c6.62,2.41,13.26,4.78,19.84,7.3l9.9,3.74c3.31,1.2,6.58,2.52,9.35,5.2Z" style="fill:#fff"></path><path d="M249.89,241.53c-3.75.93-7.24.44-10.71-.17l-10.43-1.71c-7-1.11-13.9-2.38-20.84-3.6-13.87-2.52-27.72-5.18-41.56-7.83s-27.7-5.32-41.52-8.08L104.09,216c-6.9-1.44-13.82-2.83-20.71-4.31l.05-.31c7,1,14,2,20.94,3l20.91,3.19c13.94,2.13,27.85,4.41,41.78,6.61s27.84,4.48,41.73,6.86c6.94,1.22,13.89,2.4,20.81,3.74l10.39,2c3.48.61,6.92,1.35,10.12,3.5Z" style="fill:#fff"></path><path d="M250,241.54c-3.52,1.57-7.05,1.69-10.57,1.69l-10.58.12c-7,.13-14.09.08-21.14.08-14.1-.07-28.2-.29-42.29-.49s-28.2-.43-42.29-.75L102,241.7c-7-.22-14.1-.39-21.15-.65v-.32c7-.26,14.1-.43,21.15-.64l21.15-.5c14.09-.32,28.19-.49,42.29-.74s28.19-.43,42.29-.5c7,0,14.1,0,21.14.08l10.58.12c3.52,0,7,.12,10.57,1.69Z" style="fill:#fff"></path><path d="M250.11,241.53c-3.2,2.16-6.64,2.89-10.12,3.5l-10.39,2c-6.92,1.34-13.87,2.52-20.81,3.74-13.89,2.38-27.81,4.61-41.73,6.86s-27.84,4.48-41.78,6.61l-20.91,3.19c-7,1-14,2.06-20.94,3l-.05-.31c6.89-1.48,13.81-2.87,20.71-4.31l20.74-4.16c13.82-2.76,27.68-5.38,41.52-8.08s27.69-5.31,41.56-7.83c6.94-1.22,13.88-2.49,20.84-3.59l10.43-1.72c3.47-.61,7-1.1,10.71-.17Z" style="fill:#fff"></path><path d="M250.22,241.5c-2.77,2.68-6,4-9.35,5.21l-9.9,3.73c-6.58,2.52-13.22,4.89-19.84,7.3-13.27,4.76-26.6,9.37-39.91,14s-26.64,9.24-40,13.76l-20,6.77c-6.7,2.21-13.38,4.46-20.09,6.63l-.11-.3c6.54-2.66,13.1-5.22,19.65-7.84l19.7-7.7c13.14-5.12,26.33-10.1,39.49-15.16s26.35-10,39.57-14.93c6.62-2.41,13.23-4.87,19.9-7.16l10-3.5c3.32-1.21,6.67-2.3,10.52-2Z" style="fill:#fff"></path><path d="M250.32,241.45c-2.26,3.12-5.25,5-8.31,6.75l-9.09,5.4c-6,3.63-12.17,7.11-18.28,10.63-12.24,7-24.56,13.85-36.87,20.72s-24.63,13.73-37,20.5L122.21,315.6c-6.21,3.33-12.4,6.71-18.63,10l-.16-.27c6-3.75,12-7.42,18-11.14l18.06-11c12.05-7.32,24.18-14.52,36.26-21.79s24.2-14.46,36.38-21.57c6.1-3.53,12.18-7.09,18.35-10.51l9.21-5.18c3.06-1.76,6.17-3.42,10-3.82Z" style="fill:#fff"></path><path d="M250.41,241.39c-1.68,3.46-4.3,5.82-7,8.09l-8,6.89c-5.33,4.62-10.76,9.12-16.16,13.65-10.84,9-21.78,17.9-32.71,26.81s-21.87,17.79-32.88,26.61l-16.51,13.21c-5.54,4.37-11,8.77-16.62,13.1l-.2-.24c5.23-4.73,10.52-9.39,15.78-14.09l15.88-14c10.6-9.31,21.29-18.5,31.92-27.76s21.33-18.44,32.08-27.56c5.4-4.53,10.77-9.1,16.25-13.53l8.18-6.71c2.7-2.26,5.47-4.43,9.18-5.49Z" style="fill:#fff"></path><path d="M250.49,241.31c-1.06,3.71-3.23,6.49-5.49,9.18l-6.7,8.18c-4.44,5.48-9,10.85-13.54,16.25-9.11,10.75-18.35,21.41-27.56,32.08s-18.45,21.32-27.76,31.92l-14,15.88c-4.7,5.26-9.36,10.55-14.09,15.78l-.24-.2c4.33-5.57,8.73-11.08,13.1-16.62l13.21-16.51c8.82-11,17.75-21.92,26.61-32.88s17.8-21.87,26.81-32.71c4.53-5.4,9-10.83,13.65-16.15l6.89-8c2.27-2.7,4.63-5.32,8.1-7Z" style="fill:#fff"></path><path d="M250.56,241.21c-.4,3.84-2.06,7-3.82,10l-5.18,9.22c-3.42,6.16-7,12.24-10.51,18.35-7.11,12.17-14.35,24.27-21.57,36.37S195,339.37,187.69,351.42l-11,18.06c-3.72,6-7.39,12-11.14,18l-.27-.16c3.3-6.23,6.68-12.42,10-18.63l10.15-18.56c6.77-12.37,13.67-24.67,20.5-37s13.73-24.63,20.72-36.87c3.52-6.11,7-12.23,10.63-18.28l5.4-9.09c1.76-3.06,3.63-6,6.75-8.31Z" style="fill:#fff"></path><path d="M250.61,241.11c.27,3.85-.82,7.2-2,10.52l-3.5,10c-2.29,6.67-4.75,13.28-7.16,19.9C233,294.72,228,307.89,223,321.07s-10,26.35-15.16,39.49l-7.7,19.7c-2.61,6.55-5.18,13.11-7.84,19.65l-.3-.11c2.17-6.71,4.42-13.39,6.63-20.09l6.77-20c4.52-13.36,9.18-26.66,13.76-40s9.24-26.64,14-39.91c2.41-6.62,4.78-13.26,7.3-19.84l3.73-9.89c1.21-3.32,2.53-6.59,5.21-9.36Z" style="fill:#fff"></path><path d="M250.64,241c.93,3.75.44,7.24-.17,10.71l-1.72,10.43c-1.1,7-2.37,13.9-3.59,20.84-2.52,13.87-5.19,27.72-7.83,41.56s-5.32,27.7-8.08,41.52l-4.16,20.74c-1.44,6.91-2.83,13.82-4.31,20.71l-.31-.05c1-7,2-14,3-20.94l3.19-20.91c2.13-13.94,4.41-27.85,6.61-41.78s4.48-27.84,6.86-41.73c1.22-6.94,2.4-13.89,3.74-20.81l2-10.39c.61-3.47,1.34-6.92,3.5-10.12Z" style="fill:#fff"></path><path d="M250.65,240.89c1.57,3.52,1.69,7.05,1.69,10.57l.12,10.58c.12,7,.08,14.09.08,21.14-.07,14.1-.29,28.2-.49,42.29s-.43,28.2-.75,42.29l-.5,21.15c-.21,7-.38,14.1-.64,21.15h-.32c-.26-7.05-.43-14.1-.64-21.15l-.5-21.15c-.32-14.09-.49-28.19-.75-42.29s-.42-28.19-.49-42.29c0-7.05,0-14.1.08-21.14l.12-10.58c0-3.52.12-7.05,1.69-10.57Z" style="fill:#fff"></path><path d="M250.64,240.78c2.16,3.2,2.89,6.65,3.5,10.12l2,10.39c1.34,6.92,2.52,13.87,3.74,20.81,2.38,13.89,4.61,27.81,6.86,41.73s4.48,27.84,6.61,41.78l3.19,20.91c1,7,2.06,14,3,20.94l-.31.05c-1.48-6.89-2.87-13.8-4.31-20.71l-4.16-20.74c-2.76-13.82-5.38-27.68-8.08-41.52s-5.31-27.69-7.83-41.56c-1.22-6.94-2.49-13.87-3.59-20.84l-1.72-10.43c-.61-3.47-1.1-7-.17-10.71Z" style="fill:#fff"></path><path d="M250.61,240.67c2.68,2.77,4,6,5.21,9.36l3.73,9.89c2.52,6.58,4.89,13.22,7.3,19.84,4.76,13.27,9.37,26.6,14,39.91s9.24,26.64,13.76,40l6.77,20c2.21,6.7,4.46,13.38,6.63,20.09l-.3.11c-2.66-6.54-5.23-13.1-7.84-19.65l-7.7-19.7c-5.12-13.14-10.1-26.33-15.16-39.49s-10-26.35-14.93-39.57c-2.41-6.62-4.87-13.23-7.16-19.9l-3.5-10c-1.21-3.32-2.3-6.67-2-10.52Z" style="fill:#fff"></path><path d="M250.56,240.57c3.12,2.26,5,5.25,6.75,8.31l5.4,9.09c3.63,6,7.11,12.17,10.63,18.28,7,12.24,13.85,24.56,20.72,36.87s13.73,24.63,20.5,37l10.15,18.56c3.33,6.21,6.71,12.4,10,18.63l-.27.16c-3.75-6-7.42-12-11.14-18l-11-18.06c-7.32-12.05-14.52-24.17-21.79-36.26S276.06,291,269,278.79c-3.53-6.11-7.09-12.19-10.51-18.35l-5.18-9.22c-1.76-3.05-3.42-6.17-3.82-10Z" style="fill:#fff"></path><path d="M250.49,240.48c3.47,1.69,5.83,4.31,8.1,7l6.89,8c4.62,5.32,9.12,10.75,13.65,16.15,9,10.84,17.9,21.78,26.81,32.71s17.79,21.87,26.61,32.88l13.21,16.51c4.37,5.54,8.77,11.05,13.1,16.62l-.24.2c-4.73-5.23-9.39-10.52-14.09-15.78l-14-15.88c-9.31-10.6-18.5-21.28-27.76-31.92s-18.45-21.33-27.56-32.08c-4.53-5.4-9.1-10.77-13.54-16.25l-6.7-8.18c-2.26-2.69-4.43-5.47-5.49-9.18Z" style="fill:#fff"></path><path d="M250.41,240.4c3.72,1.06,6.49,3.23,9.19,5.49l8.18,6.71c5.48,4.43,10.85,9,16.25,13.53,10.75,9.12,21.41,18.35,32.08,27.56s21.32,18.45,31.92,27.76l15.88,14c5.26,4.7,10.55,9.36,15.78,14.09l-.2.24c-5.57-4.33-11.08-8.73-16.62-13.1l-16.51-13.21c-11-8.82-21.92-17.75-32.88-26.61S291.61,279,280.77,270c-5.4-4.53-10.83-9-16.16-13.65l-8-6.89c-2.7-2.27-5.32-4.63-7-8.09Z" style="fill:#fff"></path><path d="M250.32,240.33c3.84.4,6.95,2.06,10,3.82l9.21,5.18c6.17,3.42,12.25,7,18.35,10.51,12.18,7.11,24.28,14.35,36.38,21.57s24.21,14.47,36.26,21.79l18.06,11c6,3.72,12,7.39,18,11.14l-.16.27c-6.23-3.3-12.42-6.68-18.63-10l-18.56-10.15c-12.37-6.77-24.67-13.67-37-20.5s-24.63-13.73-36.87-20.72c-6.11-3.52-12.24-7-18.28-10.63L258,248.2c-3.06-1.76-6.05-3.63-8.31-6.75Z" style="fill:#fff"></path><path d="M250.22,240.28c3.85-.27,7.2.82,10.52,2l10,3.5c6.67,2.29,13.28,4.75,19.9,7.16,13.22,4.89,26.39,9.92,39.57,14.93s26.35,10,39.49,15.16l19.7,7.7c6.55,2.62,13.11,5.18,19.65,7.84l-.11.3c-6.71-2.17-13.39-4.42-20.09-6.63l-20-6.77c-13.36-4.52-26.66-9.18-40-13.76s-26.64-9.24-39.91-14c-6.62-2.41-13.26-4.78-19.84-7.3l-9.9-3.73c-3.31-1.21-6.58-2.53-9.35-5.21Z" style="fill:#fff"></path><path d="M250.11,240.25c3.75-.93,7.24-.44,10.71.17l10.43,1.72c7,1.1,13.9,2.37,20.84,3.59,13.87,2.52,27.72,5.19,41.56,7.83s27.69,5.32,41.52,8.08l20.74,4.16c6.9,1.44,13.82,2.83,20.71,4.31l-.05.31c-7-1-14-2-20.94-3l-20.91-3.19c-13.94-2.13-27.85-4.41-41.78-6.61s-27.84-4.48-41.73-6.86c-6.94-1.22-13.89-2.4-20.81-3.74L260,245c-3.48-.61-6.92-1.34-10.12-3.5Z" style="fill:#fff"></path><path d="M250,240.24c3.52-1.57,7.05-1.69,10.57-1.69l10.58-.12c7-.12,14.09-.08,21.14-.08,14.1.07,28.2.29,42.29.5s28.2.42,42.29.74l21.15.5c7.05.21,14.1.38,21.15.64v.32c-7.05.26-14.1.43-21.15.65l-21.15.49c-14.09.32-28.19.49-42.29.75s-28.19.42-42.29.49c-7.05,0-14.1,0-21.14-.08l-10.58-.12c-3.52,0-7-.12-10.57-1.69Z" style="fill:#fff"></path><path d="M249.89,240.25c3.2-2.15,6.64-2.89,10.12-3.5l10.39-2c6.92-1.34,13.87-2.52,20.81-3.74,13.89-2.38,27.81-4.61,41.73-6.86s27.84-4.48,41.78-6.61l20.91-3.19c7-1,13.95-2.06,20.94-3l.05.31c-6.89,1.48-13.81,2.87-20.71,4.31l-20.74,4.16c-13.83,2.76-27.68,5.38-41.52,8.08s-27.69,5.31-41.56,7.83c-6.94,1.22-13.88,2.49-20.84,3.6l-10.43,1.71c-3.47.61-7,1.1-10.71.17Z" style="fill:#fff"></path><path d="M249.78,240.28c2.77-2.68,6-4,9.35-5.2l9.9-3.74c6.58-2.52,13.22-4.89,19.84-7.3,13.27-4.76,26.6-9.37,39.91-14s26.64-9.24,40-13.76l20-6.77c6.7-2.21,13.38-4.46,20.09-6.62l.11.29c-6.54,2.66-13.1,5.23-19.65,7.84l-19.7,7.7c-13.14,5.12-26.33,10.1-39.49,15.16s-26.35,10-39.57,14.93c-6.62,2.41-13.23,4.87-19.9,7.16l-10,3.5c-3.32,1.21-6.67,2.3-10.52,2Z" style="fill:#fff"></path><path d="M249.68,240.33c2.26-3.12,5.25-5,8.31-6.75l9.09-5.4c6-3.62,12.17-7.11,18.28-10.63,12.24-7,24.56-13.85,36.87-20.72s24.63-13.73,37-20.5l18.56-10.15c6.21-3.33,12.4-6.71,18.63-10l.16.27c-6,3.76-12,7.43-18,11.14l-18.06,11c-12,7.33-24.18,14.52-36.26,21.79s-24.2,14.46-36.38,21.57c-6.1,3.53-12.18,7.09-18.35,10.51l-9.21,5.18c-3.06,1.76-6.17,3.42-10,3.82Z" style="fill:#fff"></path><path d="M249.58,240.4c1.69-3.47,4.31-5.83,7-8.1l8-6.89c5.33-4.62,10.76-9.12,16.16-13.65,10.84-9,21.78-17.9,32.71-26.8s21.87-17.8,32.88-26.62l16.51-13.21c5.54-4.37,11.05-8.77,16.62-13.1l.2.24c-5.23,4.74-10.52,9.39-15.78,14.09l-15.88,14c-10.6,9.31-21.29,18.5-31.92,27.76S294.78,206.54,284,215.65c-5.4,4.53-10.77,9.1-16.25,13.54l-8.18,6.7c-2.7,2.26-5.47,4.43-9.19,5.5Z" style="fill:#fff"></path><path d="M249.51,240.48c1.06-3.71,3.23-6.49,5.49-9.19l6.7-8.18c4.44-5.48,9-10.85,13.54-16.25,9.11-10.75,18.34-21.41,27.56-32.08s18.45-21.32,27.76-31.92l14-15.88c4.7-5.26,9.36-10.55,14.09-15.78l.24.2c-4.33,5.57-8.73,11.08-13.1,16.62l-13.21,16.51c-8.82,11-17.75,21.92-26.61,32.88s-17.8,21.87-26.81,32.72c-4.53,5.39-9,10.82-13.65,16.15l-6.89,8c-2.27,2.7-4.63,5.32-8.1,7Z" style="fill:#fff"></path><path d="M249.44,240.57c.4-3.84,2.06-6.95,3.82-10l5.18-9.21c3.42-6.17,7-12.25,10.51-18.35,7.11-12.18,14.35-24.28,21.57-36.38s14.47-24.21,21.79-36.25l11-18.07c3.72-6,7.39-12,11.14-18l.27.16c-3.3,6.23-6.68,12.42-10,18.63l-10.15,18.56c-6.77,12.37-13.67,24.67-20.5,37s-13.73,24.63-20.72,36.87c-3.52,6.11-7,12.24-10.63,18.28l-5.4,9.09c-1.76,3.06-3.63,6-6.75,8.31Z" style="fill:#fff"></path><path d="M249.39,240.67c-.27-3.85.82-7.2,2-10.52l3.5-10c2.29-6.67,4.75-13.27,7.16-19.9C267,187.06,272,173.89,277,160.71s10-26.35,15.16-39.49l7.7-19.7c2.61-6.55,5.18-13.11,7.84-19.65l.3.11c-2.17,6.71-4.42,13.4-6.63,20.09l-6.77,20c-4.52,13.36-9.18,26.66-13.76,40s-9.24,26.64-14,39.91c-2.41,6.62-4.78,13.26-7.3,19.84l-3.73,9.9c-1.21,3.31-2.53,6.58-5.21,9.35Z" style="fill:#fff"></path><path d="M249.36,240.78c-.93-3.75-.44-7.24.17-10.71l1.72-10.43c1.1-7,2.37-13.9,3.59-20.84,2.52-13.87,5.19-27.71,7.83-41.56s5.32-27.69,8.08-41.52L274.91,95c1.44-6.9,2.83-13.82,4.31-20.71l.31,0c-1,7-2,14-3,20.94l-3.19,20.91C271.18,130.11,268.9,144,266.7,158s-4.48,27.84-6.86,41.73c-1.22,6.94-2.4,13.89-3.74,20.81l-2,10.39c-.61,3.48-1.34,6.93-3.5,10.12Z" style="fill:#fff"></path></g></g></g><g id="freepik--character-3--inject-44"><g id="freepik--Character--inject-44"><g id="freepik--Bottom--inject-44"><path d="M396.9,447.65c.53,4.75,1.39,8,3.28,10.7s5.24,3.42,8.55,2.43a12.67,12.67,0,0,0,8.23-7.55c1.22-3.36,1.17-7,.19-11.38Z" style="fill:#263238"></path><path d="M410.21,415.88c.8,3.15,1.2,5.31,2.3,9.64,1.69,6.72,3.46,9.55,4.51,15.14,1.2,6.39.57,9.5-1.9,13.32s-10.21,8.24-14.57,2.88c-3.55-4.37-3.94-9.4-4-15.83a136.43,136.43,0,0,0-1.27-16.25v-.1c-.18-1.71-.49-5.1-.76-6.81-.59-3.76,2-4.2,3-4.75a14.79,14.79,0,0,1,4.45-1.67,13.73,13.73,0,0,1,4.82.17C408.58,411.94,409.44,412.85,410.21,415.88Z" style="fill:#37474f"></path><path d="M303.85,428.58c-.3,0-.63,3.21,1,4.49,1.94,1.49,7.54,3.83,14.78,2.63s11.09-3.53,13.9-6,6.77-5.94,10-6.77c3-.78,7-2.48,7.94-3.43s.64-5,.64-5Z" style="fill:#263238"></path><path d="M348.62,401.49a2,2,0,0,1,1,.21,2.94,2.94,0,0,1,1.1,2.41,9,9,0,0,0,.39,2.38c1,2.46,1.64,6.81,1,9.41-.48,2.06-5.94,4-9.08,5.27a40.85,40.85,0,0,0-10.06,6.7c-3.31,2.85-10.39,5.87-15.13,6.13-7.23.39-12-1.31-13.54-3.76-1.91-3-.58-4.89,7.59-8.94,1.54-.77,6.95-4.14,8.79-5.36a42.38,42.38,0,0,0,5.49-4.29,32.51,32.51,0,0,0,2.45-2.53,34.34,34.34,0,0,1,4-3.55,21.44,21.44,0,0,1,3.07-2.31,13.7,13.7,0,0,1,5.9-1.71c2.1-.16,4.09.24,6.19,0A8.69,8.69,0,0,1,348.62,401.49Z" style="fill:#37474f"></path><path d="M409.34,414.22c-1.75-13.85-.79-29.23-3.09-50.88h0c-.39-5.56-.9-11.52-1.56-16.79-2.2-17.76-5.36-23.71-5.8-27.13,0,0-.54-35-3.72-73.94-1.5-18.32-7.29-23.59-12.19-33.11l-54.55,2.69c-4.63,24.32-3,79.09-1.53,103.85.73,12.62,4.48,57.9,4.85,78.45.11,6-1.08,8.22-3.21,10.65-4.44,5.09-10.18,8.74-15.64,12.74-1.49,3.32,6.22,5.15,12.6,1.57a156.51,156.51,0,0,0,13.44-8.18c4.65-3.7,9.68-6.21,10.58-11.39.36-2.1,9.74-50.43,9.82-60.95.08-9-1.84-24.28-1.84-24.28L361.6,279s6.29,29.22,10,44.66,7.85,33.77,12.08,49h0c4.21,17.62,9.84,34.67,11.13,43.52.36,2.12,3.91,22.85,5.18,27.58s12.08,4.3,12.36-3.95C412.55,434.39,409.67,416.83,409.34,414.22Z" style="fill:#b16668"></path><path d="M384.52,212.69c6.76,10.6,11.81,19.28,14.08,51.67s2.29,52.11,2.62,56,2.44,6.75,5.48,25.9,1.89,42.53,1.89,42.53-1.8,3.6-9.41,4.65c-7,1-10.63-1.41-10.63-1.41s-9.91-35.45-13.19-48.62c-2.88-11.57-13.23-56.4-13.23-56.4l-3,31.18s3,11.31.88,28.36-5.73,33.76-5.73,33.76-3.5,1.25-10.94,1.53c-6,.24-12.74-2.22-12.74-2.22s-4.1-49-5.07-68.13-3-72.35,2.79-95.59Z" style="fill:#37474f"></path><path d="M400.2,330.19c-.31-1.1-.6-2.14-.87-3.14-2.4-8.86-2.6-25.95-3.33-40.79-.21-4.48-.44-9.12-.73-14-1.16-19.31-3.8-40.86-14.64-54.29l-.78.59c7.28,9,10.81,21.86,12.67,35.19-10.11-.77-12.8-10.24-16.47-23.27q-.75-2.69-1.57-5.52l-1,.27c.55,1.88,1.07,3.72,1.57,5.5,3.66,13,6.56,23.31,17.57,24,.78,5.87,1.27,11.82,1.61,17.57.29,4.92.52,9.55.74,14,.72,14.89.93,32,3.35,41,.27,1,.57,2,.87,3.14,3.19,11.45,7,30.56,6.57,60.9a9.83,9.83,0,0,0,1-.67C407.14,360.61,403.38,341.61,400.2,330.19Zm-67.31-87c1.73,6.31,12.54,11.14,17.39,12l1.54,6.42c-.06,3.46-.14,7.09-.21,10.84-.42,20.68-.65,42,.49,46.8,2.21,9.3,1.73,18.28.64,30.48-1,11-2.73,24.67-3.84,31.65l1-.14c1.13-6.92,2.56-19.09,4-31.47s1.75-21-.81-30.77c-1.21-4.64-.85-26.89-.45-46.53,0-2.38.09-4.72.13-7l5.43,22.61.92,30.09,3-31.18L354,250.52S340.65,250.28,332.89,243.21Z" style="fill:#263238"></path></g><g id="freepik--Top--inject-44"><g id="freepik--Arm--inject-44"><path d="M235.42,187.32a5.51,5.51,0,0,1,3-1.44,37.12,37.12,0,0,1,5.38-.11c2.74-.09,7.16-.2,9.5-1.71.47-.31,1.36-1.1.34-1.32a24.32,24.32,0,0,1-4-1,4.9,4.9,0,0,1-2.9-2.7,1.66,1.66,0,0,1-.05-1.2c.23-.53.62-.51,1.07-.45a14.18,14.18,0,0,0,1.46,0l3,0c5.86,0,12,.42,17.18,3.38.76.43,6.31,4.16,9.47,5.63S302,196.07,302,196.07s9.47-15.9,13.79-22.82c6.63-10.62,9.25-15.86,18.79-18l-.93,33.39s-11,15.2-14.66,20.17c-6.27,8.5-9.68,11.67-16.27,8.69a102.28,102.28,0,0,1-19.59-11.27c-8.6-6.28-10.21-7.92-13.14-8.66a14,14,0,0,0-7.43,0,27,27,0,0,1-7.38.89,25.08,25.08,0,0,1-6.46-.68,7.83,7.83,0,0,1-3-1.07c-.65-.58-1-1.45-1.72-2s-1.94-.8-2.7-1.49a9.6,9.6,0,0,1-1.36-2,4.09,4.09,0,0,0-2.95-1.58,3.79,3.79,0,0,1-1.65-.58C234.58,188.54,234.89,187.86,235.42,187.32Z" style="fill:#b16668"></path><path d="M256.76,184.71a18,18,0,0,0,9.32,3.59,7.44,7.44,0,0,1-5.18.3A7,7,0,0,1,256.76,184.71Z" style="fill:#9a4a4d"></path></g><path d="M355.65,148.77s8.49,2.28,12.36-3,22.51,13,19.83,29.39c-.89,5.42-2.61,16.73-3.64,24.32-.79,5.81,5.42,13.76,8.92,30,0,0-16.92,13-45.32,11.7C326.12,240.24,325,235,325,235c-.19-18.08.46-27.14-.08-34.75,0,0-7.48-3.28-8-11.27-.45-7.14,1.81-10.87,7.68-19.39,5.58-8.11,10-14.33,10-14.33Z" style="fill:#fafafa"></path><path d="M370,145.85c1.8,0,5.3,2,9.09,6.44,4.68,5.51,9.19,14.38,7.82,22.74-.93,5.67-2.65,17.06-3.64,24.35-.43,3.19,1,6.77,3,11.72a111,111,0,0,1,5.83,18c-2.81,1.94-17.43,11.23-40.2,11.23-1.32,0-2.67,0-4-.09-18.66-.87-21.59-4.88-21.92-5.48-.09-8.08,0-14.41.07-19.5.08-6.34.14-10.91-.16-15.12l0-.58-.53-.23c-.28-.13-6.94-3.17-7.4-10.45-.42-6.65,1.49-10,7.51-18.78,4.87-7.07,8.87-12.77,9.77-14l20.54-6.32a19.71,19.71,0,0,0,4.17.46c4,0,7.08-1.33,8.94-3.85a1.31,1.31,0,0,1,1.18-.53m0-1a2.3,2.3,0,0,0-2,.92c-2.07,2.81-5.45,3.46-8.16,3.46a18.1,18.1,0,0,1-4.2-.49l-21.11,6.49s-4.39,6.22-10,14.33c-5.87,8.52-8.13,12.25-7.68,19.39.5,8,8,11.27,8,11.27.54,7.61-.11,16.67.08,34.75,0,0,1.17,5.24,22.85,6.25,1.37.06,2.72.09,4,.09,26,0,41.28-11.79,41.28-11.79-3.5-16.28-9.71-24.23-8.92-30,1-7.59,2.75-18.9,3.64-24.32C390.2,160.74,376,144.88,370,144.88Z" style="fill:#e0e0e0"></path><g id="freepik--Head--inject-44"><g id="freepik--Hair--inject-44"><path d="M339.94,133.51c-1.1-1.71-2.11-3.68-3.72-5s-3.61-1.86-5.4-2.78-3.84-2-5.77-3c-6.91-3.07-10.2-11.93-8.53-16.44,3.84-10.43,16-14.9,22.73-15.78,12.73-1.67,19.22,1.16,21,7.68,3.93-.29,6.35,1.38,8.64,4,1.87,2.14,2.52,4,3.27,11.09a15.41,15.41,0,0,0,.95,3.91c.54,1.38,1.43,2,2.27,3.12a14.36,14.36,0,0,1-.88,18.24,9.64,9.64,0,0,1-2.3,1.92c-2.21,1.26-4.91,1.27-7.45,1.06a5.31,5.31,0,0,1-2.67,2.51,8.92,8.92,0,0,1-3.65.69c-1.1,0-3.13-.19-3.56-1.47-.35-1,.54-2.14-.06-3.22-.92-1.65-4-1.56-5.53-2.05C346.56,137.18,341.65,136.15,339.94,133.51Z" style="fill:#37474f"></path><path d="M337.55,106.91c-1.47-6-9.24-11.14-16.58-6.08a12.39,12.39,0,0,0-5.31,11,15.78,15.78,0,0,0,1.33,5.57c.95,2.15,2.74,3.36,1.64,6-.6,1.42-1.68,2.59-2.37,4a8.47,8.47,0,0,0,3.65,11,6.23,6.23,0,0,1,1.27-7.36c-1,2.65.16,6.05.71,7.92,2,6.9,7.88,10,13.72,10.52,4.9.46,13.83-2.39,14-6.45.07-1.84-3.68-4.87-4.11-6.66q-.78-3.21-1.61-6.41-2.7-10.47-5.73-20.84C338,108.3,337.76,107.6,337.55,106.91Z" style="fill:#263238"></path></g><path d="M360.72,146.51c-.27-2.1-1.19-12.65-1.19-12.65.18.78,4.25,2.47,7.18-2s1.76-10.26-1-12.26c-4.34-3.08-9.47.83-9.44,6-2.73,2-4.26-1.53-2.89-6-.7-3.35-4.26-3.32-5-10.71-.88-3.61-6.8-5.39-10.76-2.07-3.3-3-10.38-2.4-12.61,3.74-1.36,4.53-2,4.74-.72,10,.43,1.86-.78,4.38-.59,6.9.84,11.21,4.4,17.19,8.19,18.65,2.55,1,6.56.76,8.87.19l.38,2.87h0c.13,1.77.51,3.33-1.13,4.1-.58,1.23-2.25,11.62.29,25.27,9.26-13,20.85-27.42,21.4-29.24C361.11,148.76,361,148.6,360.72,146.51Z" style="fill:#b16668"></path><path d="M344,131.44l-5.55,2.24a2.94,2.94,0,0,0,3.85,1.76A3.14,3.14,0,0,0,344,131.44Z" style="fill:#9a4a4d"></path><path d="M343.74,132.78a3.28,3.28,0,0,0-3.08,2.8,2.77,2.77,0,0,0,1.65-.14,3.07,3.07,0,0,0,1.88-2.64A3.31,3.31,0,0,0,343.74,132.78Z" style="fill:#ffa8a7"></path><path d="M326.11,117.53l4.31-2a2.29,2.29,0,0,0-3.09-1.21A2.5,2.5,0,0,0,326.11,117.53Z" style="fill:#263238"></path><path d="M346,116l-4.66-1.25a2.32,2.32,0,0,1,2.87-1.75A2.54,2.54,0,0,1,346,116Z" style="fill:#263238"></path><path d="M331.06,121.64a2,2,0,0,1-1.43,2.45,1.92,1.92,0,0,1-2.39-1.37,2,2,0,0,1,1.43-2.44A1.9,1.9,0,0,1,331.06,121.64Z" style="fill:#263238"></path><path d="M344.93,120.27a2,2,0,0,1-1.44,2.44,1.9,1.9,0,0,1-2.39-1.36,2,2,0,0,1,1.43-2.44A1.92,1.92,0,0,1,344.93,120.27Z" style="fill:#263238"></path><path d="M331.56,129.17l6.37,1-.59-11.3C334.9,119.36,333.16,123.89,331.56,129.17Z" style="fill:#9a4a4d"></path><path d="M340.69,146.38a23.26,23.26,0,0,0,11.7-5.09,13.73,13.73,0,0,0,3.82-5.41s-.53,4.26-3,6.84c-4.52,4.76-12.28,5.72-12.28,5.72Z" style="fill:#9a4a4d"></path></g><path d="M340.23,178.62c-3.39-5.68-4-8.1-3.63-11.26s1.45-13.45,4.5-17.68l.41,4.8A93.26,93.26,0,0,0,340.23,178.62Z" style="fill:#e0e0e0"></path><path d="M340.23,178.62a30.13,30.13,0,0,0,1.9-6.73c.36-3,1.08-4.78,5.92-9.48s11.67-14.78,12.54-17.06l-.15-1.47s1,0,1.43,2.65c.32,1.8.53,2.94.53,2.94C359.72,156.19,349.67,167.57,340.23,178.62Z" style="fill:#e0e0e0"></path><path d="M404.43,104.44c-4-19.54-6-27.29-6.06-27.35-.6-2.75-1.16-5.35-1.64-7.52-.53-2.42-1.06-5.14-1.28-6.18-1.61-7.61-5.07-12.24-5.55-13.8-.64-2.06-1.66-2.39-1.66-2.39a2.25,2.25,0,0,0-2.11-1.73c-.74-1.7-1.77-1.38-5.39-1.41s-7.85-.2-8.93.69-1.33,2.32-.74,4.63a3.71,3.71,0,0,0-3.19,1.46c-1.11,1.19-1.5,2.08-.06,4.24s3.49,3.25,4.23,5.28A9.75,9.75,0,0,0,377,65.75c1.35.51,2.45.77,3.3,1.75s1,1.92,1.44,4.88c.06.38.14,1.26.25,2.48l3,33.47s-5.85,17.25-8.52,23.33c-1.63,3.73-5.15,6.8-8.38,14.14.11,3.64,2.22,18.84,9.2,27.5,6.32,7.85,9.56,6.51,10.37,3,1.83-9,3.44-14.64,5.42-22.55,3-11.9,6.06-20.71,7.79-27.33C404.09,113.79,405.55,109.91,404.43,104.44Z" style="fill:#b16668"></path><path d="M382.69,44.85c-1.5,0-3,.16-4.5.24l-2.36.14a4.71,4.71,0,0,0-2.06.5,3.52,3.52,0,0,0-1.38,2.84,21.43,21.43,0,0,0,.09,4.16,3,3,0,0,0,.7,1.92,1.4,1.4,0,0,0,1.54.31c.26-.12-.1-.45-.32-.35-.73.33-1.2-.51-1.33-1.1a13.45,13.45,0,0,1-.2-1.9,14.73,14.73,0,0,1,.1-3.32,3,3,0,0,1,1.52-2.4,5.72,5.72,0,0,1,2-.35l1.93-.16c1.44-.12,2.89-.19,4.33-.38C382.8,45,382.75,44.85,382.69,44.85Z" style="fill:#9a4a4d"></path><path d="M382.72,46.15c-1.48,0-3,.06-4.42.19a19.43,19.43,0,0,0-2.15.27,2.21,2.21,0,0,0-1.38.81,5.49,5.49,0,0,0-.68,3.47c0,.72.08,1.45.16,2.17a9.46,9.46,0,0,0,.33,2.13c.46,1.34,2.12,1.54,3.3,1.18.32-.1,0-.48-.25-.41a2.82,2.82,0,0,1-1.92,0c-.65-.28-.77-1-.85-1.6a27.9,27.9,0,0,1-.31-3.76,4.74,4.74,0,0,1,.74-3,2.23,2.23,0,0,1,1.48-.72c.59-.1,1.2-.18,1.8-.26a39.32,39.32,0,0,1,4.2-.28C382.85,46.33,382.8,46.16,382.72,46.15Z" style="fill:#9a4a4d"></path><path d="M379.6,48.66a4.29,4.29,0,0,0-1.63.61,2.19,2.19,0,0,0-.75,1.25,9.68,9.68,0,0,0,.11,3.9,16.72,16.72,0,0,0,.41,2,1.65,1.65,0,0,0,1,1.12,7.77,7.77,0,0,0,4.25.2c.29-.06,0-.43-.19-.38a8.09,8.09,0,0,1-2.3.16c-.62,0-1.65-.1-2.09-.6a2.48,2.48,0,0,1-.4-1.13c-.08-.37-.16-.74-.23-1.12a17.71,17.71,0,0,1-.28-2.19,5.73,5.73,0,0,1,.19-2.1,2.08,2.08,0,0,1,1.58-1.27c1.55-.45,3.14-.63,4.7-1,0,0,0,0,0,0A16.34,16.34,0,0,0,379.6,48.66Z" style="fill:#9a4a4d"></path><path d="M383.4,54.7a3.74,3.74,0,0,0-.58-.4.93.93,0,0,0,0-.24l-.09-.26a2.15,2.15,0,0,0-.22-.46,4.36,4.36,0,0,0-.62-.81c-.05-.05-.06.07,0,.1a2.76,2.76,0,0,1,.47.79c0,.14.09.28.13.42s0,.14.05.22,0,0,0,.06l0,0a2.54,2.54,0,0,0-1.07-.28c-.1,0,0,.16,0,.18a5.13,5.13,0,0,1,.84.27,3.25,3.25,0,0,1,.81.56,3,3,0,0,1,.55.68,1.66,1.66,0,0,1,.32,1c0,.25.48.37.5.1a1.76,1.76,0,0,0-.33-1A3.77,3.77,0,0,0,383.4,54.7Z" style="fill:#9a4a4d"></path><path d="M386.05,55.81a3.79,3.79,0,0,0-.7.11,4.15,4.15,0,0,0-.68.22,5.82,5.82,0,0,0-1.35.77,6.29,6.29,0,0,0-1.82,2.21,5.75,5.75,0,0,0,.3,5.69c0,.08.11,0,.08,0a6.94,6.94,0,0,1,.08-5.35,6.1,6.1,0,0,1,1.63-2.13,9.38,9.38,0,0,1,1.17-.81,5.36,5.36,0,0,1,.54-.26c.24-.11.45-.19.77-.32C386.09,55.87,386.08,55.81,386.05,55.81Z" style="fill:#9a4a4d"></path><path d="M373,54.28a2.57,2.57,0,0,1-1.8.33c-.64-.08-1.24-.33-1.87-.47,0,0,0,.06,0,.07,1.15.7,2.74,1.21,4,.42C373.57,54.48,373.23,54.16,373,54.28Z" style="fill:#9a4a4d"></path><path d="M372.57,50.57a2.22,2.22,0,0,0-.72-.83c-.11-.08-.17-.05-.09.07a3.75,3.75,0,0,1,.24.44,12.88,12.88,0,0,1,.52,1.29s.06,0,.09,0,0-.08.09-.11.06-.17.06-.23a.66.66,0,0,0,0-.23A2.5,2.5,0,0,0,372.57,50.57Z" style="fill:#9a4a4d"></path><path d="M374.3,54.74a.26.26,0,0,0-.33,0A3.58,3.58,0,0,0,372.6,57a3.42,3.42,0,0,0,0,.44,5.58,5.58,0,0,0,.09.59c0,.06.09.11.09,0a2.47,2.47,0,0,1,.11-.47c0-.15,0-.29.09-.43a4.07,4.07,0,0,1,.31-.82,4,4,0,0,1,1.1-1.31C374.45,55,374.37,54.8,374.3,54.74Z" style="fill:#9a4a4d"></path></g></g></g><g id="freepik--character-2--inject-44"><g id="freepik--character--inject-44"><g id="freepik--bottom--inject-44"><path d="M142,402.1l-1.92-17.53,20.5,1.33s-.31,9.51-.59,14.9c-.17,3.18,4.21,9.09,4.21,9.09s-9.63,5.05-14.79,3.28-7.89-8.05-7.82-9.42S142,402.1,142,402.1Z" style="fill:#ffbda7"></path><path d="M188,427.54c.3,0,.8,3-.81,4.35-1.87,1.52-7.37,4.06-14.72,3.32s-11.35-2.76-14.32-5S151,425,147.7,424.34c-3.08-.57-6.45-1.79-7.45-2.65s-.93-4.73-.93-4.73Z" style="fill:#263238"></path><path d="M142,402a1.16,1.16,0,0,0-1.1.92c-.21,1.07-.4,4.18-.85,5.94a28.76,28.76,0,0,0-.57,9.43c.44,2,5.48,3.28,8.71,4.34a41.62,41.62,0,0,1,10.49,5.84c3.49,2.54,10.78,5.12,15.56,5,5.65-.13,12-1.91,13.4-4.34,1.76-3,3-6.47-5.42-9.88-1.6-.65-7.22-3.57-9.14-4.64-5.19-2.87-8.85-5.53-11.3-10.73a3,3,0,0,0-1.23-1.58,2.9,2.9,0,0,0-1.63-.11c-1.4.2-6.95,1-8.22,1.57-1.11.51-2.7,1.11-2.65,2.43a4.25,4.25,0,0,0,.33,1.34c.11.26.19.62-.06.78s-.57,0-.79-.18a20.47,20.47,0,0,1-2.3-2.45,7.72,7.72,0,0,0-1.34-1.21,14.43,14.43,0,0,1-1.45-.83C141.92,403.19,142,402.62,142,402Z" style="fill:#455a64"></path><path d="M158.68,428.47c-1.48-1.08-3.05-2.12-4.62-3.05h0s9.95,5.32,13.89,2.77c2.54-1.65,1.28-3.58,1.21-4.2s8.91-5.17,11.4-5.48h0c.7.34,1.29.61,1.66.76,8.43,3.41,7.18,6.88,5.42,9.88-1.42,2.43-6,4.38-13.3,4.5C169.56,433.72,162.17,431,158.68,428.47Z" style="fill:#37474f"></path><path d="M168.44,422.18c5.25,1.82,3,2.74,1.58,3s-10.3-4.33-15.72-8.11c-5.65-3.95-9.24-8.31-11.33-9.76-.79-.54-1.63-1.21-2.38-1.83.12-1.06.22-2,.31-2.52A1.16,1.16,0,0,1,142,402c0,.62-.08,1.19.44,1.65a14.43,14.43,0,0,0,1.45.83,7.72,7.72,0,0,1,1.34,1.21,20.47,20.47,0,0,0,2.3,2.45C152.17,413.35,163.2,420.35,168.44,422.18Z" style="fill:#37474f"></path><path d="M169.64,424.44a.5.5,0,0,1-.33-.1.44.44,0,0,1-.08-.66c1.44-1.67,8.35-5.7,12.19-5.38a.48.48,0,0,1,.46.51.5.5,0,0,1-.56.43c-3.58-.29-10.14,3.7-11.29,5A.48.48,0,0,1,169.64,424.44Z" style="fill:#263238"></path><path d="M165.05,422a.58.58,0,0,1-.33-.1.45.45,0,0,1-.08-.67c1.44-1.67,8.35-5.69,12.19-5.38a.47.47,0,1,1-.1.94c-3.58-.28-10.14,3.7-11.28,5A.55.55,0,0,1,165.05,422Z" style="fill:#263238"></path><path d="M160.46,419.61a.53.53,0,0,1-.32-.1.45.45,0,0,1-.09-.67c1.45-1.67,8.35-5.7,12.19-5.38a.47.47,0,1,1-.09.94c-3.59-.29-10.15,3.7-11.29,5A.55.55,0,0,1,160.46,419.61Z" style="fill:#263238"></path><path d="M156.2,416.91a.53.53,0,0,1-.32-.1.45.45,0,0,1-.09-.67c1.45-1.67,8.37-5.7,12.19-5.38a.49.49,0,0,1,.47.52.5.5,0,0,1-.56.42c-3.58-.29-10.15,3.7-11.29,5A.55.55,0,0,1,156.2,416.91Z" style="fill:#263238"></path><path d="M152,414.21a.55.55,0,0,1-.32-.1.45.45,0,0,1-.1-.66c2-2.37,9.23-5.76,13.07-5.44a.48.48,0,0,1,.47.51.52.52,0,0,1-.56.43c-3.46-.29-10.4,3-12.16,5.07A.56.56,0,0,1,152,414.21Z" style="fill:#263238"></path><path d="M98.28,407.87l4.46-15L82.86,390,82,404.53s-2.11,5.18-.9,7.1,14.42,4.07,15.66,2.83S98.28,407.87,98.28,407.87Z" style="fill:#ffbda7"></path><path d="M96.24,440.62c-.65,4.65-1.75,7.65-3.95,10.15s-6.08,2.88-9.88,1.58-8.6-4.08-9.43-8.27-.42-6.93.75-11.18Z" style="fill:#263238"></path><path d="M82,404.53c-1.59-.1-1.28,6.29-2.62,12.48-1.44,6.65-4.08,9.13-5.33,14.57-1.44,6.21-1.22,9.09,1.21,13.27S86.94,454,92,449.09c4.13-4,4.62-8.92,4.7-15.3a132.3,132.3,0,0,1,.74-16.15c.63-4.71,2.17-8.88.82-9.58-.15.68-.32,1.55-.48,2.22s-.45,3.06-1.34,3a8.24,8.24,0,0,1,.1-1.79,1.93,1.93,0,0,0-.33-1.59,7.59,7.59,0,0,0-2.55-1.25c-1.55-.45-4.32-1-5.9-1.35-.79-.16-1.58-.29-2.38-.38a7.27,7.27,0,0,0-2,0,1.26,1.26,0,0,0-.9.53,1.59,1.59,0,0,0-.13.72A4.34,4.34,0,0,1,82,409.4c-.07.18-.24.39-.47.32a.4.4,0,0,1-.23-.42c0-.77.2-1.31.3-2.19,0-.41.17-1,.21-1.37S81.91,404.93,82,404.53Z" style="fill:#455a64"></path><path d="M74.5,429.82c-.22.9-1.57,6.83.36,8.17,2.08,1.46,3.59-3.15,3.59-3.15s5.16-.64,12.37,3c-.45.93.47,4.31,2.54,3.89s3.33-7.27,3.34-7.36c-.1,6.11-.68,10.88-4.69,14.75-5.07,4.9-14.35-.07-16.78-4.24s-2.65-7.06-1.21-13.27C74.16,431,74.32,430.38,74.5,429.82Z" style="fill:#37474f"></path><path d="M79,435.32c-.18,2.29-2.87,1.17-2.78-2.08S79,422.58,79.35,417c.57-7.64,1-12.58,2.62-12.48,0,.07,0,.15,0,.23l-.43,3.18a11.73,11.73,0,0,0-.18,1.36C81,414,80.78,423,80,427.25A61.5,61.5,0,0,0,79,435.32Z" style="fill:#37474f"></path><path d="M90,437.63A59.07,59.07,0,0,0,92,429.79c.84-4.17,3.65-12.49,5-17a9.72,9.72,0,0,0,.73-2.54c.14-.62.3-1.42.44-2.08,0-.05,0-.09,0-.14,1,.53.58,4.14,0,6s-1.2,3.87-1.89,6.55c-1.73,5.28-2,13.23-3.12,16.27S89.29,439.82,90,437.63Z" style="fill:#37474f"></path><path d="M91,438a.6.6,0,0,1-.21-.08,23.15,23.15,0,0,0-12.18-2.6.66.66,0,0,1-.7-.44.46.46,0,0,1,.46-.54,24.17,24.17,0,0,1,13,2.79.47.47,0,0,1,.21.69A.61.61,0,0,1,91,438Z" style="fill:#263238"></path><path d="M92.62,433.21l-.19-.07a28.64,28.64,0,0,0-13.63-2.91.65.65,0,0,1-.69-.45.47.47,0,0,1,.48-.53A29.75,29.75,0,0,1,93,432.32a.48.48,0,0,1,.23.69A.6.6,0,0,1,92.62,433.21Z" style="fill:#263238"></path><path d="M79.5,425.56a.66.66,0,0,1-.48-.39.46.46,0,0,1,.41-.58c7.27-1.08,14.11,2.8,14.4,3a.46.46,0,0,1,.2.68.65.65,0,0,1-.81.11c-.06,0-6.71-3.8-13.47-2.78A1,1,0,0,1,79.5,425.56Z" style="fill:#263238"></path><path d="M80.21,421.15a.6.6,0,0,1-.47-.38.43.43,0,0,1,.39-.57,22.32,22.32,0,0,1,14.69,3,.45.45,0,0,1,.15.69.64.64,0,0,1-.82.06,21.32,21.32,0,0,0-13.68-2.75A.57.57,0,0,1,80.21,421.15Z" style="fill:#263238"></path><path d="M81,416.21a.62.62,0,0,1-.47-.37.45.45,0,0,1,.39-.59c7.5-1.33,14.49,2.93,14.78,3.12a.46.46,0,0,1,.17.69.64.64,0,0,1-.82.07c-.06,0-6.82-4.16-13.78-2.91A.82.82,0,0,1,81,416.21Z" style="fill:#263238"></path><path d="M96.35,227.44c-4.11,42.59-6.72,96.83-6.72,96.83-.36,3.23-3.35,10.55-4.94,28.21-1.53,16.87-2.84,41.5-2.84,41.5s11.18,6.5,20.74,3.49c0,0,9.52-37.27,14.75-57.05,5-18.72,11.92-47.24,11.92-47.24l5.17,28.37s-.87,12.14-.66,20.65c.24,9.9,5.9,47.86,5.9,47.86s11.27,7.43,21.29,0c0,0,3.7-55.51,4.19-67.41,1-23.33-.55-68.6-.86-98.75Z" style="fill:#37474f"></path><path d="M129.26,293.18l5.44-30.26s11.55-1.48,17.55-6.7c0,0-3.93,7-14.85,9.54L132,293.3l2.39,28.25Z" style="fill:#263238"></path><path d="M81.58,394.45c2.33,3.22,12.6,6.57,21.16,3.82l1.6-6.54c-6.47,1.93-17.32,0-22.49-4.23Z" style="fill:#455a64"></path><path d="M139.6,391.06c2.85,2.76,13.54,4.28,21.5.08l.44-6.71c-6,3-17,3-22.87-.26Z" style="fill:#455a64"></path></g><g id="freepik--top--inject-44"><g id="freepik--arm--inject-44"><path d="M237.14,199.87l-1.27-.35c-2.11-.57-4.23-1.13-6.41-.54-1.89.5-5.36,2.42-7.53,3.48-23.44,11.6-28.92,12-33.18,11.16-3-.58-4.41-3.12-10.24-11-8.14-10.95-15.91-21.88-15.91-21.88L159.67,145c11.59,3,13.65,10.44,21.75,22.6,5.63,8.45,15.46,23.31,15.46,23.31s25.86-5.39,29.15-6.61a24.16,24.16,0,0,0,3.37-2c5.24-3.44,11.61-4.29,17.73-4.68l3.15-.16a13,13,0,0,0,1.53-.12c.47-.09.87-.14,1.15.4a1.76,1.76,0,0,1,0,1.26,5.11,5.11,0,0,1-2.86,3,26,26,0,0,1-4.07,1.28c-1.06.29-.07,1.05.45,1.34,2.54,1.43,7.17,1.25,10,1.16a13.83,13.83,0,0,1,3.27-.13,4.1,4.1,0,0,1,2.1,1.65.92.92,0,0,0,.32.33.85.85,0,0,0,.42.07,6.24,6.24,0,0,1,2.14.35,3,3,0,0,1,1.62,1.38,5.09,5.09,0,0,1,.37,1.28c0,.18.06.36.1.55a3.08,3.08,0,0,1-1.37,3.62,29.42,29.42,0,0,1-21.07,6.42A42.89,42.89,0,0,1,237.14,199.87Z" style="fill:#ffbda7"></path><path d="M242.4,185.65a18.86,18.86,0,0,1-9.51,4.37,11,11,0,0,0,5.63-.66C241.21,188.08,241.94,186.92,242.4,185.65Z" style="fill:#f0997a"></path><path d="M159.81,144.39c4.3,1.18,9.42,2.72,13.19,9.08s24.39,37,24.39,37l9.34-1.74s-2.29,7.24-1.07,12.16,6.31,6.37,6.31,6.37a82.14,82.14,0,0,1-12.93,5.6c-7.42,2.5-10.09,1.88-11.78.76s-5-4.48-14.79-17.68c-8.59-11.63-11.32-15.13-11.32-15.13Z" style="fill:#407BFF"></path><path d="M159.81,144.39c4.3,1.18,9.42,2.72,13.19,9.08s24.39,37,24.39,37l9.34-1.74s-2.29,7.24-1.07,12.16,6.31,6.37,6.31,6.37a82.14,82.14,0,0,1-12.93,5.6c-7.42,2.5-10.09,1.88-11.78.76s-5-4.48-14.79-17.68c-8.59-11.63-11.32-15.13-11.32-15.13Z" style="fill:#fff;opacity:0.4"></path><path d="M197.33,190.29c-6.75,2.41-9.55,11.48-9.55,11.48s-.86-9.7,8.16-13.58Z" style="fill:#407BFF"></path></g><path d="M106.72,153.72c-3.16,5.47-3.58,23.9-6.66,41.91-2.23,13.1-4.1,31.29-5.15,44.54,7.7,10.49,53.94,12.48,70-2.17,0,0,0-8.21,0-16.14.19-21,5-32.29,5.19-46.49.21-18.12-6.63-27.13-10.3-30.93-4.72-.8-9.32-1.81-12.48-2a60.1,60.1,0,0,0-23.74,2.71C114.6,147.82,109.75,148.49,106.72,153.72Z" style="fill:#407BFF"></path><path d="M149.29,84.89c-15.19-3.48-25.85,5.57-28.74,14.8-4.47,14.28,6.51,26.44,8.49,34.52L166.89,106C167.6,100.06,164.48,88.37,149.29,84.89Z" style="fill:#263238"></path><g id="freepik--head--inject-44"><path d="M164.52,133.38a12.53,12.53,0,0,1-10.58,7.17,40.2,40.2,0,0,1-4.2-.52l-.35,5.74c1.54,3.61,2.21,10.74,1.15,16.91a63.15,63.15,0,0,1-23.39-17.74l1.75-19.34s-2.81,2.66-6.76-.45c-2.71-2.15-4.81-7.5-1.84-11.47s7.33-1.82,8.5-.37,1.57,3.9,2.67,3.64a3.89,3.89,0,0,0,2.82-2.4,23.48,23.48,0,0,0,2.13-8.38,6.71,6.71,0,0,0,3-2.78c2.11-3.41,3.88-5.69,3.88-5.69,9.24-2,17.86-2.58,22.94,3.48,1.81,4,1.09,12.8,1,17.9C167.14,124.62,166.53,129.18,164.52,133.38Z" style="fill:#ffbda7"></path><path d="M149.74,140c-4.58-.68-13.64-3.66-15.87-6.45s-2.81-8.14-2.81-8.14-.23,6.67,1.42,9.77,6.34,4.81,9.19,5.8a73,73,0,0,0,7.89,1.94Z" style="fill:#f0997a"></path><polygon points="153.12 111.31 153.38 124.19 159.85 122.34 153.12 111.31" style="fill:#f0997a"></polygon><path d="M146.42,125.35l6.3,3.08a3.45,3.45,0,0,1-4.65,1.74A3.67,3.67,0,0,1,146.42,125.35Z" style="fill:#b16668"></path><path d="M148.07,130.17c.13.06.27.1.41.15a3.2,3.2,0,0,0-2.37-3.77A3.63,3.63,0,0,0,148.07,130.17Z" style="fill:#f28f8f"></path><path d="M163.35,115.35c.26,1-.47,1.3-1.47,1.55s-1.89.38-2.15-.66a1.87,1.87,0,1,1,3.62-.89Z" style="fill:#263238"></path><path d="M160.12,114.2a4.45,4.45,0,0,1,1.44-.38,4.15,4.15,0,0,1,1.45.05,4.8,4.8,0,0,1,1.43.56s.05.13,0,.12c-.4-.08-.74-.17-1.31-.24a6.36,6.36,0,0,0-1.63,0,6.87,6.87,0,0,0-1.89.51c-.2.08-.58.25-.62.28s-.09-.12-.06-.16A3.22,3.22,0,0,1,160.12,114.2Z" style="fill:#263238"></path><path d="M160.32,108.43l4,2.14a2.4,2.4,0,0,0-1-3.17A2.23,2.23,0,0,0,160.32,108.43Z" style="fill:#263238"></path><path d="M144,114.16c-.44,1,.24,1.37,1.18,1.79s1.79.71,2.23-.26a1.87,1.87,0,1,0-3.41-1.53Z" style="fill:#263238"></path><path d="M147.43,113.61a4.76,4.76,0,0,0-1.35-.63,3.88,3.88,0,0,0-1.43-.21,4.48,4.48,0,0,0-1.51.3s-.08.11,0,.11c.4,0,.76,0,1.33,0a6.65,6.65,0,0,1,1.59.35,6.56,6.56,0,0,1,1.77.84l.57.38c.05.05.11-.09.08-.14A3.25,3.25,0,0,0,147.43,113.61Z" style="fill:#263238"></path><path d="M147.06,108l-4.34,1.38a2.38,2.38,0,0,1,1.53-2.93A2.21,2.21,0,0,1,147.06,108Z" style="fill:#263238"></path></g><path d="M166.17,104c-2.06-5.23-7.69-9.44-11.28-1.77-4.62-6.69-12.87-6-14.8,2.32a27.94,27.94,0,0,0,.25,14.16A11.06,11.06,0,0,1,135,108.8s-.93,5.2-.33,7.29c0,0-12.08-.5-15.89-6.1,0,0-1.33-14.08,6.28-17.31.89-6.17,10.77-13.77,27.29-9.4s18.78,13,18.78,13A21.65,21.65,0,0,0,166,93.6a17,17,0,0,1,5.12,11.28,13.64,13.64,0,0,1-4.79,11.1S168.24,109.18,166.17,104Z" style="fill:#37474f"></path><path d="M124.71,93.71l-5.16-3.94a3.5,3.5,0,0,1,4.72-.51A3,3,0,0,1,124.71,93.71Z" style="fill:#37474f"></path><path d="M125.44,93.39l-6.19,2.06a3.29,3.29,0,0,1,2.08-4.13A3.24,3.24,0,0,1,125.44,93.39Z" style="fill:#37474f"></path><path d="M152.43,97.07a.33.33,0,0,0,.16,0,.25.25,0,0,0,0-.35c-5.5-7-20.53-8-26.48-4.67a.24.24,0,0,0-.09.33.27.27,0,0,0,.35.1c5.66-3.17,20.55-2.12,25.81,4.54A.26.26,0,0,0,152.43,97.07Z" style="fill:#263238"></path><path d="M95.86,269.79a15,15,0,0,1-.9-1.54,29,29,0,0,1-1.4-3.31c-1-2.85-1.45-5.94-3-8.51a25.73,25.73,0,0,1-2-3.26,5.58,5.58,0,0,1-.44-3.22c.09-.72,5.12-37.58,5.12-37.58s10.25-15.21,16.31-25.16c8.67-12.33,6.26-34,1.44-37.66a30.35,30.35,0,0,0-10.62,4.87c-3.69,2.43-6.14,8.45-9.62,15.11C84.26,181.81,78.07,195.21,75,200.47c-2.1,3.65-3.82,7.3-3.73,15.71.1,8.77.69,32,.61,33.57-.27,4.95-2,11.9-1.45,14.84s1.36,6.58,2,8.9a5.29,5.29,0,0,0,2.75,3.21,38.18,38.18,0,0,0,3,6.46A3.85,3.85,0,0,0,81.87,285a4.45,4.45,0,0,1,.55,1c.19.49.39,1,.59,1.45.4.93.82,1.85,1.27,2.76.3.61.68,1.27,1.34,1.44.87.23,1.36-.5,1.58-1.21a2.59,2.59,0,0,0,.08-1c0-.5-.09-1-.17-1.51a47.45,47.45,0,0,0-1.89-6.4,19.65,19.65,0,0,1-.54-2.39,5.6,5.6,0,0,0-.21-1.31c1.6,3.3,2.71,6.76,4.68,9.88a4,4,0,0,0,.84,1,1.5,1.5,0,0,0,1.25.32,1.47,1.47,0,0,0,.94-1,3.77,3.77,0,0,0,0-1.46c-.87-6.61-5-12.52-3.77-19.38a.44.44,0,0,1,.1-.23c.14-.13.37,0,.5.14a7.54,7.54,0,0,1,.88,1.29c1,1.61,2.2,3.65,3.92,4.51a2.83,2.83,0,0,0,2,.27,1.37,1.37,0,0,0,.78-.49C97.15,271.89,96.28,270.46,95.86,269.79Z" style="fill:#ffbda7"></path><path d="M81.87,285a25,25,0,0,1-2.74-6.32,30,30,0,0,1-1.19-6.77c.48,2.24,1,4.47,1.63,6.65A50.43,50.43,0,0,0,81.87,285Z" style="fill:#f0997a"></path><path d="M75.27,276.7A11.9,11.9,0,0,1,74,273.5a15.66,15.66,0,0,1-.48-3.41c.38,1.09.62,2.2.92,3.3Z" style="fill:#f0997a"></path><path d="M84.47,277.85a31,31,0,0,1-2-5.62,12.56,12.56,0,0,0,2.29,7.58Z" style="fill:#f0997a"></path><path d="M112.86,148.5c-5.36,1.52-12,2-16.52,9.14s-16.18,31.24-19.4,37.76c-5.61,11.36-6.09,11.74-6,20.61a138.49,138.49,0,0,0,.63,14.51s2.32,2.95,9.83,2.95S91,231.64,91,231.64l2.74-19.39,18.48-27.82S120.46,164.63,112.86,148.5Z" style="fill:#407BFF"></path><path d="M112.86,148.5c-5.36,1.52-12,2-16.52,9.14s-16.18,31.24-19.4,37.76c-5.61,11.36-6.09,11.74-6,20.61a138.49,138.49,0,0,0,.63,14.51s2.32,2.95,9.83,2.95S91,231.64,91,231.64l2.74-19.39,18.48-27.82S120.46,164.63,112.86,148.5Z" style="fill:#fff;opacity:0.4"></path></g></g></g><g id="freepik--character-1--inject-44"><g id="freepik--Chair--inject-44"><path d="M213.19,435.37l-3.93-2.27a4.81,4.81,0,0,0-4.34-.08,1.42,1.42,0,0,0-.83,1.17v1.73a1.62,1.62,0,0,0,1,1.3l3.93,2.27a4.78,4.78,0,0,0,4.34.08,1.41,1.41,0,0,0,.83-1.16c0-.3,0-1.44,0-1.75A1.64,1.64,0,0,0,213.19,435.37Z" style="fill:#263238"></path><path d="M205.06,435.53,209,437.8a4.81,4.81,0,0,0,4.34.08c1.16-.67,1.1-1.8-.14-2.51l-3.93-2.27a4.81,4.81,0,0,0-4.34-.08C203.76,433.69,203.82,434.81,205.06,435.53Z" style="fill:#455a64"></path><path d="M240.92,451.36,237,449.09a4.81,4.81,0,0,0-4.34-.08,1.42,1.42,0,0,0-.83,1.17v1.73a1.62,1.62,0,0,0,1,1.3l3.93,2.27a4.78,4.78,0,0,0,4.34.08,1.41,1.41,0,0,0,.83-1.16v-1.75A1.64,1.64,0,0,0,240.92,451.36Z" style="fill:#263238"></path><path d="M232.79,451.52l3.93,2.27a4.81,4.81,0,0,0,4.34.08c1.16-.67,1.1-1.8-.14-2.51L237,449.09a4.81,4.81,0,0,0-4.34-.08C231.49,449.68,231.55,450.8,232.79,451.52Z" style="fill:#455a64"></path><path d="M253.25,412.35l-3.93-2.27A4.83,4.83,0,0,0,245,410a1.41,1.41,0,0,0-.82,1.17c0,.3,0,1.43,0,1.73a1.61,1.61,0,0,0,1,1.31l3.93,2.26a4.77,4.77,0,0,0,4.35.08,1.4,1.4,0,0,0,.82-1.16c0-.29,0-1.44,0-1.74A1.63,1.63,0,0,0,253.25,412.35Z" style="fill:#263238"></path><path d="M245.11,412.51l3.93,2.27a4.83,4.83,0,0,0,4.35.08c1.16-.67,1.1-1.79-.14-2.51l-3.93-2.27A4.83,4.83,0,0,0,245,410C243.81,410.67,243.87,411.8,245.11,412.51Z" style="fill:#455a64"></path><path d="M281,428.34l-3.93-2.27a4.83,4.83,0,0,0-4.35-.08,1.41,1.41,0,0,0-.82,1.17c0,.3,0,1.43,0,1.73a1.61,1.61,0,0,0,1,1.31l3.93,2.26a4.77,4.77,0,0,0,4.35.08,1.42,1.42,0,0,0,.82-1.16c0-.29,0-1.44,0-1.74A1.63,1.63,0,0,0,281,428.34Z" style="fill:#263238"></path><path d="M272.84,428.5l3.93,2.27a4.83,4.83,0,0,0,4.35.08c1.16-.67,1.1-1.79-.14-2.51l-3.93-2.27a4.83,4.83,0,0,0-4.35-.08C271.54,426.66,271.6,427.79,272.84,428.5Z" style="fill:#455a64"></path><path d="M289.76,436a3,3,0,0,0,1.63-.46c1.11-.7,1.64-2.07,1.49-3.85l-12.19-140.9-2.07.17,12.19,140.9c.08.95-.12,1.67-.53,1.93s-1.15.14-2-.34l-43.7-25.23a8.53,8.53,0,0,1-3.82-6.83l4.06-131.18-2.07-.06-4.06,131.17a10.55,10.55,0,0,0,4.85,8.7l43.7,25.23A5.07,5.07,0,0,0,289.76,436Z" style="fill:#263238"></path><rect x="248.09" y="399.14" width="43.15" height="2.07" transform="translate(-163.96 188.44) rotate(-30)" style="fill:#263238"></rect><rect x="200.57" y="372.64" width="43.21" height="2.07" transform="translate(-157.07 161.15) rotate(-30)" style="fill:#263238"></rect><path d="M249.79,459.08a3.19,3.19,0,0,0,1.67-.45,4.06,4.06,0,0,0,1.73-3.82l-4.07-145.74-2.07.05,4.06,145.75a1.65,1.65,0,0,1-2.79,1.66l-43.7-25.23a7.86,7.86,0,0,1-3.53-6.76l12.18-136-2.06-.18L199,424.36a9.85,9.85,0,0,0,4.56,8.73l43.7,25.23A5,5,0,0,0,249.79,459.08Z" style="fill:#37474f"></path><g id="freepik--chair--inject-44"><path d="M275.7,275.38c-16.43-9.49-43.07-9.49-59.5,0-8.21,4.74-12.32,11-12.31,17.18v7.63c0,6.22,4.1,12.43,12.31,17.18,16.43,9.48,43.07,9.48,59.5,0,8.22-4.75,12.32-11,12.32-17.18v-7.63C288,286.34,283.92,280.12,275.7,275.38Z" style="fill:#263238"></path><path d="M275.7,271.67c-16.43-9.49-43.07-9.49-59.5,0-8.21,4.74-12.32,11-12.31,17.18v7.63c0,6.22,4.1,12.43,12.31,17.18,16.43,9.49,43.07,9.49,59.5,0,8.22-4.75,12.32-11,12.32-17.18v-7.63C288,282.63,283.92,276.41,275.7,271.67Z" style="fill:#407BFF"></path><path d="M275.7,271.67c-16.43-9.49-43.07-9.49-59.5,0-8.21,4.74-12.32,11-12.31,17.18v7.63c0,6.22,4.1,12.43,12.31,17.18,16.43,9.49,43.07,9.49,59.5,0,8.22-4.75,12.32-11,12.32-17.18v-7.63C288,282.63,283.92,276.41,275.7,271.67Z" style="opacity:0.30000000000000004"></path><ellipse cx="245.95" cy="288.85" rx="42.07" ry="24.29" style="fill:#407BFF"></ellipse><ellipse cx="245.95" cy="288.85" rx="42.07" ry="24.29" style="opacity:0.1"></ellipse></g></g><g id="freepik--character--inject-44"><g id="freepik--bottom--inject-44"><path d="M286.2,353.21s-9.59,15.71-11,22.28c-1.49,6.86-3.53,8.88-3.58,16.58,0,1.68.32,5.11.32,6.47a2,2,0,0,1-2.18,2.16c-3.1.14-7.17-6.31-8.54-12.82a183.17,183.17,0,0,1-2.43-22.59,9.6,9.6,0,0,1,1.73-4.68,14.53,14.53,0,0,1,1.79-2.28c1.48-2.85,2.89-8.49,4.37-12.32Z" style="fill:#ffa8a7"></path><path d="M251.88,370.64a7.27,7.27,0,0,0-1.17,2.14c-.3,1.37,2.08,6.41,3,8.27a11.21,11.21,0,0,1,1,8.22c-.9,4.39.36,9,2.62,13.05a30.68,30.68,0,0,0,13.48,12.32c6.91,3.42,10.07.19,10.07.19s2.83-3.15,1.71-4.81S251.88,370.64,251.88,370.64Z" style="fill:#263238"></path><path d="M262.29,358.33c-.22-.05-.6-.17-1.28.42-.26.23-2.12,3.29-3.5,4.83s-4.81,4.33-5.63,7.06c.81,5.68,5.26,10.25,5.2,15.47s-.95,11.15,5.87,18.66,14.77,9.46,17.94,8.28,3.4-4.32.32-10.88c-3.26-7-3.94-21-3.94-21a44.63,44.63,0,0,1,.18-5.9c.15-1.89,1-3.79,1.47-5.63A4.29,4.29,0,0,0,279,367a4.41,4.41,0,0,0-1.91-1.84,19.53,19.53,0,0,0-3.8-2,6.47,6.47,0,0,0-4.23-.17c-1,.34-1.85,1-2.86,1.23a3.74,3.74,0,0,1-3.73-1.31,3.21,3.21,0,0,1-.47-3.7S262.29,358.33,262.29,358.33Z" style="fill:#455a64"></path><path d="M259.19,399s4-5.68,12.35-4.3,10.5,6.09,11.36,8.78c1,3.21,1.72,8.84-2,9.82-4,1.06-8.19-.15-14.39-4.63S259.19,399,259.19,399Z" style="fill:#fafafa"></path><path d="M264.77,374.22a.86.86,0,0,0,.76.12c1.39-.44,8.42-.76,11.78,3.56.58-.33.6-1.1.12-2.27-4.16-3.69-10.81-3.42-12.49-2.88a.8.8,0,0,0-.5,1.05A.87.87,0,0,0,264.77,374.22Z" style="fill:#fafafa"></path><path d="M277.38,382.88a2.59,2.59,0,0,0-.11-2.36c-4.17-3.22-10.34-2.95-12-2.44a.8.8,0,0,0-.5,1.05,1,1,0,0,0,.33.43.89.89,0,0,0,.76.12C267.25,379.24,273.92,379,277.38,382.88Z" style="fill:#fafafa"></path><path d="M279,394.67a4.77,4.77,0,0,0-.58-3.18c-4.16-3.54-10.65-3.27-12.31-2.74a.79.79,0,0,0-.5,1.05.84.84,0,0,0,.33.43.88.88,0,0,0,.76.12C268.11,389.88,275.86,389.55,279,394.67Z" style="fill:#fafafa"></path><path d="M265.51,384.89a.86.86,0,0,0,.76.12c1.38-.44,8.26-.74,11.67,3.42a3,3,0,0,0-.3-2.58c-4.16-3.22-10.34-3-11.95-2.43a.8.8,0,0,0-.51,1.05A.93.93,0,0,0,265.51,384.89Z" style="fill:#fafafa"></path><path d="M289.92,375.06s-.28,21.87,2.2,30.45,4.48,11.93,8.72,18.79c.92,1.5,3.11,4.35,3.86,5.57A2.07,2.07,0,0,1,304,433c-2.67,1.84-12.58.77-17.42-4.25s-8.42-14.62-11.16-18.48c-1-1.44-2-2.91-2.87-4.44s-.36-2.67-.21-4.15c.06-.71.48-2.63.48-2.63-.19-3.57-1.35-9.33-1.89-12.87Z" style="fill:#ffa8a7"></path><path d="M268.67,411.61a6,6,0,0,0-.14,2.14c.31,1.2,4.39,4.34,6,5.46a9.9,9.9,0,0,1,4.18,6.19c1,3.84,3.94,7,7.54,9.44a30.82,30.82,0,0,0,16.57,4.75c7.34.12,8.74-3.65,8.74-3.65s1.15-3.57-.48-4.48S268.67,411.61,268.67,411.61Z" style="fill:#263238"></path><path d="M272.59,397.86c-.2,0-.55.09-.9.82-.13.28-.48,3.42-1.05,5.17s-2.36,5.27-2,7.76c3,4.22,8.68,6.2,10.74,10.39s3.72,9.25,12.62,12.67,16.53,2,18.76-.14,1.17-4.74-4.13-8.81c-5.63-4.33-11.91-15.29-11.92-15.3a40.51,40.51,0,0,1-2.23-4.77,31.6,31.6,0,0,1-1-5,3.73,3.73,0,0,0-1-2.13,4.4,4.4,0,0,0-2.39-.75,19.93,19.93,0,0,0-4.08-.18,6.42,6.42,0,0,0-3.71,1.46,27.12,27.12,0,0,1-1.95,2.06,3.82,3.82,0,0,1-3.74.36,2.84,2.84,0,0,1-1.91-2.78Z" style="fill:#455a64"></path><path d="M286.47,431.51s1.16-6.05,8.86-8.08,11.49.89,13.32,2.72c2.19,2.18,5.07,6.4,2.3,8.58-3,2.34-7.09,3-14.24,1.72S286.47,431.51,286.47,431.51Z" style="fill:#fafafa"></path><path d="M280.69,409.08a.81.81,0,0,0,.72-.21c1-1,7.11-4.18,11.87-1.77.37-.53.07-1.22-.84-2-5.21-1.53-11,1.47-12.21,2.65a.79.79,0,0,0,0,1.14A.81.81,0,0,0,280.69,409.08Z" style="fill:#fafafa"></path><path d="M295.41,411.47a2.54,2.54,0,0,0-1.08-2c-5-1.11-10.35,1.7-11.55,2.83a.79.79,0,0,0,0,1.14.88.88,0,0,0,1.19,0C285,412.48,290.73,409.44,295.41,411.47Z" style="fill:#fafafa"></path><path d="M301.89,420.84a4.73,4.73,0,0,0-1.83-2.57c-5.14-1.38-10.76,1.56-12,2.72a.78.78,0,0,0,0,1.13.92.92,0,0,0,.47.24.86.86,0,0,0,.72-.21C290.34,421.12,297,417.61,301.89,420.84Z" style="fill:#fafafa"></path><path d="M286,418.15a.86.86,0,0,0,.72-.21c1-1,7-4.1,11.71-1.85a2.89,2.89,0,0,0-1.33-2.15c-5-1.1-10.35,1.71-11.56,2.83a.78.78,0,0,0,0,1.14A.86.86,0,0,0,286,418.15Z" style="fill:#fafafa"></path><path d="M266.64,250.38c7.27,6.18,33,26.62,43.15,39.56,2.92,3.74,1.58,11.2-.74,20.19C305.89,322.33,289.3,363,289.3,363c-1.72,2.16-3.35-2.74-3.35-2.74l-36.84-66.46Z" style="fill:#37474f"></path><path d="M289.42,349.48c-9.28-10.71-31.75-67.72-31.75-67.72l1.51-.08a19.59,19.59,0,0,0,13.67-12.59c-.68,7.49-4.48,11.23-7.24,14,2.35,2.81,10.32,12.75,19.66,23,2.34,2.57,4.66,5.64,4.8,10.64C290.39,328.63,290.06,347.17,289.42,349.48Z" style="fill:#263238"></path><path d="M263.94,250.9h0L207,252.11c-1.5,16.18-.13,26,2,32.24A44.41,44.41,0,0,0,223.29,304c19.61,14.66,32.1,20,35.48,22.3,2.54,1.75,1.81,4.61.75,13.93-.86,7.66,0,15.89,3.85,27.79,5.3,16.41,7.67,21.28,7.67,21.28s11,3,19.56-2.36c0,0-1.6-54.43-2.23-64.29-.35-5.5.08-8.3-5.56-15.21-4.84-5.91-23.63-25.75-23.63-25.75S268.05,266.49,263.94,250.9Z" style="fill:#37474f"></path></g><g id="freepik--top--inject-44"><path d="M266.23,192.15c9.55,2.6,12.58,5.19,16.59,15.16,3.58,8.9,12.93,38.28,12.93,38.28l-18,6.77-13.44-34.47Z" style="fill:#ffa8a7"></path><path d="M231,208.25c2.45-1.14,4.81-2.39,7.63-2.4,2.66,0,5.55.3,7.92-1,3.45-2,4.26-6.66,3.73-10.6s-2-7.81-1.71-11.78c.36-4.46,3-8.65,2.57-13.1-.67-7.35-9.11-12-10.07-19.37-.28-2.1.1-4.26-.25-6.36-1.65-9.78-16.61-12.6-22.57-4.05-1.18,1.7-2.08,3.58-3.1,5.38a11.34,11.34,0,0,1-4,4.3c-2.13,1.31-4.48,1.51-6.66,2.48a10.87,10.87,0,0,0-5.06,4.58,10.72,10.72,0,0,0-1.15,7.44c.58,2.4,2.61,4.23,3.34,6.6.61,2-.93,4.4-2.2,5.82a32.79,32.79,0,0,0-3.73,4.27,9,9,0,0,0,2.2,11.51c2,1.49,4.72,2.22,5.92,4.4.91,1.66.65,3.7,1,5.56a9.7,9.7,0,0,0,4.08,5.81,16.67,16.67,0,0,0,6.75,2.56,26.77,26.77,0,0,0,12.1-.72A24.11,24.11,0,0,0,231,208.25Z" style="fill:#37474f"></path><path d="M239.57,187.82A131.29,131.29,0,0,0,223.86,191c-6.39,1.77-13.64,19.56-15.87,43.25-1.1,11.74-2.94,23.65-1.54,39.4,28.56,5.16,57.88-.18,67-17.74a26.08,26.08,0,0,0-4.91-13.35,12.21,12.21,0,0,0,1.29-8.9s8.35-3.45,8.78-12.77c.38-8.29-4-18.34-12.16-28.74l-9.69-2.79Z" style="fill:#407BFF"></path><path d="M239.57,187.82A131.29,131.29,0,0,0,223.86,191c-6.39,1.77-13.64,19.56-15.87,43.25-1.1,11.74-2.94,23.65-1.54,39.4,28.56,5.16,57.88-.18,67-17.74a26.08,26.08,0,0,0-4.91-13.35,12.21,12.21,0,0,0,1.29-8.9s8.35-3.45,8.78-12.77c.38-8.29-4-18.34-12.16-28.74l-9.69-2.79Z" style="fill:#fff;opacity:0.8"></path><path d="M256.37,233.7c-7.52,3.83-22.92,3.7-28.2-6.86C228.86,237.21,247,244.2,256.37,233.7Z" style="fill:#407BFF;opacity:0.30000000000000004"></path><path d="M271.6,132.64c-4.22-4-10.69-6.43-20.35-5.21-20,2.54-24.28,17.38-22,27,3.12,13.34,8.9,17.13,11.81,25.8l33.73-28.42c2.25,2.51,4,4.23,4,4.23l.18.32c3.62.12,5.49-4.48,3.07-6.63C285.06,145.52,286.75,133.24,271.6,132.64Z" style="fill:#455a64"></path><path d="M280.11,163.39c0,12.05-4.41,15.94-6.89,17.09a17.54,17.54,0,0,1-10.68,1.39L259.46,191c7.75,18.81-16,15.58-20.56-2.23l4.59-18.26s-3.11,2.25-7.73-.78a8.42,8.42,0,0,1-2.41-12.17c2-2.41,7.13-2.59,8.55.47a8.34,8.34,0,0,1,.58,3.44,2.35,2.35,0,0,0,.37,1.57,1.76,1.76,0,0,0,1.85.33c3.28-1,2.11-4.52,2.25-7,5.14-2.07,5.13-7.05,5.65-11.69,3.5-4.11,19.43-5.32,22.34-4.3.92.59,2.29,3.22,3,6.34A102.28,102.28,0,0,1,280.11,163.39Z" style="fill:#ffa8a7"></path><path d="M239.76,166.85a3.58,3.58,0,0,1,3.27,1s1.35-1,2.3-.16a4.34,4.34,0,0,1,1.23,2s1.41-1.12,2.48,0a6.78,6.78,0,0,1,1.46,2.45s1.27-.58,2.5,1.07a10.59,10.59,0,0,0,4.48,3.7c1.77.63,1,1.77-.87,2.38s-17.55-11.6-17.55-11.6Z" style="fill:#f28f8f"></path><path d="M262.53,181.87c-4-.88-8.45-2.22-11.52-4.4a14.07,14.07,0,0,1-4.63-5.95s.6,5.93,3.7,8.48,11.32,5.26,11.32,5.26Z" style="fill:#f28f8f"></path><path d="M260.85,157.8a2,2,0,1,1-2.22-1.85A2,2,0,0,1,260.85,157.8Z" style="fill:#263238"></path><path d="M276.21,155.87a2,2,0,0,1-1.71,2.22,1.87,1.87,0,0,1-2.15-1.8,1.94,1.94,0,1,1,3.86-.42Z" style="fill:#263238"></path><polygon points="265.82 153.06 267.16 167.56 273.84 165 265.82 153.06" style="fill:#f28f8f"></polygon><path d="M263.94,172.27a.18.18,0,0,0-.07-.05s0,0,0,0l0,0,0,0-.18-.09-.33-.18a.15.15,0,0,0-.13,0,.18.18,0,0,0-.08.11.31.31,0,0,0,.13.3l.33.18.18.09.08,0a.15.15,0,0,0,.13,0,.12.12,0,0,0,.08-.09.29.29,0,0,0,0-.18A.25.25,0,0,0,263.94,172.27Zm3.38.51a2.22,2.22,0,0,0-.24-.65,4.81,4.81,0,0,0-.4-.52,3.58,3.58,0,0,0-1.2-1,5.63,5.63,0,0,0-1.33-.51,5.69,5.69,0,0,0-1.63-.24c-.54,0-.46.66,0,.77s.91.15,1.36.27a8.43,8.43,0,0,1,1.16.41c.31.15.63.32.94.5a3.39,3.39,0,0,1,.64.49c.2.21.42.39.63.59S267.33,172.82,267.32,172.78Z" style="fill:#b16668"></path><path d="M254.77,153.05l3.68-3.81a2.79,2.79,0,0,1,.06,3.85A2.59,2.59,0,0,1,254.77,153.05Z" style="fill:#263238"></path><path d="M272.77,147.65l4.4,3a2.57,2.57,0,0,1-3.65.76A2.81,2.81,0,0,1,272.77,147.65Z" style="fill:#263238"></path><path d="M223.86,191c-8.93,2.31-12.24,9.05-12.17,14.63s3.82,14.73,11.8,30.2c6.57,12.73,11.91,11.07,11.91,11.07l6.88-15.07-9.88-29.75S229,191.29,223.86,191Z" style="fill:#ffa8a7"></path><path d="M234.42,208.17c-4,4.09-8.72,13.93-7.59,22l9-17.92Z" style="fill:#f28f8f"></path><path d="M256.89,192.3c1-3.62,1.72-6.74,1.14-8.59-.8-2.53-2.09-2.87-2.09-2.87a3.87,3.87,0,0,0,1.33-.62,1.56,1.56,0,0,0,.63-1.3c0-.69-1.46-1-2.06-1.32a15.09,15.09,0,0,1-4.21-3.57,2.49,2.49,0,0,0-1.71-.91c-.53-1.23-1.07-2.34-2-2.69a2.43,2.43,0,0,0-1.92.06,3.74,3.74,0,0,0-1.76-2,2.68,2.68,0,0,0-2,.18,10.06,10.06,0,0,0-1.58-1.48,3,3,0,0,0-3.42.42c-1.24,1-1.6,2.48-2.1,3.92a23.58,23.58,0,0,0-1,4,31.92,31.92,0,0,0-.43,3.78,5.14,5.14,0,0,0,.27,2.17c.71,1.51,9.7,9.4,9.7,9.4-.28,5.11-14.2,27.85-16.27,34.77-2.15,7.23,1.48,18.85,5,20.44s8,1.55,12.89-7.17C250.83,229.26,254.51,201.26,256.89,192.3Z" style="fill:#ffa8a7"></path><path d="M256.09,180.64a6,6,0,0,1-2.39.16,3.9,3.9,0,0,1-2.88-1.36s-.4-3.28-.73-3,0,2.86,0,2.86a4.72,4.72,0,0,1-1.41-.95c-.66.5.35,1.18,1.38,1.71a12,12,0,0,0,1.88.94,9.31,9.31,0,0,0,3.19.32,2.23,2.23,0,0,1,1.87.52C256.6,181.4,256.09,180.64,256.09,180.64Z" style="fill:#b16668"></path><path d="M250.52,173.17c-.12,0-.23.14-.35.13a5.45,5.45,0,0,0-3.68,1.5,15.81,15.81,0,0,0-3.11,3.85,6.66,6.66,0,0,1,2-3.58C247.31,173.07,249.32,172.54,250.52,173.17Z" style="fill:#b16668"></path><path d="M246.11,170.27v.38a13.5,13.5,0,0,0-6.45,6.31s0-1.71,2.48-4.28A9,9,0,0,1,246.11,170.27Z" style="fill:#b16668"></path><path d="M241.76,168.09a7.44,7.44,0,0,0-2.51,2.49,14.42,14.42,0,0,0-2.35,4.64c.62-1.23,2.79-5.2,5.71-6.47A1.42,1.42,0,0,1,241.76,168.09Z" style="fill:#b16668"></path><path d="M240.71,188a13.39,13.39,0,0,0,7.85,2.82,11,11,0,0,1-4.79.06Z" style="fill:#b16668"></path><path d="M251.12,220.84c1.48-6.77,2.64-13.59,3.93-20.39.64-3.4,1.32-6.81,2.24-10.14a22.7,22.7,0,0,0,.81-5.08,5.34,5.34,0,0,0-.57-2.45,3.52,3.52,0,0,0-1.62-1.81h0a.14.14,0,0,1-.08-.18.2.2,0,0,1,.08-.08,3.38,3.38,0,0,0,1.39-.7,1.68,1.68,0,0,0,.41-.62c.06-.23.11-.52,0-.67a3.17,3.17,0,0,0-1.33-.74,7.13,7.13,0,0,1-1.47-.78,12.47,12.47,0,0,1-2.5-2.14c-.38-.39-.75-.81-1.12-1.17a2,2,0,0,0-1.34-.61.15.15,0,0,1-.16-.09,7,7,0,0,0-1.33-2.25,1.91,1.91,0,0,0-1.11-.49,2.54,2.54,0,0,0-1.24.2.16.16,0,0,1-.22-.09h0a3.65,3.65,0,0,0-1.38-1.73,2.28,2.28,0,0,0-2.11,0,.19.19,0,0,1-.21,0,6.43,6.43,0,0,0-1.86-1.61,2.79,2.79,0,0,0-2.34.19,4.14,4.14,0,0,0-1.68,1.76,17.92,17.92,0,0,0-.92,2.35,22.13,22.13,0,0,0-1.11,5L234,179a6.64,6.64,0,0,0,0,1.26,3,3,0,0,0,.24,1.18v0a17.15,17.15,0,0,0,2.21,2.49c.8.79,1.61,1.57,2.44,2.34,1.64,1.54,3.32,3.05,5,4.54a.1.1,0,0,1,0,.08,10.32,10.32,0,0,1-.67,2.58c-.29.83-.64,1.64-1,2.44-.71,1.61-1.48,3.19-2.27,4.76-1.59,3.14-3.25,6.24-4.9,9.34,1.62-3.12,3.24-6.24,4.79-9.39.77-1.58,1.53-3.17,2.23-4.78.34-.8.68-1.61,1-2.44a9.72,9.72,0,0,0,.64-2.52l0,.08c-1.69-1.49-3.37-3-5-4.53-.83-.77-1.65-1.54-2.45-2.33a16.36,16.36,0,0,1-2.27-2.56v0a3,3,0,0,1-.29-1.3,7.06,7.06,0,0,1,0-1.3l.28-2.55a22.68,22.68,0,0,1,1.11-5A16.75,16.75,0,0,1,236,169a4.44,4.44,0,0,1,1.8-1.89,3.11,3.11,0,0,1,2.6-.21,6.68,6.68,0,0,1,2,1.69l-.2,0a3,3,0,0,1,1.21-.31,2.26,2.26,0,0,1,1.22.27,4,4,0,0,1,1.54,1.9l-.22-.09a2.77,2.77,0,0,1,1.4-.23,2.29,2.29,0,0,1,1.3.59,7.2,7.2,0,0,1,1.4,2.36l-.16-.1a2.25,2.25,0,0,1,1.57.7c.41.39.75.79,1.13,1.19a12.49,12.49,0,0,0,2.44,2.1,7.16,7.16,0,0,0,1.41.76,3.3,3.3,0,0,1,1.47.85,1.48,1.48,0,0,1-.44,1.65,3.68,3.68,0,0,1-1.5.76v-.26a3.63,3.63,0,0,1,1.78,2,5.63,5.63,0,0,1,.6,2.55,22.82,22.82,0,0,1-.85,5.14c-.92,3.34-1.61,6.73-2.27,10.13C254,207.28,252.66,214.09,251.12,220.84Z" style="fill:#b16668"></path><path d="M278.1,239.46c-1.86,3.72-1.56,11.9.13,19,1.2,5,1.42,9.71,2.2,14.83.42,2.76.79,5.53,1,8.31.08,1.23.17,2.43.31,3.64a11.12,11.12,0,0,1-1.15,5.2c-1.95,5.07-2.89,10.46-3.82,15.81a.79.79,0,0,0,0,.55c.15.23.48.24.76.2a5.81,5.81,0,0,0,3.69-3.13,41.38,41.38,0,0,1,2.32-4.43c.68,2.67,0,5.48-.81,8.11s-1.65,5-2.62,7.43c-.47,1.17-.86,2.51.27,3.48a2.17,2.17,0,0,0,2.06.39c.34.68.14,1.57.61,2.17a1.56,1.56,0,0,0,1.62.45,3.75,3.75,0,0,0,1.52-.9A17.57,17.57,0,0,0,288,318.8a1.88,1.88,0,0,1,.62-.54,4.33,4.33,0,0,1,.89-.11c.95-.13,1.53-1.08,1.92-1.95a21.66,21.66,0,0,0,1.08-2.95.83.83,0,0,1,.16-.36,1.33,1.33,0,0,1,.39-.21c1.92-.8,2.19-4.06,2.62-5.78.38-1.5.75-3,1.13-4.5a23.07,23.07,0,0,0,.27-6.27c-.14-6-1.51-9.52-1.37-15.56.17-7.41,1.45-28.65,0-35-.88-3.87-2.44-7.58-4.71-14.18C289.88,228,280,235.74,278.1,239.46Z" style="fill:#ffa8a7"></path></g></g></g></svg>
